solid CATIA STL
  facet normal -9.238799e-001 -3.826824e-001  -0.000000e+000
    outer loop
      vertex  1.973723e+002  1.137122e+001  0.000000e+000
      vertex  1.968450e+002  1.264402e+001  1.500000e+000
      vertex  1.968450e+002  1.264402e+001  0.000000e+000
    endloop
  endfacet
  facet normal -3.826820e-001 -9.238801e-001  0.000000e+000
    outer loop
      vertex  1.968450e+002  1.264402e+001  0.000000e+000
      vertex  1.968450e+002  1.264402e+001  1.500000e+000
      vertex  1.955723e+002  1.317122e+001  1.500000e+000
    endloop
  endfacet
  facet normal -3.826820e-001 -9.238801e-001  -0.000000e+000
    outer loop
      vertex  1.968450e+002  1.264402e+001  0.000000e+000
      vertex  1.955723e+002  1.317122e+001  1.500000e+000
      vertex  1.955723e+002  1.317122e+001 -2.498002e-016
    endloop
  endfacet
  facet normal -9.238799e-001 -3.826824e-001  0.000000e+000
    outer loop
      vertex  1.968450e+002  1.264402e+001  1.500000e+000
      vertex  1.973723e+002  1.137122e+001  0.000000e+000
      vertex  1.973723e+002  1.137122e+001  1.500000e+000
    endloop
  endfacet
  facet normal -9.238799e-001  3.826827e-001  0.000000e+000
    outer loop
      vertex  1.973723e+002  1.137122e+001  1.500000e+000
      vertex  1.973723e+002  1.137122e+001  0.000000e+000
      vertex  1.968450e+002  1.009843e+001  0.000000e+000
    endloop
  endfacet
  facet normal -9.238799e-001  3.826827e-001  0.000000e+000
    outer loop
      vertex  1.973723e+002  1.137122e+001  1.500000e+000
      vertex  1.968450e+002  1.009843e+001  0.000000e+000
      vertex  1.968450e+002  1.009843e+001  1.500000e+000
    endloop
  endfacet
  facet normal -3.826820e-001  9.238801e-001  0.000000e+000
    outer loop
      vertex  1.968450e+002  1.009843e+001  1.500000e+000
      vertex  1.968450e+002  1.009843e+001  0.000000e+000
      vertex  1.955723e+002  9.571223e+000  2.498002e-016
    endloop
  endfacet
  facet normal -3.826820e-001  9.238801e-001  0.000000e+000
    outer loop
      vertex  1.968450e+002  1.009843e+001  1.500000e+000
      vertex  1.955723e+002  9.571223e+000  2.498002e-016
      vertex  1.955723e+002  9.571223e+000  1.500000e+000
    endloop
  endfacet
  facet normal  9.238799e-001  3.826827e-001  0.000000e+000
    outer loop
      vertex  1.937722e+002  1.137122e+001  0.000000e+000
      vertex  1.942995e+002  1.009843e+001  1.500000e+000
      vertex  1.942995e+002  1.009843e+001  0.000000e+000
    endloop
  endfacet
  facet normal  3.826820e-001  9.238801e-001  -0.000000e+000
    outer loop
      vertex  1.942995e+002  1.009843e+001  0.000000e+000
      vertex  1.942995e+002  1.009843e+001  1.500000e+000
      vertex  1.955723e+002  9.571223e+000  1.500000e+000
    endloop
  endfacet
  facet normal  3.826820e-001  9.238801e-001  0.000000e+000
    outer loop
      vertex  1.942995e+002  1.009843e+001  0.000000e+000
      vertex  1.955723e+002  9.571223e+000  1.500000e+000
      vertex  1.955723e+002  9.571223e+000  2.498002e-016
    endloop
  endfacet
  facet normal  9.238799e-001  3.826827e-001  -0.000000e+000
    outer loop
      vertex  1.942995e+002  1.009843e+001  1.500000e+000
      vertex  1.937722e+002  1.137122e+001  0.000000e+000
      vertex  1.937722e+002  1.137122e+001  1.500000e+000
    endloop
  endfacet
  facet normal  9.238799e-001 -3.826824e-001  0.000000e+000
    outer loop
      vertex  1.937722e+002  1.137122e+001  1.500000e+000
      vertex  1.937722e+002  1.137122e+001  0.000000e+000
      vertex  1.942995e+002  1.264402e+001  0.000000e+000
    endloop
  endfacet
  facet normal  9.238799e-001 -3.826824e-001  0.000000e+000
    outer loop
      vertex  1.937722e+002  1.137122e+001  1.500000e+000
      vertex  1.942995e+002  1.264402e+001  0.000000e+000
      vertex  1.942995e+002  1.264402e+001  1.500000e+000
    endloop
  endfacet
  facet normal  3.826820e-001 -9.238801e-001  0.000000e+000
    outer loop
      vertex  1.942995e+002  1.264402e+001  1.500000e+000
      vertex  1.942995e+002  1.264402e+001  0.000000e+000
      vertex  1.955723e+002  1.317122e+001 -2.498002e-016
    endloop
  endfacet
  facet normal  3.826820e-001 -9.238801e-001  0.000000e+000
    outer loop
      vertex  1.942995e+002  1.264402e+001  1.500000e+000
      vertex  1.955723e+002  1.317122e+001 -2.498002e-016
      vertex  1.955723e+002  1.317122e+001  1.500000e+000
    endloop
  endfacet
  facet normal -9.238799e-001 -3.826824e-001  -0.000000e+000
    outer loop
      vertex  1.633723e+002  1.137122e+001  0.000000e+000
      vertex  1.628450e+002  1.264402e+001  1.500000e+000
      vertex  1.628450e+002  1.264402e+001  0.000000e+000
    endloop
  endfacet
  facet normal -3.826820e-001 -9.238801e-001  0.000000e+000
    outer loop
      vertex  1.628450e+002  1.264402e+001  0.000000e+000
      vertex  1.628450e+002  1.264402e+001  1.500000e+000
      vertex  1.615723e+002  1.317122e+001  1.500000e+000
    endloop
  endfacet
  facet normal -3.826820e-001 -9.238801e-001  -0.000000e+000
    outer loop
      vertex  1.628450e+002  1.264402e+001  0.000000e+000
      vertex  1.615723e+002  1.317122e+001  1.500000e+000
      vertex  1.615723e+002  1.317122e+001 -2.498002e-016
    endloop
  endfacet
  facet normal -9.238799e-001 -3.826824e-001  0.000000e+000
    outer loop
      vertex  1.628450e+002  1.264402e+001  1.500000e+000
      vertex  1.633723e+002  1.137122e+001  0.000000e+000
      vertex  1.633723e+002  1.137122e+001  1.500000e+000
    endloop
  endfacet
  facet normal -9.238799e-001  3.826827e-001  0.000000e+000
    outer loop
      vertex  1.633723e+002  1.137122e+001  1.500000e+000
      vertex  1.633723e+002  1.137122e+001  0.000000e+000
      vertex  1.628450e+002  1.009843e+001  0.000000e+000
    endloop
  endfacet
  facet normal -9.238799e-001  3.826827e-001  0.000000e+000
    outer loop
      vertex  1.633723e+002  1.137122e+001  1.500000e+000
      vertex  1.628450e+002  1.009843e+001  0.000000e+000
      vertex  1.628450e+002  1.009843e+001  1.500000e+000
    endloop
  endfacet
  facet normal -3.826820e-001  9.238801e-001  0.000000e+000
    outer loop
      vertex  1.628450e+002  1.009843e+001  1.500000e+000
      vertex  1.628450e+002  1.009843e+001  0.000000e+000
      vertex  1.615723e+002  9.571223e+000  2.498002e-016
    endloop
  endfacet
  facet normal -3.826820e-001  9.238801e-001  0.000000e+000
    outer loop
      vertex  1.628450e+002  1.009843e+001  1.500000e+000
      vertex  1.615723e+002  9.571223e+000  2.498002e-016
      vertex  1.615723e+002  9.571223e+000  1.500000e+000
    endloop
  endfacet
  facet normal  9.238799e-001  3.826827e-001  0.000000e+000
    outer loop
      vertex  1.597722e+002  1.137122e+001  0.000000e+000
      vertex  1.602995e+002  1.009843e+001  1.500000e+000
      vertex  1.602995e+002  1.009843e+001  0.000000e+000
    endloop
  endfacet
  facet normal  3.826820e-001  9.238801e-001  -0.000000e+000
    outer loop
      vertex  1.602995e+002  1.009843e+001  0.000000e+000
      vertex  1.602995e+002  1.009843e+001  1.500000e+000
      vertex  1.615723e+002  9.571223e+000  1.500000e+000
    endloop
  endfacet
  facet normal  3.826820e-001  9.238801e-001  0.000000e+000
    outer loop
      vertex  1.602995e+002  1.009843e+001  0.000000e+000
      vertex  1.615723e+002  9.571223e+000  1.500000e+000
      vertex  1.615723e+002  9.571223e+000  2.498002e-016
    endloop
  endfacet
  facet normal  9.238799e-001  3.826827e-001  -0.000000e+000
    outer loop
      vertex  1.602995e+002  1.009843e+001  1.500000e+000
      vertex  1.597722e+002  1.137122e+001  0.000000e+000
      vertex  1.597722e+002  1.137122e+001  1.500000e+000
    endloop
  endfacet
  facet normal  9.238799e-001 -3.826824e-001  0.000000e+000
    outer loop
      vertex  1.597722e+002  1.137122e+001  1.500000e+000
      vertex  1.597722e+002  1.137122e+001  0.000000e+000
      vertex  1.602995e+002  1.264402e+001  0.000000e+000
    endloop
  endfacet
  facet normal  9.238799e-001 -3.826824e-001  0.000000e+000
    outer loop
      vertex  1.597722e+002  1.137122e+001  1.500000e+000
      vertex  1.602995e+002  1.264402e+001  0.000000e+000
      vertex  1.602995e+002  1.264402e+001  1.500000e+000
    endloop
  endfacet
  facet normal  3.826820e-001 -9.238801e-001  0.000000e+000
    outer loop
      vertex  1.602995e+002  1.264402e+001  1.500000e+000
      vertex  1.602995e+002  1.264402e+001  0.000000e+000
      vertex  1.615723e+002  1.317122e+001 -2.498002e-016
    endloop
  endfacet
  facet normal  3.826820e-001 -9.238801e-001  0.000000e+000
    outer loop
      vertex  1.602995e+002  1.264402e+001  1.500000e+000
      vertex  1.615723e+002  1.317122e+001 -2.498002e-016
      vertex  1.615723e+002  1.317122e+001  1.500000e+000
    endloop
  endfacet
  facet normal -9.238799e-001 -3.826824e-001  -0.000000e+000
    outer loop
      vertex  1.293723e+002  1.137122e+001  0.000000e+000
      vertex  1.288450e+002  1.264402e+001  1.500000e+000
      vertex  1.288450e+002  1.264402e+001  0.000000e+000
    endloop
  endfacet
  facet normal -3.826820e-001 -9.238801e-001  0.000000e+000
    outer loop
      vertex  1.288450e+002  1.264402e+001  0.000000e+000
      vertex  1.288450e+002  1.264402e+001  1.500000e+000
      vertex  1.275723e+002  1.317122e+001  1.500000e+000
    endloop
  endfacet
  facet normal -3.826820e-001 -9.238801e-001  -0.000000e+000
    outer loop
      vertex  1.288450e+002  1.264402e+001  0.000000e+000
      vertex  1.275723e+002  1.317122e+001  1.500000e+000
      vertex  1.275723e+002  1.317122e+001 -2.498002e-016
    endloop
  endfacet
  facet normal -9.238799e-001 -3.826824e-001  0.000000e+000
    outer loop
      vertex  1.288450e+002  1.264402e+001  1.500000e+000
      vertex  1.293723e+002  1.137122e+001  0.000000e+000
      vertex  1.293723e+002  1.137122e+001  1.500000e+000
    endloop
  endfacet
  facet normal -9.238799e-001  3.826827e-001  0.000000e+000
    outer loop
      vertex  1.293723e+002  1.137122e+001  1.500000e+000
      vertex  1.293723e+002  1.137122e+001  0.000000e+000
      vertex  1.288450e+002  1.009843e+001  0.000000e+000
    endloop
  endfacet
  facet normal -9.238799e-001  3.826827e-001  0.000000e+000
    outer loop
      vertex  1.293723e+002  1.137122e+001  1.500000e+000
      vertex  1.288450e+002  1.009843e+001  0.000000e+000
      vertex  1.288450e+002  1.009843e+001  1.500000e+000
    endloop
  endfacet
  facet normal -3.826820e-001  9.238801e-001  0.000000e+000
    outer loop
      vertex  1.288450e+002  1.009843e+001  1.500000e+000
      vertex  1.288450e+002  1.009843e+001  0.000000e+000
      vertex  1.275723e+002  9.571223e+000  2.498002e-016
    endloop
  endfacet
  facet normal -3.826820e-001  9.238801e-001  0.000000e+000
    outer loop
      vertex  1.288450e+002  1.009843e+001  1.500000e+000
      vertex  1.275723e+002  9.571223e+000  2.498002e-016
      vertex  1.275723e+002  9.571223e+000  1.500000e+000
    endloop
  endfacet
  facet normal  9.238799e-001  3.826827e-001  0.000000e+000
    outer loop
      vertex  1.257722e+002  1.137122e+001  0.000000e+000
      vertex  1.262995e+002  1.009843e+001  1.500000e+000
      vertex  1.262995e+002  1.009843e+001  0.000000e+000
    endloop
  endfacet
  facet normal  3.826820e-001  9.238801e-001  -0.000000e+000
    outer loop
      vertex  1.262995e+002  1.009843e+001  0.000000e+000
      vertex  1.262995e+002  1.009843e+001  1.500000e+000
      vertex  1.275723e+002  9.571223e+000  1.500000e+000
    endloop
  endfacet
  facet normal  3.826820e-001  9.238801e-001  0.000000e+000
    outer loop
      vertex  1.262995e+002  1.009843e+001  0.000000e+000
      vertex  1.275723e+002  9.571223e+000  1.500000e+000
      vertex  1.275723e+002  9.571223e+000  2.498002e-016
    endloop
  endfacet
  facet normal  9.238799e-001  3.826827e-001  -0.000000e+000
    outer loop
      vertex  1.262995e+002  1.009843e+001  1.500000e+000
      vertex  1.257722e+002  1.137122e+001  0.000000e+000
      vertex  1.257722e+002  1.137122e+001  1.500000e+000
    endloop
  endfacet
  facet normal  9.238799e-001 -3.826824e-001  0.000000e+000
    outer loop
      vertex  1.257722e+002  1.137122e+001  1.500000e+000
      vertex  1.257722e+002  1.137122e+001  0.000000e+000
      vertex  1.262995e+002  1.264402e+001  0.000000e+000
    endloop
  endfacet
  facet normal  9.238799e-001 -3.826824e-001  0.000000e+000
    outer loop
      vertex  1.257722e+002  1.137122e+001  1.500000e+000
      vertex  1.262995e+002  1.264402e+001  0.000000e+000
      vertex  1.262995e+002  1.264402e+001  1.500000e+000
    endloop
  endfacet
  facet normal  3.826820e-001 -9.238801e-001  0.000000e+000
    outer loop
      vertex  1.262995e+002  1.264402e+001  1.500000e+000
      vertex  1.262995e+002  1.264402e+001  0.000000e+000
      vertex  1.275723e+002  1.317122e+001 -2.498002e-016
    endloop
  endfacet
  facet normal  3.826820e-001 -9.238801e-001  0.000000e+000
    outer loop
      vertex  1.262995e+002  1.264402e+001  1.500000e+000
      vertex  1.275723e+002  1.317122e+001 -2.498002e-016
      vertex  1.275723e+002  1.317122e+001  1.500000e+000
    endloop
  endfacet
  facet normal -9.238799e-001 -3.826824e-001  -0.000000e+000
    outer loop
      vertex  9.537225e+001  1.137122e+001  0.000000e+000
      vertex  9.484504e+001  1.264402e+001  1.500000e+000
      vertex  9.484504e+001  1.264402e+001  0.000000e+000
    endloop
  endfacet
  facet normal -3.826840e-001 -9.238793e-001  0.000000e+000
    outer loop
      vertex  9.484504e+001  1.264402e+001  0.000000e+000
      vertex  9.484504e+001  1.264402e+001  1.500000e+000
      vertex  9.357225e+001  1.317122e+001  1.500000e+000
    endloop
  endfacet
  facet normal -3.826840e-001 -9.238793e-001  -0.000000e+000
    outer loop
      vertex  9.484504e+001  1.264402e+001  0.000000e+000
      vertex  9.357225e+001  1.317122e+001  1.500000e+000
      vertex  9.357225e+001  1.317122e+001 -2.498002e-016
    endloop
  endfacet
  facet normal -9.238799e-001 -3.826824e-001  0.000000e+000
    outer loop
      vertex  9.484504e+001  1.264402e+001  1.500000e+000
      vertex  9.537225e+001  1.137122e+001  0.000000e+000
      vertex  9.537225e+001  1.137122e+001  1.500000e+000
    endloop
  endfacet
  facet normal -9.238799e-001  3.826827e-001  0.000000e+000
    outer loop
      vertex  9.537225e+001  1.137122e+001  1.500000e+000
      vertex  9.537225e+001  1.137122e+001  0.000000e+000
      vertex  9.484504e+001  1.009843e+001  0.000000e+000
    endloop
  endfacet
  facet normal -9.238799e-001  3.826827e-001  0.000000e+000
    outer loop
      vertex  9.537225e+001  1.137122e+001  1.500000e+000
      vertex  9.484504e+001  1.009843e+001  0.000000e+000
      vertex  9.484504e+001  1.009843e+001  1.500000e+000
    endloop
  endfacet
  facet normal -3.826840e-001  9.238793e-001  0.000000e+000
    outer loop
      vertex  9.484504e+001  1.009843e+001  1.500000e+000
      vertex  9.484504e+001  1.009843e+001  0.000000e+000
      vertex  9.357225e+001  9.571223e+000  2.498002e-016
    endloop
  endfacet
  facet normal -3.826840e-001  9.238793e-001  0.000000e+000
    outer loop
      vertex  9.484504e+001  1.009843e+001  1.500000e+000
      vertex  9.357225e+001  9.571223e+000  2.498002e-016
      vertex  9.357225e+001  9.571223e+000  1.500000e+000
    endloop
  endfacet
  facet normal  9.238799e-001  3.826827e-001  0.000000e+000
    outer loop
      vertex  9.177225e+001  1.137122e+001  0.000000e+000
      vertex  9.229945e+001  1.009843e+001  1.500000e+000
      vertex  9.229945e+001  1.009843e+001  0.000000e+000
    endloop
  endfacet
  facet normal  3.826820e-001  9.238801e-001  -0.000000e+000
    outer loop
      vertex  9.229945e+001  1.009843e+001  0.000000e+000
      vertex  9.229945e+001  1.009843e+001  1.500000e+000
      vertex  9.357225e+001  9.571223e+000  1.500000e+000
    endloop
  endfacet
  facet normal  3.826820e-001  9.238801e-001  0.000000e+000
    outer loop
      vertex  9.229945e+001  1.009843e+001  0.000000e+000
      vertex  9.357225e+001  9.571223e+000  1.500000e+000
      vertex  9.357225e+001  9.571223e+000  2.498002e-016
    endloop
  endfacet
  facet normal  9.238799e-001  3.826827e-001  -0.000000e+000
    outer loop
      vertex  9.229945e+001  1.009843e+001  1.500000e+000
      vertex  9.177225e+001  1.137122e+001  0.000000e+000
      vertex  9.177225e+001  1.137122e+001  1.500000e+000
    endloop
  endfacet
  facet normal  9.238799e-001 -3.826824e-001  0.000000e+000
    outer loop
      vertex  9.177225e+001  1.137122e+001  1.500000e+000
      vertex  9.177225e+001  1.137122e+001  0.000000e+000
      vertex  9.229945e+001  1.264402e+001  0.000000e+000
    endloop
  endfacet
  facet normal  9.238799e-001 -3.826824e-001  0.000000e+000
    outer loop
      vertex  9.177225e+001  1.137122e+001  1.500000e+000
      vertex  9.229945e+001  1.264402e+001  0.000000e+000
      vertex  9.229945e+001  1.264402e+001  1.500000e+000
    endloop
  endfacet
  facet normal  3.826820e-001 -9.238801e-001  0.000000e+000
    outer loop
      vertex  9.229945e+001  1.264402e+001  1.500000e+000
      vertex  9.229945e+001  1.264402e+001  0.000000e+000
      vertex  9.357225e+001  1.317122e+001 -2.498002e-016
    endloop
  endfacet
  facet normal  3.826820e-001 -9.238801e-001  0.000000e+000
    outer loop
      vertex  9.229945e+001  1.264402e+001  1.500000e+000
      vertex  9.357225e+001  1.317122e+001 -2.498002e-016
      vertex  9.357225e+001  1.317122e+001  1.500000e+000
    endloop
  endfacet
  facet normal -9.238799e-001 -3.826824e-001  -0.000000e+000
    outer loop
      vertex  6.137225e+001  1.137122e+001  0.000000e+000
      vertex  6.084504e+001  1.264402e+001  1.500000e+000
      vertex  6.084504e+001  1.264402e+001  0.000000e+000
    endloop
  endfacet
  facet normal -3.826830e-001 -9.238797e-001  0.000000e+000
    outer loop
      vertex  6.084504e+001  1.264402e+001  0.000000e+000
      vertex  6.084504e+001  1.264402e+001  1.500000e+000
      vertex  5.957225e+001  1.317122e+001  1.500000e+000
    endloop
  endfacet
  facet normal -3.826830e-001 -9.238797e-001  -0.000000e+000
    outer loop
      vertex  6.084504e+001  1.264402e+001  0.000000e+000
      vertex  5.957225e+001  1.317122e+001  1.500000e+000
      vertex  5.957225e+001  1.317122e+001 -2.498002e-016
    endloop
  endfacet
  facet normal -9.238799e-001 -3.826824e-001  0.000000e+000
    outer loop
      vertex  6.084504e+001  1.264402e+001  1.500000e+000
      vertex  6.137225e+001  1.137122e+001  0.000000e+000
      vertex  6.137225e+001  1.137122e+001  1.500000e+000
    endloop
  endfacet
  facet normal -9.238799e-001  3.826827e-001  0.000000e+000
    outer loop
      vertex  6.137225e+001  1.137122e+001  1.500000e+000
      vertex  6.137225e+001  1.137122e+001  0.000000e+000
      vertex  6.084504e+001  1.009843e+001  0.000000e+000
    endloop
  endfacet
  facet normal -9.238799e-001  3.826827e-001  0.000000e+000
    outer loop
      vertex  6.137225e+001  1.137122e+001  1.500000e+000
      vertex  6.084504e+001  1.009843e+001  0.000000e+000
      vertex  6.084504e+001  1.009843e+001  1.500000e+000
    endloop
  endfacet
  facet normal -3.826830e-001  9.238797e-001  0.000000e+000
    outer loop
      vertex  6.084504e+001  1.009843e+001  1.500000e+000
      vertex  6.084504e+001  1.009843e+001  0.000000e+000
      vertex  5.957225e+001  9.571223e+000  2.498002e-016
    endloop
  endfacet
  facet normal -3.826830e-001  9.238797e-001  0.000000e+000
    outer loop
      vertex  6.084504e+001  1.009843e+001  1.500000e+000
      vertex  5.957225e+001  9.571223e+000  2.498002e-016
      vertex  5.957225e+001  9.571223e+000  1.500000e+000
    endloop
  endfacet
  facet normal  9.238799e-001  3.826827e-001  0.000000e+000
    outer loop
      vertex  5.777225e+001  1.137122e+001  0.000000e+000
      vertex  5.829945e+001  1.009843e+001  1.500000e+000
      vertex  5.829945e+001  1.009843e+001  0.000000e+000
    endloop
  endfacet
  facet normal  3.826830e-001  9.238797e-001  -0.000000e+000
    outer loop
      vertex  5.829945e+001  1.009843e+001  0.000000e+000
      vertex  5.829945e+001  1.009843e+001  1.500000e+000
      vertex  5.957225e+001  9.571223e+000  1.500000e+000
    endloop
  endfacet
  facet normal  3.826830e-001  9.238797e-001  0.000000e+000
    outer loop
      vertex  5.829945e+001  1.009843e+001  0.000000e+000
      vertex  5.957225e+001  9.571223e+000  1.500000e+000
      vertex  5.957225e+001  9.571223e+000  2.498002e-016
    endloop
  endfacet
  facet normal  9.238799e-001  3.826827e-001  -0.000000e+000
    outer loop
      vertex  5.829945e+001  1.009843e+001  1.500000e+000
      vertex  5.777225e+001  1.137122e+001  0.000000e+000
      vertex  5.777225e+001  1.137122e+001  1.500000e+000
    endloop
  endfacet
  facet normal  9.238799e-001 -3.826824e-001  0.000000e+000
    outer loop
      vertex  5.777225e+001  1.137122e+001  1.500000e+000
      vertex  5.777225e+001  1.137122e+001  0.000000e+000
      vertex  5.829945e+001  1.264402e+001  0.000000e+000
    endloop
  endfacet
  facet normal  9.238799e-001 -3.826824e-001  0.000000e+000
    outer loop
      vertex  5.777225e+001  1.137122e+001  1.500000e+000
      vertex  5.829945e+001  1.264402e+001  0.000000e+000
      vertex  5.829945e+001  1.264402e+001  1.500000e+000
    endloop
  endfacet
  facet normal  3.826830e-001 -9.238797e-001  0.000000e+000
    outer loop
      vertex  5.829945e+001  1.264402e+001  1.500000e+000
      vertex  5.829945e+001  1.264402e+001  0.000000e+000
      vertex  5.957225e+001  1.317122e+001 -2.498002e-016
    endloop
  endfacet
  facet normal  3.826830e-001 -9.238797e-001  0.000000e+000
    outer loop
      vertex  5.829945e+001  1.264402e+001  1.500000e+000
      vertex  5.957225e+001  1.317122e+001 -2.498002e-016
      vertex  5.957225e+001  1.317122e+001  1.500000e+000
    endloop
  endfacet
  facet normal -9.238794e-001 -3.826836e-001  -0.000000e+000
    outer loop
      vertex  2.737225e+001  1.137122e+001  0.000000e+000
      vertex  2.684504e+001  1.264402e+001  1.500000e+000
      vertex  2.684504e+001  1.264402e+001  0.000000e+000
    endloop
  endfacet
  facet normal -3.826830e-001 -9.238797e-001  0.000000e+000
    outer loop
      vertex  2.684504e+001  1.264402e+001  0.000000e+000
      vertex  2.684504e+001  1.264402e+001  1.500000e+000
      vertex  2.557225e+001  1.317122e+001  1.500000e+000
    endloop
  endfacet
  facet normal -3.826830e-001 -9.238797e-001  -0.000000e+000
    outer loop
      vertex  2.684504e+001  1.264402e+001  0.000000e+000
      vertex  2.557225e+001  1.317122e+001  1.500000e+000
      vertex  2.557225e+001  1.317122e+001 -2.498002e-016
    endloop
  endfacet
  facet normal -9.238794e-001 -3.826836e-001  0.000000e+000
    outer loop
      vertex  2.684504e+001  1.264402e+001  1.500000e+000
      vertex  2.737225e+001  1.137122e+001  0.000000e+000
      vertex  2.737225e+001  1.137122e+001  1.500000e+000
    endloop
  endfacet
  facet normal -9.238793e-001  3.826838e-001  0.000000e+000
    outer loop
      vertex  2.737225e+001  1.137122e+001  1.500000e+000
      vertex  2.737225e+001  1.137122e+001  0.000000e+000
      vertex  2.684504e+001  1.009843e+001  0.000000e+000
    endloop
  endfacet
  facet normal -9.238793e-001  3.826838e-001  0.000000e+000
    outer loop
      vertex  2.737225e+001  1.137122e+001  1.500000e+000
      vertex  2.684504e+001  1.009843e+001  0.000000e+000
      vertex  2.684504e+001  1.009843e+001  1.500000e+000
    endloop
  endfacet
  facet normal -3.826830e-001  9.238797e-001  0.000000e+000
    outer loop
      vertex  2.684504e+001  1.009843e+001  1.500000e+000
      vertex  2.684504e+001  1.009843e+001  0.000000e+000
      vertex  2.557225e+001  9.571223e+000  2.498002e-016
    endloop
  endfacet
  facet normal -3.826830e-001  9.238797e-001  0.000000e+000
    outer loop
      vertex  2.684504e+001  1.009843e+001  1.500000e+000
      vertex  2.557225e+001  9.571223e+000  2.498002e-016
      vertex  2.557225e+001  9.571223e+000  1.500000e+000
    endloop
  endfacet
  facet normal  9.238793e-001  3.826838e-001  0.000000e+000
    outer loop
      vertex  2.377225e+001  1.137122e+001  0.000000e+000
      vertex  2.429946e+001  1.009843e+001  1.500000e+000
      vertex  2.429946e+001  1.009843e+001  0.000000e+000
    endloop
  endfacet
  facet normal  3.826835e-001  9.238795e-001  -0.000000e+000
    outer loop
      vertex  2.429946e+001  1.009843e+001  0.000000e+000
      vertex  2.429946e+001  1.009843e+001  1.500000e+000
      vertex  2.557225e+001  9.571223e+000  1.500000e+000
    endloop
  endfacet
  facet normal  3.826835e-001  9.238795e-001  0.000000e+000
    outer loop
      vertex  2.429946e+001  1.009843e+001  0.000000e+000
      vertex  2.557225e+001  9.571223e+000  1.500000e+000
      vertex  2.557225e+001  9.571223e+000  2.498002e-016
    endloop
  endfacet
  facet normal  9.238793e-001  3.826838e-001  -0.000000e+000
    outer loop
      vertex  2.429946e+001  1.009843e+001  1.500000e+000
      vertex  2.377225e+001  1.137122e+001  0.000000e+000
      vertex  2.377225e+001  1.137122e+001  1.500000e+000
    endloop
  endfacet
  facet normal  9.238794e-001 -3.826836e-001  0.000000e+000
    outer loop
      vertex  2.377225e+001  1.137122e+001  1.500000e+000
      vertex  2.377225e+001  1.137122e+001  0.000000e+000
      vertex  2.429946e+001  1.264402e+001  0.000000e+000
    endloop
  endfacet
  facet normal  9.238794e-001 -3.826836e-001  0.000000e+000
    outer loop
      vertex  2.377225e+001  1.137122e+001  1.500000e+000
      vertex  2.429946e+001  1.264402e+001  0.000000e+000
      vertex  2.429946e+001  1.264402e+001  1.500000e+000
    endloop
  endfacet
  facet normal  3.826835e-001 -9.238795e-001  0.000000e+000
    outer loop
      vertex  2.429946e+001  1.264402e+001  1.500000e+000
      vertex  2.429946e+001  1.264402e+001  0.000000e+000
      vertex  2.557225e+001  1.317122e+001 -2.498002e-016
    endloop
  endfacet
  facet normal  3.826835e-001 -9.238795e-001  0.000000e+000
    outer loop
      vertex  2.429946e+001  1.264402e+001  1.500000e+000
      vertex  2.557225e+001  1.317122e+001 -2.498002e-016
      vertex  2.557225e+001  1.317122e+001  1.500000e+000
    endloop
  endfacet
  facet normal  2.165085e-017 -5.260877e-016 -1.000000e+000
    outer loop
      vertex  1.615723e+002  9.571223e+000  2.498002e-016
      vertex  1.628450e+002  1.009843e+001  0.000000e+000
      vertex  1.937722e+002  1.137122e+001  0.000000e+000
    endloop
  endfacet
  facet normal  0.000000e+000  -0.000000e+000 -1.000000e+000
    outer loop
      vertex  1.628450e+002  1.009843e+001  0.000000e+000
      vertex  1.633723e+002  1.137122e+001  0.000000e+000
      vertex  1.937722e+002  1.137122e+001  0.000000e+000
    endloop
  endfacet
  facet normal  2.165085e-017 -5.260877e-016 -1.000000e+000
    outer loop
      vertex  1.275723e+002  9.571223e+000  2.498002e-016
      vertex  1.288450e+002  1.009843e+001  0.000000e+000
      vertex  1.597722e+002  1.137122e+001  0.000000e+000
    endloop
  endfacet
  facet normal  0.000000e+000  -0.000000e+000 -1.000000e+000
    outer loop
      vertex  1.288450e+002  1.009843e+001  0.000000e+000
      vertex  1.293723e+002  1.137122e+001  0.000000e+000
      vertex  1.597722e+002  1.137122e+001  0.000000e+000
    endloop
  endfacet
  facet normal  2.165083e-017 -5.260873e-016 -1.000000e+000
    outer loop
      vertex  9.357225e+001  9.571223e+000  2.498002e-016
      vertex  9.484504e+001  1.009843e+001  0.000000e+000
      vertex  1.257722e+002  1.137122e+001  0.000000e+000
    endloop
  endfacet
  facet normal  0.000000e+000  -0.000000e+000 -1.000000e+000
    outer loop
      vertex  9.484504e+001  1.009843e+001  0.000000e+000
      vertex  9.537225e+001  1.137122e+001  0.000000e+000
      vertex  1.257722e+002  1.137122e+001  0.000000e+000
    endloop
  endfacet
  facet normal  2.165084e-017 -5.260875e-016 -9.999999e-001
    outer loop
      vertex  5.957225e+001  9.571223e+000  2.498002e-016
      vertex  6.084504e+001  1.009843e+001  0.000000e+000
      vertex  9.177225e+001  1.137122e+001  0.000000e+000
    endloop
  endfacet
  facet normal  0.000000e+000  -0.000000e+000 -1.000000e+000
    outer loop
      vertex  6.084504e+001  1.009843e+001  0.000000e+000
      vertex  6.137225e+001  1.137122e+001  0.000000e+000
      vertex  9.177225e+001  1.137122e+001  0.000000e+000
    endloop
  endfacet
  facet normal  2.165084e-017 -5.260875e-016 -9.999999e-001
    outer loop
      vertex  2.557225e+001  9.571223e+000  2.498002e-016
      vertex  2.684504e+001  1.009843e+001  0.000000e+000
      vertex  5.777225e+001  1.137122e+001  0.000000e+000
    endloop
  endfacet
  facet normal  0.000000e+000  -0.000000e+000 -1.000000e+000
    outer loop
      vertex  2.684504e+001  1.009843e+001  0.000000e+000
      vertex  2.737225e+001  1.137122e+001  0.000000e+000
      vertex  5.777225e+001  1.137122e+001  0.000000e+000
    endloop
  endfacet
  facet normal -2.165085e-017 -5.260874e-016 -1.000000e+000
    outer loop
      vertex  9.357225e+001  1.317122e+001 -2.498002e-016
      vertex  1.257722e+002  1.137122e+001  0.000000e+000
      vertex  9.484504e+001  1.264402e+001  0.000000e+000
    endloop
  endfacet
  facet normal  0.000000e+000  0.000000e+000 -1.000000e+000
    outer loop
      vertex  9.484504e+001  1.264402e+001  0.000000e+000
      vertex  1.257722e+002  1.137122e+001  0.000000e+000
      vertex  9.537225e+001  1.137122e+001  0.000000e+000
    endloop
  endfacet
  facet normal -2.165085e-017 -5.260875e-016 -9.999999e-001
    outer loop
      vertex  5.957225e+001  1.317122e+001 -2.498002e-016
      vertex  9.177225e+001  1.137122e+001  0.000000e+000
      vertex  6.084504e+001  1.264402e+001  0.000000e+000
    endloop
  endfacet
  facet normal  0.000000e+000  0.000000e+000 -1.000000e+000
    outer loop
      vertex  6.084504e+001  1.264402e+001  0.000000e+000
      vertex  9.177225e+001  1.137122e+001  0.000000e+000
      vertex  6.137225e+001  1.137122e+001  0.000000e+000
    endloop
  endfacet
  facet normal -2.165085e-017 -5.260875e-016 -9.999999e-001
    outer loop
      vertex  2.557225e+001  1.317122e+001 -2.498002e-016
      vertex  5.777225e+001  1.137122e+001  0.000000e+000
      vertex  2.684504e+001  1.264402e+001  0.000000e+000
    endloop
  endfacet
  facet normal  0.000000e+000  0.000000e+000 -1.000000e+000
    outer loop
      vertex  2.684504e+001  1.264402e+001  0.000000e+000
      vertex  5.777225e+001  1.137122e+001  0.000000e+000
      vertex  2.737225e+001  1.137122e+001  0.000000e+000
    endloop
  endfacet
  facet normal  0.000000e+000  0.000000e+000 -1.000000e+000
    outer loop
      vertex  2.197875e+002  2.000000e+001  0.000000e+000
      vertex  2.082405e+002  0.000000e+000  0.000000e+000
      vertex  1.973723e+002  1.137122e+001  0.000000e+000
    endloop
  endfacet
  facet normal  0.000000e+000  0.000000e+000 -1.000000e+000
    outer loop
      vertex  2.197875e+002  2.000000e+001  0.000000e+000
      vertex  1.973723e+002  1.137122e+001  0.000000e+000
      vertex  1.968450e+002  1.264402e+001  0.000000e+000
    endloop
  endfacet
  facet normal  8.563314e-017 -2.670801e-016 -1.000000e+000
    outer loop
      vertex  2.197875e+002  2.000000e+001  0.000000e+000
      vertex  1.968450e+002  1.264402e+001  0.000000e+000
      vertex  1.955723e+002  1.317122e+001 -2.498002e-016
    endloop
  endfacet
  facet normal  0.000000e+000  3.658051e-017 -1.000000e+000
    outer loop
      vertex  2.197875e+002  2.000000e+001  0.000000e+000
      vertex  1.955723e+002  1.317122e+001 -2.498002e-016
      vertex  0.000000e+000  2.000000e+001  0.000000e+000
    endloop
  endfacet
  facet normal -2.419432e-017 -4.154072e-016 -1.000000e+000
    outer loop
      vertex  0.000000e+000  2.000000e+001  0.000000e+000
      vertex  1.275723e+002  1.317122e+001 -2.498002e-016
      vertex  1.262995e+002  1.264402e+001  0.000000e+000
    endloop
  endfacet
  facet normal  -0.000000e+000  0.000000e+000 -1.000000e+000
    outer loop
      vertex  0.000000e+000  2.000000e+001  0.000000e+000
      vertex  1.262995e+002  1.264402e+001  0.000000e+000
      vertex  1.257722e+002  1.137122e+001  0.000000e+000
    endloop
  endfacet
  facet normal  4.188914e-017  6.105721e-016 -1.000000e+000
    outer loop
      vertex  0.000000e+000  2.000000e+001  0.000000e+000
      vertex  1.257722e+002  1.137122e+001  0.000000e+000
      vertex  9.357225e+001  1.317122e+001 -2.498002e-016
    endloop
  endfacet
  facet normal -3.166859e-017 -3.973626e-016 -1.000000e+000
    outer loop
      vertex  0.000000e+000  2.000000e+001  0.000000e+000
      vertex  9.357225e+001  1.317122e+001 -2.498002e-016
      vertex  9.229945e+001  1.264402e+001  0.000000e+000
    endloop
  endfacet
  facet normal  -0.000000e+000  0.000000e+000 -1.000000e+000
    outer loop
      vertex  0.000000e+000  2.000000e+001  0.000000e+000
      vertex  9.229945e+001  1.264402e+001  0.000000e+000
      vertex  9.177225e+001  1.137122e+001  0.000000e+000
    endloop
  endfacet
  facet normal  1.913310e-017  2.034921e-016 -1.000000e+000
    outer loop
      vertex  0.000000e+000  2.000000e+001  0.000000e+000
      vertex  9.177225e+001  1.137122e+001  0.000000e+000
      vertex  5.957225e+001  1.317122e+001 -2.498002e-016
    endloop
  endfacet
  facet normal -4.582526e-017 -3.631856e-016 -1.000000e+000
    outer loop
      vertex  0.000000e+000  2.000000e+001  0.000000e+000
      vertex  5.957225e+001  1.317122e+001 -2.498002e-016
      vertex  5.829945e+001  1.264402e+001  0.000000e+000
    endloop
  endfacet
  facet normal  -0.000000e+000  0.000000e+000 -1.000000e+000
    outer loop
      vertex  0.000000e+000  2.000000e+001  0.000000e+000
      vertex  5.829945e+001  1.264402e+001  0.000000e+000
      vertex  5.777225e+001  1.137122e+001  0.000000e+000
    endloop
  endfacet
  facet normal  1.239798e-017  8.300816e-017 -1.000000e+000
    outer loop
      vertex  0.000000e+000  2.000000e+001  0.000000e+000
      vertex  5.777225e+001  1.137122e+001  0.000000e+000
      vertex  2.557225e+001  1.317122e+001 -2.498002e-016
    endloop
  endfacet
  facet normal -8.287045e-017 -2.737508e-016 -1.000000e+000
    outer loop
      vertex  0.000000e+000  2.000000e+001  0.000000e+000
      vertex  2.557225e+001  1.317122e+001 -2.498002e-016
      vertex  2.429946e+001  1.264402e+001  0.000000e+000
    endloop
  endfacet
  facet normal  -0.000000e+000  0.000000e+000 -1.000000e+000
    outer loop
      vertex  0.000000e+000  2.000000e+001  0.000000e+000
      vertex  2.429946e+001  1.264402e+001  0.000000e+000
      vertex  2.377225e+001  1.137122e+001  0.000000e+000
    endloop
  endfacet
  facet normal  0.000000e+000  0.000000e+000 -9.999999e-001
    outer loop
      vertex  0.000000e+000  0.000000e+000  0.000000e+000
      vertex  0.000000e+000  2.000000e+001  0.000000e+000
      vertex  2.377225e+001  1.137122e+001  0.000000e+000
    endloop
  endfacet
  facet normal  0.000000e+000  -0.000000e+000 -1.000000e+000
    outer loop
      vertex  0.000000e+000  0.000000e+000  0.000000e+000
      vertex  2.377225e+001  1.137122e+001  0.000000e+000
      vertex  2.429946e+001  1.009843e+001  0.000000e+000
    endloop
  endfacet
  facet normal  9.829277e-017 -2.365180e-016 -1.000000e+000
    outer loop
      vertex  0.000000e+000  0.000000e+000  0.000000e+000
      vertex  2.429946e+001  1.009843e+001  0.000000e+000
      vertex  2.557225e+001  9.571223e+000  2.498002e-016
    endloop
  endfacet
  facet normal -1.083497e-017  5.504781e-017 -1.000000e+000
    outer loop
      vertex  0.000000e+000  0.000000e+000  0.000000e+000
      vertex  2.557225e+001  9.571223e+000  2.498002e-016
      vertex  5.777225e+001  1.137122e+001  0.000000e+000
    endloop
  endfacet
  facet normal  0.000000e+000  -0.000000e+000 -1.000000e+000
    outer loop
      vertex  0.000000e+000  0.000000e+000  0.000000e+000
      vertex  5.777225e+001  1.137122e+001  0.000000e+000
      vertex  5.829945e+001  1.009843e+001  0.000000e+000
    endloop
  endfacet
  facet normal  5.787202e-017 -3.341021e-016 -1.000000e+000
    outer loop
      vertex  0.000000e+000  0.000000e+000  0.000000e+000
      vertex  5.829945e+001  1.009843e+001  0.000000e+000
      vertex  5.957225e+001  9.571223e+000  2.498002e-016
    endloop
  endfacet
  facet normal -1.413458e-017  1.140741e-016 -9.999999e-001
    outer loop
      vertex  0.000000e+000  0.000000e+000  0.000000e+000
      vertex  5.957225e+001  9.571223e+000  2.498002e-016
      vertex  9.177225e+001  1.137122e+001  0.000000e+000
    endloop
  endfacet
  facet normal  0.000000e+000  -0.000000e+000 -1.000000e+000
    outer loop
      vertex  0.000000e+000  0.000000e+000  0.000000e+000
      vertex  9.177225e+001  1.137122e+001  0.000000e+000
      vertex  9.229945e+001  1.009843e+001  0.000000e+000
    endloop
  endfacet
  facet normal  4.100825e-017 -3.748146e-016 -1.000000e+000
    outer loop
      vertex  0.000000e+000  0.000000e+000  0.000000e+000
      vertex  9.229945e+001  1.009843e+001  0.000000e+000
      vertex  9.357225e+001  9.571223e+000  2.498002e-016
    endloop
  endfacet
  facet normal -2.032387e-017  2.247937e-016 -1.000000e+000
    outer loop
      vertex  0.000000e+000  0.000000e+000  0.000000e+000
      vertex  9.357225e+001  9.571223e+000  2.498002e-016
      vertex  1.257722e+002  1.137122e+001  0.000000e+000
    endloop
  endfacet
  facet normal  0.000000e+000  -0.000000e+000 -1.000000e+000
    outer loop
      vertex  0.000000e+000  0.000000e+000  0.000000e+000
      vertex  1.257722e+002  1.137122e+001  0.000000e+000
      vertex  1.262995e+002  1.009843e+001  0.000000e+000
    endloop
  endfacet
  facet normal  3.175495e-017 -3.971541e-016 -1.000000e+000
    outer loop
      vertex  0.000000e+000  0.000000e+000  0.000000e+000
      vertex  1.262995e+002  1.009843e+001  0.000000e+000
      vertex  1.275723e+002  9.571223e+000  2.498002e-016
    endloop
  endfacet
  facet normal -3.615594e-017  5.080118e-016 -1.000000e+000
    outer loop
      vertex  0.000000e+000  0.000000e+000  0.000000e+000
      vertex  1.275723e+002  9.571223e+000  2.498002e-016
      vertex  1.597722e+002  1.137122e+001  0.000000e+000
    endloop
  endfacet
  facet normal  0.000000e+000  -0.000000e+000 -9.999999e-001
    outer loop
      vertex  0.000000e+000  0.000000e+000  0.000000e+000
      vertex  1.597722e+002  1.137122e+001  0.000000e+000
      vertex  1.602995e+002  1.009843e+001  0.000000e+000
    endloop
  endfacet
  facet normal  2.590878e-017 -4.112681e-016 -1.000000e+000
    outer loop
      vertex  0.000000e+000  0.000000e+000  0.000000e+000
      vertex  1.602995e+002  1.009843e+001  0.000000e+000
      vertex  1.615723e+002  9.571223e+000  2.498002e-016
    endloop
  endfacet
  facet normal -1.635928e-016  2.787717e-015 -1.000000e+000
    outer loop
      vertex  0.000000e+000  0.000000e+000  0.000000e+000
      vertex  1.615723e+002  9.571223e+000  2.498002e-016
      vertex  1.937722e+002  1.137122e+001  0.000000e+000
    endloop
  endfacet
  facet normal  0.000000e+000  -0.000000e+000 -9.999999e-001
    outer loop
      vertex  0.000000e+000  0.000000e+000  0.000000e+000
      vertex  1.937722e+002  1.137122e+001  0.000000e+000
      vertex  1.942995e+002  1.009843e+001  0.000000e+000
    endloop
  endfacet
  facet normal  2.188051e-017 -4.209932e-016 -1.000000e+000
    outer loop
      vertex  0.000000e+000  0.000000e+000  0.000000e+000
      vertex  1.942995e+002  1.009843e+001  0.000000e+000
      vertex  1.955723e+002  9.571223e+000  2.498002e-016
    endloop
  endfacet
  facet normal  0.000000e+000  2.609909e-017 -1.000000e+000
    outer loop
      vertex  2.082405e+002  0.000000e+000  0.000000e+000
      vertex  0.000000e+000  0.000000e+000  0.000000e+000
      vertex  1.955723e+002  9.571223e+000  2.498002e-016
    endloop
  endfacet
  facet normal -1.337461e-016 -1.509247e-016 -1.000000e+000
    outer loop
      vertex  2.082405e+002  0.000000e+000  0.000000e+000
      vertex  1.955723e+002  9.571223e+000  2.498002e-016
      vertex  1.968450e+002  1.009843e+001  0.000000e+000
    endloop
  endfacet
  facet normal  0.000000e+000  0.000000e+000 -1.000000e+000
    outer loop
      vertex  2.082405e+002  0.000000e+000  0.000000e+000
      vertex  1.968450e+002  1.009843e+001  0.000000e+000
      vertex  1.973723e+002  1.137122e+001  0.000000e+000
    endloop
  endfacet
  facet normal  0.000000e+000  3.658051e-017 -1.000000e+000
    outer loop
      vertex  0.000000e+000  2.000000e+001  0.000000e+000
      vertex  1.615723e+002  1.317122e+001 -2.498002e-016
      vertex  1.275723e+002  1.317122e+001 -2.498002e-016
    endloop
  endfacet
  facet normal  0.000000e+000 -4.738177e-016 -1.000000e+000
    outer loop
      vertex  1.275723e+002  1.317122e+001 -2.498002e-016
      vertex  1.615723e+002  1.317122e+001 -2.498002e-016
      vertex  1.602995e+002  1.264402e+001  0.000000e+000
    endloop
  endfacet
  facet normal  -0.000000e+000 -4.738177e-016 -1.000000e+000
    outer loop
      vertex  1.275723e+002  1.317122e+001 -2.498002e-016
      vertex  1.602995e+002  1.264402e+001  0.000000e+000
      vertex  1.288450e+002  1.264402e+001  0.000000e+000
    endloop
  endfacet
  facet normal  0.000000e+000  0.000000e+000 -1.000000e+000
    outer loop
      vertex  1.288450e+002  1.264402e+001  0.000000e+000
      vertex  1.602995e+002  1.264402e+001  0.000000e+000
      vertex  1.597722e+002  1.137122e+001  0.000000e+000
    endloop
  endfacet
  facet normal  0.000000e+000  0.000000e+000 -1.000000e+000
    outer loop
      vertex  1.288450e+002  1.264402e+001  0.000000e+000
      vertex  1.597722e+002  1.137122e+001  0.000000e+000
      vertex  1.293723e+002  1.137122e+001  0.000000e+000
    endloop
  endfacet
  facet normal  0.000000e+000  3.658051e-017 -1.000000e+000
    outer loop
      vertex  0.000000e+000  2.000000e+001  0.000000e+000
      vertex  1.955723e+002  1.317122e+001 -2.498002e-016
      vertex  1.615723e+002  1.317122e+001 -2.498002e-016
    endloop
  endfacet
  facet normal  0.000000e+000 -4.738177e-016 -1.000000e+000
    outer loop
      vertex  1.615723e+002  1.317122e+001 -2.498002e-016
      vertex  1.955723e+002  1.317122e+001 -2.498002e-016
      vertex  1.942995e+002  1.264402e+001  0.000000e+000
    endloop
  endfacet
  facet normal  -0.000000e+000 -4.738177e-016 -1.000000e+000
    outer loop
      vertex  1.615723e+002  1.317122e+001 -2.498002e-016
      vertex  1.942995e+002  1.264402e+001  0.000000e+000
      vertex  1.628450e+002  1.264402e+001  0.000000e+000
    endloop
  endfacet
  facet normal  0.000000e+000  0.000000e+000 -1.000000e+000
    outer loop
      vertex  1.628450e+002  1.264402e+001  0.000000e+000
      vertex  1.942995e+002  1.264402e+001  0.000000e+000
      vertex  1.937722e+002  1.137122e+001  0.000000e+000
    endloop
  endfacet
  facet normal  0.000000e+000  0.000000e+000 -1.000000e+000
    outer loop
      vertex  1.628450e+002  1.264402e+001  0.000000e+000
      vertex  1.937722e+002  1.137122e+001  0.000000e+000
      vertex  1.633723e+002  1.137122e+001  0.000000e+000
    endloop
  endfacet
  facet normal  -0.000000e+000  -0.000000e+000  1.000000e+000
    outer loop
      vertex  9.357225e+001  1.317122e+001  1.500000e+000
      vertex  9.484504e+001  1.264402e+001  1.500000e+000
      vertex  1.257722e+002  1.137122e+001  1.500000e+000
    endloop
  endfacet
  facet normal  0.000000e+000  -0.000000e+000  1.000000e+000
    outer loop
      vertex  9.484504e+001  1.264402e+001  1.500000e+000
      vertex  9.537225e+001  1.137122e+001  1.500000e+000
      vertex  1.257722e+002  1.137122e+001  1.500000e+000
    endloop
  endfacet
  facet normal  -0.000000e+000  -0.000000e+000  1.000000e+000
    outer loop
      vertex  5.957225e+001  1.317122e+001  1.500000e+000
      vertex  6.084504e+001  1.264402e+001  1.500000e+000
      vertex  9.177225e+001  1.137122e+001  1.500000e+000
    endloop
  endfacet
  facet normal  0.000000e+000  -0.000000e+000  1.000000e+000
    outer loop
      vertex  6.084504e+001  1.264402e+001  1.500000e+000
      vertex  6.137225e+001  1.137122e+001  1.500000e+000
      vertex  9.177225e+001  1.137122e+001  1.500000e+000
    endloop
  endfacet
  facet normal  -0.000000e+000  -0.000000e+000  1.000000e+000
    outer loop
      vertex  2.557225e+001  1.317122e+001  1.500000e+000
      vertex  2.684504e+001  1.264402e+001  1.500000e+000
      vertex  5.777225e+001  1.137122e+001  1.500000e+000
    endloop
  endfacet
  facet normal  0.000000e+000  -0.000000e+000  1.000000e+000
    outer loop
      vertex  2.684504e+001  1.264402e+001  1.500000e+000
      vertex  2.737225e+001  1.137122e+001  1.500000e+000
      vertex  5.777225e+001  1.137122e+001  1.500000e+000
    endloop
  endfacet
  facet normal  0.000000e+000  0.000000e+000  1.000000e+000
    outer loop
      vertex  1.275723e+002  9.571223e+000  1.500000e+000
      vertex  1.597722e+002  1.137122e+001  1.500000e+000
      vertex  1.288450e+002  1.009843e+001  1.500000e+000
    endloop
  endfacet
  facet normal  0.000000e+000  0.000000e+000  1.000000e+000
    outer loop
      vertex  1.288450e+002  1.009843e+001  1.500000e+000
      vertex  1.597722e+002  1.137122e+001  1.500000e+000
      vertex  1.293723e+002  1.137122e+001  1.500000e+000
    endloop
  endfacet
  facet normal  0.000000e+000  0.000000e+000  1.000000e+000
    outer loop
      vertex  9.357225e+001  9.571223e+000  1.500000e+000
      vertex  1.257722e+002  1.137122e+001  1.500000e+000
      vertex  9.484504e+001  1.009843e+001  1.500000e+000
    endloop
  endfacet
  facet normal  0.000000e+000  0.000000e+000  1.000000e+000
    outer loop
      vertex  9.484504e+001  1.009843e+001  1.500000e+000
      vertex  1.257722e+002  1.137122e+001  1.500000e+000
      vertex  9.537225e+001  1.137122e+001  1.500000e+000
    endloop
  endfacet
  facet normal  0.000000e+000  0.000000e+000  9.999999e-001
    outer loop
      vertex  5.957225e+001  9.571223e+000  1.500000e+000
      vertex  9.177225e+001  1.137122e+001  1.500000e+000
      vertex  6.084504e+001  1.009843e+001  1.500000e+000
    endloop
  endfacet
  facet normal  0.000000e+000  0.000000e+000  1.000000e+000
    outer loop
      vertex  6.084504e+001  1.009843e+001  1.500000e+000
      vertex  9.177225e+001  1.137122e+001  1.500000e+000
      vertex  6.137225e+001  1.137122e+001  1.500000e+000
    endloop
  endfacet
  facet normal  0.000000e+000  0.000000e+000  9.999999e-001
    outer loop
      vertex  2.557225e+001  9.571223e+000  1.500000e+000
      vertex  5.777225e+001  1.137122e+001  1.500000e+000
      vertex  2.684504e+001  1.009843e+001  1.500000e+000
    endloop
  endfacet
  facet normal  0.000000e+000  0.000000e+000  1.000000e+000
    outer loop
      vertex  2.684504e+001  1.009843e+001  1.500000e+000
      vertex  5.777225e+001  1.137122e+001  1.500000e+000
      vertex  2.737225e+001  1.137122e+001  1.500000e+000
    endloop
  endfacet
  facet normal  0.000000e+000  0.000000e+000  1.000000e+000
    outer loop
      vertex  0.000000e+000  1.500000e+000  1.500000e+000
      vertex  1.615723e+002  9.571223e+000  1.500000e+000
      vertex  1.602995e+002  1.009843e+001  1.500000e+000
    endloop
  endfacet
  facet normal  0.000000e+000  0.000000e+000  1.000000e+000
    outer loop
      vertex  0.000000e+000  1.500000e+000  1.500000e+000
      vertex  1.602995e+002  1.009843e+001  1.500000e+000
      vertex  1.597722e+002  1.137122e+001  1.500000e+000
    endloop
  endfacet
  facet normal  0.000000e+000  0.000000e+000  1.000000e+000
    outer loop
      vertex  0.000000e+000  1.500000e+000  1.500000e+000
      vertex  1.597722e+002  1.137122e+001  1.500000e+000
      vertex  1.275723e+002  9.571223e+000  1.500000e+000
    endloop
  endfacet
  facet normal  0.000000e+000  0.000000e+000  9.999999e-001
    outer loop
      vertex  0.000000e+000  1.500000e+000  1.500000e+000
      vertex  1.275723e+002  9.571223e+000  1.500000e+000
      vertex  1.262995e+002  1.009843e+001  1.500000e+000
    endloop
  endfacet
  facet normal  0.000000e+000  0.000000e+000  1.000000e+000
    outer loop
      vertex  0.000000e+000  1.500000e+000  1.500000e+000
      vertex  1.262995e+002  1.009843e+001  1.500000e+000
      vertex  1.257722e+002  1.137122e+001  1.500000e+000
    endloop
  endfacet
  facet normal  0.000000e+000  0.000000e+000  1.000000e+000
    outer loop
      vertex  0.000000e+000  1.500000e+000  1.500000e+000
      vertex  1.257722e+002  1.137122e+001  1.500000e+000
      vertex  9.357225e+001  9.571223e+000  1.500000e+000
    endloop
  endfacet
  facet normal  0.000000e+000  0.000000e+000  9.999999e-001
    outer loop
      vertex  0.000000e+000  1.500000e+000  1.500000e+000
      vertex  9.357225e+001  9.571223e+000  1.500000e+000
      vertex  9.229945e+001  1.009843e+001  1.500000e+000
    endloop
  endfacet
  facet normal  0.000000e+000  0.000000e+000  9.999999e-001
    outer loop
      vertex  0.000000e+000  1.500000e+000  1.500000e+000
      vertex  9.229945e+001  1.009843e+001  1.500000e+000
      vertex  9.177225e+001  1.137122e+001  1.500000e+000
    endloop
  endfacet
  facet normal  0.000000e+000  0.000000e+000  1.000000e+000
    outer loop
      vertex  0.000000e+000  1.500000e+000  1.500000e+000
      vertex  9.177225e+001  1.137122e+001  1.500000e+000
      vertex  5.957225e+001  9.571223e+000  1.500000e+000
    endloop
  endfacet
  facet normal  0.000000e+000  0.000000e+000  1.000000e+000
    outer loop
      vertex  0.000000e+000  1.500000e+000  1.500000e+000
      vertex  5.957225e+001  9.571223e+000  1.500000e+000
      vertex  5.829945e+001  1.009843e+001  1.500000e+000
    endloop
  endfacet
  facet normal  0.000000e+000  0.000000e+000  1.000000e+000
    outer loop
      vertex  0.000000e+000  1.500000e+000  1.500000e+000
      vertex  5.829945e+001  1.009843e+001  1.500000e+000
      vertex  5.777225e+001  1.137122e+001  1.500000e+000
    endloop
  endfacet
  facet normal  0.000000e+000  0.000000e+000  1.000000e+000
    outer loop
      vertex  0.000000e+000  1.500000e+000  1.500000e+000
      vertex  5.777225e+001  1.137122e+001  1.500000e+000
      vertex  2.557225e+001  9.571223e+000  1.500000e+000
    endloop
  endfacet
  facet normal  0.000000e+000  0.000000e+000  1.000000e+000
    outer loop
      vertex  0.000000e+000  1.500000e+000  1.500000e+000
      vertex  2.557225e+001  9.571223e+000  1.500000e+000
      vertex  2.429946e+001  1.009843e+001  1.500000e+000
    endloop
  endfacet
  facet normal  0.000000e+000  0.000000e+000  1.000000e+000
    outer loop
      vertex  0.000000e+000  1.500000e+000  1.500000e+000
      vertex  2.429946e+001  1.009843e+001  1.500000e+000
      vertex  2.377225e+001  1.137122e+001  1.500000e+000
    endloop
  endfacet
  facet normal  0.000000e+000  0.000000e+000  1.000000e+000
    outer loop
      vertex  0.000000e+000  2.000000e+001  1.500000e+000
      vertex  0.000000e+000  1.500000e+000  1.500000e+000
      vertex  2.377225e+001  1.137122e+001  1.500000e+000
    endloop
  endfacet
  facet normal  0.000000e+000  -0.000000e+000  1.000000e+000
    outer loop
      vertex  0.000000e+000  2.000000e+001  1.500000e+000
      vertex  2.377225e+001  1.137122e+001  1.500000e+000
      vertex  2.429946e+001  1.264402e+001  1.500000e+000
    endloop
  endfacet
  facet normal  0.000000e+000  -0.000000e+000  1.000000e+000
    outer loop
      vertex  0.000000e+000  2.000000e+001  1.500000e+000
      vertex  2.429946e+001  1.264402e+001  1.500000e+000
      vertex  2.557225e+001  1.317122e+001  1.500000e+000
    endloop
  endfacet
  facet normal  -0.000000e+000  -0.000000e+000  1.000000e+000
    outer loop
      vertex  0.000000e+000  2.000000e+001  1.500000e+000
      vertex  2.557225e+001  1.317122e+001  1.500000e+000
      vertex  5.777225e+001  1.137122e+001  1.500000e+000
    endloop
  endfacet
  facet normal  0.000000e+000  -0.000000e+000  1.000000e+000
    outer loop
      vertex  0.000000e+000  2.000000e+001  1.500000e+000
      vertex  5.777225e+001  1.137122e+001  1.500000e+000
      vertex  5.829945e+001  1.264402e+001  1.500000e+000
    endloop
  endfacet
  facet normal  0.000000e+000  -0.000000e+000  1.000000e+000
    outer loop
      vertex  0.000000e+000  2.000000e+001  1.500000e+000
      vertex  5.829945e+001  1.264402e+001  1.500000e+000
      vertex  5.957225e+001  1.317122e+001  1.500000e+000
    endloop
  endfacet
  facet normal  -0.000000e+000  -0.000000e+000  1.000000e+000
    outer loop
      vertex  0.000000e+000  2.000000e+001  1.500000e+000
      vertex  5.957225e+001  1.317122e+001  1.500000e+000
      vertex  9.177225e+001  1.137122e+001  1.500000e+000
    endloop
  endfacet
  facet normal  0.000000e+000  -0.000000e+000  9.999999e-001
    outer loop
      vertex  0.000000e+000  2.000000e+001  1.500000e+000
      vertex  9.177225e+001  1.137122e+001  1.500000e+000
      vertex  9.229945e+001  1.264402e+001  1.500000e+000
    endloop
  endfacet
  facet normal  0.000000e+000  -0.000000e+000  1.000000e+000
    outer loop
      vertex  0.000000e+000  2.000000e+001  1.500000e+000
      vertex  9.229945e+001  1.264402e+001  1.500000e+000
      vertex  9.357225e+001  1.317122e+001  1.500000e+000
    endloop
  endfacet
  facet normal  -0.000000e+000  -0.000000e+000  1.000000e+000
    outer loop
      vertex  0.000000e+000  2.000000e+001  1.500000e+000
      vertex  9.357225e+001  1.317122e+001  1.500000e+000
      vertex  1.257722e+002  1.137122e+001  1.500000e+000
    endloop
  endfacet
  facet normal  0.000000e+000  -0.000000e+000  1.000000e+000
    outer loop
      vertex  0.000000e+000  2.000000e+001  1.500000e+000
      vertex  1.257722e+002  1.137122e+001  1.500000e+000
      vertex  1.262995e+002  1.264402e+001  1.500000e+000
    endloop
  endfacet
  facet normal  0.000000e+000  -0.000000e+000  1.000000e+000
    outer loop
      vertex  0.000000e+000  2.000000e+001  1.500000e+000
      vertex  1.262995e+002  1.264402e+001  1.500000e+000
      vertex  1.275723e+002  1.317122e+001  1.500000e+000
    endloop
  endfacet
  facet normal  -0.000000e+000  0.000000e+000  1.000000e+000
    outer loop
      vertex  2.197875e+002  2.000000e+001  1.500000e+000
      vertex  0.000000e+000  2.000000e+001  1.500000e+000
      vertex  1.955723e+002  1.317122e+001  1.500000e+000
    endloop
  endfacet
  facet normal  -0.000000e+000  0.000000e+000  1.000000e+000
    outer loop
      vertex  2.197875e+002  2.000000e+001  1.500000e+000
      vertex  1.955723e+002  1.317122e+001  1.500000e+000
      vertex  1.968450e+002  1.264402e+001  1.500000e+000
    endloop
  endfacet
  facet normal  -0.000000e+000  0.000000e+000  1.000000e+000
    outer loop
      vertex  2.197875e+002  2.000000e+001  1.500000e+000
      vertex  1.968450e+002  1.264402e+001  1.500000e+000
      vertex  1.973723e+002  1.137122e+001  1.500000e+000
    endloop
  endfacet
  facet normal  -0.000000e+000  0.000000e+000  1.000000e+000
    outer loop
      vertex  2.197875e+002  2.000000e+001  1.500000e+000
      vertex  1.973723e+002  1.137122e+001  1.500000e+000
      vertex  2.091066e+002  1.500000e+000  1.500000e+000
    endloop
  endfacet
  facet normal  0.000000e+000  0.000000e+000  1.000000e+000
    outer loop
      vertex  2.091066e+002  1.500000e+000  1.500000e+000
      vertex  1.973723e+002  1.137122e+001  1.500000e+000
      vertex  1.968450e+002  1.009843e+001  1.500000e+000
    endloop
  endfacet
  facet normal  0.000000e+000  0.000000e+000  1.000000e+000
    outer loop
      vertex  2.091066e+002  1.500000e+000  1.500000e+000
      vertex  1.968450e+002  1.009843e+001  1.500000e+000
      vertex  1.955723e+002  9.571223e+000  1.500000e+000
    endloop
  endfacet
  facet normal  0.000000e+000  0.000000e+000  1.000000e+000
    outer loop
      vertex  2.091066e+002  1.500000e+000  1.500000e+000
      vertex  1.955723e+002  9.571223e+000  1.500000e+000
      vertex  0.000000e+000  1.500000e+000  1.500000e+000
    endloop
  endfacet
  facet normal  0.000000e+000  0.000000e+000  1.000000e+000
    outer loop
      vertex  1.615723e+002  1.317122e+001  1.500000e+000
      vertex  0.000000e+000  2.000000e+001  1.500000e+000
      vertex  1.602995e+002  1.264402e+001  1.500000e+000
    endloop
  endfacet
  facet normal  0.000000e+000  0.000000e+000  1.000000e+000
    outer loop
      vertex  1.602995e+002  1.264402e+001  1.500000e+000
      vertex  0.000000e+000  2.000000e+001  1.500000e+000
      vertex  1.275723e+002  1.317122e+001  1.500000e+000
    endloop
  endfacet
  facet normal  0.000000e+000  0.000000e+000  9.999999e-001
    outer loop
      vertex  1.602995e+002  1.264402e+001  1.500000e+000
      vertex  1.275723e+002  1.317122e+001  1.500000e+000
      vertex  1.597722e+002  1.137122e+001  1.500000e+000
    endloop
  endfacet
  facet normal  0.000000e+000  0.000000e+000  1.000000e+000
    outer loop
      vertex  1.597722e+002  1.137122e+001  1.500000e+000
      vertex  1.275723e+002  1.317122e+001  1.500000e+000
      vertex  1.288450e+002  1.264402e+001  1.500000e+000
    endloop
  endfacet
  facet normal  0.000000e+000  0.000000e+000  1.000000e+000
    outer loop
      vertex  1.597722e+002  1.137122e+001  1.500000e+000
      vertex  1.288450e+002  1.264402e+001  1.500000e+000
      vertex  1.293723e+002  1.137122e+001  1.500000e+000
    endloop
  endfacet
  facet normal  0.000000e+000  0.000000e+000  1.000000e+000
    outer loop
      vertex  1.955723e+002  1.317122e+001  1.500000e+000
      vertex  0.000000e+000  2.000000e+001  1.500000e+000
      vertex  1.942995e+002  1.264402e+001  1.500000e+000
    endloop
  endfacet
  facet normal  0.000000e+000  0.000000e+000  1.000000e+000
    outer loop
      vertex  1.942995e+002  1.264402e+001  1.500000e+000
      vertex  0.000000e+000  2.000000e+001  1.500000e+000
      vertex  1.615723e+002  1.317122e+001  1.500000e+000
    endloop
  endfacet
  facet normal  0.000000e+000  0.000000e+000  9.999999e-001
    outer loop
      vertex  1.942995e+002  1.264402e+001  1.500000e+000
      vertex  1.615723e+002  1.317122e+001  1.500000e+000
      vertex  1.937722e+002  1.137122e+001  1.500000e+000
    endloop
  endfacet
  facet normal  0.000000e+000  0.000000e+000  1.000000e+000
    outer loop
      vertex  1.937722e+002  1.137122e+001  1.500000e+000
      vertex  1.615723e+002  1.317122e+001  1.500000e+000
      vertex  1.628450e+002  1.264402e+001  1.500000e+000
    endloop
  endfacet
  facet normal  0.000000e+000  0.000000e+000  1.000000e+000
    outer loop
      vertex  1.937722e+002  1.137122e+001  1.500000e+000
      vertex  1.628450e+002  1.264402e+001  1.500000e+000
      vertex  1.633723e+002  1.137122e+001  1.500000e+000
    endloop
  endfacet
  facet normal  0.000000e+000  0.000000e+000  1.000000e+000
    outer loop
      vertex  0.000000e+000  1.500000e+000  1.500000e+000
      vertex  1.955723e+002  9.571223e+000  1.500000e+000
      vertex  1.615723e+002  9.571223e+000  1.500000e+000
    endloop
  endfacet
  facet normal  0.000000e+000  0.000000e+000  1.000000e+000
    outer loop
      vertex  1.615723e+002  9.571223e+000  1.500000e+000
      vertex  1.955723e+002  9.571223e+000  1.500000e+000
      vertex  1.942995e+002  1.009843e+001  1.500000e+000
    endloop
  endfacet
  facet normal  0.000000e+000  0.000000e+000  1.000000e+000
    outer loop
      vertex  1.615723e+002  9.571223e+000  1.500000e+000
      vertex  1.942995e+002  1.009843e+001  1.500000e+000
      vertex  1.628450e+002  1.009843e+001  1.500000e+000
    endloop
  endfacet
  facet normal  0.000000e+000  0.000000e+000  9.999999e-001
    outer loop
      vertex  1.628450e+002  1.009843e+001  1.500000e+000
      vertex  1.942995e+002  1.009843e+001  1.500000e+000
      vertex  1.937722e+002  1.137122e+001  1.500000e+000
    endloop
  endfacet
  facet normal  0.000000e+000  0.000000e+000  1.000000e+000
    outer loop
      vertex  1.628450e+002  1.009843e+001  1.500000e+000
      vertex  1.937722e+002  1.137122e+001  1.500000e+000
      vertex  1.633723e+002  1.137122e+001  1.500000e+000
    endloop
  endfacet
  facet normal  8.660248e-001 -5.000011e-001  0.000000e+000
    outer loop
      vertex  2.091066e+002  1.500000e+000  2.000000e+001
      vertex  2.082405e+002  6.217249e-015  2.000000e+001
      vertex  2.091066e+002  1.500000e+000  1.500000e+000
    endloop
  endfacet
  facet normal  8.660248e-001 -5.000010e-001  0.000000e+000
    outer loop
      vertex  2.091066e+002  1.500000e+000  1.500000e+000
      vertex  2.082405e+002  6.217249e-015  2.000000e+001
      vertex  2.082405e+002  0.000000e+000  0.000000e+000
    endloop
  endfacet
  facet normal  8.660256e-001 -4.999996e-001 -1.904793e-006
    outer loop
      vertex  2.091066e+002  1.500000e+000  1.500000e+000
      vertex  2.082405e+002  0.000000e+000  0.000000e+000
      vertex  2.197875e+002  2.000000e+001  1.500000e+000
    endloop
  endfacet
  facet normal  8.660256e-001 -4.999997e-001  0.000000e+000
    outer loop
      vertex  2.197875e+002  2.000000e+001  1.500000e+000
      vertex  2.082405e+002  0.000000e+000  0.000000e+000
      vertex  2.197875e+002  2.000000e+001  0.000000e+000
    endloop
  endfacet
  facet normal  0.000000e+000  1.000000e+000  0.000000e+000
    outer loop
      vertex  0.000000e+000  2.000000e+001  0.000000e+000
      vertex  0.000000e+000  2.000000e+001  1.500000e+000
      vertex  2.197875e+002  2.000000e+001  0.000000e+000
    endloop
  endfacet
  facet normal  0.000000e+000  1.000000e+000  -0.000000e+000
    outer loop
      vertex  2.197875e+002  2.000000e+001  0.000000e+000
      vertex  0.000000e+000  2.000000e+001  1.500000e+000
      vertex  2.197875e+002  2.000000e+001  1.500000e+000
    endloop
  endfacet
  facet normal  0.000000e+000  1.000000e+000  0.000000e+000
    outer loop
      vertex  0.000000e+000  1.500000e+000  1.500000e+000
      vertex  0.000000e+000  1.500000e+000  2.000000e+001
      vertex  2.091066e+002  1.500000e+000  1.500000e+000
    endloop
  endfacet
  facet normal  0.000000e+000  1.000000e+000  -0.000000e+000
    outer loop
      vertex  2.091066e+002  1.500000e+000  1.500000e+000
      vertex  0.000000e+000  1.500000e+000  2.000000e+001
      vertex  2.091066e+002  1.500000e+000  2.000000e+001
    endloop
  endfacet
  facet normal  0.000000e+000  0.000000e+000  1.000000e+000
    outer loop
      vertex  0.000000e+000  1.500000e+000  2.000000e+001
      vertex  0.000000e+000  6.217249e-015  2.000000e+001
      vertex  2.091066e+002  1.500000e+000  2.000000e+001
    endloop
  endfacet
  facet normal  0.000000e+000  0.000000e+000  1.000000e+000
    outer loop
      vertex  2.091066e+002  1.500000e+000  2.000000e+001
      vertex  0.000000e+000  6.217249e-015  2.000000e+001
      vertex  2.082405e+002  6.217249e-015  2.000000e+001
    endloop
  endfacet
  facet normal  0.000000e+000 -1.000000e+000  3.108625e-016
    outer loop
      vertex  0.000000e+000  6.217249e-015  2.000000e+001
      vertex  0.000000e+000  0.000000e+000  0.000000e+000
      vertex  2.082405e+002  6.217249e-015  2.000000e+001
    endloop
  endfacet
  facet normal  0.000000e+000 -1.000000e+000  3.108625e-016
    outer loop
      vertex  2.082405e+002  6.217249e-015  2.000000e+001
      vertex  0.000000e+000  0.000000e+000  0.000000e+000
      vertex  2.082405e+002  0.000000e+000  0.000000e+000
    endloop
  endfacet
  facet normal -1.000000e+000  0.000000e+000  0.000000e+000
    outer loop
      vertex  0.000000e+000  1.500000e+000  2.000000e+001
      vertex  0.000000e+000  1.500000e+000  1.500000e+000
      vertex  0.000000e+000  6.217249e-015  2.000000e+001
    endloop
  endfacet
  facet normal -1.000000e+000  0.000000e+000  -0.000000e+000
    outer loop
      vertex  0.000000e+000  6.217249e-015  2.000000e+001
      vertex  0.000000e+000  1.500000e+000  1.500000e+000
      vertex  0.000000e+000  0.000000e+000  0.000000e+000
    endloop
  endfacet
  facet normal -1.000000e+000  -0.000000e+000  0.000000e+000
    outer loop
      vertex  0.000000e+000  1.500000e+000  1.500000e+000
      vertex  0.000000e+000  2.000000e+001  1.500000e+000
      vertex  0.000000e+000  0.000000e+000  0.000000e+000
    endloop
  endfacet
  facet normal -1.000000e+000  0.000000e+000  0.000000e+000
    outer loop
      vertex  0.000000e+000  0.000000e+000  0.000000e+000
      vertex  0.000000e+000  2.000000e+001  1.500000e+000
      vertex  0.000000e+000  2.000000e+001  0.000000e+000
    endloop
  endfacet
endsolid CATIA STL
