solid CATIA STL
  facet normal -9.238799e-001 -3.826824e-001  -0.000000e+000
    outer loop
      vertex  1.473723e+002  9.871222e+000  0.000000e+000
      vertex  1.468450e+002  1.114402e+001  1.500000e+000
      vertex  1.468450e+002  1.114402e+001  0.000000e+000
    endloop
  endfacet
  facet normal -3.826820e-001 -9.238801e-001  0.000000e+000
    outer loop
      vertex  1.468450e+002  1.114402e+001  0.000000e+000
      vertex  1.468450e+002  1.114402e+001  1.500000e+000
      vertex  1.455723e+002  1.167122e+001  1.500000e+000
    endloop
  endfacet
  facet normal -3.826820e-001 -9.238801e-001  -0.000000e+000
    outer loop
      vertex  1.468450e+002  1.114402e+001  0.000000e+000
      vertex  1.455723e+002  1.167122e+001  1.500000e+000
      vertex  1.455723e+002  1.167122e+001 -2.498002e-017
    endloop
  endfacet
  facet normal -9.238799e-001 -3.826824e-001  0.000000e+000
    outer loop
      vertex  1.468450e+002  1.114402e+001  1.500000e+000
      vertex  1.473723e+002  9.871222e+000  0.000000e+000
      vertex  1.473723e+002  9.871222e+000  1.500000e+000
    endloop
  endfacet
  facet normal -9.238799e-001  3.826827e-001  0.000000e+000
    outer loop
      vertex  1.473723e+002  9.871222e+000  1.500000e+000
      vertex  1.473723e+002  9.871222e+000  0.000000e+000
      vertex  1.468450e+002  8.598431e+000  0.000000e+000
    endloop
  endfacet
  facet normal -9.238799e-001  3.826827e-001  0.000000e+000
    outer loop
      vertex  1.473723e+002  9.871222e+000  1.500000e+000
      vertex  1.468450e+002  8.598431e+000  0.000000e+000
      vertex  1.468450e+002  8.598431e+000  1.500000e+000
    endloop
  endfacet
  facet normal -3.826820e-001  9.238801e-001  0.000000e+000
    outer loop
      vertex  1.468450e+002  8.598431e+000  1.500000e+000
      vertex  1.468450e+002  8.598431e+000  0.000000e+000
      vertex  1.455723e+002  8.071223e+000  2.498002e-017
    endloop
  endfacet
  facet normal -3.826820e-001  9.238801e-001  0.000000e+000
    outer loop
      vertex  1.468450e+002  8.598431e+000  1.500000e+000
      vertex  1.455723e+002  8.071223e+000  2.498002e-017
      vertex  1.455723e+002  8.071223e+000  1.500000e+000
    endloop
  endfacet
  facet normal  9.238799e-001  3.826827e-001  0.000000e+000
    outer loop
      vertex  1.437722e+002  9.871222e+000  0.000000e+000
      vertex  1.442995e+002  8.598431e+000  1.500000e+000
      vertex  1.442995e+002  8.598431e+000  0.000000e+000
    endloop
  endfacet
  facet normal  3.826820e-001  9.238801e-001  -0.000000e+000
    outer loop
      vertex  1.442995e+002  8.598431e+000  0.000000e+000
      vertex  1.442995e+002  8.598431e+000  1.500000e+000
      vertex  1.455723e+002  8.071223e+000  1.500000e+000
    endloop
  endfacet
  facet normal  3.826820e-001  9.238801e-001  0.000000e+000
    outer loop
      vertex  1.442995e+002  8.598431e+000  0.000000e+000
      vertex  1.455723e+002  8.071223e+000  1.500000e+000
      vertex  1.455723e+002  8.071223e+000  2.498002e-017
    endloop
  endfacet
  facet normal  9.238799e-001  3.826827e-001  -0.000000e+000
    outer loop
      vertex  1.442995e+002  8.598431e+000  1.500000e+000
      vertex  1.437722e+002  9.871222e+000  0.000000e+000
      vertex  1.437722e+002  9.871222e+000  1.500000e+000
    endloop
  endfacet
  facet normal  9.238799e-001 -3.826824e-001  0.000000e+000
    outer loop
      vertex  1.437722e+002  9.871222e+000  1.500000e+000
      vertex  1.437722e+002  9.871222e+000  0.000000e+000
      vertex  1.442995e+002  1.114402e+001  0.000000e+000
    endloop
  endfacet
  facet normal  9.238799e-001 -3.826824e-001  0.000000e+000
    outer loop
      vertex  1.437722e+002  9.871222e+000  1.500000e+000
      vertex  1.442995e+002  1.114402e+001  0.000000e+000
      vertex  1.442995e+002  1.114402e+001  1.500000e+000
    endloop
  endfacet
  facet normal  3.826820e-001 -9.238801e-001  0.000000e+000
    outer loop
      vertex  1.442995e+002  1.114402e+001  1.500000e+000
      vertex  1.442995e+002  1.114402e+001  0.000000e+000
      vertex  1.455723e+002  1.167122e+001 -2.498002e-017
    endloop
  endfacet
  facet normal  3.826820e-001 -9.238801e-001  0.000000e+000
    outer loop
      vertex  1.442995e+002  1.114402e+001  1.500000e+000
      vertex  1.455723e+002  1.167122e+001 -2.498002e-017
      vertex  1.455723e+002  1.167122e+001  1.500000e+000
    endloop
  endfacet
  facet normal -9.238799e-001 -3.826824e-001  -0.000000e+000
    outer loop
      vertex  1.073722e+002  9.871222e+000  0.000000e+000
      vertex  1.068450e+002  1.114402e+001  1.500000e+000
      vertex  1.068450e+002  1.114402e+001  0.000000e+000
    endloop
  endfacet
  facet normal -3.826840e-001 -9.238793e-001  0.000000e+000
    outer loop
      vertex  1.068450e+002  1.114402e+001  0.000000e+000
      vertex  1.068450e+002  1.114402e+001  1.500000e+000
      vertex  1.055723e+002  1.167122e+001  1.500000e+000
    endloop
  endfacet
  facet normal -3.826840e-001 -9.238793e-001  -0.000000e+000
    outer loop
      vertex  1.068450e+002  1.114402e+001  0.000000e+000
      vertex  1.055723e+002  1.167122e+001  1.500000e+000
      vertex  1.055723e+002  1.167122e+001 -2.498002e-017
    endloop
  endfacet
  facet normal -9.238799e-001 -3.826824e-001  0.000000e+000
    outer loop
      vertex  1.068450e+002  1.114402e+001  1.500000e+000
      vertex  1.073722e+002  9.871222e+000  0.000000e+000
      vertex  1.073722e+002  9.871222e+000  1.500000e+000
    endloop
  endfacet
  facet normal -9.238799e-001  3.826827e-001  0.000000e+000
    outer loop
      vertex  1.073722e+002  9.871222e+000  1.500000e+000
      vertex  1.073722e+002  9.871222e+000  0.000000e+000
      vertex  1.068450e+002  8.598431e+000  0.000000e+000
    endloop
  endfacet
  facet normal -9.238799e-001  3.826827e-001  0.000000e+000
    outer loop
      vertex  1.073722e+002  9.871222e+000  1.500000e+000
      vertex  1.068450e+002  8.598431e+000  0.000000e+000
      vertex  1.068450e+002  8.598431e+000  1.500000e+000
    endloop
  endfacet
  facet normal -3.826840e-001  9.238793e-001  0.000000e+000
    outer loop
      vertex  1.068450e+002  8.598431e+000  1.500000e+000
      vertex  1.068450e+002  8.598431e+000  0.000000e+000
      vertex  1.055723e+002  8.071223e+000  2.498002e-017
    endloop
  endfacet
  facet normal -3.826840e-001  9.238793e-001  0.000000e+000
    outer loop
      vertex  1.068450e+002  8.598431e+000  1.500000e+000
      vertex  1.055723e+002  8.071223e+000  2.498002e-017
      vertex  1.055723e+002  8.071223e+000  1.500000e+000
    endloop
  endfacet
  facet normal  9.238799e-001  3.826827e-001  0.000000e+000
    outer loop
      vertex  1.037722e+002  9.871222e+000  0.000000e+000
      vertex  1.042995e+002  8.598431e+000  1.500000e+000
      vertex  1.042995e+002  8.598431e+000  0.000000e+000
    endloop
  endfacet
  facet normal  3.826820e-001  9.238801e-001  -0.000000e+000
    outer loop
      vertex  1.042995e+002  8.598431e+000  0.000000e+000
      vertex  1.042995e+002  8.598431e+000  1.500000e+000
      vertex  1.055723e+002  8.071223e+000  1.500000e+000
    endloop
  endfacet
  facet normal  3.826820e-001  9.238801e-001  0.000000e+000
    outer loop
      vertex  1.042995e+002  8.598431e+000  0.000000e+000
      vertex  1.055723e+002  8.071223e+000  1.500000e+000
      vertex  1.055723e+002  8.071223e+000  2.498002e-017
    endloop
  endfacet
  facet normal  9.238799e-001  3.826827e-001  -0.000000e+000
    outer loop
      vertex  1.042995e+002  8.598431e+000  1.500000e+000
      vertex  1.037722e+002  9.871222e+000  0.000000e+000
      vertex  1.037722e+002  9.871222e+000  1.500000e+000
    endloop
  endfacet
  facet normal  9.238799e-001 -3.826824e-001  0.000000e+000
    outer loop
      vertex  1.037722e+002  9.871222e+000  1.500000e+000
      vertex  1.037722e+002  9.871222e+000  0.000000e+000
      vertex  1.042995e+002  1.114402e+001  0.000000e+000
    endloop
  endfacet
  facet normal  9.238799e-001 -3.826824e-001  0.000000e+000
    outer loop
      vertex  1.037722e+002  9.871222e+000  1.500000e+000
      vertex  1.042995e+002  1.114402e+001  0.000000e+000
      vertex  1.042995e+002  1.114402e+001  1.500000e+000
    endloop
  endfacet
  facet normal  3.826820e-001 -9.238801e-001  0.000000e+000
    outer loop
      vertex  1.042995e+002  1.114402e+001  1.500000e+000
      vertex  1.042995e+002  1.114402e+001  0.000000e+000
      vertex  1.055723e+002  1.167122e+001 -2.498002e-017
    endloop
  endfacet
  facet normal  3.826820e-001 -9.238801e-001  0.000000e+000
    outer loop
      vertex  1.042995e+002  1.114402e+001  1.500000e+000
      vertex  1.055723e+002  1.167122e+001 -2.498002e-017
      vertex  1.055723e+002  1.167122e+001  1.500000e+000
    endloop
  endfacet
  facet normal -9.238799e-001 -3.826824e-001  -0.000000e+000
    outer loop
      vertex  6.737225e+001  9.871222e+000  0.000000e+000
      vertex  6.684504e+001  1.114402e+001  1.500000e+000
      vertex  6.684504e+001  1.114402e+001  0.000000e+000
    endloop
  endfacet
  facet normal -3.826840e-001 -9.238793e-001  0.000000e+000
    outer loop
      vertex  6.684504e+001  1.114402e+001  0.000000e+000
      vertex  6.684504e+001  1.114402e+001  1.500000e+000
      vertex  6.557225e+001  1.167122e+001  1.500000e+000
    endloop
  endfacet
  facet normal -3.826840e-001 -9.238793e-001  -0.000000e+000
    outer loop
      vertex  6.684504e+001  1.114402e+001  0.000000e+000
      vertex  6.557225e+001  1.167122e+001  1.500000e+000
      vertex  6.557225e+001  1.167122e+001 -2.498002e-017
    endloop
  endfacet
  facet normal -9.238799e-001 -3.826824e-001  0.000000e+000
    outer loop
      vertex  6.684504e+001  1.114402e+001  1.500000e+000
      vertex  6.737225e+001  9.871222e+000  0.000000e+000
      vertex  6.737225e+001  9.871222e+000  1.500000e+000
    endloop
  endfacet
  facet normal -9.238799e-001  3.826827e-001  0.000000e+000
    outer loop
      vertex  6.737225e+001  9.871222e+000  1.500000e+000
      vertex  6.737225e+001  9.871222e+000  0.000000e+000
      vertex  6.684504e+001  8.598431e+000  0.000000e+000
    endloop
  endfacet
  facet normal -9.238799e-001  3.826827e-001  0.000000e+000
    outer loop
      vertex  6.737225e+001  9.871222e+000  1.500000e+000
      vertex  6.684504e+001  8.598431e+000  0.000000e+000
      vertex  6.684504e+001  8.598431e+000  1.500000e+000
    endloop
  endfacet
  facet normal -3.826840e-001  9.238793e-001  0.000000e+000
    outer loop
      vertex  6.684504e+001  8.598431e+000  1.500000e+000
      vertex  6.684504e+001  8.598431e+000  0.000000e+000
      vertex  6.557225e+001  8.071223e+000  2.498002e-017
    endloop
  endfacet
  facet normal -3.826840e-001  9.238793e-001  0.000000e+000
    outer loop
      vertex  6.684504e+001  8.598431e+000  1.500000e+000
      vertex  6.557225e+001  8.071223e+000  2.498002e-017
      vertex  6.557225e+001  8.071223e+000  1.500000e+000
    endloop
  endfacet
  facet normal  9.238799e-001  3.826827e-001  0.000000e+000
    outer loop
      vertex  6.377225e+001  9.871222e+000  0.000000e+000
      vertex  6.429945e+001  8.598431e+000  1.500000e+000
      vertex  6.429945e+001  8.598431e+000  0.000000e+000
    endloop
  endfacet
  facet normal  3.826820e-001  9.238801e-001  -0.000000e+000
    outer loop
      vertex  6.429945e+001  8.598431e+000  0.000000e+000
      vertex  6.429945e+001  8.598431e+000  1.500000e+000
      vertex  6.557225e+001  8.071223e+000  1.500000e+000
    endloop
  endfacet
  facet normal  3.826820e-001  9.238801e-001  0.000000e+000
    outer loop
      vertex  6.429945e+001  8.598431e+000  0.000000e+000
      vertex  6.557225e+001  8.071223e+000  1.500000e+000
      vertex  6.557225e+001  8.071223e+000  2.498002e-017
    endloop
  endfacet
  facet normal  9.238799e-001  3.826827e-001  -0.000000e+000
    outer loop
      vertex  6.429945e+001  8.598431e+000  1.500000e+000
      vertex  6.377225e+001  9.871222e+000  0.000000e+000
      vertex  6.377225e+001  9.871222e+000  1.500000e+000
    endloop
  endfacet
  facet normal  9.238799e-001 -3.826824e-001  0.000000e+000
    outer loop
      vertex  6.377225e+001  9.871222e+000  1.500000e+000
      vertex  6.377225e+001  9.871222e+000  0.000000e+000
      vertex  6.429945e+001  1.114402e+001  0.000000e+000
    endloop
  endfacet
  facet normal  9.238799e-001 -3.826824e-001  0.000000e+000
    outer loop
      vertex  6.377225e+001  9.871222e+000  1.500000e+000
      vertex  6.429945e+001  1.114402e+001  0.000000e+000
      vertex  6.429945e+001  1.114402e+001  1.500000e+000
    endloop
  endfacet
  facet normal  3.826820e-001 -9.238801e-001  0.000000e+000
    outer loop
      vertex  6.429945e+001  1.114402e+001  1.500000e+000
      vertex  6.429945e+001  1.114402e+001  0.000000e+000
      vertex  6.557225e+001  1.167122e+001 -2.498002e-017
    endloop
  endfacet
  facet normal  3.826820e-001 -9.238801e-001  0.000000e+000
    outer loop
      vertex  6.429945e+001  1.114402e+001  1.500000e+000
      vertex  6.557225e+001  1.167122e+001 -2.498002e-017
      vertex  6.557225e+001  1.167122e+001  1.500000e+000
    endloop
  endfacet
  facet normal -9.238794e-001 -3.826836e-001  -0.000000e+000
    outer loop
      vertex  2.737225e+001  9.871222e+000  0.000000e+000
      vertex  2.684504e+001  1.114402e+001  1.500000e+000
      vertex  2.684504e+001  1.114402e+001  0.000000e+000
    endloop
  endfacet
  facet normal -3.826830e-001 -9.238797e-001  0.000000e+000
    outer loop
      vertex  2.684504e+001  1.114402e+001  0.000000e+000
      vertex  2.684504e+001  1.114402e+001  1.500000e+000
      vertex  2.557225e+001  1.167122e+001  1.500000e+000
    endloop
  endfacet
  facet normal -3.826830e-001 -9.238797e-001  -0.000000e+000
    outer loop
      vertex  2.684504e+001  1.114402e+001  0.000000e+000
      vertex  2.557225e+001  1.167122e+001  1.500000e+000
      vertex  2.557225e+001  1.167122e+001 -2.498002e-017
    endloop
  endfacet
  facet normal -9.238794e-001 -3.826836e-001  0.000000e+000
    outer loop
      vertex  2.684504e+001  1.114402e+001  1.500000e+000
      vertex  2.737225e+001  9.871222e+000  0.000000e+000
      vertex  2.737225e+001  9.871222e+000  1.500000e+000
    endloop
  endfacet
  facet normal -9.238793e-001  3.826838e-001  0.000000e+000
    outer loop
      vertex  2.737225e+001  9.871222e+000  1.500000e+000
      vertex  2.737225e+001  9.871222e+000  0.000000e+000
      vertex  2.684504e+001  8.598431e+000  0.000000e+000
    endloop
  endfacet
  facet normal -9.238793e-001  3.826838e-001  0.000000e+000
    outer loop
      vertex  2.737225e+001  9.871222e+000  1.500000e+000
      vertex  2.684504e+001  8.598431e+000  0.000000e+000
      vertex  2.684504e+001  8.598431e+000  1.500000e+000
    endloop
  endfacet
  facet normal -3.826830e-001  9.238797e-001  0.000000e+000
    outer loop
      vertex  2.684504e+001  8.598431e+000  1.500000e+000
      vertex  2.684504e+001  8.598431e+000  0.000000e+000
      vertex  2.557225e+001  8.071223e+000  2.498002e-017
    endloop
  endfacet
  facet normal -3.826830e-001  9.238797e-001  0.000000e+000
    outer loop
      vertex  2.684504e+001  8.598431e+000  1.500000e+000
      vertex  2.557225e+001  8.071223e+000  2.498002e-017
      vertex  2.557225e+001  8.071223e+000  1.500000e+000
    endloop
  endfacet
  facet normal  9.238793e-001  3.826838e-001  0.000000e+000
    outer loop
      vertex  2.377225e+001  9.871222e+000  0.000000e+000
      vertex  2.429946e+001  8.598431e+000  1.500000e+000
      vertex  2.429946e+001  8.598431e+000  0.000000e+000
    endloop
  endfacet
  facet normal  3.826835e-001  9.238795e-001  -0.000000e+000
    outer loop
      vertex  2.429946e+001  8.598431e+000  0.000000e+000
      vertex  2.429946e+001  8.598431e+000  1.500000e+000
      vertex  2.557225e+001  8.071223e+000  1.500000e+000
    endloop
  endfacet
  facet normal  3.826835e-001  9.238795e-001  0.000000e+000
    outer loop
      vertex  2.429946e+001  8.598431e+000  0.000000e+000
      vertex  2.557225e+001  8.071223e+000  1.500000e+000
      vertex  2.557225e+001  8.071223e+000  2.498002e-017
    endloop
  endfacet
  facet normal  9.238793e-001  3.826838e-001  -0.000000e+000
    outer loop
      vertex  2.429946e+001  8.598431e+000  1.500000e+000
      vertex  2.377225e+001  9.871222e+000  0.000000e+000
      vertex  2.377225e+001  9.871222e+000  1.500000e+000
    endloop
  endfacet
  facet normal  9.238794e-001 -3.826836e-001  0.000000e+000
    outer loop
      vertex  2.377225e+001  9.871222e+000  1.500000e+000
      vertex  2.377225e+001  9.871222e+000  0.000000e+000
      vertex  2.429946e+001  1.114402e+001  0.000000e+000
    endloop
  endfacet
  facet normal  9.238794e-001 -3.826836e-001  0.000000e+000
    outer loop
      vertex  2.377225e+001  9.871222e+000  1.500000e+000
      vertex  2.429946e+001  1.114402e+001  0.000000e+000
      vertex  2.429946e+001  1.114402e+001  1.500000e+000
    endloop
  endfacet
  facet normal  3.826835e-001 -9.238795e-001  0.000000e+000
    outer loop
      vertex  2.429946e+001  1.114402e+001  1.500000e+000
      vertex  2.429946e+001  1.114402e+001  0.000000e+000
      vertex  2.557225e+001  1.167122e+001 -2.498002e-017
    endloop
  endfacet
  facet normal  3.826835e-001 -9.238795e-001  0.000000e+000
    outer loop
      vertex  2.429946e+001  1.114402e+001  1.500000e+000
      vertex  2.557225e+001  1.167122e+001 -2.498002e-017
      vertex  2.557225e+001  1.167122e+001  1.500000e+000
    endloop
  endfacet
  facet normal  1.781366e-018 -5.168236e-017 -9.999999e-001
    outer loop
      vertex  1.055723e+002  8.071223e+000  2.498002e-017
      vertex  1.068450e+002  8.598431e+000  0.000000e+000
      vertex  1.437722e+002  9.871222e+000  0.000000e+000
    endloop
  endfacet
  facet normal  0.000000e+000  -0.000000e+000 -1.000000e+000
    outer loop
      vertex  1.068450e+002  8.598431e+000  0.000000e+000
      vertex  1.073722e+002  9.871222e+000  0.000000e+000
      vertex  1.437722e+002  9.871222e+000  0.000000e+000
    endloop
  endfacet
  facet normal  1.781366e-018 -5.168236e-017 -9.999999e-001
    outer loop
      vertex  6.557225e+001  8.071223e+000  2.498002e-017
      vertex  6.684504e+001  8.598431e+000  0.000000e+000
      vertex  1.037722e+002  9.871222e+000  0.000000e+000
    endloop
  endfacet
  facet normal  0.000000e+000  -0.000000e+000 -1.000000e+000
    outer loop
      vertex  6.684504e+001  8.598431e+000  0.000000e+000
      vertex  6.737225e+001  9.871222e+000  0.000000e+000
      vertex  1.037722e+002  9.871222e+000  0.000000e+000
    endloop
  endfacet
  facet normal  1.781367e-018 -5.168237e-017 -1.000000e+000
    outer loop
      vertex  2.557225e+001  8.071223e+000  2.498002e-017
      vertex  2.684504e+001  8.598431e+000  0.000000e+000
      vertex  6.377225e+001  9.871222e+000  0.000000e+000
    endloop
  endfacet
  facet normal  0.000000e+000  -0.000000e+000 -1.000000e+000
    outer loop
      vertex  2.684504e+001  8.598431e+000  0.000000e+000
      vertex  2.737225e+001  9.871222e+000  0.000000e+000
      vertex  6.377225e+001  9.871222e+000  0.000000e+000
    endloop
  endfacet
  facet normal -1.781368e-018 -5.168237e-017 -1.000000e+000
    outer loop
      vertex  1.055723e+002  1.167122e+001 -2.498002e-017
      vertex  1.437722e+002  9.871222e+000  0.000000e+000
      vertex  1.068450e+002  1.114402e+001  0.000000e+000
    endloop
  endfacet
  facet normal  0.000000e+000  0.000000e+000 -1.000000e+000
    outer loop
      vertex  1.068450e+002  1.114402e+001  0.000000e+000
      vertex  1.437722e+002  9.871222e+000  0.000000e+000
      vertex  1.073722e+002  9.871222e+000  0.000000e+000
    endloop
  endfacet
  facet normal -1.781368e-018 -5.168237e-017 -1.000000e+000
    outer loop
      vertex  6.557225e+001  1.167122e+001 -2.498002e-017
      vertex  1.037722e+002  9.871222e+000  0.000000e+000
      vertex  6.684504e+001  1.114402e+001  0.000000e+000
    endloop
  endfacet
  facet normal  0.000000e+000  0.000000e+000 -1.000000e+000
    outer loop
      vertex  6.684504e+001  1.114402e+001  0.000000e+000
      vertex  1.037722e+002  9.871222e+000  0.000000e+000
      vertex  6.737225e+001  9.871222e+000  0.000000e+000
    endloop
  endfacet
  facet normal -1.781369e-018 -5.168238e-017 -1.000000e+000
    outer loop
      vertex  2.557225e+001  1.167122e+001 -2.498002e-017
      vertex  6.377225e+001  9.871222e+000  0.000000e+000
      vertex  2.684504e+001  1.114402e+001  0.000000e+000
    endloop
  endfacet
  facet normal  0.000000e+000  0.000000e+000 -1.000000e+000
    outer loop
      vertex  2.684504e+001  1.114402e+001  0.000000e+000
      vertex  6.377225e+001  9.871222e+000  0.000000e+000
      vertex  2.737225e+001  9.871222e+000  0.000000e+000
    endloop
  endfacet
  facet normal  0.000000e+000  2.999242e-018 -1.000000e+000
    outer loop
      vertex  0.000000e+000  2.000000e+001  0.000000e+000
      vertex  1.623412e+002  2.000000e+001  0.000000e+000
      vertex  1.455723e+002  1.167122e+001 -2.498002e-017
    endloop
  endfacet
  facet normal -2.532670e-018 -4.126733e-017 -1.000000e+000
    outer loop
      vertex  0.000000e+000  2.000000e+001  0.000000e+000
      vertex  1.455723e+002  1.167122e+001 -2.498002e-017
      vertex  1.442995e+002  1.114402e+001  0.000000e+000
    endloop
  endfacet
  facet normal  -0.000000e+000  0.000000e+000 -1.000000e+000
    outer loop
      vertex  0.000000e+000  2.000000e+001  0.000000e+000
      vertex  1.442995e+002  1.114402e+001  0.000000e+000
      vertex  1.437722e+002  9.871222e+000  0.000000e+000
    endloop
  endfacet
  facet normal  1.974702e-018  2.802978e-017 -1.000000e+000
    outer loop
      vertex  0.000000e+000  2.000000e+001  0.000000e+000
      vertex  1.437722e+002  9.871222e+000  0.000000e+000
      vertex  1.055723e+002  1.167122e+001 -2.498002e-017
    endloop
  endfacet
  facet normal -3.338741e-018 -3.932130e-017 -1.000000e+000
    outer loop
      vertex  0.000000e+000  2.000000e+001  0.000000e+000
      vertex  1.055723e+002  1.167122e+001 -2.498002e-017
      vertex  1.042995e+002  1.114402e+001  0.000000e+000
    endloop
  endfacet
  facet normal  -0.000000e+000  0.000000e+000 -1.000000e+000
    outer loop
      vertex  0.000000e+000  2.000000e+001  0.000000e+000
      vertex  1.042995e+002  1.114402e+001  0.000000e+000
      vertex  1.037722e+002  9.871222e+000  0.000000e+000
    endloop
  endfacet
  facet normal  1.264268e-018  1.295279e-017 -1.000000e+000
    outer loop
      vertex  0.000000e+000  2.000000e+001  0.000000e+000
      vertex  1.037722e+002  9.871222e+000  0.000000e+000
      vertex  6.557225e+001  1.167122e+001 -2.498002e-017
    endloop
  endfacet
  facet normal -4.897447e-018 -3.555823e-017 -1.000000e+000
    outer loop
      vertex  0.000000e+000  2.000000e+001  0.000000e+000
      vertex  6.557225e+001  1.167122e+001 -2.498002e-017
      vertex  6.429945e+001  1.114402e+001  0.000000e+000
    endloop
  endfacet
  facet normal  -0.000000e+000  0.000000e+000 -1.000000e+000
    outer loop
      vertex  0.000000e+000  2.000000e+001  0.000000e+000
      vertex  6.429945e+001  1.114402e+001  0.000000e+000
      vertex  6.377225e+001  9.871222e+000  0.000000e+000
    endloop
  endfacet
  facet normal  9.297678e-019  5.853952e-018 -1.000000e+000
    outer loop
      vertex  0.000000e+000  2.000000e+001  0.000000e+000
      vertex  6.377225e+001  9.871222e+000  0.000000e+000
      vertex  2.557225e+001  1.167122e+001 -2.498002e-017
    endloop
  endfacet
  facet normal -9.185970e-018 -2.520488e-017 -1.000000e+000
    outer loop
      vertex  0.000000e+000  2.000000e+001  0.000000e+000
      vertex  2.557225e+001  1.167122e+001 -2.498002e-017
      vertex  2.429946e+001  1.114402e+001  0.000000e+000
    endloop
  endfacet
  facet normal  -0.000000e+000  0.000000e+000 -1.000000e+000
    outer loop
      vertex  0.000000e+000  2.000000e+001  0.000000e+000
      vertex  2.429946e+001  1.114402e+001  0.000000e+000
      vertex  2.377225e+001  9.871222e+000  0.000000e+000
    endloop
  endfacet
  facet normal  0.000000e+000  0.000000e+000 -9.999999e-001
    outer loop
      vertex  0.000000e+000  0.000000e+000  0.000000e+000
      vertex  0.000000e+000  2.000000e+001  0.000000e+000
      vertex  2.377225e+001  9.871222e+000  0.000000e+000
    endloop
  endfacet
  facet normal  0.000000e+000  -0.000000e+000 -1.000000e+000
    outer loop
      vertex  0.000000e+000  0.000000e+000  0.000000e+000
      vertex  2.377225e+001  9.871222e+000  0.000000e+000
      vertex  2.429946e+001  8.598431e+000  0.000000e+000
    endloop
  endfacet
  facet normal  9.041896e-018 -2.555270e-017 -1.000000e+000
    outer loop
      vertex  0.000000e+000  0.000000e+000  0.000000e+000
      vertex  2.429946e+001  8.598431e+000  0.000000e+000
      vertex  2.557225e+001  8.071223e+000  2.498002e-017
    endloop
  endfacet
  facet normal -9.401145e-019  6.073535e-018 -1.000000e+000
    outer loop
      vertex  0.000000e+000  0.000000e+000  0.000000e+000
      vertex  2.557225e+001  8.071223e+000  2.498002e-017
      vertex  6.377225e+001  9.871222e+000  0.000000e+000
    endloop
  endfacet
  facet normal  0.000000e+000  -0.000000e+000 -9.999999e-001
    outer loop
      vertex  0.000000e+000  0.000000e+000  0.000000e+000
      vertex  6.377225e+001  9.871222e+000  0.000000e+000
      vertex  6.429945e+001  8.598431e+000  0.000000e+000
    endloop
  endfacet
  facet normal  4.789777e-018 -3.581817e-017 -1.000000e+000
    outer loop
      vertex  0.000000e+000  0.000000e+000  0.000000e+000
      vertex  6.429945e+001  8.598431e+000  0.000000e+000
      vertex  6.557225e+001  8.071223e+000  2.498002e-017
    endloop
  endfacet
  facet normal -1.295824e-018  1.362249e-017 -9.999999e-001
    outer loop
      vertex  0.000000e+000  0.000000e+000  0.000000e+000
      vertex  6.557225e+001  8.071223e+000  2.498002e-017
      vertex  1.037722e+002  9.871222e+000  0.000000e+000
    endloop
  endfacet
  facet normal  0.000000e+000  -0.000000e+000 -1.000000e+000
    outer loop
      vertex  0.000000e+000  0.000000e+000  0.000000e+000
      vertex  1.037722e+002  9.871222e+000  0.000000e+000
      vertex  1.042995e+002  8.598431e+000  0.000000e+000
    endloop
  endfacet
  facet normal  3.257759e-018 -3.951681e-017 -1.000000e+000
    outer loop
      vertex  0.000000e+000  0.000000e+000  0.000000e+000
      vertex  1.042995e+002  8.598431e+000  0.000000e+000
      vertex  1.055723e+002  8.071223e+000  2.498002e-017
    endloop
  endfacet
  facet normal -2.084553e-018  3.036107e-017 -1.000000e+000
    outer loop
      vertex  0.000000e+000  0.000000e+000  0.000000e+000
      vertex  1.055723e+002  8.071223e+000  2.498002e-017
      vertex  1.437722e+002  9.871222e+000  0.000000e+000
    endloop
  endfacet
  facet normal  0.000000e+000  -0.000000e+000 -1.000000e+000
    outer loop
      vertex  0.000000e+000  0.000000e+000  0.000000e+000
      vertex  1.437722e+002  9.871222e+000  0.000000e+000
      vertex  1.442995e+002  8.598431e+000  0.000000e+000
    endloop
  endfacet
  facet normal  2.468277e-018 -4.142279e-017 -1.000000e+000
    outer loop
      vertex  0.000000e+000  0.000000e+000  0.000000e+000
      vertex  1.442995e+002  8.598431e+000  0.000000e+000
      vertex  1.455723e+002  8.071223e+000  2.498002e-017
    endloop
  endfacet
  facet normal  0.000000e+000  0.000000e+000 -1.000000e+000
    outer loop
      vertex  1.623412e+002  2.000000e+001  0.000000e+000
      vertex  1.507942e+002  0.000000e+000  0.000000e+000
      vertex  1.473723e+002  9.871222e+000  0.000000e+000
    endloop
  endfacet
  facet normal  0.000000e+000  0.000000e+000 -1.000000e+000
    outer loop
      vertex  1.623412e+002  2.000000e+001  0.000000e+000
      vertex  1.473723e+002  9.871222e+000  0.000000e+000
      vertex  1.468450e+002  1.114402e+001  0.000000e+000
    endloop
  endfacet
  facet normal  1.137886e-017 -1.991065e-017 -1.000000e+000
    outer loop
      vertex  1.623412e+002  2.000000e+001  0.000000e+000
      vertex  1.468450e+002  1.114402e+001  0.000000e+000
      vertex  1.455723e+002  1.167122e+001 -2.498002e-017
    endloop
  endfacet
  facet normal  0.000000e+000  3.094948e-018 -1.000000e+000
    outer loop
      vertex  1.507942e+002  0.000000e+000  0.000000e+000
      vertex  0.000000e+000  0.000000e+000  0.000000e+000
      vertex  1.455723e+002  8.071223e+000  2.498002e-017
    endloop
  endfacet
  facet normal -1.648916e-017 -7.573247e-018 -1.000000e+000
    outer loop
      vertex  1.507942e+002  0.000000e+000  0.000000e+000
      vertex  1.455723e+002  8.071223e+000  2.498002e-017
      vertex  1.468450e+002  8.598431e+000  0.000000e+000
    endloop
  endfacet
  facet normal  0.000000e+000  0.000000e+000 -1.000000e+000
    outer loop
      vertex  1.507942e+002  0.000000e+000  0.000000e+000
      vertex  1.468450e+002  8.598431e+000  0.000000e+000
      vertex  1.473723e+002  9.871222e+000  0.000000e+000
    endloop
  endfacet
  facet normal  -0.000000e+000  -0.000000e+000  1.000000e+000
    outer loop
      vertex  1.055723e+002  1.167122e+001  1.500000e+000
      vertex  1.068450e+002  1.114402e+001  1.500000e+000
      vertex  1.437722e+002  9.871222e+000  1.500000e+000
    endloop
  endfacet
  facet normal  0.000000e+000  -0.000000e+000  1.000000e+000
    outer loop
      vertex  1.068450e+002  1.114402e+001  1.500000e+000
      vertex  1.073722e+002  9.871222e+000  1.500000e+000
      vertex  1.437722e+002  9.871222e+000  1.500000e+000
    endloop
  endfacet
  facet normal  -0.000000e+000  -0.000000e+000  1.000000e+000
    outer loop
      vertex  6.557225e+001  1.167122e+001  1.500000e+000
      vertex  6.684504e+001  1.114402e+001  1.500000e+000
      vertex  1.037722e+002  9.871222e+000  1.500000e+000
    endloop
  endfacet
  facet normal  0.000000e+000  -0.000000e+000  1.000000e+000
    outer loop
      vertex  6.684504e+001  1.114402e+001  1.500000e+000
      vertex  6.737225e+001  9.871222e+000  1.500000e+000
      vertex  1.037722e+002  9.871222e+000  1.500000e+000
    endloop
  endfacet
  facet normal  -0.000000e+000  -0.000000e+000  1.000000e+000
    outer loop
      vertex  2.557225e+001  1.167122e+001  1.500000e+000
      vertex  2.684504e+001  1.114402e+001  1.500000e+000
      vertex  6.377225e+001  9.871222e+000  1.500000e+000
    endloop
  endfacet
  facet normal  0.000000e+000  -0.000000e+000  1.000000e+000
    outer loop
      vertex  2.684504e+001  1.114402e+001  1.500000e+000
      vertex  2.737225e+001  9.871222e+000  1.500000e+000
      vertex  6.377225e+001  9.871222e+000  1.500000e+000
    endloop
  endfacet
  facet normal  0.000000e+000  0.000000e+000  1.000000e+000
    outer loop
      vertex  1.055723e+002  8.071223e+000  1.500000e+000
      vertex  1.437722e+002  9.871222e+000  1.500000e+000
      vertex  1.068450e+002  8.598431e+000  1.500000e+000
    endloop
  endfacet
  facet normal  0.000000e+000  0.000000e+000  1.000000e+000
    outer loop
      vertex  1.068450e+002  8.598431e+000  1.500000e+000
      vertex  1.437722e+002  9.871222e+000  1.500000e+000
      vertex  1.073722e+002  9.871222e+000  1.500000e+000
    endloop
  endfacet
  facet normal  0.000000e+000  0.000000e+000  1.000000e+000
    outer loop
      vertex  6.557225e+001  8.071223e+000  1.500000e+000
      vertex  1.037722e+002  9.871222e+000  1.500000e+000
      vertex  6.684504e+001  8.598431e+000  1.500000e+000
    endloop
  endfacet
  facet normal  0.000000e+000  0.000000e+000  1.000000e+000
    outer loop
      vertex  6.684504e+001  8.598431e+000  1.500000e+000
      vertex  1.037722e+002  9.871222e+000  1.500000e+000
      vertex  6.737225e+001  9.871222e+000  1.500000e+000
    endloop
  endfacet
  facet normal  0.000000e+000  0.000000e+000  1.000000e+000
    outer loop
      vertex  2.557225e+001  8.071223e+000  1.500000e+000
      vertex  6.377225e+001  9.871222e+000  1.500000e+000
      vertex  2.684504e+001  8.598431e+000  1.500000e+000
    endloop
  endfacet
  facet normal  0.000000e+000  0.000000e+000  1.000000e+000
    outer loop
      vertex  2.684504e+001  8.598431e+000  1.500000e+000
      vertex  6.377225e+001  9.871222e+000  1.500000e+000
      vertex  2.737225e+001  9.871222e+000  1.500000e+000
    endloop
  endfacet
  facet normal  0.000000e+000  0.000000e+000  1.000000e+000
    outer loop
      vertex  1.516602e+002  1.500000e+000  1.500000e+000
      vertex  1.473723e+002  9.871222e+000  1.500000e+000
      vertex  1.468450e+002  8.598431e+000  1.500000e+000
    endloop
  endfacet
  facet normal  0.000000e+000  0.000000e+000  1.000000e+000
    outer loop
      vertex  1.516602e+002  1.500000e+000  1.500000e+000
      vertex  1.468450e+002  8.598431e+000  1.500000e+000
      vertex  1.455723e+002  8.071223e+000  1.500000e+000
    endloop
  endfacet
  facet normal  0.000000e+000  0.000000e+000  9.999999e-001
    outer loop
      vertex  1.516602e+002  1.500000e+000  1.500000e+000
      vertex  1.455723e+002  8.071223e+000  1.500000e+000
      vertex  0.000000e+000  1.500000e+000  1.500000e+000
    endloop
  endfacet
  facet normal  0.000000e+000  0.000000e+000  1.000000e+000
    outer loop
      vertex  0.000000e+000  1.500000e+000  1.500000e+000
      vertex  1.455723e+002  8.071223e+000  1.500000e+000
      vertex  1.442995e+002  8.598431e+000  1.500000e+000
    endloop
  endfacet
  facet normal  0.000000e+000  0.000000e+000  9.999999e-001
    outer loop
      vertex  0.000000e+000  1.500000e+000  1.500000e+000
      vertex  1.442995e+002  8.598431e+000  1.500000e+000
      vertex  1.437722e+002  9.871222e+000  1.500000e+000
    endloop
  endfacet
  facet normal  0.000000e+000  0.000000e+000  1.000000e+000
    outer loop
      vertex  0.000000e+000  1.500000e+000  1.500000e+000
      vertex  1.437722e+002  9.871222e+000  1.500000e+000
      vertex  1.055723e+002  8.071223e+000  1.500000e+000
    endloop
  endfacet
  facet normal  0.000000e+000  0.000000e+000  1.000000e+000
    outer loop
      vertex  0.000000e+000  1.500000e+000  1.500000e+000
      vertex  1.055723e+002  8.071223e+000  1.500000e+000
      vertex  1.042995e+002  8.598431e+000  1.500000e+000
    endloop
  endfacet
  facet normal  0.000000e+000  0.000000e+000  9.999999e-001
    outer loop
      vertex  0.000000e+000  1.500000e+000  1.500000e+000
      vertex  1.042995e+002  8.598431e+000  1.500000e+000
      vertex  1.037722e+002  9.871222e+000  1.500000e+000
    endloop
  endfacet
  facet normal  0.000000e+000  0.000000e+000  1.000000e+000
    outer loop
      vertex  0.000000e+000  1.500000e+000  1.500000e+000
      vertex  1.037722e+002  9.871222e+000  1.500000e+000
      vertex  6.557225e+001  8.071223e+000  1.500000e+000
    endloop
  endfacet
  facet normal  0.000000e+000  0.000000e+000  9.999999e-001
    outer loop
      vertex  0.000000e+000  1.500000e+000  1.500000e+000
      vertex  6.557225e+001  8.071223e+000  1.500000e+000
      vertex  6.429945e+001  8.598431e+000  1.500000e+000
    endloop
  endfacet
  facet normal  0.000000e+000  0.000000e+000  1.000000e+000
    outer loop
      vertex  0.000000e+000  1.500000e+000  1.500000e+000
      vertex  6.429945e+001  8.598431e+000  1.500000e+000
      vertex  6.377225e+001  9.871222e+000  1.500000e+000
    endloop
  endfacet
  facet normal  0.000000e+000  0.000000e+000  1.000000e+000
    outer loop
      vertex  0.000000e+000  1.500000e+000  1.500000e+000
      vertex  6.377225e+001  9.871222e+000  1.500000e+000
      vertex  2.557225e+001  8.071223e+000  1.500000e+000
    endloop
  endfacet
  facet normal  0.000000e+000  0.000000e+000  1.000000e+000
    outer loop
      vertex  0.000000e+000  1.500000e+000  1.500000e+000
      vertex  2.557225e+001  8.071223e+000  1.500000e+000
      vertex  2.429946e+001  8.598431e+000  1.500000e+000
    endloop
  endfacet
  facet normal  0.000000e+000  0.000000e+000  1.000000e+000
    outer loop
      vertex  0.000000e+000  1.500000e+000  1.500000e+000
      vertex  2.429946e+001  8.598431e+000  1.500000e+000
      vertex  2.377225e+001  9.871222e+000  1.500000e+000
    endloop
  endfacet
  facet normal  0.000000e+000  0.000000e+000  1.000000e+000
    outer loop
      vertex  0.000000e+000  2.000000e+001  1.500000e+000
      vertex  0.000000e+000  1.500000e+000  1.500000e+000
      vertex  2.377225e+001  9.871222e+000  1.500000e+000
    endloop
  endfacet
  facet normal  0.000000e+000  -0.000000e+000  1.000000e+000
    outer loop
      vertex  0.000000e+000  2.000000e+001  1.500000e+000
      vertex  2.377225e+001  9.871222e+000  1.500000e+000
      vertex  2.429946e+001  1.114402e+001  1.500000e+000
    endloop
  endfacet
  facet normal  0.000000e+000  -0.000000e+000  1.000000e+000
    outer loop
      vertex  0.000000e+000  2.000000e+001  1.500000e+000
      vertex  2.429946e+001  1.114402e+001  1.500000e+000
      vertex  2.557225e+001  1.167122e+001  1.500000e+000
    endloop
  endfacet
  facet normal  -0.000000e+000  -0.000000e+000  1.000000e+000
    outer loop
      vertex  0.000000e+000  2.000000e+001  1.500000e+000
      vertex  2.557225e+001  1.167122e+001  1.500000e+000
      vertex  6.377225e+001  9.871222e+000  1.500000e+000
    endloop
  endfacet
  facet normal  0.000000e+000  -0.000000e+000  1.000000e+000
    outer loop
      vertex  0.000000e+000  2.000000e+001  1.500000e+000
      vertex  6.377225e+001  9.871222e+000  1.500000e+000
      vertex  6.429945e+001  1.114402e+001  1.500000e+000
    endloop
  endfacet
  facet normal  0.000000e+000  -0.000000e+000  1.000000e+000
    outer loop
      vertex  0.000000e+000  2.000000e+001  1.500000e+000
      vertex  6.429945e+001  1.114402e+001  1.500000e+000
      vertex  6.557225e+001  1.167122e+001  1.500000e+000
    endloop
  endfacet
  facet normal  -0.000000e+000  -0.000000e+000  1.000000e+000
    outer loop
      vertex  0.000000e+000  2.000000e+001  1.500000e+000
      vertex  6.557225e+001  1.167122e+001  1.500000e+000
      vertex  1.037722e+002  9.871222e+000  1.500000e+000
    endloop
  endfacet
  facet normal  0.000000e+000  -0.000000e+000  1.000000e+000
    outer loop
      vertex  0.000000e+000  2.000000e+001  1.500000e+000
      vertex  1.037722e+002  9.871222e+000  1.500000e+000
      vertex  1.042995e+002  1.114402e+001  1.500000e+000
    endloop
  endfacet
  facet normal  0.000000e+000  -0.000000e+000  1.000000e+000
    outer loop
      vertex  0.000000e+000  2.000000e+001  1.500000e+000
      vertex  1.042995e+002  1.114402e+001  1.500000e+000
      vertex  1.055723e+002  1.167122e+001  1.500000e+000
    endloop
  endfacet
  facet normal  -0.000000e+000  -0.000000e+000  1.000000e+000
    outer loop
      vertex  0.000000e+000  2.000000e+001  1.500000e+000
      vertex  1.055723e+002  1.167122e+001  1.500000e+000
      vertex  1.437722e+002  9.871222e+000  1.500000e+000
    endloop
  endfacet
  facet normal  0.000000e+000  -0.000000e+000  1.000000e+000
    outer loop
      vertex  0.000000e+000  2.000000e+001  1.500000e+000
      vertex  1.437722e+002  9.871222e+000  1.500000e+000
      vertex  1.442995e+002  1.114402e+001  1.500000e+000
    endloop
  endfacet
  facet normal  0.000000e+000  -0.000000e+000  1.000000e+000
    outer loop
      vertex  0.000000e+000  2.000000e+001  1.500000e+000
      vertex  1.442995e+002  1.114402e+001  1.500000e+000
      vertex  1.455723e+002  1.167122e+001  1.500000e+000
    endloop
  endfacet
  facet normal  0.000000e+000  -0.000000e+000  1.000000e+000
    outer loop
      vertex  0.000000e+000  2.000000e+001  1.500000e+000
      vertex  1.455723e+002  1.167122e+001  1.500000e+000
      vertex  1.623412e+002  2.000000e+001  1.500000e+000
    endloop
  endfacet
  facet normal  -0.000000e+000  0.000000e+000  1.000000e+000
    outer loop
      vertex  1.623412e+002  2.000000e+001  1.500000e+000
      vertex  1.455723e+002  1.167122e+001  1.500000e+000
      vertex  1.468450e+002  1.114402e+001  1.500000e+000
    endloop
  endfacet
  facet normal  -0.000000e+000  0.000000e+000  1.000000e+000
    outer loop
      vertex  1.623412e+002  2.000000e+001  1.500000e+000
      vertex  1.468450e+002  1.114402e+001  1.500000e+000
      vertex  1.473723e+002  9.871222e+000  1.500000e+000
    endloop
  endfacet
  facet normal  -0.000000e+000  0.000000e+000  1.000000e+000
    outer loop
      vertex  1.623412e+002  2.000000e+001  1.500000e+000
      vertex  1.473723e+002  9.871222e+000  1.500000e+000
      vertex  1.516602e+002  1.500000e+000  1.500000e+000
    endloop
  endfacet
  facet normal  8.660248e-001 -5.000011e-001  0.000000e+000
    outer loop
      vertex  1.516602e+002  1.500000e+000  2.000000e+001
      vertex  1.507942e+002  6.217249e-015  2.000000e+001
      vertex  1.516602e+002  1.500000e+000  1.500000e+000
    endloop
  endfacet
  facet normal  8.660248e-001 -5.000010e-001  0.000000e+000
    outer loop
      vertex  1.516602e+002  1.500000e+000  1.500000e+000
      vertex  1.507942e+002  6.217249e-015  2.000000e+001
      vertex  1.507942e+002  0.000000e+000  0.000000e+000
    endloop
  endfacet
  facet normal  8.660256e-001 -4.999996e-001 -1.904793e-006
    outer loop
      vertex  1.516602e+002  1.500000e+000  1.500000e+000
      vertex  1.507942e+002  0.000000e+000  0.000000e+000
      vertex  1.623412e+002  2.000000e+001  1.500000e+000
    endloop
  endfacet
  facet normal  8.660256e-001 -4.999997e-001  0.000000e+000
    outer loop
      vertex  1.623412e+002  2.000000e+001  1.500000e+000
      vertex  1.507942e+002  0.000000e+000  0.000000e+000
      vertex  1.623412e+002  2.000000e+001  0.000000e+000
    endloop
  endfacet
  facet normal  0.000000e+000  1.000000e+000  0.000000e+000
    outer loop
      vertex  0.000000e+000  2.000000e+001  0.000000e+000
      vertex  0.000000e+000  2.000000e+001  1.500000e+000
      vertex  1.623412e+002  2.000000e+001  0.000000e+000
    endloop
  endfacet
  facet normal  0.000000e+000  1.000000e+000  -0.000000e+000
    outer loop
      vertex  1.623412e+002  2.000000e+001  0.000000e+000
      vertex  0.000000e+000  2.000000e+001  1.500000e+000
      vertex  1.623412e+002  2.000000e+001  1.500000e+000
    endloop
  endfacet
  facet normal  0.000000e+000  1.000000e+000  0.000000e+000
    outer loop
      vertex  0.000000e+000  1.500000e+000  1.500000e+000
      vertex  0.000000e+000  1.500000e+000  2.000000e+001
      vertex  1.516602e+002  1.500000e+000  1.500000e+000
    endloop
  endfacet
  facet normal  0.000000e+000  1.000000e+000  -0.000000e+000
    outer loop
      vertex  1.516602e+002  1.500000e+000  1.500000e+000
      vertex  0.000000e+000  1.500000e+000  2.000000e+001
      vertex  1.516602e+002  1.500000e+000  2.000000e+001
    endloop
  endfacet
  facet normal  0.000000e+000  0.000000e+000  1.000000e+000
    outer loop
      vertex  0.000000e+000  1.500000e+000  2.000000e+001
      vertex  0.000000e+000  6.217249e-015  2.000000e+001
      vertex  1.516602e+002  1.500000e+000  2.000000e+001
    endloop
  endfacet
  facet normal  0.000000e+000  0.000000e+000  9.999999e-001
    outer loop
      vertex  1.516602e+002  1.500000e+000  2.000000e+001
      vertex  0.000000e+000  6.217249e-015  2.000000e+001
      vertex  1.507942e+002  6.217249e-015  2.000000e+001
    endloop
  endfacet
  facet normal  0.000000e+000 -1.000000e+000  3.108624e-016
    outer loop
      vertex  0.000000e+000  6.217249e-015  2.000000e+001
      vertex  0.000000e+000  0.000000e+000  0.000000e+000
      vertex  1.507942e+002  6.217249e-015  2.000000e+001
    endloop
  endfacet
  facet normal  0.000000e+000 -1.000000e+000  3.108624e-016
    outer loop
      vertex  1.507942e+002  6.217249e-015  2.000000e+001
      vertex  0.000000e+000  0.000000e+000  0.000000e+000
      vertex  1.507942e+002  0.000000e+000  0.000000e+000
    endloop
  endfacet
  facet normal -1.000000e+000  0.000000e+000  0.000000e+000
    outer loop
      vertex  0.000000e+000  1.500000e+000  2.000000e+001
      vertex  0.000000e+000  1.500000e+000  1.500000e+000
      vertex  0.000000e+000  6.217249e-015  2.000000e+001
    endloop
  endfacet
  facet normal -1.000000e+000  0.000000e+000  -0.000000e+000
    outer loop
      vertex  0.000000e+000  6.217249e-015  2.000000e+001
      vertex  0.000000e+000  1.500000e+000  1.500000e+000
      vertex  0.000000e+000  0.000000e+000  0.000000e+000
    endloop
  endfacet
  facet normal -1.000000e+000  -0.000000e+000  0.000000e+000
    outer loop
      vertex  0.000000e+000  1.500000e+000  1.500000e+000
      vertex  0.000000e+000  2.000000e+001  1.500000e+000
      vertex  0.000000e+000  0.000000e+000  0.000000e+000
    endloop
  endfacet
  facet normal -1.000000e+000  0.000000e+000  0.000000e+000
    outer loop
      vertex  0.000000e+000  0.000000e+000  0.000000e+000
      vertex  0.000000e+000  2.000000e+001  1.500000e+000
      vertex  0.000000e+000  2.000000e+001  0.000000e+000
    endloop
  endfacet
endsolid CATIA STL
