solid CATIA STL
  facet normal  9.238799e-001  -0.000000e+000  3.826827e-001
    outer loop
      vertex  4.862775e+001  1.500000e+000  1.000000e+001
      vertex  4.915496e+001  0.000000e+000  8.727208e+000
      vertex  4.915496e+001  1.500000e+000  8.727208e+000
    endloop
  endfacet
  facet normal  3.826836e-001  0.000000e+000  9.238794e-001
    outer loop
      vertex  4.915496e+001  1.500000e+000  8.727208e+000
      vertex  4.915496e+001  0.000000e+000  8.727208e+000
      vertex  5.042775e+001 -1.573741e-015  8.200000e+000
    endloop
  endfacet
  facet normal  3.826836e-001  -0.000000e+000  9.238794e-001
    outer loop
      vertex  4.915496e+001  1.500000e+000  8.727208e+000
      vertex  5.042775e+001 -1.573741e-015  8.200000e+000
      vertex  5.042775e+001  1.500000e+000  8.200000e+000
    endloop
  endfacet
  facet normal  9.238799e-001  0.000000e+000  3.826827e-001
    outer loop
      vertex  4.915496e+001  0.000000e+000  8.727208e+000
      vertex  4.862775e+001  1.500000e+000  1.000000e+001
      vertex  4.862775e+001  0.000000e+000  1.000000e+001
    endloop
  endfacet
  facet normal  9.238799e-001  0.000000e+000 -3.826827e-001
    outer loop
      vertex  4.862775e+001  0.000000e+000  1.000000e+001
      vertex  4.862775e+001  1.500000e+000  1.000000e+001
      vertex  4.915496e+001  1.500000e+000  1.127279e+001
    endloop
  endfacet
  facet normal  9.238799e-001  0.000000e+000 -3.826827e-001
    outer loop
      vertex  4.862775e+001  0.000000e+000  1.000000e+001
      vertex  4.915496e+001  1.500000e+000  1.127279e+001
      vertex  4.915496e+001  0.000000e+000  1.127279e+001
    endloop
  endfacet
  facet normal  3.826836e-001  0.000000e+000 -9.238794e-001
    outer loop
      vertex  4.915496e+001  0.000000e+000  1.127279e+001
      vertex  4.915496e+001  1.500000e+000  1.127279e+001
      vertex  5.042775e+001  1.500000e+000  1.180000e+001
    endloop
  endfacet
  facet normal  3.826836e-001  0.000000e+000 -9.238794e-001
    outer loop
      vertex  4.915496e+001  0.000000e+000  1.127279e+001
      vertex  5.042775e+001  1.500000e+000  1.180000e+001
      vertex  5.042775e+001  1.573741e-015  1.180000e+001
    endloop
  endfacet
  facet normal -9.238799e-001  0.000000e+000 -3.826827e-001
    outer loop
      vertex  5.222775e+001  1.500000e+000  1.000000e+001
      vertex  5.170055e+001  0.000000e+000  1.127279e+001
      vertex  5.170055e+001  1.500000e+000  1.127279e+001
    endloop
  endfacet
  facet normal -3.826836e-001  -0.000000e+000 -9.238794e-001
    outer loop
      vertex  5.170055e+001  1.500000e+000  1.127279e+001
      vertex  5.170055e+001  0.000000e+000  1.127279e+001
      vertex  5.042775e+001  1.573741e-015  1.180000e+001
    endloop
  endfacet
  facet normal -3.826836e-001  0.000000e+000 -9.238794e-001
    outer loop
      vertex  5.170055e+001  1.500000e+000  1.127279e+001
      vertex  5.042775e+001  1.573741e-015  1.180000e+001
      vertex  5.042775e+001  1.500000e+000  1.180000e+001
    endloop
  endfacet
  facet normal -9.238799e-001  -0.000000e+000 -3.826827e-001
    outer loop
      vertex  5.170055e+001  0.000000e+000  1.127279e+001
      vertex  5.222775e+001  1.500000e+000  1.000000e+001
      vertex  5.222775e+001  0.000000e+000  1.000000e+001
    endloop
  endfacet
  facet normal -9.238799e-001  0.000000e+000  3.826827e-001
    outer loop
      vertex  5.222775e+001  0.000000e+000  1.000000e+001
      vertex  5.222775e+001  1.500000e+000  1.000000e+001
      vertex  5.170055e+001  1.500000e+000  8.727208e+000
    endloop
  endfacet
  facet normal -9.238799e-001  0.000000e+000  3.826827e-001
    outer loop
      vertex  5.222775e+001  0.000000e+000  1.000000e+001
      vertex  5.170055e+001  1.500000e+000  8.727208e+000
      vertex  5.170055e+001  0.000000e+000  8.727208e+000
    endloop
  endfacet
  facet normal -3.826836e-001  0.000000e+000  9.238794e-001
    outer loop
      vertex  5.170055e+001  0.000000e+000  8.727208e+000
      vertex  5.170055e+001  1.500000e+000  8.727208e+000
      vertex  5.042775e+001  1.500000e+000  8.200000e+000
    endloop
  endfacet
  facet normal -3.826836e-001  0.000000e+000  9.238794e-001
    outer loop
      vertex  5.170055e+001  0.000000e+000  8.727208e+000
      vertex  5.042775e+001  1.500000e+000  8.200000e+000
      vertex  5.042775e+001 -1.573741e-015  8.200000e+000
    endloop
  endfacet
  facet normal  9.238799e-001  -0.000000e+000  3.826827e-001
    outer loop
      vertex  8.529442e+001  1.500000e+000  1.000000e+001
      vertex  8.582162e+001  0.000000e+000  8.727208e+000
      vertex  8.582162e+001  1.500000e+000  8.727208e+000
    endloop
  endfacet
  facet normal  3.826827e-001  0.000000e+000  9.238799e-001
    outer loop
      vertex  8.582162e+001  1.500000e+000  8.727208e+000
      vertex  8.582162e+001  0.000000e+000  8.727208e+000
      vertex  8.709442e+001 -1.573741e-015  8.200000e+000
    endloop
  endfacet
  facet normal  3.826827e-001  -0.000000e+000  9.238799e-001
    outer loop
      vertex  8.582162e+001  1.500000e+000  8.727208e+000
      vertex  8.709442e+001 -1.573741e-015  8.200000e+000
      vertex  8.709442e+001  1.500000e+000  8.200000e+000
    endloop
  endfacet
  facet normal  9.238799e-001  0.000000e+000  3.826827e-001
    outer loop
      vertex  8.582162e+001  0.000000e+000  8.727208e+000
      vertex  8.529442e+001  1.500000e+000  1.000000e+001
      vertex  8.529442e+001  0.000000e+000  1.000000e+001
    endloop
  endfacet
  facet normal  9.238799e-001  0.000000e+000 -3.826827e-001
    outer loop
      vertex  8.529442e+001  0.000000e+000  1.000000e+001
      vertex  8.529442e+001  1.500000e+000  1.000000e+001
      vertex  8.582162e+001  1.500000e+000  1.127279e+001
    endloop
  endfacet
  facet normal  9.238799e-001  0.000000e+000 -3.826827e-001
    outer loop
      vertex  8.529442e+001  0.000000e+000  1.000000e+001
      vertex  8.582162e+001  1.500000e+000  1.127279e+001
      vertex  8.582162e+001  0.000000e+000  1.127279e+001
    endloop
  endfacet
  facet normal  3.826827e-001  0.000000e+000 -9.238799e-001
    outer loop
      vertex  8.582162e+001  0.000000e+000  1.127279e+001
      vertex  8.582162e+001  1.500000e+000  1.127279e+001
      vertex  8.709442e+001  1.500000e+000  1.180000e+001
    endloop
  endfacet
  facet normal  3.826827e-001  0.000000e+000 -9.238799e-001
    outer loop
      vertex  8.582162e+001  0.000000e+000  1.127279e+001
      vertex  8.709442e+001  1.500000e+000  1.180000e+001
      vertex  8.709442e+001  1.573741e-015  1.180000e+001
    endloop
  endfacet
  facet normal -9.238799e-001  0.000000e+000 -3.826827e-001
    outer loop
      vertex  8.889442e+001  1.500000e+000  1.000000e+001
      vertex  8.836721e+001  0.000000e+000  1.127279e+001
      vertex  8.836721e+001  1.500000e+000  1.127279e+001
    endloop
  endfacet
  facet normal -3.826846e-001  -0.000000e+000 -9.238791e-001
    outer loop
      vertex  8.836721e+001  1.500000e+000  1.127279e+001
      vertex  8.836721e+001  0.000000e+000  1.127279e+001
      vertex  8.709442e+001  1.573741e-015  1.180000e+001
    endloop
  endfacet
  facet normal -3.826846e-001  0.000000e+000 -9.238791e-001
    outer loop
      vertex  8.836721e+001  1.500000e+000  1.127279e+001
      vertex  8.709442e+001  1.573741e-015  1.180000e+001
      vertex  8.709442e+001  1.500000e+000  1.180000e+001
    endloop
  endfacet
  facet normal -9.238799e-001  -0.000000e+000 -3.826827e-001
    outer loop
      vertex  8.836721e+001  0.000000e+000  1.127279e+001
      vertex  8.889442e+001  1.500000e+000  1.000000e+001
      vertex  8.889442e+001  0.000000e+000  1.000000e+001
    endloop
  endfacet
  facet normal -9.238799e-001  0.000000e+000  3.826827e-001
    outer loop
      vertex  8.889442e+001  0.000000e+000  1.000000e+001
      vertex  8.889442e+001  1.500000e+000  1.000000e+001
      vertex  8.836721e+001  1.500000e+000  8.727208e+000
    endloop
  endfacet
  facet normal -9.238799e-001  0.000000e+000  3.826827e-001
    outer loop
      vertex  8.889442e+001  0.000000e+000  1.000000e+001
      vertex  8.836721e+001  1.500000e+000  8.727208e+000
      vertex  8.836721e+001  0.000000e+000  8.727208e+000
    endloop
  endfacet
  facet normal -3.826846e-001  0.000000e+000  9.238791e-001
    outer loop
      vertex  8.836721e+001  0.000000e+000  8.727208e+000
      vertex  8.836721e+001  1.500000e+000  8.727208e+000
      vertex  8.709442e+001  1.500000e+000  8.200000e+000
    endloop
  endfacet
  facet normal -3.826846e-001  0.000000e+000  9.238791e-001
    outer loop
      vertex  8.836721e+001  0.000000e+000  8.727208e+000
      vertex  8.709442e+001  1.500000e+000  8.200000e+000
      vertex  8.709442e+001 -1.573741e-015  8.200000e+000
    endloop
  endfacet
  facet normal  9.238778e-001  -0.000000e+000  3.826874e-001
    outer loop
      vertex  1.219611e+002  1.500000e+000  1.000000e+001
      vertex  1.224883e+002  0.000000e+000  8.727208e+000
      vertex  1.224883e+002  1.500000e+000  8.727208e+000
    endloop
  endfacet
  facet normal  3.826846e-001  0.000000e+000  9.238791e-001
    outer loop
      vertex  1.224883e+002  1.500000e+000  8.727208e+000
      vertex  1.224883e+002  0.000000e+000  8.727208e+000
      vertex  1.237611e+002 -1.573741e-015  8.200000e+000
    endloop
  endfacet
  facet normal  3.826846e-001  -0.000000e+000  9.238791e-001
    outer loop
      vertex  1.224883e+002  1.500000e+000  8.727208e+000
      vertex  1.237611e+002 -1.573741e-015  8.200000e+000
      vertex  1.237611e+002  1.500000e+000  8.200000e+000
    endloop
  endfacet
  facet normal  9.238778e-001  0.000000e+000  3.826874e-001
    outer loop
      vertex  1.224883e+002  0.000000e+000  8.727208e+000
      vertex  1.219611e+002  1.500000e+000  1.000000e+001
      vertex  1.219611e+002  0.000000e+000  1.000000e+001
    endloop
  endfacet
  facet normal  9.238778e-001  0.000000e+000 -3.826874e-001
    outer loop
      vertex  1.219611e+002  0.000000e+000  1.000000e+001
      vertex  1.219611e+002  1.500000e+000  1.000000e+001
      vertex  1.224883e+002  1.500000e+000  1.127279e+001
    endloop
  endfacet
  facet normal  9.238778e-001  0.000000e+000 -3.826874e-001
    outer loop
      vertex  1.219611e+002  0.000000e+000  1.000000e+001
      vertex  1.224883e+002  1.500000e+000  1.127279e+001
      vertex  1.224883e+002  0.000000e+000  1.127279e+001
    endloop
  endfacet
  facet normal  3.826846e-001  0.000000e+000 -9.238791e-001
    outer loop
      vertex  1.224883e+002  0.000000e+000  1.127279e+001
      vertex  1.224883e+002  1.500000e+000  1.127279e+001
      vertex  1.237611e+002  1.500000e+000  1.180000e+001
    endloop
  endfacet
  facet normal  3.826846e-001  0.000000e+000 -9.238791e-001
    outer loop
      vertex  1.224883e+002  0.000000e+000  1.127279e+001
      vertex  1.237611e+002  1.500000e+000  1.180000e+001
      vertex  1.237611e+002  1.573741e-015  1.180000e+001
    endloop
  endfacet
  facet normal -9.238778e-001  0.000000e+000 -3.826874e-001
    outer loop
      vertex  1.255611e+002  1.500000e+000  1.000000e+001
      vertex  1.250339e+002  0.000000e+000  1.127279e+001
      vertex  1.250339e+002  1.500000e+000  1.127279e+001
    endloop
  endfacet
  facet normal -3.826846e-001  -0.000000e+000 -9.238791e-001
    outer loop
      vertex  1.250339e+002  1.500000e+000  1.127279e+001
      vertex  1.250339e+002  0.000000e+000  1.127279e+001
      vertex  1.237611e+002  1.573741e-015  1.180000e+001
    endloop
  endfacet
  facet normal -3.826846e-001  0.000000e+000 -9.238791e-001
    outer loop
      vertex  1.250339e+002  1.500000e+000  1.127279e+001
      vertex  1.237611e+002  1.573741e-015  1.180000e+001
      vertex  1.237611e+002  1.500000e+000  1.180000e+001
    endloop
  endfacet
  facet normal -9.238778e-001  -0.000000e+000 -3.826874e-001
    outer loop
      vertex  1.250339e+002  0.000000e+000  1.127279e+001
      vertex  1.255611e+002  1.500000e+000  1.000000e+001
      vertex  1.255611e+002  0.000000e+000  1.000000e+001
    endloop
  endfacet
  facet normal -9.238778e-001  0.000000e+000  3.826874e-001
    outer loop
      vertex  1.255611e+002  0.000000e+000  1.000000e+001
      vertex  1.255611e+002  1.500000e+000  1.000000e+001
      vertex  1.250339e+002  1.500000e+000  8.727208e+000
    endloop
  endfacet
  facet normal -9.238778e-001  0.000000e+000  3.826874e-001
    outer loop
      vertex  1.255611e+002  0.000000e+000  1.000000e+001
      vertex  1.250339e+002  1.500000e+000  8.727208e+000
      vertex  1.250339e+002  0.000000e+000  8.727208e+000
    endloop
  endfacet
  facet normal -3.826846e-001  0.000000e+000  9.238791e-001
    outer loop
      vertex  1.250339e+002  0.000000e+000  8.727208e+000
      vertex  1.250339e+002  1.500000e+000  8.727208e+000
      vertex  1.237611e+002  1.500000e+000  8.200000e+000
    endloop
  endfacet
  facet normal -3.826846e-001  0.000000e+000  9.238791e-001
    outer loop
      vertex  1.250339e+002  0.000000e+000  8.727208e+000
      vertex  1.237611e+002  1.500000e+000  8.200000e+000
      vertex  1.237611e+002 -1.573741e-015  8.200000e+000
    endloop
  endfacet
  facet normal  9.238799e-001  -0.000000e+000  3.826827e-001
    outer loop
      vertex  1.586277e+002  1.500000e+000  1.000000e+001
      vertex  1.591550e+002  0.000000e+000  8.727208e+000
      vertex  1.591550e+002  1.500000e+000  8.727208e+000
    endloop
  endfacet
  facet normal  3.826827e-001  0.000000e+000  9.238799e-001
    outer loop
      vertex  1.591550e+002  1.500000e+000  8.727208e+000
      vertex  1.591550e+002  0.000000e+000  8.727208e+000
      vertex  1.604277e+002 -1.573741e-015  8.200000e+000
    endloop
  endfacet
  facet normal  3.826827e-001  -0.000000e+000  9.238799e-001
    outer loop
      vertex  1.591550e+002  1.500000e+000  8.727208e+000
      vertex  1.604277e+002 -1.573741e-015  8.200000e+000
      vertex  1.604277e+002  1.500000e+000  8.200000e+000
    endloop
  endfacet
  facet normal  9.238799e-001  0.000000e+000  3.826827e-001
    outer loop
      vertex  1.591550e+002  0.000000e+000  8.727208e+000
      vertex  1.586277e+002  1.500000e+000  1.000000e+001
      vertex  1.586277e+002  0.000000e+000  1.000000e+001
    endloop
  endfacet
  facet normal  9.238799e-001  0.000000e+000 -3.826827e-001
    outer loop
      vertex  1.586277e+002  0.000000e+000  1.000000e+001
      vertex  1.586277e+002  1.500000e+000  1.000000e+001
      vertex  1.591550e+002  1.500000e+000  1.127279e+001
    endloop
  endfacet
  facet normal  9.238799e-001  0.000000e+000 -3.826827e-001
    outer loop
      vertex  1.586277e+002  0.000000e+000  1.000000e+001
      vertex  1.591550e+002  1.500000e+000  1.127279e+001
      vertex  1.591550e+002  0.000000e+000  1.127279e+001
    endloop
  endfacet
  facet normal  3.826827e-001  0.000000e+000 -9.238799e-001
    outer loop
      vertex  1.591550e+002  0.000000e+000  1.127279e+001
      vertex  1.591550e+002  1.500000e+000  1.127279e+001
      vertex  1.604277e+002  1.500000e+000  1.180000e+001
    endloop
  endfacet
  facet normal  3.826827e-001  0.000000e+000 -9.238799e-001
    outer loop
      vertex  1.591550e+002  0.000000e+000  1.127279e+001
      vertex  1.604277e+002  1.500000e+000  1.180000e+001
      vertex  1.604277e+002  1.573741e-015  1.180000e+001
    endloop
  endfacet
  facet normal -9.238799e-001  0.000000e+000 -3.826827e-001
    outer loop
      vertex  1.622278e+002  1.500000e+000  1.000000e+001
      vertex  1.617005e+002  0.000000e+000  1.127279e+001
      vertex  1.617005e+002  1.500000e+000  1.127279e+001
    endloop
  endfacet
  facet normal -3.826827e-001  -0.000000e+000 -9.238799e-001
    outer loop
      vertex  1.617005e+002  1.500000e+000  1.127279e+001
      vertex  1.617005e+002  0.000000e+000  1.127279e+001
      vertex  1.604277e+002  1.573741e-015  1.180000e+001
    endloop
  endfacet
  facet normal -3.826827e-001  0.000000e+000 -9.238799e-001
    outer loop
      vertex  1.617005e+002  1.500000e+000  1.127279e+001
      vertex  1.604277e+002  1.573741e-015  1.180000e+001
      vertex  1.604277e+002  1.500000e+000  1.180000e+001
    endloop
  endfacet
  facet normal -9.238799e-001  -0.000000e+000 -3.826827e-001
    outer loop
      vertex  1.617005e+002  0.000000e+000  1.127279e+001
      vertex  1.622278e+002  1.500000e+000  1.000000e+001
      vertex  1.622278e+002  0.000000e+000  1.000000e+001
    endloop
  endfacet
  facet normal -9.238799e-001  0.000000e+000  3.826827e-001
    outer loop
      vertex  1.622278e+002  0.000000e+000  1.000000e+001
      vertex  1.622278e+002  1.500000e+000  1.000000e+001
      vertex  1.617005e+002  1.500000e+000  8.727208e+000
    endloop
  endfacet
  facet normal -9.238799e-001  0.000000e+000  3.826827e-001
    outer loop
      vertex  1.622278e+002  0.000000e+000  1.000000e+001
      vertex  1.617005e+002  1.500000e+000  8.727208e+000
      vertex  1.617005e+002  0.000000e+000  8.727208e+000
    endloop
  endfacet
  facet normal -3.826827e-001  0.000000e+000  9.238799e-001
    outer loop
      vertex  1.617005e+002  0.000000e+000  8.727208e+000
      vertex  1.617005e+002  1.500000e+000  8.727208e+000
      vertex  1.604277e+002  1.500000e+000  8.200000e+000
    endloop
  endfacet
  facet normal -3.826827e-001  0.000000e+000  9.238799e-001
    outer loop
      vertex  1.617005e+002  0.000000e+000  8.727208e+000
      vertex  1.604277e+002  1.500000e+000  8.200000e+000
      vertex  1.604277e+002 -1.573741e-015  8.200000e+000
    endloop
  endfacet
  facet normal  -0.000000e+000  1.000000e+000  0.000000e+000
    outer loop
      vertex  1.237611e+002  1.500000e+000  8.200000e+000
      vertex  1.250339e+002  1.500000e+000  8.727208e+000
      vertex  1.586277e+002  1.500000e+000  1.000000e+001
    endloop
  endfacet
  facet normal  -0.000000e+000  1.000000e+000  0.000000e+000
    outer loop
      vertex  1.250339e+002  1.500000e+000  8.727208e+000
      vertex  1.255611e+002  1.500000e+000  1.000000e+001
      vertex  1.586277e+002  1.500000e+000  1.000000e+001
    endloop
  endfacet
  facet normal  -0.000000e+000  1.000000e+000  0.000000e+000
    outer loop
      vertex  8.709442e+001  1.500000e+000  8.200000e+000
      vertex  8.836721e+001  1.500000e+000  8.727208e+000
      vertex  1.219611e+002  1.500000e+000  1.000000e+001
    endloop
  endfacet
  facet normal  -0.000000e+000  9.999999e-001  0.000000e+000
    outer loop
      vertex  8.836721e+001  1.500000e+000  8.727208e+000
      vertex  8.889442e+001  1.500000e+000  1.000000e+001
      vertex  1.219611e+002  1.500000e+000  1.000000e+001
    endloop
  endfacet
  facet normal  -0.000000e+000  1.000000e+000  0.000000e+000
    outer loop
      vertex  5.042775e+001  1.500000e+000  8.200000e+000
      vertex  5.170055e+001  1.500000e+000  8.727208e+000
      vertex  8.529442e+001  1.500000e+000  1.000000e+001
    endloop
  endfacet
  facet normal  -0.000000e+000  9.999999e-001  0.000000e+000
    outer loop
      vertex  5.170055e+001  1.500000e+000  8.727208e+000
      vertex  5.222775e+001  1.500000e+000  1.000000e+001
      vertex  8.529442e+001  1.500000e+000  1.000000e+001
    endloop
  endfacet
  facet normal  0.000000e+000  1.000000e+000  0.000000e+000
    outer loop
      vertex  1.237611e+002  1.500000e+000  1.180000e+001
      vertex  1.586277e+002  1.500000e+000  1.000000e+001
      vertex  1.250339e+002  1.500000e+000  1.127279e+001
    endloop
  endfacet
  facet normal  0.000000e+000  1.000000e+000  0.000000e+000
    outer loop
      vertex  1.250339e+002  1.500000e+000  1.127279e+001
      vertex  1.586277e+002  1.500000e+000  1.000000e+001
      vertex  1.255611e+002  1.500000e+000  1.000000e+001
    endloop
  endfacet
  facet normal  0.000000e+000  1.000000e+000  0.000000e+000
    outer loop
      vertex  8.709442e+001  1.500000e+000  1.180000e+001
      vertex  1.219611e+002  1.500000e+000  1.000000e+001
      vertex  8.836721e+001  1.500000e+000  1.127279e+001
    endloop
  endfacet
  facet normal  0.000000e+000  9.999999e-001  0.000000e+000
    outer loop
      vertex  8.836721e+001  1.500000e+000  1.127279e+001
      vertex  1.219611e+002  1.500000e+000  1.000000e+001
      vertex  8.889442e+001  1.500000e+000  1.000000e+001
    endloop
  endfacet
  facet normal  0.000000e+000  9.999999e-001  0.000000e+000
    outer loop
      vertex  5.170055e+001  1.500000e+000  1.127279e+001
      vertex  8.529442e+001  1.500000e+000  1.000000e+001
      vertex  5.222775e+001  1.500000e+000  1.000000e+001
    endloop
  endfacet
  facet normal  0.000000e+000  1.000000e+000  0.000000e+000
    outer loop
      vertex  2.920581e+001  1.500000e+000  1.500000e+000
      vertex  3.988680e+001  1.500000e+000  2.000000e+001
      vertex  4.862775e+001  1.500000e+000  1.000000e+001
    endloop
  endfacet
  facet normal  0.000000e+000  1.000000e+000  0.000000e+000
    outer loop
      vertex  2.920581e+001  1.500000e+000  1.500000e+000
      vertex  4.862775e+001  1.500000e+000  1.000000e+001
      vertex  4.915496e+001  1.500000e+000  8.727208e+000
    endloop
  endfacet
  facet normal  0.000000e+000  1.000000e+000  0.000000e+000
    outer loop
      vertex  2.920581e+001  1.500000e+000  1.500000e+000
      vertex  4.915496e+001  1.500000e+000  8.727208e+000
      vertex  5.042775e+001  1.500000e+000  8.200000e+000
    endloop
  endfacet
  facet normal  -0.000000e+000  1.000000e+000  0.000000e+000
    outer loop
      vertex  2.920581e+001  1.500000e+000  1.500000e+000
      vertex  5.042775e+001  1.500000e+000  8.200000e+000
      vertex  8.529442e+001  1.500000e+000  1.000000e+001
    endloop
  endfacet
  facet normal  0.000000e+000  1.000000e+000  0.000000e+000
    outer loop
      vertex  2.920581e+001  1.500000e+000  1.500000e+000
      vertex  8.529442e+001  1.500000e+000  1.000000e+001
      vertex  8.582162e+001  1.500000e+000  8.727208e+000
    endloop
  endfacet
  facet normal  0.000000e+000  1.000000e+000  0.000000e+000
    outer loop
      vertex  2.920581e+001  1.500000e+000  1.500000e+000
      vertex  8.582162e+001  1.500000e+000  8.727208e+000
      vertex  8.709442e+001  1.500000e+000  8.200000e+000
    endloop
  endfacet
  facet normal  -0.000000e+000  1.000000e+000  0.000000e+000
    outer loop
      vertex  2.920581e+001  1.500000e+000  1.500000e+000
      vertex  8.709442e+001  1.500000e+000  8.200000e+000
      vertex  1.219611e+002  1.500000e+000  1.000000e+001
    endloop
  endfacet
  facet normal  0.000000e+000  1.000000e+000  0.000000e+000
    outer loop
      vertex  2.920581e+001  1.500000e+000  1.500000e+000
      vertex  1.219611e+002  1.500000e+000  1.000000e+001
      vertex  1.224883e+002  1.500000e+000  8.727208e+000
    endloop
  endfacet
  facet normal  0.000000e+000  9.999999e-001  0.000000e+000
    outer loop
      vertex  2.920581e+001  1.500000e+000  1.500000e+000
      vertex  1.224883e+002  1.500000e+000  8.727208e+000
      vertex  1.237611e+002  1.500000e+000  8.200000e+000
    endloop
  endfacet
  facet normal  -0.000000e+000  1.000000e+000  0.000000e+000
    outer loop
      vertex  2.920581e+001  1.500000e+000  1.500000e+000
      vertex  1.237611e+002  1.500000e+000  8.200000e+000
      vertex  1.586277e+002  1.500000e+000  1.000000e+001
    endloop
  endfacet
  facet normal  0.000000e+000  1.000000e+000  0.000000e+000
    outer loop
      vertex  2.920581e+001  1.500000e+000  1.500000e+000
      vertex  1.586277e+002  1.500000e+000  1.000000e+001
      vertex  1.591550e+002  1.500000e+000  8.727208e+000
    endloop
  endfacet
  facet normal  0.000000e+000  1.000000e+000  0.000000e+000
    outer loop
      vertex  2.920581e+001  1.500000e+000  1.500000e+000
      vertex  1.591550e+002  1.500000e+000  8.727208e+000
      vertex  1.604277e+002  1.500000e+000  8.200000e+000
    endloop
  endfacet
  facet normal  0.000000e+000  1.000000e+000  0.000000e+000
    outer loop
      vertex  2.920581e+001  1.500000e+000  1.500000e+000
      vertex  1.604277e+002  1.500000e+000  8.200000e+000
      vertex  1.800000e+002  1.500000e+000  1.500000e+000
    endloop
  endfacet
  facet normal  -0.000000e+000  1.000000e+000  0.000000e+000
    outer loop
      vertex  1.800000e+002  1.500000e+000  1.500000e+000
      vertex  1.604277e+002  1.500000e+000  8.200000e+000
      vertex  1.617005e+002  1.500000e+000  8.727208e+000
    endloop
  endfacet
  facet normal  -0.000000e+000  9.999999e-001  0.000000e+000
    outer loop
      vertex  1.800000e+002  1.500000e+000  1.500000e+000
      vertex  1.617005e+002  1.500000e+000  8.727208e+000
      vertex  1.622278e+002  1.500000e+000  1.000000e+001
    endloop
  endfacet
  facet normal  -0.000000e+000  1.000000e+000  0.000000e+000
    outer loop
      vertex  1.800000e+002  1.500000e+000  1.500000e+000
      vertex  1.622278e+002  1.500000e+000  1.000000e+001
      vertex  1.800000e+002  1.500000e+000  2.000000e+001
    endloop
  endfacet
  facet normal  0.000000e+000  1.000000e+000  0.000000e+000
    outer loop
      vertex  3.988680e+001  1.500000e+000  2.000000e+001
      vertex  1.604277e+002  1.500000e+000  1.180000e+001
      vertex  1.591550e+002  1.500000e+000  1.127279e+001
    endloop
  endfacet
  facet normal  0.000000e+000  1.000000e+000  0.000000e+000
    outer loop
      vertex  3.988680e+001  1.500000e+000  2.000000e+001
      vertex  1.591550e+002  1.500000e+000  1.127279e+001
      vertex  1.586277e+002  1.500000e+000  1.000000e+001
    endloop
  endfacet
  facet normal  0.000000e+000  1.000000e+000  0.000000e+000
    outer loop
      vertex  3.988680e+001  1.500000e+000  2.000000e+001
      vertex  1.586277e+002  1.500000e+000  1.000000e+001
      vertex  1.237611e+002  1.500000e+000  1.180000e+001
    endloop
  endfacet
  facet normal  0.000000e+000  1.000000e+000  0.000000e+000
    outer loop
      vertex  3.988680e+001  1.500000e+000  2.000000e+001
      vertex  1.237611e+002  1.500000e+000  1.180000e+001
      vertex  1.224883e+002  1.500000e+000  1.127279e+001
    endloop
  endfacet
  facet normal  0.000000e+000  1.000000e+000  0.000000e+000
    outer loop
      vertex  3.988680e+001  1.500000e+000  2.000000e+001
      vertex  1.224883e+002  1.500000e+000  1.127279e+001
      vertex  1.219611e+002  1.500000e+000  1.000000e+001
    endloop
  endfacet
  facet normal  0.000000e+000  1.000000e+000  0.000000e+000
    outer loop
      vertex  3.988680e+001  1.500000e+000  2.000000e+001
      vertex  1.219611e+002  1.500000e+000  1.000000e+001
      vertex  8.709442e+001  1.500000e+000  1.180000e+001
    endloop
  endfacet
  facet normal  0.000000e+000  9.999999e-001  0.000000e+000
    outer loop
      vertex  3.988680e+001  1.500000e+000  2.000000e+001
      vertex  8.709442e+001  1.500000e+000  1.180000e+001
      vertex  8.582162e+001  1.500000e+000  1.127279e+001
    endloop
  endfacet
  facet normal  0.000000e+000  1.000000e+000  0.000000e+000
    outer loop
      vertex  3.988680e+001  1.500000e+000  2.000000e+001
      vertex  8.582162e+001  1.500000e+000  1.127279e+001
      vertex  8.529442e+001  1.500000e+000  1.000000e+001
    endloop
  endfacet
  facet normal  0.000000e+000  1.000000e+000  0.000000e+000
    outer loop
      vertex  3.988680e+001  1.500000e+000  2.000000e+001
      vertex  8.529442e+001  1.500000e+000  1.000000e+001
      vertex  5.170055e+001  1.500000e+000  1.127279e+001
    endloop
  endfacet
  facet normal  0.000000e+000  1.000000e+000  0.000000e+000
    outer loop
      vertex  3.988680e+001  1.500000e+000  2.000000e+001
      vertex  5.170055e+001  1.500000e+000  1.127279e+001
      vertex  5.042775e+001  1.500000e+000  1.180000e+001
    endloop
  endfacet
  facet normal  0.000000e+000  1.000000e+000  0.000000e+000
    outer loop
      vertex  3.988680e+001  1.500000e+000  2.000000e+001
      vertex  5.042775e+001  1.500000e+000  1.180000e+001
      vertex  4.915496e+001  1.500000e+000  1.127279e+001
    endloop
  endfacet
  facet normal  0.000000e+000  1.000000e+000  0.000000e+000
    outer loop
      vertex  3.988680e+001  1.500000e+000  2.000000e+001
      vertex  4.915496e+001  1.500000e+000  1.127279e+001
      vertex  4.862775e+001  1.500000e+000  1.000000e+001
    endloop
  endfacet
  facet normal  0.000000e+000  1.000000e+000  -0.000000e+000
    outer loop
      vertex  1.800000e+002  1.500000e+000  2.000000e+001
      vertex  1.622278e+002  1.500000e+000  1.000000e+001
      vertex  1.617005e+002  1.500000e+000  1.127279e+001
    endloop
  endfacet
  facet normal  0.000000e+000  1.000000e+000  -0.000000e+000
    outer loop
      vertex  1.800000e+002  1.500000e+000  2.000000e+001
      vertex  1.617005e+002  1.500000e+000  1.127279e+001
      vertex  1.604277e+002  1.500000e+000  1.180000e+001
    endloop
  endfacet
  facet normal  0.000000e+000  1.000000e+000  -0.000000e+000
    outer loop
      vertex  1.800000e+002  1.500000e+000  2.000000e+001
      vertex  1.604277e+002  1.500000e+000  1.180000e+001
      vertex  3.988680e+001  1.500000e+000  2.000000e+001
    endloop
  endfacet
  facet normal  1.244825e-016 -1.000000e+000  3.285572e-015
    outer loop
      vertex  1.237611e+002  1.573741e-015  1.180000e+001
      vertex  1.250339e+002  0.000000e+000  1.127279e+001
      vertex  1.586277e+002  0.000000e+000  1.000000e+001
    endloop
  endfacet
  facet normal  0.000000e+000 -1.000000e+000  0.000000e+000
    outer loop
      vertex  1.250339e+002  0.000000e+000  1.127279e+001
      vertex  1.255611e+002  0.000000e+000  1.000000e+001
      vertex  1.586277e+002  0.000000e+000  1.000000e+001
    endloop
  endfacet
  facet normal  1.244825e-016 -1.000000e+000  3.285572e-015
    outer loop
      vertex  8.709442e+001  1.573741e-015  1.180000e+001
      vertex  8.836721e+001  0.000000e+000  1.127279e+001
      vertex  1.219611e+002  0.000000e+000  1.000000e+001
    endloop
  endfacet
  facet normal  0.000000e+000 -9.999999e-001  0.000000e+000
    outer loop
      vertex  8.836721e+001  0.000000e+000  1.127279e+001
      vertex  8.889442e+001  0.000000e+000  1.000000e+001
      vertex  1.219611e+002  0.000000e+000  1.000000e+001
    endloop
  endfacet
  facet normal  0.000000e+000 -9.999999e-001  0.000000e+000
    outer loop
      vertex  5.170055e+001  0.000000e+000  1.127279e+001
      vertex  5.222775e+001  0.000000e+000  1.000000e+001
      vertex  8.529442e+001  0.000000e+000  1.000000e+001
    endloop
  endfacet
  facet normal -1.244825e-016 -1.000000e+000  3.285573e-015
    outer loop
      vertex  1.237611e+002 -1.573741e-015  8.200000e+000
      vertex  1.586277e+002  0.000000e+000  1.000000e+001
      vertex  1.250339e+002  0.000000e+000  8.727208e+000
    endloop
  endfacet
  facet normal  -0.000000e+000 -1.000000e+000  0.000000e+000
    outer loop
      vertex  1.250339e+002  0.000000e+000  8.727208e+000
      vertex  1.586277e+002  0.000000e+000  1.000000e+001
      vertex  1.255611e+002  0.000000e+000  1.000000e+001
    endloop
  endfacet
  facet normal -1.244825e-016 -1.000000e+000  3.285573e-015
    outer loop
      vertex  8.709442e+001 -1.573741e-015  8.200000e+000
      vertex  1.219611e+002  0.000000e+000  1.000000e+001
      vertex  8.836721e+001  0.000000e+000  8.727208e+000
    endloop
  endfacet
  facet normal  -0.000000e+000 -9.999999e-001  0.000000e+000
    outer loop
      vertex  8.836721e+001  0.000000e+000  8.727208e+000
      vertex  1.219611e+002  0.000000e+000  1.000000e+001
      vertex  8.889442e+001  0.000000e+000  1.000000e+001
    endloop
  endfacet
  facet normal -1.244825e-016 -1.000000e+000  3.285573e-015
    outer loop
      vertex  5.042775e+001 -1.573741e-015  8.200000e+000
      vertex  8.529442e+001  0.000000e+000  1.000000e+001
      vertex  5.170055e+001  0.000000e+000  8.727208e+000
    endloop
  endfacet
  facet normal  -0.000000e+000 -9.999999e-001  0.000000e+000
    outer loop
      vertex  5.170055e+001  0.000000e+000  8.727208e+000
      vertex  8.529442e+001  0.000000e+000  1.000000e+001
      vertex  5.222775e+001  0.000000e+000  1.000000e+001
    endloop
  endfacet
  facet normal -1.715192e-016 -1.000000e+000  2.570961e-015
    outer loop
      vertex  2.833979e+001  0.000000e+000  0.000000e+000
      vertex  1.604277e+002 -1.573741e-015  8.200000e+000
      vertex  1.591550e+002  0.000000e+000  8.727208e+000
    endloop
  endfacet
  facet normal  -0.000000e+000 -1.000000e+000  0.000000e+000
    outer loop
      vertex  2.833979e+001  0.000000e+000  0.000000e+000
      vertex  1.591550e+002  0.000000e+000  8.727208e+000
      vertex  1.586277e+002  0.000000e+000  1.000000e+001
    endloop
  endfacet
  facet normal  1.378682e-016 -1.000000e+000 -1.796256e-015
    outer loop
      vertex  2.833979e+001  0.000000e+000  0.000000e+000
      vertex  1.586277e+002  0.000000e+000  1.000000e+001
      vertex  1.237611e+002 -1.573741e-015  8.200000e+000
    endloop
  endfacet
  facet normal -2.261033e-016 -1.000000e+000  2.439187e-015
    outer loop
      vertex  2.833979e+001  0.000000e+000  0.000000e+000
      vertex  1.237611e+002 -1.573741e-015  8.200000e+000
      vertex  1.224883e+002  0.000000e+000  8.727208e+000
    endloop
  endfacet
  facet normal  -0.000000e+000 -1.000000e+000  0.000000e+000
    outer loop
      vertex  2.833979e+001  0.000000e+000  0.000000e+000
      vertex  1.224883e+002  0.000000e+000  8.727208e+000
      vertex  1.219611e+002  0.000000e+000  1.000000e+001
    endloop
  endfacet
  facet normal  8.735809e-017 -9.999999e-001 -8.178577e-016
    outer loop
      vertex  2.833979e+001  0.000000e+000  0.000000e+000
      vertex  1.219611e+002  0.000000e+000  1.000000e+001
      vertex  8.709442e+001 -1.573741e-015  8.200000e+000
    endloop
  endfacet
  facet normal -3.316449e-016 -1.000000e+000  2.184382e-015
    outer loop
      vertex  2.833979e+001  0.000000e+000  0.000000e+000
      vertex  8.709442e+001 -1.573741e-015  8.200000e+000
      vertex  8.582162e+001  0.000000e+000  8.727208e+000
    endloop
  endfacet
  facet normal  -0.000000e+000 -1.000000e+000  0.000000e+000
    outer loop
      vertex  2.833979e+001  0.000000e+000  0.000000e+000
      vertex  8.582162e+001  0.000000e+000  8.727208e+000
      vertex  8.529442e+001  0.000000e+000  1.000000e+001
    endloop
  endfacet
  facet normal  6.393467e-017 -9.999999e-001 -3.641375e-016
    outer loop
      vertex  2.833979e+001  0.000000e+000  0.000000e+000
      vertex  8.529442e+001  0.000000e+000  1.000000e+001
      vertex  5.042775e+001 -1.573741e-015  8.200000e+000
    endloop
  endfacet
  facet normal -6.219751e-016 -1.000000e+000  1.483466e-015
    outer loop
      vertex  2.833979e+001  0.000000e+000  0.000000e+000
      vertex  5.042775e+001 -1.573741e-015  8.200000e+000
      vertex  4.915496e+001  0.000000e+000  8.727208e+000
    endloop
  endfacet
  facet normal  -0.000000e+000 -1.000000e+000  0.000000e+000
    outer loop
      vertex  2.833979e+001  0.000000e+000  0.000000e+000
      vertex  4.915496e+001  0.000000e+000  8.727208e+000
      vertex  4.862775e+001  0.000000e+000  1.000000e+001
    endloop
  endfacet
  facet normal -2.141743e-016 -1.000000e+000  4.345160e-016
    outer loop
      vertex  2.833979e+001  0.000000e+000  0.000000e+000
      vertex  4.862775e+001  0.000000e+000  1.000000e+001
      vertex  3.988680e+001  6.217249e-015  2.000000e+001
    endloop
  endfacet
  facet normal  0.000000e+000 -1.000000e+000  5.662815e-016
    outer loop
      vertex  1.800000e+002  6.217249e-015  2.000000e+001
      vertex  3.988680e+001  6.217249e-015  2.000000e+001
      vertex  1.604277e+002  1.573741e-015  1.180000e+001
    endloop
  endfacet
  facet normal -5.037960e-016 -1.000000e+000  1.768772e-015
    outer loop
      vertex  1.800000e+002  6.217249e-015  2.000000e+001
      vertex  1.604277e+002  1.573741e-015  1.180000e+001
      vertex  1.617005e+002  0.000000e+000  1.127279e+001
    endloop
  endfacet
  facet normal  2.837065e-016 -1.000000e+000  1.175148e-016
    outer loop
      vertex  1.800000e+002  6.217249e-015  2.000000e+001
      vertex  1.617005e+002  0.000000e+000  1.127279e+001
      vertex  1.622278e+002  0.000000e+000  1.000000e+001
    endloop
  endfacet
  facet normal  1.749146e-016 -1.000000e+000  3.108625e-016
    outer loop
      vertex  1.800000e+002  6.217249e-015  2.000000e+001
      vertex  1.622278e+002  0.000000e+000  1.000000e+001
      vertex  1.800000e+002  0.000000e+000  0.000000e+000
    endloop
  endfacet
  facet normal -4.825901e-016 -1.000000e+000  1.998949e-016
    outer loop
      vertex  3.988680e+001  6.217249e-015  2.000000e+001
      vertex  4.862775e+001  0.000000e+000  1.000000e+001
      vertex  4.915496e+001  0.000000e+000  1.127279e+001
    endloop
  endfacet
  facet normal  6.537740e-016 -1.000000e+000  1.406697e-015
    outer loop
      vertex  3.988680e+001  6.217249e-015  2.000000e+001
      vertex  4.915496e+001  0.000000e+000  1.127279e+001
      vertex  5.042775e+001  1.573741e-015  1.180000e+001
    endloop
  endfacet
  facet normal -2.142909e-015 -1.000000e+000 -2.188391e-015
    outer loop
      vertex  3.988680e+001  6.217249e-015  2.000000e+001
      vertex  5.042775e+001  1.573741e-015  1.180000e+001
      vertex  5.170055e+001  0.000000e+000  1.127279e+001
    endloop
  endfacet
  facet normal  2.845021e-017 -1.000000e+000  7.509105e-016
    outer loop
      vertex  3.988680e+001  6.217249e-015  2.000000e+001
      vertex  5.170055e+001  0.000000e+000  1.127279e+001
      vertex  8.529442e+001  0.000000e+000  1.000000e+001
    endloop
  endfacet
  facet normal -1.254749e-016 -1.000000e+000  5.197328e-017
    outer loop
      vertex  3.988680e+001  6.217249e-015  2.000000e+001
      vertex  8.529442e+001  0.000000e+000  1.000000e+001
      vertex  8.582162e+001  0.000000e+000  1.127279e+001
    endloop
  endfacet
  facet normal  2.960092e-016 -1.000000e+000  2.270415e-015
    outer loop
      vertex  3.988680e+001  6.217249e-015  2.000000e+001
      vertex  8.582162e+001  0.000000e+000  1.127279e+001
      vertex  8.709442e+001  1.573741e-015  1.180000e+001
    endloop
  endfacet
  facet normal -2.262627e-017 -9.999999e-001  4.360214e-016
    outer loop
      vertex  3.988680e+001  6.217249e-015  2.000000e+001
      vertex  8.709442e+001  1.573741e-015  1.180000e+001
      vertex  1.219611e+002  0.000000e+000  1.000000e+001
    endloop
  endfacet
  facet normal -7.211208e-017 -1.000000e+000  2.987016e-017
    outer loop
      vertex  3.988680e+001  6.217249e-015  2.000000e+001
      vertex  1.219611e+002  0.000000e+000  1.000000e+001
      vertex  1.224883e+002  0.000000e+000  1.127279e+001
    endloop
  endfacet
  facet normal  1.913159e-016 -1.000000e+000  2.523170e-015
    outer loop
      vertex  3.988680e+001  6.217249e-015  2.000000e+001
      vertex  1.224883e+002  0.000000e+000  1.127279e+001
      vertex  1.237611e+002  1.573741e-015  1.180000e+001
    endloop
  endfacet
  facet normal -3.369351e-017 -9.999999e-001  2.216449e-016
    outer loop
      vertex  3.988680e+001  6.217249e-015  2.000000e+001
      vertex  1.237611e+002  1.573741e-015  1.180000e+001
      vertex  1.586277e+002  0.000000e+000  1.000000e+001
    endloop
  endfacet
  facet normal -5.059483e-017 -1.000000e+000  2.095702e-017
    outer loop
      vertex  3.988680e+001  6.217249e-015  2.000000e+001
      vertex  1.586277e+002  0.000000e+000  1.000000e+001
      vertex  1.591550e+002  0.000000e+000  1.127279e+001
    endloop
  endfacet
  facet normal  1.413297e-016 -1.000000e+000  2.643845e-015
    outer loop
      vertex  3.988680e+001  6.217249e-015  2.000000e+001
      vertex  1.591550e+002  0.000000e+000  1.127279e+001
      vertex  1.604277e+002  1.573741e-015  1.180000e+001
    endloop
  endfacet
  facet normal  0.000000e+000 -1.000000e+000  -0.000000e+000
    outer loop
      vertex  1.800000e+002  0.000000e+000  0.000000e+000
      vertex  1.622278e+002  0.000000e+000  1.000000e+001
      vertex  1.617005e+002  0.000000e+000  8.727208e+000
    endloop
  endfacet
  facet normal  6.617191e-016 -1.000000e+000  1.387511e-015
    outer loop
      vertex  1.800000e+002  0.000000e+000  0.000000e+000
      vertex  1.617005e+002  0.000000e+000  8.727208e+000
      vertex  1.604277e+002 -1.573741e-015  8.200000e+000
    endloop
  endfacet
  facet normal  0.000000e+000 -1.000000e+000 -1.919197e-016
    outer loop
      vertex  1.800000e+002  0.000000e+000  0.000000e+000
      vertex  1.604277e+002 -1.573741e-015  8.200000e+000
      vertex  2.833979e+001  0.000000e+000  0.000000e+000
    endloop
  endfacet
  facet normal -8.660253e-001  0.000000e+000  5.000001e-001
    outer loop
      vertex  3.988680e+001  6.217249e-015  2.000000e+001
      vertex  3.988680e+001  1.500000e+000  2.000000e+001
      vertex  2.833979e+001  0.000000e+000  0.000000e+000
    endloop
  endfacet
  facet normal -8.660253e-001  2.380991e-007  5.000001e-001
    outer loop
      vertex  2.833979e+001  0.000000e+000  0.000000e+000
      vertex  3.988680e+001  1.500000e+000  2.000000e+001
      vertex  2.920581e+001  1.500000e+000  1.500000e+000
    endloop
  endfacet
  facet normal -8.660253e-001  0.000000e+000  5.000002e-001
    outer loop
      vertex  2.833979e+001  0.000000e+000  0.000000e+000
      vertex  2.920581e+001  1.500000e+000  1.500000e+000
      vertex  2.833979e+001  2.000000e+001  0.000000e+000
    endloop
  endfacet
  facet normal -8.660252e-001  0.000000e+000  5.000002e-001
    outer loop
      vertex  2.833979e+001  2.000000e+001  0.000000e+000
      vertex  2.920581e+001  1.500000e+000  1.500000e+000
      vertex  2.920581e+001  2.000000e+001  1.500000e+000
    endloop
  endfacet
  facet normal  0.000000e+000  0.000000e+000 -1.000000e+000
    outer loop
      vertex  2.833979e+001  0.000000e+000  0.000000e+000
      vertex  2.833979e+001  2.000000e+001  0.000000e+000
      vertex  1.800000e+002  0.000000e+000  0.000000e+000
    endloop
  endfacet
  facet normal  0.000000e+000  0.000000e+000 -1.000000e+000
    outer loop
      vertex  1.800000e+002  0.000000e+000  0.000000e+000
      vertex  2.833979e+001  2.000000e+001  0.000000e+000
      vertex  1.800000e+002  2.000000e+001  0.000000e+000
    endloop
  endfacet
  facet normal  0.000000e+000  1.000000e+000  0.000000e+000
    outer loop
      vertex  2.833979e+001  2.000000e+001  0.000000e+000
      vertex  2.920581e+001  2.000000e+001  1.500000e+000
      vertex  1.800000e+002  2.000000e+001  0.000000e+000
    endloop
  endfacet
  facet normal  0.000000e+000  9.999999e-001  -0.000000e+000
    outer loop
      vertex  1.800000e+002  2.000000e+001  0.000000e+000
      vertex  2.920581e+001  2.000000e+001  1.500000e+000
      vertex  1.800000e+002  2.000000e+001  1.500000e+000
    endloop
  endfacet
  facet normal  0.000000e+000  0.000000e+000  9.999999e-001
    outer loop
      vertex  2.920581e+001  2.000000e+001  1.500000e+000
      vertex  2.920581e+001  1.500000e+000  1.500000e+000
      vertex  1.800000e+002  2.000000e+001  1.500000e+000
    endloop
  endfacet
  facet normal  0.000000e+000  0.000000e+000  9.999999e-001
    outer loop
      vertex  1.800000e+002  2.000000e+001  1.500000e+000
      vertex  2.920581e+001  1.500000e+000  1.500000e+000
      vertex  1.800000e+002  1.500000e+000  1.500000e+000
    endloop
  endfacet
  facet normal  0.000000e+000  0.000000e+000  1.000000e+000
    outer loop
      vertex  3.988680e+001  1.500000e+000  2.000000e+001
      vertex  3.988680e+001  6.217249e-015  2.000000e+001
      vertex  1.800000e+002  1.500000e+000  2.000000e+001
    endloop
  endfacet
  facet normal  0.000000e+000  0.000000e+000  1.000000e+000
    outer loop
      vertex  1.800000e+002  1.500000e+000  2.000000e+001
      vertex  3.988680e+001  6.217249e-015  2.000000e+001
      vertex  1.800000e+002  6.217249e-015  2.000000e+001
    endloop
  endfacet
  facet normal  1.000000e+000  -0.000000e+000  0.000000e+000
    outer loop
      vertex  1.800000e+002  1.500000e+000  2.000000e+001
      vertex  1.800000e+002  6.217249e-015  2.000000e+001
      vertex  1.800000e+002  1.500000e+000  1.500000e+000
    endloop
  endfacet
  facet normal  1.000000e+000  0.000000e+000  0.000000e+000
    outer loop
      vertex  1.800000e+002  1.500000e+000  1.500000e+000
      vertex  1.800000e+002  6.217249e-015  2.000000e+001
      vertex  1.800000e+002  0.000000e+000  0.000000e+000
    endloop
  endfacet
  facet normal  1.000000e+000  0.000000e+000  0.000000e+000
    outer loop
      vertex  1.800000e+002  1.500000e+000  1.500000e+000
      vertex  1.800000e+002  0.000000e+000  0.000000e+000
      vertex  1.800000e+002  2.000000e+001  1.500000e+000
    endloop
  endfacet
  facet normal  1.000000e+000  0.000000e+000  0.000000e+000
    outer loop
      vertex  1.800000e+002  2.000000e+001  1.500000e+000
      vertex  1.800000e+002  0.000000e+000  0.000000e+000
      vertex  1.800000e+002  2.000000e+001  0.000000e+000
    endloop
  endfacet
endsolid CATIA STL
