solid CATIA STL
  facet normal  9.238799e-001  -0.000000e+000  3.826827e-001
    outer loop
      vertex  5.862775e+001  1.500000e+000  1.020000e+001
      vertex  5.915496e+001  0.000000e+000  8.927208e+000
      vertex  5.915496e+001  1.500000e+000  8.927208e+000
    endloop
  endfacet
  facet normal  3.826836e-001  0.000000e+000  9.238794e-001
    outer loop
      vertex  5.915496e+001  1.500000e+000  8.927208e+000
      vertex  5.915496e+001  0.000000e+000  8.927208e+000
      vertex  6.042775e+001  2.498002e-017  8.400000e+000
    endloop
  endfacet
  facet normal  3.826836e-001  -0.000000e+000  9.238794e-001
    outer loop
      vertex  5.915496e+001  1.500000e+000  8.927208e+000
      vertex  6.042775e+001  2.498002e-017  8.400000e+000
      vertex  6.042775e+001  1.500000e+000  8.400000e+000
    endloop
  endfacet
  facet normal  9.238799e-001  0.000000e+000  3.826827e-001
    outer loop
      vertex  5.915496e+001  0.000000e+000  8.927208e+000
      vertex  5.862775e+001  1.500000e+000  1.020000e+001
      vertex  5.862775e+001  0.000000e+000  1.020000e+001
    endloop
  endfacet
  facet normal  9.238799e-001  0.000000e+000 -3.826824e-001
    outer loop
      vertex  5.862775e+001  0.000000e+000  1.020000e+001
      vertex  5.862775e+001  1.500000e+000  1.020000e+001
      vertex  5.915496e+001  1.500000e+000  1.147279e+001
    endloop
  endfacet
  facet normal  9.238799e-001  0.000000e+000 -3.826824e-001
    outer loop
      vertex  5.862775e+001  0.000000e+000  1.020000e+001
      vertex  5.915496e+001  1.500000e+000  1.147279e+001
      vertex  5.915496e+001  0.000000e+000  1.147279e+001
    endloop
  endfacet
  facet normal  3.826830e-001  0.000000e+000 -9.238797e-001
    outer loop
      vertex  5.915496e+001  0.000000e+000  1.147279e+001
      vertex  5.915496e+001  1.500000e+000  1.147279e+001
      vertex  6.042775e+001  1.500000e+000  1.200000e+001
    endloop
  endfacet
  facet normal  3.826830e-001  0.000000e+000 -9.238797e-001
    outer loop
      vertex  5.915496e+001  0.000000e+000  1.147279e+001
      vertex  6.042775e+001  1.500000e+000  1.200000e+001
      vertex  6.042775e+001 -2.498002e-017  1.200000e+001
    endloop
  endfacet
  facet normal -9.238799e-001  0.000000e+000 -3.826824e-001
    outer loop
      vertex  6.222775e+001  1.500000e+000  1.020000e+001
      vertex  6.170055e+001  0.000000e+000  1.147279e+001
      vertex  6.170055e+001  1.500000e+000  1.147279e+001
    endloop
  endfacet
  facet normal -3.826830e-001  -0.000000e+000 -9.238797e-001
    outer loop
      vertex  6.170055e+001  1.500000e+000  1.147279e+001
      vertex  6.170055e+001  0.000000e+000  1.147279e+001
      vertex  6.042775e+001 -2.498002e-017  1.200000e+001
    endloop
  endfacet
  facet normal -3.826830e-001  0.000000e+000 -9.238797e-001
    outer loop
      vertex  6.170055e+001  1.500000e+000  1.147279e+001
      vertex  6.042775e+001 -2.498002e-017  1.200000e+001
      vertex  6.042775e+001  1.500000e+000  1.200000e+001
    endloop
  endfacet
  facet normal -9.238799e-001  -0.000000e+000 -3.826824e-001
    outer loop
      vertex  6.170055e+001  0.000000e+000  1.147279e+001
      vertex  6.222775e+001  1.500000e+000  1.020000e+001
      vertex  6.222775e+001  0.000000e+000  1.020000e+001
    endloop
  endfacet
  facet normal -9.238799e-001  0.000000e+000  3.826827e-001
    outer loop
      vertex  6.222775e+001  0.000000e+000  1.020000e+001
      vertex  6.222775e+001  1.500000e+000  1.020000e+001
      vertex  6.170055e+001  1.500000e+000  8.927208e+000
    endloop
  endfacet
  facet normal -9.238799e-001  0.000000e+000  3.826827e-001
    outer loop
      vertex  6.222775e+001  0.000000e+000  1.020000e+001
      vertex  6.170055e+001  1.500000e+000  8.927208e+000
      vertex  6.170055e+001  0.000000e+000  8.927208e+000
    endloop
  endfacet
  facet normal -3.826836e-001  0.000000e+000  9.238794e-001
    outer loop
      vertex  6.170055e+001  0.000000e+000  8.927208e+000
      vertex  6.170055e+001  1.500000e+000  8.927208e+000
      vertex  6.042775e+001  1.500000e+000  8.400000e+000
    endloop
  endfacet
  facet normal -3.826836e-001  0.000000e+000  9.238794e-001
    outer loop
      vertex  6.170055e+001  0.000000e+000  8.927208e+000
      vertex  6.042775e+001  1.500000e+000  8.400000e+000
      vertex  6.042775e+001  2.498002e-017  8.400000e+000
    endloop
  endfacet
  facet normal  9.238799e-001  -0.000000e+000  3.826827e-001
    outer loop
      vertex  9.362775e+001  1.500000e+000  1.020000e+001
      vertex  9.415496e+001  0.000000e+000  8.927208e+000
      vertex  9.415496e+001  1.500000e+000  8.927208e+000
    endloop
  endfacet
  facet normal  3.826846e-001  0.000000e+000  9.238791e-001
    outer loop
      vertex  9.415496e+001  1.500000e+000  8.927208e+000
      vertex  9.415496e+001  0.000000e+000  8.927208e+000
      vertex  9.542775e+001  2.498002e-017  8.400000e+000
    endloop
  endfacet
  facet normal  3.826846e-001  -0.000000e+000  9.238791e-001
    outer loop
      vertex  9.415496e+001  1.500000e+000  8.927208e+000
      vertex  9.542775e+001  2.498002e-017  8.400000e+000
      vertex  9.542775e+001  1.500000e+000  8.400000e+000
    endloop
  endfacet
  facet normal  9.238799e-001  0.000000e+000  3.826827e-001
    outer loop
      vertex  9.415496e+001  0.000000e+000  8.927208e+000
      vertex  9.362775e+001  1.500000e+000  1.020000e+001
      vertex  9.362775e+001  0.000000e+000  1.020000e+001
    endloop
  endfacet
  facet normal  9.238799e-001  0.000000e+000 -3.826824e-001
    outer loop
      vertex  9.362775e+001  0.000000e+000  1.020000e+001
      vertex  9.362775e+001  1.500000e+000  1.020000e+001
      vertex  9.415496e+001  1.500000e+000  1.147279e+001
    endloop
  endfacet
  facet normal  9.238799e-001  0.000000e+000 -3.826824e-001
    outer loop
      vertex  9.362775e+001  0.000000e+000  1.020000e+001
      vertex  9.415496e+001  1.500000e+000  1.147279e+001
      vertex  9.415496e+001  0.000000e+000  1.147279e+001
    endloop
  endfacet
  facet normal  3.826840e-001  0.000000e+000 -9.238793e-001
    outer loop
      vertex  9.415496e+001  0.000000e+000  1.147279e+001
      vertex  9.415496e+001  1.500000e+000  1.147279e+001
      vertex  9.542775e+001  1.500000e+000  1.200000e+001
    endloop
  endfacet
  facet normal  3.826840e-001  0.000000e+000 -9.238793e-001
    outer loop
      vertex  9.415496e+001  0.000000e+000  1.147279e+001
      vertex  9.542775e+001  1.500000e+000  1.200000e+001
      vertex  9.542775e+001 -2.498002e-017  1.200000e+001
    endloop
  endfacet
  facet normal -9.238799e-001  0.000000e+000 -3.826824e-001
    outer loop
      vertex  9.722775e+001  1.500000e+000  1.020000e+001
      vertex  9.670055e+001  0.000000e+000  1.147279e+001
      vertex  9.670055e+001  1.500000e+000  1.147279e+001
    endloop
  endfacet
  facet normal -3.826820e-001  -0.000000e+000 -9.238801e-001
    outer loop
      vertex  9.670055e+001  1.500000e+000  1.147279e+001
      vertex  9.670055e+001  0.000000e+000  1.147279e+001
      vertex  9.542775e+001 -2.498002e-017  1.200000e+001
    endloop
  endfacet
  facet normal -3.826820e-001  0.000000e+000 -9.238801e-001
    outer loop
      vertex  9.670055e+001  1.500000e+000  1.147279e+001
      vertex  9.542775e+001 -2.498002e-017  1.200000e+001
      vertex  9.542775e+001  1.500000e+000  1.200000e+001
    endloop
  endfacet
  facet normal -9.238799e-001  -0.000000e+000 -3.826824e-001
    outer loop
      vertex  9.670055e+001  0.000000e+000  1.147279e+001
      vertex  9.722775e+001  1.500000e+000  1.020000e+001
      vertex  9.722775e+001  0.000000e+000  1.020000e+001
    endloop
  endfacet
  facet normal -9.238799e-001  0.000000e+000  3.826827e-001
    outer loop
      vertex  9.722775e+001  0.000000e+000  1.020000e+001
      vertex  9.722775e+001  1.500000e+000  1.020000e+001
      vertex  9.670055e+001  1.500000e+000  8.927208e+000
    endloop
  endfacet
  facet normal -9.238799e-001  0.000000e+000  3.826827e-001
    outer loop
      vertex  9.722775e+001  0.000000e+000  1.020000e+001
      vertex  9.670055e+001  1.500000e+000  8.927208e+000
      vertex  9.670055e+001  0.000000e+000  8.927208e+000
    endloop
  endfacet
  facet normal -3.826827e-001  0.000000e+000  9.238799e-001
    outer loop
      vertex  9.670055e+001  0.000000e+000  8.927208e+000
      vertex  9.670055e+001  1.500000e+000  8.927208e+000
      vertex  9.542775e+001  1.500000e+000  8.400000e+000
    endloop
  endfacet
  facet normal -3.826827e-001  0.000000e+000  9.238799e-001
    outer loop
      vertex  9.670055e+001  0.000000e+000  8.927208e+000
      vertex  9.542775e+001  1.500000e+000  8.400000e+000
      vertex  9.542775e+001  2.498002e-017  8.400000e+000
    endloop
  endfacet
  facet normal  9.238799e-001  -0.000000e+000  3.826827e-001
    outer loop
      vertex  1.286277e+002  1.500000e+000  1.020000e+001
      vertex  1.291550e+002  0.000000e+000  8.927208e+000
      vertex  1.291550e+002  1.500000e+000  8.927208e+000
    endloop
  endfacet
  facet normal  3.826827e-001  0.000000e+000  9.238799e-001
    outer loop
      vertex  1.291550e+002  1.500000e+000  8.927208e+000
      vertex  1.291550e+002  0.000000e+000  8.927208e+000
      vertex  1.304277e+002  2.498002e-017  8.400000e+000
    endloop
  endfacet
  facet normal  3.826827e-001  -0.000000e+000  9.238799e-001
    outer loop
      vertex  1.291550e+002  1.500000e+000  8.927208e+000
      vertex  1.304277e+002  2.498002e-017  8.400000e+000
      vertex  1.304277e+002  1.500000e+000  8.400000e+000
    endloop
  endfacet
  facet normal  9.238799e-001  0.000000e+000  3.826827e-001
    outer loop
      vertex  1.291550e+002  0.000000e+000  8.927208e+000
      vertex  1.286277e+002  1.500000e+000  1.020000e+001
      vertex  1.286277e+002  0.000000e+000  1.020000e+001
    endloop
  endfacet
  facet normal  9.238799e-001  0.000000e+000 -3.826824e-001
    outer loop
      vertex  1.286277e+002  0.000000e+000  1.020000e+001
      vertex  1.286277e+002  1.500000e+000  1.020000e+001
      vertex  1.291550e+002  1.500000e+000  1.147279e+001
    endloop
  endfacet
  facet normal  9.238799e-001  0.000000e+000 -3.826824e-001
    outer loop
      vertex  1.286277e+002  0.000000e+000  1.020000e+001
      vertex  1.291550e+002  1.500000e+000  1.147279e+001
      vertex  1.291550e+002  0.000000e+000  1.147279e+001
    endloop
  endfacet
  facet normal  3.826820e-001  0.000000e+000 -9.238801e-001
    outer loop
      vertex  1.291550e+002  0.000000e+000  1.147279e+001
      vertex  1.291550e+002  1.500000e+000  1.147279e+001
      vertex  1.304277e+002  1.500000e+000  1.200000e+001
    endloop
  endfacet
  facet normal  3.826820e-001  0.000000e+000 -9.238801e-001
    outer loop
      vertex  1.291550e+002  0.000000e+000  1.147279e+001
      vertex  1.304277e+002  1.500000e+000  1.200000e+001
      vertex  1.304277e+002 -2.498002e-017  1.200000e+001
    endloop
  endfacet
  facet normal -9.238799e-001  0.000000e+000 -3.826824e-001
    outer loop
      vertex  1.322278e+002  1.500000e+000  1.020000e+001
      vertex  1.317005e+002  0.000000e+000  1.147279e+001
      vertex  1.317005e+002  1.500000e+000  1.147279e+001
    endloop
  endfacet
  facet normal -3.826820e-001  -0.000000e+000 -9.238801e-001
    outer loop
      vertex  1.317005e+002  1.500000e+000  1.147279e+001
      vertex  1.317005e+002  0.000000e+000  1.147279e+001
      vertex  1.304277e+002 -2.498002e-017  1.200000e+001
    endloop
  endfacet
  facet normal -3.826820e-001  0.000000e+000 -9.238801e-001
    outer loop
      vertex  1.317005e+002  1.500000e+000  1.147279e+001
      vertex  1.304277e+002 -2.498002e-017  1.200000e+001
      vertex  1.304277e+002  1.500000e+000  1.200000e+001
    endloop
  endfacet
  facet normal -9.238799e-001  -0.000000e+000 -3.826824e-001
    outer loop
      vertex  1.317005e+002  0.000000e+000  1.147279e+001
      vertex  1.322278e+002  1.500000e+000  1.020000e+001
      vertex  1.322278e+002  0.000000e+000  1.020000e+001
    endloop
  endfacet
  facet normal -9.238799e-001  0.000000e+000  3.826827e-001
    outer loop
      vertex  1.322278e+002  0.000000e+000  1.020000e+001
      vertex  1.322278e+002  1.500000e+000  1.020000e+001
      vertex  1.317005e+002  1.500000e+000  8.927208e+000
    endloop
  endfacet
  facet normal -9.238799e-001  0.000000e+000  3.826827e-001
    outer loop
      vertex  1.322278e+002  0.000000e+000  1.020000e+001
      vertex  1.317005e+002  1.500000e+000  8.927208e+000
      vertex  1.317005e+002  0.000000e+000  8.927208e+000
    endloop
  endfacet
  facet normal -3.826827e-001  0.000000e+000  9.238799e-001
    outer loop
      vertex  1.317005e+002  0.000000e+000  8.927208e+000
      vertex  1.317005e+002  1.500000e+000  8.927208e+000
      vertex  1.304277e+002  1.500000e+000  8.400000e+000
    endloop
  endfacet
  facet normal -3.826827e-001  0.000000e+000  9.238799e-001
    outer loop
      vertex  1.317005e+002  0.000000e+000  8.927208e+000
      vertex  1.304277e+002  1.500000e+000  8.400000e+000
      vertex  1.304277e+002  2.498002e-017  8.400000e+000
    endloop
  endfacet
  facet normal  9.238799e-001  -0.000000e+000  3.826827e-001
    outer loop
      vertex  1.636277e+002  1.500000e+000  1.020000e+001
      vertex  1.641550e+002  0.000000e+000  8.927208e+000
      vertex  1.641550e+002  1.500000e+000  8.927208e+000
    endloop
  endfacet
  facet normal  3.826827e-001  0.000000e+000  9.238799e-001
    outer loop
      vertex  1.641550e+002  1.500000e+000  8.927208e+000
      vertex  1.641550e+002  0.000000e+000  8.927208e+000
      vertex  1.654277e+002  2.498002e-017  8.400000e+000
    endloop
  endfacet
  facet normal  3.826827e-001  -0.000000e+000  9.238799e-001
    outer loop
      vertex  1.641550e+002  1.500000e+000  8.927208e+000
      vertex  1.654277e+002  2.498002e-017  8.400000e+000
      vertex  1.654277e+002  1.500000e+000  8.400000e+000
    endloop
  endfacet
  facet normal  9.238799e-001  0.000000e+000  3.826827e-001
    outer loop
      vertex  1.641550e+002  0.000000e+000  8.927208e+000
      vertex  1.636277e+002  1.500000e+000  1.020000e+001
      vertex  1.636277e+002  0.000000e+000  1.020000e+001
    endloop
  endfacet
  facet normal  9.238799e-001  0.000000e+000 -3.826824e-001
    outer loop
      vertex  1.636277e+002  0.000000e+000  1.020000e+001
      vertex  1.636277e+002  1.500000e+000  1.020000e+001
      vertex  1.641550e+002  1.500000e+000  1.147279e+001
    endloop
  endfacet
  facet normal  9.238799e-001  0.000000e+000 -3.826824e-001
    outer loop
      vertex  1.636277e+002  0.000000e+000  1.020000e+001
      vertex  1.641550e+002  1.500000e+000  1.147279e+001
      vertex  1.641550e+002  0.000000e+000  1.147279e+001
    endloop
  endfacet
  facet normal  3.826820e-001  0.000000e+000 -9.238801e-001
    outer loop
      vertex  1.641550e+002  0.000000e+000  1.147279e+001
      vertex  1.641550e+002  1.500000e+000  1.147279e+001
      vertex  1.654277e+002  1.500000e+000  1.200000e+001
    endloop
  endfacet
  facet normal  3.826820e-001  0.000000e+000 -9.238801e-001
    outer loop
      vertex  1.641550e+002  0.000000e+000  1.147279e+001
      vertex  1.654277e+002  1.500000e+000  1.200000e+001
      vertex  1.654277e+002 -2.498002e-017  1.200000e+001
    endloop
  endfacet
  facet normal -9.238799e-001  0.000000e+000 -3.826824e-001
    outer loop
      vertex  1.672278e+002  1.500000e+000  1.020000e+001
      vertex  1.667005e+002  0.000000e+000  1.147279e+001
      vertex  1.667005e+002  1.500000e+000  1.147279e+001
    endloop
  endfacet
  facet normal -3.826820e-001  -0.000000e+000 -9.238801e-001
    outer loop
      vertex  1.667005e+002  1.500000e+000  1.147279e+001
      vertex  1.667005e+002  0.000000e+000  1.147279e+001
      vertex  1.654277e+002 -2.498002e-017  1.200000e+001
    endloop
  endfacet
  facet normal -3.826820e-001  0.000000e+000 -9.238801e-001
    outer loop
      vertex  1.667005e+002  1.500000e+000  1.147279e+001
      vertex  1.654277e+002 -2.498002e-017  1.200000e+001
      vertex  1.654277e+002  1.500000e+000  1.200000e+001
    endloop
  endfacet
  facet normal -9.238799e-001  -0.000000e+000 -3.826824e-001
    outer loop
      vertex  1.667005e+002  0.000000e+000  1.147279e+001
      vertex  1.672278e+002  1.500000e+000  1.020000e+001
      vertex  1.672278e+002  0.000000e+000  1.020000e+001
    endloop
  endfacet
  facet normal -9.238799e-001  0.000000e+000  3.826827e-001
    outer loop
      vertex  1.672278e+002  0.000000e+000  1.020000e+001
      vertex  1.672278e+002  1.500000e+000  1.020000e+001
      vertex  1.667005e+002  1.500000e+000  8.927208e+000
    endloop
  endfacet
  facet normal -9.238799e-001  0.000000e+000  3.826827e-001
    outer loop
      vertex  1.672278e+002  0.000000e+000  1.020000e+001
      vertex  1.667005e+002  1.500000e+000  8.927208e+000
      vertex  1.667005e+002  0.000000e+000  8.927208e+000
    endloop
  endfacet
  facet normal -3.826827e-001  0.000000e+000  9.238799e-001
    outer loop
      vertex  1.667005e+002  0.000000e+000  8.927208e+000
      vertex  1.667005e+002  1.500000e+000  8.927208e+000
      vertex  1.654277e+002  1.500000e+000  8.400000e+000
    endloop
  endfacet
  facet normal -3.826827e-001  0.000000e+000  9.238799e-001
    outer loop
      vertex  1.667005e+002  0.000000e+000  8.927208e+000
      vertex  1.654277e+002  1.500000e+000  8.400000e+000
      vertex  1.654277e+002  2.498002e-017  8.400000e+000
    endloop
  endfacet
  facet normal  9.238799e-001  -0.000000e+000  3.826827e-001
    outer loop
      vertex  1.986277e+002  1.500000e+000  1.020000e+001
      vertex  1.991550e+002  0.000000e+000  8.927208e+000
      vertex  1.991550e+002  1.500000e+000  8.927208e+000
    endloop
  endfacet
  facet normal  3.826827e-001  0.000000e+000  9.238799e-001
    outer loop
      vertex  1.991550e+002  1.500000e+000  8.927208e+000
      vertex  1.991550e+002  0.000000e+000  8.927208e+000
      vertex  2.004277e+002  2.498002e-017  8.400000e+000
    endloop
  endfacet
  facet normal  3.826827e-001  -0.000000e+000  9.238799e-001
    outer loop
      vertex  1.991550e+002  1.500000e+000  8.927208e+000
      vertex  2.004277e+002  2.498002e-017  8.400000e+000
      vertex  2.004277e+002  1.500000e+000  8.400000e+000
    endloop
  endfacet
  facet normal  9.238799e-001  0.000000e+000  3.826827e-001
    outer loop
      vertex  1.991550e+002  0.000000e+000  8.927208e+000
      vertex  1.986277e+002  1.500000e+000  1.020000e+001
      vertex  1.986277e+002  0.000000e+000  1.020000e+001
    endloop
  endfacet
  facet normal  9.238799e-001  0.000000e+000 -3.826824e-001
    outer loop
      vertex  1.986277e+002  0.000000e+000  1.020000e+001
      vertex  1.986277e+002  1.500000e+000  1.020000e+001
      vertex  1.991550e+002  1.500000e+000  1.147279e+001
    endloop
  endfacet
  facet normal  9.238799e-001  0.000000e+000 -3.826824e-001
    outer loop
      vertex  1.986277e+002  0.000000e+000  1.020000e+001
      vertex  1.991550e+002  1.500000e+000  1.147279e+001
      vertex  1.991550e+002  0.000000e+000  1.147279e+001
    endloop
  endfacet
  facet normal  3.826820e-001  0.000000e+000 -9.238801e-001
    outer loop
      vertex  1.991550e+002  0.000000e+000  1.147279e+001
      vertex  1.991550e+002  1.500000e+000  1.147279e+001
      vertex  2.004277e+002  1.500000e+000  1.200000e+001
    endloop
  endfacet
  facet normal  3.826820e-001  0.000000e+000 -9.238801e-001
    outer loop
      vertex  1.991550e+002  0.000000e+000  1.147279e+001
      vertex  2.004277e+002  1.500000e+000  1.200000e+001
      vertex  2.004277e+002 -2.498002e-017  1.200000e+001
    endloop
  endfacet
  facet normal -9.238799e-001  0.000000e+000 -3.826824e-001
    outer loop
      vertex  2.022278e+002  1.500000e+000  1.020000e+001
      vertex  2.017005e+002  0.000000e+000  1.147279e+001
      vertex  2.017005e+002  1.500000e+000  1.147279e+001
    endloop
  endfacet
  facet normal -3.826820e-001  -0.000000e+000 -9.238801e-001
    outer loop
      vertex  2.017005e+002  1.500000e+000  1.147279e+001
      vertex  2.017005e+002  0.000000e+000  1.147279e+001
      vertex  2.004277e+002 -2.498002e-017  1.200000e+001
    endloop
  endfacet
  facet normal -3.826820e-001  0.000000e+000 -9.238801e-001
    outer loop
      vertex  2.017005e+002  1.500000e+000  1.147279e+001
      vertex  2.004277e+002 -2.498002e-017  1.200000e+001
      vertex  2.004277e+002  1.500000e+000  1.200000e+001
    endloop
  endfacet
  facet normal -9.238799e-001  -0.000000e+000 -3.826824e-001
    outer loop
      vertex  2.017005e+002  0.000000e+000  1.147279e+001
      vertex  2.022278e+002  1.500000e+000  1.020000e+001
      vertex  2.022278e+002  0.000000e+000  1.020000e+001
    endloop
  endfacet
  facet normal -9.238799e-001  0.000000e+000  3.826827e-001
    outer loop
      vertex  2.022278e+002  0.000000e+000  1.020000e+001
      vertex  2.022278e+002  1.500000e+000  1.020000e+001
      vertex  2.017005e+002  1.500000e+000  8.927208e+000
    endloop
  endfacet
  facet normal -9.238799e-001  0.000000e+000  3.826827e-001
    outer loop
      vertex  2.022278e+002  0.000000e+000  1.020000e+001
      vertex  2.017005e+002  1.500000e+000  8.927208e+000
      vertex  2.017005e+002  0.000000e+000  8.927208e+000
    endloop
  endfacet
  facet normal -3.826827e-001  0.000000e+000  9.238799e-001
    outer loop
      vertex  2.017005e+002  0.000000e+000  8.927208e+000
      vertex  2.017005e+002  1.500000e+000  8.927208e+000
      vertex  2.004277e+002  1.500000e+000  8.400000e+000
    endloop
  endfacet
  facet normal -3.826827e-001  0.000000e+000  9.238799e-001
    outer loop
      vertex  2.017005e+002  0.000000e+000  8.927208e+000
      vertex  2.004277e+002  1.500000e+000  8.400000e+000
      vertex  2.004277e+002  2.498002e-017  8.400000e+000
    endloop
  endfacet
  facet normal  -0.000000e+000  1.000000e+000  0.000000e+000
    outer loop
      vertex  1.304277e+002  1.500000e+000  8.400000e+000
      vertex  1.317005e+002  1.500000e+000  8.927208e+000
      vertex  1.636277e+002  1.500000e+000  1.020000e+001
    endloop
  endfacet
  facet normal  -0.000000e+000  1.000000e+000  0.000000e+000
    outer loop
      vertex  1.317005e+002  1.500000e+000  8.927208e+000
      vertex  1.322278e+002  1.500000e+000  1.020000e+001
      vertex  1.636277e+002  1.500000e+000  1.020000e+001
    endloop
  endfacet
  facet normal  -0.000000e+000  1.000000e+000  0.000000e+000
    outer loop
      vertex  9.542775e+001  1.500000e+000  8.400000e+000
      vertex  9.670055e+001  1.500000e+000  8.927208e+000
      vertex  1.286277e+002  1.500000e+000  1.020000e+001
    endloop
  endfacet
  facet normal  -0.000000e+000  1.000000e+000  0.000000e+000
    outer loop
      vertex  9.670055e+001  1.500000e+000  8.927208e+000
      vertex  9.722775e+001  1.500000e+000  1.020000e+001
      vertex  1.286277e+002  1.500000e+000  1.020000e+001
    endloop
  endfacet
  facet normal  -0.000000e+000  1.000000e+000  0.000000e+000
    outer loop
      vertex  6.042775e+001  1.500000e+000  8.400000e+000
      vertex  6.170055e+001  1.500000e+000  8.927208e+000
      vertex  9.362775e+001  1.500000e+000  1.020000e+001
    endloop
  endfacet
  facet normal  -0.000000e+000  1.000000e+000  0.000000e+000
    outer loop
      vertex  6.170055e+001  1.500000e+000  8.927208e+000
      vertex  6.222775e+001  1.500000e+000  1.020000e+001
      vertex  9.362775e+001  1.500000e+000  1.020000e+001
    endloop
  endfacet
  facet normal  0.000000e+000  1.000000e+000  0.000000e+000
    outer loop
      vertex  1.654277e+002  1.500000e+000  1.200000e+001
      vertex  1.986277e+002  1.500000e+000  1.020000e+001
      vertex  1.667005e+002  1.500000e+000  1.147279e+001
    endloop
  endfacet
  facet normal  0.000000e+000  1.000000e+000  0.000000e+000
    outer loop
      vertex  1.667005e+002  1.500000e+000  1.147279e+001
      vertex  1.986277e+002  1.500000e+000  1.020000e+001
      vertex  1.672278e+002  1.500000e+000  1.020000e+001
    endloop
  endfacet
  facet normal  0.000000e+000  1.000000e+000  0.000000e+000
    outer loop
      vertex  1.304277e+002  1.500000e+000  1.200000e+001
      vertex  1.636277e+002  1.500000e+000  1.020000e+001
      vertex  1.317005e+002  1.500000e+000  1.147279e+001
    endloop
  endfacet
  facet normal  0.000000e+000  1.000000e+000  0.000000e+000
    outer loop
      vertex  1.317005e+002  1.500000e+000  1.147279e+001
      vertex  1.636277e+002  1.500000e+000  1.020000e+001
      vertex  1.322278e+002  1.500000e+000  1.020000e+001
    endloop
  endfacet
  facet normal  0.000000e+000  1.000000e+000  0.000000e+000
    outer loop
      vertex  9.542775e+001  1.500000e+000  1.200000e+001
      vertex  1.286277e+002  1.500000e+000  1.020000e+001
      vertex  9.670055e+001  1.500000e+000  1.147279e+001
    endloop
  endfacet
  facet normal  0.000000e+000  1.000000e+000  0.000000e+000
    outer loop
      vertex  9.670055e+001  1.500000e+000  1.147279e+001
      vertex  1.286277e+002  1.500000e+000  1.020000e+001
      vertex  9.722775e+001  1.500000e+000  1.020000e+001
    endloop
  endfacet
  facet normal  0.000000e+000  9.999999e-001  0.000000e+000
    outer loop
      vertex  6.170055e+001  1.500000e+000  1.147279e+001
      vertex  9.362775e+001  1.500000e+000  1.020000e+001
      vertex  6.222775e+001  1.500000e+000  1.020000e+001
    endloop
  endfacet
  facet normal  0.000000e+000  1.000000e+000  0.000000e+000
    outer loop
      vertex  3.779796e+001  1.500000e+000  1.500000e+000
      vertex  4.847894e+001  1.500000e+000  2.000000e+001
      vertex  5.862775e+001  1.500000e+000  1.020000e+001
    endloop
  endfacet
  facet normal  0.000000e+000  1.000000e+000  0.000000e+000
    outer loop
      vertex  3.779796e+001  1.500000e+000  1.500000e+000
      vertex  5.862775e+001  1.500000e+000  1.020000e+001
      vertex  5.915496e+001  1.500000e+000  8.927208e+000
    endloop
  endfacet
  facet normal  0.000000e+000  1.000000e+000  0.000000e+000
    outer loop
      vertex  3.779796e+001  1.500000e+000  1.500000e+000
      vertex  5.915496e+001  1.500000e+000  8.927208e+000
      vertex  6.042775e+001  1.500000e+000  8.400000e+000
    endloop
  endfacet
  facet normal  -0.000000e+000  9.999999e-001  0.000000e+000
    outer loop
      vertex  3.779796e+001  1.500000e+000  1.500000e+000
      vertex  6.042775e+001  1.500000e+000  8.400000e+000
      vertex  9.362775e+001  1.500000e+000  1.020000e+001
    endloop
  endfacet
  facet normal  0.000000e+000  1.000000e+000  0.000000e+000
    outer loop
      vertex  3.779796e+001  1.500000e+000  1.500000e+000
      vertex  9.362775e+001  1.500000e+000  1.020000e+001
      vertex  9.415496e+001  1.500000e+000  8.927208e+000
    endloop
  endfacet
  facet normal  0.000000e+000  1.000000e+000  0.000000e+000
    outer loop
      vertex  3.779796e+001  1.500000e+000  1.500000e+000
      vertex  9.415496e+001  1.500000e+000  8.927208e+000
      vertex  9.542775e+001  1.500000e+000  8.400000e+000
    endloop
  endfacet
  facet normal  -0.000000e+000  9.999999e-001  0.000000e+000
    outer loop
      vertex  3.779796e+001  1.500000e+000  1.500000e+000
      vertex  9.542775e+001  1.500000e+000  8.400000e+000
      vertex  1.286277e+002  1.500000e+000  1.020000e+001
    endloop
  endfacet
  facet normal  0.000000e+000  1.000000e+000  0.000000e+000
    outer loop
      vertex  3.779796e+001  1.500000e+000  1.500000e+000
      vertex  1.286277e+002  1.500000e+000  1.020000e+001
      vertex  1.291550e+002  1.500000e+000  8.927208e+000
    endloop
  endfacet
  facet normal  0.000000e+000  1.000000e+000  0.000000e+000
    outer loop
      vertex  3.779796e+001  1.500000e+000  1.500000e+000
      vertex  1.291550e+002  1.500000e+000  8.927208e+000
      vertex  1.304277e+002  1.500000e+000  8.400000e+000
    endloop
  endfacet
  facet normal  -0.000000e+000  1.000000e+000  0.000000e+000
    outer loop
      vertex  3.779796e+001  1.500000e+000  1.500000e+000
      vertex  1.304277e+002  1.500000e+000  8.400000e+000
      vertex  1.636277e+002  1.500000e+000  1.020000e+001
    endloop
  endfacet
  facet normal  0.000000e+000  1.000000e+000  0.000000e+000
    outer loop
      vertex  3.779796e+001  1.500000e+000  1.500000e+000
      vertex  1.636277e+002  1.500000e+000  1.020000e+001
      vertex  1.641550e+002  1.500000e+000  8.927208e+000
    endloop
  endfacet
  facet normal  0.000000e+000  1.000000e+000  0.000000e+000
    outer loop
      vertex  3.779796e+001  1.500000e+000  1.500000e+000
      vertex  1.641550e+002  1.500000e+000  8.927208e+000
      vertex  1.654277e+002  1.500000e+000  8.400000e+000
    endloop
  endfacet
  facet normal  0.000000e+000  9.999999e-001  0.000000e+000
    outer loop
      vertex  2.200000e+002  1.500000e+000  1.500000e+000
      vertex  3.779796e+001  1.500000e+000  1.500000e+000
      vertex  2.004277e+002  1.500000e+000  8.400000e+000
    endloop
  endfacet
  facet normal  -0.000000e+000  1.000000e+000  0.000000e+000
    outer loop
      vertex  2.200000e+002  1.500000e+000  1.500000e+000
      vertex  2.004277e+002  1.500000e+000  8.400000e+000
      vertex  2.017005e+002  1.500000e+000  8.927208e+000
    endloop
  endfacet
  facet normal  -0.000000e+000  1.000000e+000  0.000000e+000
    outer loop
      vertex  2.200000e+002  1.500000e+000  1.500000e+000
      vertex  2.017005e+002  1.500000e+000  8.927208e+000
      vertex  2.022278e+002  1.500000e+000  1.020000e+001
    endloop
  endfacet
  facet normal  -0.000000e+000  1.000000e+000  0.000000e+000
    outer loop
      vertex  2.200000e+002  1.500000e+000  1.500000e+000
      vertex  2.022278e+002  1.500000e+000  1.020000e+001
      vertex  2.200000e+002  1.500000e+000  2.000000e+001
    endloop
  endfacet
  facet normal  0.000000e+000  1.000000e+000  0.000000e+000
    outer loop
      vertex  4.847894e+001  1.500000e+000  2.000000e+001
      vertex  2.004277e+002  1.500000e+000  1.200000e+001
      vertex  1.991550e+002  1.500000e+000  1.147279e+001
    endloop
  endfacet
  facet normal  0.000000e+000  1.000000e+000  0.000000e+000
    outer loop
      vertex  4.847894e+001  1.500000e+000  2.000000e+001
      vertex  1.991550e+002  1.500000e+000  1.147279e+001
      vertex  1.986277e+002  1.500000e+000  1.020000e+001
    endloop
  endfacet
  facet normal  0.000000e+000  1.000000e+000  0.000000e+000
    outer loop
      vertex  4.847894e+001  1.500000e+000  2.000000e+001
      vertex  1.986277e+002  1.500000e+000  1.020000e+001
      vertex  1.654277e+002  1.500000e+000  1.200000e+001
    endloop
  endfacet
  facet normal  0.000000e+000  1.000000e+000  0.000000e+000
    outer loop
      vertex  4.847894e+001  1.500000e+000  2.000000e+001
      vertex  1.654277e+002  1.500000e+000  1.200000e+001
      vertex  1.641550e+002  1.500000e+000  1.147279e+001
    endloop
  endfacet
  facet normal  0.000000e+000  1.000000e+000  0.000000e+000
    outer loop
      vertex  4.847894e+001  1.500000e+000  2.000000e+001
      vertex  1.641550e+002  1.500000e+000  1.147279e+001
      vertex  1.636277e+002  1.500000e+000  1.020000e+001
    endloop
  endfacet
  facet normal  0.000000e+000  1.000000e+000  0.000000e+000
    outer loop
      vertex  4.847894e+001  1.500000e+000  2.000000e+001
      vertex  1.636277e+002  1.500000e+000  1.020000e+001
      vertex  1.304277e+002  1.500000e+000  1.200000e+001
    endloop
  endfacet
  facet normal  0.000000e+000  1.000000e+000  0.000000e+000
    outer loop
      vertex  4.847894e+001  1.500000e+000  2.000000e+001
      vertex  1.304277e+002  1.500000e+000  1.200000e+001
      vertex  1.291550e+002  1.500000e+000  1.147279e+001
    endloop
  endfacet
  facet normal  0.000000e+000  9.999999e-001  0.000000e+000
    outer loop
      vertex  4.847894e+001  1.500000e+000  2.000000e+001
      vertex  1.291550e+002  1.500000e+000  1.147279e+001
      vertex  1.286277e+002  1.500000e+000  1.020000e+001
    endloop
  endfacet
  facet normal  0.000000e+000  1.000000e+000  0.000000e+000
    outer loop
      vertex  4.847894e+001  1.500000e+000  2.000000e+001
      vertex  1.286277e+002  1.500000e+000  1.020000e+001
      vertex  9.542775e+001  1.500000e+000  1.200000e+001
    endloop
  endfacet
  facet normal  0.000000e+000  1.000000e+000  0.000000e+000
    outer loop
      vertex  4.847894e+001  1.500000e+000  2.000000e+001
      vertex  9.542775e+001  1.500000e+000  1.200000e+001
      vertex  9.415496e+001  1.500000e+000  1.147279e+001
    endloop
  endfacet
  facet normal  0.000000e+000  1.000000e+000  0.000000e+000
    outer loop
      vertex  4.847894e+001  1.500000e+000  2.000000e+001
      vertex  9.415496e+001  1.500000e+000  1.147279e+001
      vertex  9.362775e+001  1.500000e+000  1.020000e+001
    endloop
  endfacet
  facet normal  0.000000e+000  1.000000e+000  0.000000e+000
    outer loop
      vertex  4.847894e+001  1.500000e+000  2.000000e+001
      vertex  9.362775e+001  1.500000e+000  1.020000e+001
      vertex  6.170055e+001  1.500000e+000  1.147279e+001
    endloop
  endfacet
  facet normal  0.000000e+000  1.000000e+000  0.000000e+000
    outer loop
      vertex  4.847894e+001  1.500000e+000  2.000000e+001
      vertex  6.170055e+001  1.500000e+000  1.147279e+001
      vertex  6.042775e+001  1.500000e+000  1.200000e+001
    endloop
  endfacet
  facet normal  0.000000e+000  1.000000e+000  0.000000e+000
    outer loop
      vertex  4.847894e+001  1.500000e+000  2.000000e+001
      vertex  6.042775e+001  1.500000e+000  1.200000e+001
      vertex  5.915496e+001  1.500000e+000  1.147279e+001
    endloop
  endfacet
  facet normal  0.000000e+000  1.000000e+000  0.000000e+000
    outer loop
      vertex  4.847894e+001  1.500000e+000  2.000000e+001
      vertex  5.915496e+001  1.500000e+000  1.147279e+001
      vertex  5.862775e+001  1.500000e+000  1.020000e+001
    endloop
  endfacet
  facet normal  0.000000e+000  1.000000e+000  -0.000000e+000
    outer loop
      vertex  2.200000e+002  1.500000e+000  2.000000e+001
      vertex  2.022278e+002  1.500000e+000  1.020000e+001
      vertex  2.017005e+002  1.500000e+000  1.147279e+001
    endloop
  endfacet
  facet normal  0.000000e+000  1.000000e+000  -0.000000e+000
    outer loop
      vertex  2.200000e+002  1.500000e+000  2.000000e+001
      vertex  2.017005e+002  1.500000e+000  1.147279e+001
      vertex  2.004277e+002  1.500000e+000  1.200000e+001
    endloop
  endfacet
  facet normal  0.000000e+000  1.000000e+000  -0.000000e+000
    outer loop
      vertex  2.200000e+002  1.500000e+000  2.000000e+001
      vertex  2.004277e+002  1.500000e+000  1.200000e+001
      vertex  4.847894e+001  1.500000e+000  2.000000e+001
    endloop
  endfacet
  facet normal  0.000000e+000  9.999999e-001  0.000000e+000
    outer loop
      vertex  2.004277e+002  1.500000e+000  8.400000e+000
      vertex  3.779796e+001  1.500000e+000  1.500000e+000
      vertex  1.991550e+002  1.500000e+000  8.927208e+000
    endloop
  endfacet
  facet normal  0.000000e+000  1.000000e+000  0.000000e+000
    outer loop
      vertex  1.991550e+002  1.500000e+000  8.927208e+000
      vertex  3.779796e+001  1.500000e+000  1.500000e+000
      vertex  1.654277e+002  1.500000e+000  8.400000e+000
    endloop
  endfacet
  facet normal  0.000000e+000  1.000000e+000  0.000000e+000
    outer loop
      vertex  1.991550e+002  1.500000e+000  8.927208e+000
      vertex  1.654277e+002  1.500000e+000  8.400000e+000
      vertex  1.986277e+002  1.500000e+000  1.020000e+001
    endloop
  endfacet
  facet normal  0.000000e+000  9.999999e-001  0.000000e+000
    outer loop
      vertex  1.986277e+002  1.500000e+000  1.020000e+001
      vertex  1.654277e+002  1.500000e+000  8.400000e+000
      vertex  1.667005e+002  1.500000e+000  8.927208e+000
    endloop
  endfacet
  facet normal  0.000000e+000  1.000000e+000  0.000000e+000
    outer loop
      vertex  1.986277e+002  1.500000e+000  1.020000e+001
      vertex  1.667005e+002  1.500000e+000  8.927208e+000
      vertex  1.672278e+002  1.500000e+000  1.020000e+001
    endloop
  endfacet
  facet normal -2.090052e-018 -1.000000e+000 -5.242762e-017
    outer loop
      vertex  1.654277e+002 -2.498002e-017  1.200000e+001
      vertex  1.667005e+002  0.000000e+000  1.147279e+001
      vertex  1.986277e+002  0.000000e+000  1.020000e+001
    endloop
  endfacet
  facet normal  0.000000e+000 -1.000000e+000  0.000000e+000
    outer loop
      vertex  1.667005e+002  0.000000e+000  1.147279e+001
      vertex  1.672278e+002  0.000000e+000  1.020000e+001
      vertex  1.986277e+002  0.000000e+000  1.020000e+001
    endloop
  endfacet
  facet normal -2.090052e-018 -1.000000e+000 -5.242762e-017
    outer loop
      vertex  1.304277e+002 -2.498002e-017  1.200000e+001
      vertex  1.317005e+002  0.000000e+000  1.147279e+001
      vertex  1.636277e+002  0.000000e+000  1.020000e+001
    endloop
  endfacet
  facet normal  0.000000e+000 -1.000000e+000  0.000000e+000
    outer loop
      vertex  1.317005e+002  0.000000e+000  1.147279e+001
      vertex  1.322278e+002  0.000000e+000  1.020000e+001
      vertex  1.636277e+002  0.000000e+000  1.020000e+001
    endloop
  endfacet
  facet normal -2.090052e-018 -1.000000e+000 -5.242762e-017
    outer loop
      vertex  9.542775e+001 -2.498002e-017  1.200000e+001
      vertex  9.670055e+001  0.000000e+000  1.147279e+001
      vertex  1.286277e+002  0.000000e+000  1.020000e+001
    endloop
  endfacet
  facet normal  0.000000e+000 -1.000000e+000  0.000000e+000
    outer loop
      vertex  9.670055e+001  0.000000e+000  1.147279e+001
      vertex  9.722775e+001  0.000000e+000  1.020000e+001
      vertex  1.286277e+002  0.000000e+000  1.020000e+001
    endloop
  endfacet
  facet normal  0.000000e+000 -9.999999e-001  0.000000e+000
    outer loop
      vertex  6.170055e+001  0.000000e+000  1.147279e+001
      vertex  6.222775e+001  0.000000e+000  1.020000e+001
      vertex  9.362775e+001  0.000000e+000  1.020000e+001
    endloop
  endfacet
  facet normal  2.090046e-018 -9.999999e-001 -5.242751e-017
    outer loop
      vertex  1.654277e+002  2.498002e-017  8.400000e+000
      vertex  1.986277e+002  0.000000e+000  1.020000e+001
      vertex  1.667005e+002  0.000000e+000  8.927208e+000
    endloop
  endfacet
  facet normal  -0.000000e+000 -1.000000e+000  0.000000e+000
    outer loop
      vertex  1.667005e+002  0.000000e+000  8.927208e+000
      vertex  1.986277e+002  0.000000e+000  1.020000e+001
      vertex  1.672278e+002  0.000000e+000  1.020000e+001
    endloop
  endfacet
  facet normal  2.090046e-018 -9.999999e-001 -5.242751e-017
    outer loop
      vertex  1.304277e+002  2.498002e-017  8.400000e+000
      vertex  1.636277e+002  0.000000e+000  1.020000e+001
      vertex  1.317005e+002  0.000000e+000  8.927208e+000
    endloop
  endfacet
  facet normal  -0.000000e+000 -1.000000e+000  0.000000e+000
    outer loop
      vertex  1.317005e+002  0.000000e+000  8.927208e+000
      vertex  1.636277e+002  0.000000e+000  1.020000e+001
      vertex  1.322278e+002  0.000000e+000  1.020000e+001
    endloop
  endfacet
  facet normal  2.090046e-018 -9.999999e-001 -5.242751e-017
    outer loop
      vertex  9.542775e+001  2.498002e-017  8.400000e+000
      vertex  1.286277e+002  0.000000e+000  1.020000e+001
      vertex  9.670055e+001  0.000000e+000  8.927208e+000
    endloop
  endfacet
  facet normal  -0.000000e+000 -1.000000e+000  0.000000e+000
    outer loop
      vertex  9.670055e+001  0.000000e+000  8.927208e+000
      vertex  1.286277e+002  0.000000e+000  1.020000e+001
      vertex  9.722775e+001  0.000000e+000  1.020000e+001
    endloop
  endfacet
  facet normal  2.090045e-018 -1.000000e+000 -5.242750e-017
    outer loop
      vertex  6.042775e+001  2.498002e-017  8.400000e+000
      vertex  9.362775e+001  0.000000e+000  1.020000e+001
      vertex  6.170055e+001  0.000000e+000  8.927208e+000
    endloop
  endfacet
  facet normal  -0.000000e+000 -1.000000e+000  0.000000e+000
    outer loop
      vertex  6.170055e+001  0.000000e+000  8.927208e+000
      vertex  9.362775e+001  0.000000e+000  1.020000e+001
      vertex  6.222775e+001  0.000000e+000  1.020000e+001
    endloop
  endfacet
  facet normal  2.301649e-018 -1.000000e+000 -4.182500e-017
    outer loop
      vertex  3.693193e+001  0.000000e+000  0.000000e+000
      vertex  2.004277e+002  2.498002e-017  8.400000e+000
      vertex  1.991550e+002  0.000000e+000  8.927208e+000
    endloop
  endfacet
  facet normal  -0.000000e+000 -1.000000e+000  0.000000e+000
    outer loop
      vertex  3.693193e+001  0.000000e+000  0.000000e+000
      vertex  1.991550e+002  0.000000e+000  8.927208e+000
      vertex  1.986277e+002  0.000000e+000  1.020000e+001
    endloop
  endfacet
  facet normal -5.354271e-018 -1.000000e+000  8.487875e-017
    outer loop
      vertex  3.693193e+001  0.000000e+000  0.000000e+000
      vertex  1.986277e+002  0.000000e+000  1.020000e+001
      vertex  1.654277e+002  2.498002e-017  8.400000e+000
    endloop
  endfacet
  facet normal  2.843121e-018 -1.000000e+000 -4.051776e-017
    outer loop
      vertex  3.693193e+001  0.000000e+000  0.000000e+000
      vertex  1.654277e+002  2.498002e-017  8.400000e+000
      vertex  1.641550e+002  0.000000e+000  8.927208e+000
    endloop
  endfacet
  facet normal  -0.000000e+000 -1.000000e+000  0.000000e+000
    outer loop
      vertex  3.693193e+001  0.000000e+000  0.000000e+000
      vertex  1.641550e+002  0.000000e+000  8.927208e+000
      vertex  1.636277e+002  0.000000e+000  1.020000e+001
    endloop
  endfacet
  facet normal -2.304024e-018 -9.999999e-001  2.861865e-017
    outer loop
      vertex  3.693193e+001  0.000000e+000  0.000000e+000
      vertex  1.636277e+002  0.000000e+000  1.020000e+001
      vertex  1.304277e+002  2.498002e-017  8.400000e+000
    endloop
  endfacet
  facet normal  3.717734e-018 -1.000000e+000 -3.840626e-017
    outer loop
      vertex  3.693193e+001  0.000000e+000  0.000000e+000
      vertex  1.304277e+002  2.498002e-017  8.400000e+000
      vertex  1.291550e+002  0.000000e+000  8.927208e+000
    endloop
  endfacet
  facet normal  -0.000000e+000 -1.000000e+000  0.000000e+000
    outer loop
      vertex  3.693193e+001  0.000000e+000  0.000000e+000
      vertex  1.291550e+002  0.000000e+000  8.927208e+000
      vertex  1.286277e+002  0.000000e+000  1.020000e+001
    endloop
  endfacet
  facet normal -1.467826e-018 -1.000000e+000  1.319544e-017
    outer loop
      vertex  3.693193e+001  0.000000e+000  0.000000e+000
      vertex  1.286277e+002  0.000000e+000  1.020000e+001
      vertex  9.542775e+001  2.498002e-017  8.400000e+000
    endloop
  endfacet
  facet normal  5.369538e-018 -1.000000e+000 -3.441852e-017
    outer loop
      vertex  3.693193e+001  0.000000e+000  0.000000e+000
      vertex  9.542775e+001  2.498002e-017  8.400000e+000
      vertex  9.415496e+001  0.000000e+000  8.927208e+000
    endloop
  endfacet
  facet normal  -0.000000e+000 -1.000000e+000  0.000000e+000
    outer loop
      vertex  3.693193e+001  0.000000e+000  0.000000e+000
      vertex  9.415496e+001  0.000000e+000  8.927208e+000
      vertex  9.362775e+001  0.000000e+000  1.020000e+001
    endloop
  endfacet
  facet normal -1.076964e-018 -1.000000e+000  5.986210e-018
    outer loop
      vertex  3.693193e+001  0.000000e+000  0.000000e+000
      vertex  9.362775e+001  0.000000e+000  1.020000e+001
      vertex  6.042775e+001  2.498002e-017  8.400000e+000
    endloop
  endfacet
  facet normal  9.662688e-018 -1.000000e+000 -2.405390e-017
    outer loop
      vertex  3.693193e+001  0.000000e+000  0.000000e+000
      vertex  6.042775e+001  2.498002e-017  8.400000e+000
      vertex  5.915496e+001  0.000000e+000  8.927208e+000
    endloop
  endfacet
  facet normal  -0.000000e+000 -1.000000e+000  0.000000e+000
    outer loop
      vertex  3.693193e+001  0.000000e+000  0.000000e+000
      vertex  5.915496e+001  0.000000e+000  8.927208e+000
      vertex  5.862775e+001  0.000000e+000  1.020000e+001
    endloop
  endfacet
  facet normal -2.005964e-016 -1.000000e+000  4.266768e-016
    outer loop
      vertex  3.693193e+001  0.000000e+000  0.000000e+000
      vertex  5.862775e+001  0.000000e+000  1.020000e+001
      vertex  4.847894e+001  6.217249e-015  2.000000e+001
    endloop
  endfacet
  facet normal  0.000000e+000 -1.000000e+000  7.802786e-016
    outer loop
      vertex  2.200000e+002  6.217249e-015  2.000000e+001
      vertex  4.847894e+001  6.217249e-015  2.000000e+001
      vertex  2.004277e+002 -2.498002e-017  1.200000e+001
    endloop
  endfacet
  facet normal  1.702740e-016 -1.000000e+000  3.636979e-016
    outer loop
      vertex  2.200000e+002  6.217249e-015  2.000000e+001
      vertex  2.004277e+002 -2.498002e-017  1.200000e+001
      vertex  2.017005e+002  0.000000e+000  1.147279e+001
    endloop
  endfacet
  facet normal  2.847831e-016 -1.000000e+000  1.179606e-016
    outer loop
      vertex  2.200000e+002  6.217249e-015  2.000000e+001
      vertex  2.017005e+002  0.000000e+000  1.147279e+001
      vertex  2.022278e+002  0.000000e+000  1.020000e+001
    endloop
  endfacet
  facet normal  1.784128e-016 -1.000000e+000  3.108625e-016
    outer loop
      vertex  2.200000e+002  6.217249e-015  2.000000e+001
      vertex  2.022278e+002  0.000000e+000  1.020000e+001
      vertex  2.200000e+002  0.000000e+000  0.000000e+000
    endloop
  endfacet
  facet normal -4.375849e-016 -1.000000e+000  1.812531e-016
    outer loop
      vertex  4.847894e+001  6.217249e-015  2.000000e+001
      vertex  5.862775e+001  0.000000e+000  1.020000e+001
      vertex  5.915496e+001  0.000000e+000  1.147279e+001
    endloop
  endfacet
  facet normal -2.117960e-016 -1.000000e+000  4.639397e-016
    outer loop
      vertex  4.847894e+001  6.217249e-015  2.000000e+001
      vertex  5.915496e+001  0.000000e+000  1.147279e+001
      vertex  6.042775e+001 -2.498002e-017  1.200000e+001
    endloop
  endfacet
  facet normal  8.990300e-016 -1.000000e+000  2.123071e-015
    outer loop
      vertex  4.847894e+001  6.217249e-015  2.000000e+001
      vertex  6.042775e+001 -2.498002e-017  1.200000e+001
      vertex  6.170055e+001  0.000000e+000  1.147279e+001
    endloop
  endfacet
  facet normal  3.098122e-017 -1.000000e+000  7.771443e-016
    outer loop
      vertex  4.847894e+001  6.217249e-015  2.000000e+001
      vertex  6.170055e+001  0.000000e+000  1.147279e+001
      vertex  9.362775e+001  0.000000e+000  1.020000e+001
    endloop
  endfacet
  facet normal -1.263461e-016 -1.000000e+000  5.233409e-017
    outer loop
      vertex  4.847894e+001  6.217249e-015  2.000000e+001
      vertex  9.362775e+001  0.000000e+000  1.020000e+001
      vertex  9.415496e+001  0.000000e+000  1.147279e+001
    endloop
  endfacet
  facet normal -9.992507e-017 -1.000000e+000  1.938583e-016
    outer loop
      vertex  4.847894e+001  6.217249e-015  2.000000e+001
      vertex  9.415496e+001  0.000000e+000  1.147279e+001
      vertex  9.542775e+001 -2.498002e-017  1.200000e+001
    endloop
  endfacet
  facet normal  6.314938e-017 -1.000000e+000  1.150877e-015
    outer loop
      vertex  4.847894e+001  6.217249e-015  2.000000e+001
      vertex  9.542775e+001 -2.498002e-017  1.200000e+001
      vertex  1.286277e+002  0.000000e+000  1.020000e+001
    endloop
  endfacet
  facet normal -7.383197e-017 -1.000000e+000  3.058211e-017
    outer loop
      vertex  4.847894e+001  6.217249e-015  2.000000e+001
      vertex  1.286277e+002  0.000000e+000  1.020000e+001
      vertex  1.291550e+002  0.000000e+000  1.147279e+001
    endloop
  endfacet
  facet normal -6.538725e-017 -1.000000e+000  1.104777e-016
    outer loop
      vertex  4.847894e+001  6.217249e-015  2.000000e+001
      vertex  1.291550e+002  0.000000e+000  1.147279e+001
      vertex  1.304277e+002 -2.498002e-017  1.200000e+001
    endloop
  endfacet
  facet normal  9.683842e-017 -1.000000e+000  1.772253e-015
    outer loop
      vertex  4.847894e+001  6.217249e-015  2.000000e+001
      vertex  1.304277e+002 -2.498002e-017  1.200000e+001
      vertex  1.636277e+002  0.000000e+000  1.020000e+001
    endloop
  endfacet
  facet normal -5.215459e-017 -1.000000e+000  2.160307e-017
    outer loop
      vertex  4.847894e+001  6.217249e-015  2.000000e+001
      vertex  1.636277e+002  0.000000e+000  1.020000e+001
      vertex  1.641550e+002  0.000000e+000  1.147279e+001
    endloop
  endfacet
  facet normal -4.859208e-017 -1.000000e+000  6.993040e-017
    outer loop
      vertex  4.847894e+001  6.217249e-015  2.000000e+001
      vertex  1.641550e+002  0.000000e+000  1.147279e+001
      vertex  1.654277e+002 -2.498002e-017  1.200000e+001
    endloop
  endfacet
  facet normal  2.075770e-016 -1.000000e+000  3.814764e-015
    outer loop
      vertex  4.847894e+001  6.217249e-015  2.000000e+001
      vertex  1.654277e+002 -2.498002e-017  1.200000e+001
      vertex  1.986277e+002  0.000000e+000  1.020000e+001
    endloop
  endfacet
  facet normal -4.031727e-017 -1.000000e+000  1.669991e-017
    outer loop
      vertex  4.847894e+001  6.217249e-015  2.000000e+001
      vertex  1.986277e+002  0.000000e+000  1.020000e+001
      vertex  1.991550e+002  0.000000e+000  1.147279e+001
    endloop
  endfacet
  facet normal -3.866158e-017 -1.000000e+000  4.595595e-017
    outer loop
      vertex  4.847894e+001  6.217249e-015  2.000000e+001
      vertex  1.991550e+002  0.000000e+000  1.147279e+001
      vertex  2.004277e+002 -2.498002e-017  1.200000e+001
    endloop
  endfacet
  facet normal  0.000000e+000 -1.000000e+000  -0.000000e+000
    outer loop
      vertex  2.200000e+002  0.000000e+000  0.000000e+000
      vertex  2.022278e+002  0.000000e+000  1.020000e+001
      vertex  2.017005e+002  0.000000e+000  8.927208e+000
    endloop
  endfacet
  facet normal -1.061401e-017 -1.000000e+000 -2.175714e-017
    outer loop
      vertex  2.200000e+002  0.000000e+000  0.000000e+000
      vertex  2.017005e+002  0.000000e+000  8.927208e+000
      vertex  2.004277e+002  2.498002e-017  8.400000e+000
    endloop
  endfacet
  facet normal  0.000000e+000 -1.000000e+000  2.973812e-018
    outer loop
      vertex  2.200000e+002  0.000000e+000  0.000000e+000
      vertex  2.004277e+002  2.498002e-017  8.400000e+000
      vertex  3.693193e+001  0.000000e+000  0.000000e+000
    endloop
  endfacet
  facet normal -8.660253e-001  0.000000e+000  4.999999e-001
    outer loop
      vertex  4.847894e+001  6.217249e-015  2.000000e+001
      vertex  4.847894e+001  1.500000e+000  2.000000e+001
      vertex  3.693193e+001  0.000000e+000  0.000000e+000
    endloop
  endfacet
  facet normal -8.660254e-001 -8.333468e-007  5.000001e-001
    outer loop
      vertex  3.693193e+001  0.000000e+000  0.000000e+000
      vertex  4.847894e+001  1.500000e+000  2.000000e+001
      vertex  3.779796e+001  1.500000e+000  1.500000e+000
    endloop
  endfacet
  facet normal -8.660257e-001  0.000000e+000  4.999994e-001
    outer loop
      vertex  3.693193e+001  0.000000e+000  0.000000e+000
      vertex  3.779796e+001  1.500000e+000  1.500000e+000
      vertex  3.693193e+001  2.000000e+001  0.000000e+000
    endloop
  endfacet
  facet normal -8.660257e-001  0.000000e+000  4.999994e-001
    outer loop
      vertex  3.693193e+001  2.000000e+001  0.000000e+000
      vertex  3.779796e+001  1.500000e+000  1.500000e+000
      vertex  3.779796e+001  2.000000e+001  1.500000e+000
    endloop
  endfacet
  facet normal  0.000000e+000  0.000000e+000 -1.000000e+000
    outer loop
      vertex  3.693193e+001  0.000000e+000  0.000000e+000
      vertex  3.693193e+001  2.000000e+001  0.000000e+000
      vertex  2.200000e+002  0.000000e+000  0.000000e+000
    endloop
  endfacet
  facet normal  0.000000e+000  0.000000e+000 -1.000000e+000
    outer loop
      vertex  2.200000e+002  0.000000e+000  0.000000e+000
      vertex  3.693193e+001  2.000000e+001  0.000000e+000
      vertex  2.200000e+002  2.000000e+001  0.000000e+000
    endloop
  endfacet
  facet normal  0.000000e+000  1.000000e+000  0.000000e+000
    outer loop
      vertex  3.693193e+001  2.000000e+001  0.000000e+000
      vertex  3.779796e+001  2.000000e+001  1.500000e+000
      vertex  2.200000e+002  2.000000e+001  0.000000e+000
    endloop
  endfacet
  facet normal  0.000000e+000  1.000000e+000  -0.000000e+000
    outer loop
      vertex  2.200000e+002  2.000000e+001  0.000000e+000
      vertex  3.779796e+001  2.000000e+001  1.500000e+000
      vertex  2.200000e+002  2.000000e+001  1.500000e+000
    endloop
  endfacet
  facet normal  0.000000e+000  0.000000e+000  9.999999e-001
    outer loop
      vertex  3.779796e+001  2.000000e+001  1.500000e+000
      vertex  3.779796e+001  1.500000e+000  1.500000e+000
      vertex  2.200000e+002  2.000000e+001  1.500000e+000
    endloop
  endfacet
  facet normal  0.000000e+000  0.000000e+000  9.999999e-001
    outer loop
      vertex  2.200000e+002  2.000000e+001  1.500000e+000
      vertex  3.779796e+001  1.500000e+000  1.500000e+000
      vertex  2.200000e+002  1.500000e+000  1.500000e+000
    endloop
  endfacet
  facet normal  0.000000e+000  0.000000e+000  1.000000e+000
    outer loop
      vertex  4.847894e+001  1.500000e+000  2.000000e+001
      vertex  4.847894e+001  6.217249e-015  2.000000e+001
      vertex  2.200000e+002  1.500000e+000  2.000000e+001
    endloop
  endfacet
  facet normal  0.000000e+000  0.000000e+000  1.000000e+000
    outer loop
      vertex  2.200000e+002  1.500000e+000  2.000000e+001
      vertex  4.847894e+001  6.217249e-015  2.000000e+001
      vertex  2.200000e+002  6.217249e-015  2.000000e+001
    endloop
  endfacet
  facet normal  1.000000e+000  -0.000000e+000  0.000000e+000
    outer loop
      vertex  2.200000e+002  1.500000e+000  2.000000e+001
      vertex  2.200000e+002  6.217249e-015  2.000000e+001
      vertex  2.200000e+002  1.500000e+000  1.500000e+000
    endloop
  endfacet
  facet normal  1.000000e+000  0.000000e+000  0.000000e+000
    outer loop
      vertex  2.200000e+002  1.500000e+000  1.500000e+000
      vertex  2.200000e+002  6.217249e-015  2.000000e+001
      vertex  2.200000e+002  0.000000e+000  0.000000e+000
    endloop
  endfacet
  facet normal  1.000000e+000  0.000000e+000  0.000000e+000
    outer loop
      vertex  2.200000e+002  1.500000e+000  1.500000e+000
      vertex  2.200000e+002  0.000000e+000  0.000000e+000
      vertex  2.200000e+002  2.000000e+001  1.500000e+000
    endloop
  endfacet
  facet normal  1.000000e+000  0.000000e+000  0.000000e+000
    outer loop
      vertex  2.200000e+002  2.000000e+001  1.500000e+000
      vertex  2.200000e+002  0.000000e+000  0.000000e+000
      vertex  2.200000e+002  2.000000e+001  0.000000e+000
    endloop
  endfacet
endsolid CATIA STL
