solid CATIA STL
  facet normal -9.239073e-001  0.000000e+000 -3.826165e-001
    outer loop
      vertex  1.210885e+003  1.500000e+000  1.150000e+001
      vertex  1.210358e+003  0.000000e+000  1.277279e+001
      vertex  1.210358e+003  1.500000e+000  1.277279e+001
    endloop
  endfacet
  facet normal -3.826748e-001  -0.000000e+000 -9.238831e-001
    outer loop
      vertex  1.210358e+003  1.500000e+000  1.277279e+001
      vertex  1.210358e+003  0.000000e+000  1.277279e+001
      vertex  1.209085e+003 -1.873501e-015  1.330000e+001
    endloop
  endfacet
  facet normal -3.826748e-001  0.000000e+000 -9.238831e-001
    outer loop
      vertex  1.210358e+003  1.500000e+000  1.277279e+001
      vertex  1.209085e+003 -1.873501e-015  1.330000e+001
      vertex  1.209085e+003  1.500000e+000  1.330000e+001
    endloop
  endfacet
  facet normal -9.239073e-001  -0.000000e+000 -3.826165e-001
    outer loop
      vertex  1.210358e+003  0.000000e+000  1.277279e+001
      vertex  1.210885e+003  1.500000e+000  1.150000e+001
      vertex  1.210885e+003  0.000000e+000  1.150000e+001
    endloop
  endfacet
  facet normal -9.239073e-001  0.000000e+000  3.826165e-001
    outer loop
      vertex  1.210885e+003  0.000000e+000  1.150000e+001
      vertex  1.210885e+003  1.500000e+000  1.150000e+001
      vertex  1.210358e+003  1.500000e+000  1.022721e+001
    endloop
  endfacet
  facet normal -9.239073e-001  0.000000e+000  3.826165e-001
    outer loop
      vertex  1.210885e+003  0.000000e+000  1.150000e+001
      vertex  1.210358e+003  1.500000e+000  1.022721e+001
      vertex  1.210358e+003  0.000000e+000  1.022721e+001
    endloop
  endfacet
  facet normal -3.826748e-001  0.000000e+000  9.238831e-001
    outer loop
      vertex  1.210358e+003  0.000000e+000  1.022721e+001
      vertex  1.210358e+003  1.500000e+000  1.022721e+001
      vertex  1.209085e+003  1.500000e+000  9.700000e+000
    endloop
  endfacet
  facet normal -3.826748e-001  0.000000e+000  9.238831e-001
    outer loop
      vertex  1.210358e+003  0.000000e+000  1.022721e+001
      vertex  1.209085e+003  1.500000e+000  9.700000e+000
      vertex  1.209085e+003  1.873501e-015  9.700000e+000
    endloop
  endfacet
  facet normal  9.238759e-001  -0.000000e+000  3.826921e-001
    outer loop
      vertex  1.207285e+003  1.500000e+000  1.150000e+001
      vertex  1.207812e+003  0.000000e+000  1.022721e+001
      vertex  1.207812e+003  1.500000e+000  1.022721e+001
    endloop
  endfacet
  facet normal  3.826748e-001  0.000000e+000  9.238831e-001
    outer loop
      vertex  1.207812e+003  1.500000e+000  1.022721e+001
      vertex  1.207812e+003  0.000000e+000  1.022721e+001
      vertex  1.209085e+003  1.873501e-015  9.700000e+000
    endloop
  endfacet
  facet normal  3.826748e-001  -0.000000e+000  9.238831e-001
    outer loop
      vertex  1.207812e+003  1.500000e+000  1.022721e+001
      vertex  1.209085e+003  1.873501e-015  9.700000e+000
      vertex  1.209085e+003  1.500000e+000  9.700000e+000
    endloop
  endfacet
  facet normal  9.238759e-001  0.000000e+000  3.826921e-001
    outer loop
      vertex  1.207812e+003  0.000000e+000  1.022721e+001
      vertex  1.207285e+003  1.500000e+000  1.150000e+001
      vertex  1.207285e+003  0.000000e+000  1.150000e+001
    endloop
  endfacet
  facet normal  9.238759e-001  0.000000e+000 -3.826921e-001
    outer loop
      vertex  1.207285e+003  0.000000e+000  1.150000e+001
      vertex  1.207285e+003  1.500000e+000  1.150000e+001
      vertex  1.207812e+003  1.500000e+000  1.277279e+001
    endloop
  endfacet
  facet normal  9.238759e-001  0.000000e+000 -3.826921e-001
    outer loop
      vertex  1.207285e+003  0.000000e+000  1.150000e+001
      vertex  1.207812e+003  1.500000e+000  1.277279e+001
      vertex  1.207812e+003  0.000000e+000  1.277279e+001
    endloop
  endfacet
  facet normal  3.826748e-001  0.000000e+000 -9.238831e-001
    outer loop
      vertex  1.207812e+003  0.000000e+000  1.277279e+001
      vertex  1.207812e+003  1.500000e+000  1.277279e+001
      vertex  1.209085e+003  1.500000e+000  1.330000e+001
    endloop
  endfacet
  facet normal  3.826748e-001  0.000000e+000 -9.238831e-001
    outer loop
      vertex  1.207812e+003  0.000000e+000  1.277279e+001
      vertex  1.209085e+003  1.500000e+000  1.330000e+001
      vertex  1.209085e+003 -1.873501e-015  1.330000e+001
    endloop
  endfacet
  facet normal -9.238759e-001  0.000000e+000 -3.826921e-001
    outer loop
      vertex  1.043742e+003  1.500000e+000  1.150000e+001
      vertex  1.043215e+003  0.000000e+000  1.277279e+001
      vertex  1.043215e+003  1.500000e+000  1.277279e+001
    endloop
  endfacet
  facet normal -3.827061e-001  -0.000000e+000 -9.238701e-001
    outer loop
      vertex  1.043215e+003  1.500000e+000  1.277279e+001
      vertex  1.043215e+003  0.000000e+000  1.277279e+001
      vertex  1.041942e+003 -1.873501e-015  1.330000e+001
    endloop
  endfacet
  facet normal -3.827061e-001  0.000000e+000 -9.238701e-001
    outer loop
      vertex  1.043215e+003  1.500000e+000  1.277279e+001
      vertex  1.041942e+003 -1.873501e-015  1.330000e+001
      vertex  1.041942e+003  1.500000e+000  1.330000e+001
    endloop
  endfacet
  facet normal -9.238759e-001  -0.000000e+000 -3.826921e-001
    outer loop
      vertex  1.043215e+003  0.000000e+000  1.277279e+001
      vertex  1.043742e+003  1.500000e+000  1.150000e+001
      vertex  1.043742e+003  0.000000e+000  1.150000e+001
    endloop
  endfacet
  facet normal -9.238759e-001  0.000000e+000  3.826921e-001
    outer loop
      vertex  1.043742e+003  0.000000e+000  1.150000e+001
      vertex  1.043742e+003  1.500000e+000  1.150000e+001
      vertex  1.043215e+003  1.500000e+000  1.022721e+001
    endloop
  endfacet
  facet normal -9.238759e-001  0.000000e+000  3.826921e-001
    outer loop
      vertex  1.043742e+003  0.000000e+000  1.150000e+001
      vertex  1.043215e+003  1.500000e+000  1.022721e+001
      vertex  1.043215e+003  0.000000e+000  1.022721e+001
    endloop
  endfacet
  facet normal -3.827061e-001  0.000000e+000  9.238701e-001
    outer loop
      vertex  1.043215e+003  0.000000e+000  1.022721e+001
      vertex  1.043215e+003  1.500000e+000  1.022721e+001
      vertex  1.041942e+003  1.500000e+000  9.700000e+000
    endloop
  endfacet
  facet normal -3.827061e-001  0.000000e+000  9.238701e-001
    outer loop
      vertex  1.043215e+003  0.000000e+000  1.022721e+001
      vertex  1.041942e+003  1.500000e+000  9.700000e+000
      vertex  1.041942e+003  1.873501e-015  9.700000e+000
    endloop
  endfacet
  facet normal  9.238759e-001  -0.000000e+000  3.826921e-001
    outer loop
      vertex  1.040142e+003  1.500000e+000  1.150000e+001
      vertex  1.040669e+003  0.000000e+000  1.022721e+001
      vertex  1.040669e+003  1.500000e+000  1.022721e+001
    endloop
  endfacet
  facet normal  3.826748e-001  0.000000e+000  9.238831e-001
    outer loop
      vertex  1.040669e+003  1.500000e+000  1.022721e+001
      vertex  1.040669e+003  0.000000e+000  1.022721e+001
      vertex  1.041942e+003  1.873501e-015  9.700000e+000
    endloop
  endfacet
  facet normal  3.826748e-001  -0.000000e+000  9.238831e-001
    outer loop
      vertex  1.040669e+003  1.500000e+000  1.022721e+001
      vertex  1.041942e+003  1.873501e-015  9.700000e+000
      vertex  1.041942e+003  1.500000e+000  9.700000e+000
    endloop
  endfacet
  facet normal  9.238759e-001  0.000000e+000  3.826921e-001
    outer loop
      vertex  1.040669e+003  0.000000e+000  1.022721e+001
      vertex  1.040142e+003  1.500000e+000  1.150000e+001
      vertex  1.040142e+003  0.000000e+000  1.150000e+001
    endloop
  endfacet
  facet normal  9.238759e-001  0.000000e+000 -3.826921e-001
    outer loop
      vertex  1.040142e+003  0.000000e+000  1.150000e+001
      vertex  1.040142e+003  1.500000e+000  1.150000e+001
      vertex  1.040669e+003  1.500000e+000  1.277279e+001
    endloop
  endfacet
  facet normal  9.238759e-001  0.000000e+000 -3.826921e-001
    outer loop
      vertex  1.040142e+003  0.000000e+000  1.150000e+001
      vertex  1.040669e+003  1.500000e+000  1.277279e+001
      vertex  1.040669e+003  0.000000e+000  1.277279e+001
    endloop
  endfacet
  facet normal  3.826748e-001  0.000000e+000 -9.238831e-001
    outer loop
      vertex  1.040669e+003  0.000000e+000  1.277279e+001
      vertex  1.040669e+003  1.500000e+000  1.277279e+001
      vertex  1.041942e+003  1.500000e+000  1.330000e+001
    endloop
  endfacet
  facet normal  3.826748e-001  0.000000e+000 -9.238831e-001
    outer loop
      vertex  1.040669e+003  0.000000e+000  1.277279e+001
      vertex  1.041942e+003  1.500000e+000  1.330000e+001
      vertex  1.041942e+003 -1.873501e-015  1.330000e+001
    endloop
  endfacet
  facet normal -9.238759e-001  0.000000e+000 -3.826921e-001
    outer loop
      vertex  8.765991e+002  1.500000e+000  1.150000e+001
      vertex  8.760719e+002  0.000000e+000  1.277279e+001
      vertex  8.760719e+002  1.500000e+000  1.277279e+001
    endloop
  endfacet
  facet normal -3.826905e-001  -0.000000e+000 -9.238766e-001
    outer loop
      vertex  8.760719e+002  1.500000e+000  1.277279e+001
      vertex  8.760719e+002  0.000000e+000  1.277279e+001
      vertex  8.747991e+002 -1.873501e-015  1.330000e+001
    endloop
  endfacet
  facet normal -3.826905e-001  0.000000e+000 -9.238766e-001
    outer loop
      vertex  8.760719e+002  1.500000e+000  1.277279e+001
      vertex  8.747991e+002 -1.873501e-015  1.330000e+001
      vertex  8.747991e+002  1.500000e+000  1.330000e+001
    endloop
  endfacet
  facet normal -9.238759e-001  -0.000000e+000 -3.826921e-001
    outer loop
      vertex  8.760719e+002  0.000000e+000  1.277279e+001
      vertex  8.765991e+002  1.500000e+000  1.150000e+001
      vertex  8.765991e+002  0.000000e+000  1.150000e+001
    endloop
  endfacet
  facet normal -9.238759e-001  0.000000e+000  3.826921e-001
    outer loop
      vertex  8.765991e+002  0.000000e+000  1.150000e+001
      vertex  8.765991e+002  1.500000e+000  1.150000e+001
      vertex  8.760719e+002  1.500000e+000  1.022721e+001
    endloop
  endfacet
  facet normal -9.238759e-001  0.000000e+000  3.826921e-001
    outer loop
      vertex  8.765991e+002  0.000000e+000  1.150000e+001
      vertex  8.760719e+002  1.500000e+000  1.022721e+001
      vertex  8.760719e+002  0.000000e+000  1.022721e+001
    endloop
  endfacet
  facet normal -3.826905e-001  0.000000e+000  9.238766e-001
    outer loop
      vertex  8.760719e+002  0.000000e+000  1.022721e+001
      vertex  8.760719e+002  1.500000e+000  1.022721e+001
      vertex  8.747991e+002  1.500000e+000  9.700000e+000
    endloop
  endfacet
  facet normal -3.826905e-001  0.000000e+000  9.238766e-001
    outer loop
      vertex  8.760719e+002  0.000000e+000  1.022721e+001
      vertex  8.747991e+002  1.500000e+000  9.700000e+000
      vertex  8.747991e+002  1.873501e-015  9.700000e+000
    endloop
  endfacet
  facet normal  9.238759e-001  -0.000000e+000  3.826921e-001
    outer loop
      vertex  8.729991e+002  1.500000e+000  1.150000e+001
      vertex  8.735263e+002  0.000000e+000  1.022721e+001
      vertex  8.735263e+002  1.500000e+000  1.022721e+001
    endloop
  endfacet
  facet normal  3.826748e-001  0.000000e+000  9.238831e-001
    outer loop
      vertex  8.735263e+002  1.500000e+000  1.022721e+001
      vertex  8.735263e+002  0.000000e+000  1.022721e+001
      vertex  8.747991e+002  1.873501e-015  9.700000e+000
    endloop
  endfacet
  facet normal  3.826748e-001  -0.000000e+000  9.238831e-001
    outer loop
      vertex  8.735263e+002  1.500000e+000  1.022721e+001
      vertex  8.747991e+002  1.873501e-015  9.700000e+000
      vertex  8.747991e+002  1.500000e+000  9.700000e+000
    endloop
  endfacet
  facet normal  9.238759e-001  0.000000e+000  3.826921e-001
    outer loop
      vertex  8.735263e+002  0.000000e+000  1.022721e+001
      vertex  8.729991e+002  1.500000e+000  1.150000e+001
      vertex  8.729991e+002  0.000000e+000  1.150000e+001
    endloop
  endfacet
  facet normal  9.238759e-001  0.000000e+000 -3.826921e-001
    outer loop
      vertex  8.729991e+002  0.000000e+000  1.150000e+001
      vertex  8.729991e+002  1.500000e+000  1.150000e+001
      vertex  8.735263e+002  1.500000e+000  1.277279e+001
    endloop
  endfacet
  facet normal  9.238759e-001  0.000000e+000 -3.826921e-001
    outer loop
      vertex  8.729991e+002  0.000000e+000  1.150000e+001
      vertex  8.735263e+002  1.500000e+000  1.277279e+001
      vertex  8.735263e+002  0.000000e+000  1.277279e+001
    endloop
  endfacet
  facet normal  3.826748e-001  0.000000e+000 -9.238831e-001
    outer loop
      vertex  8.735263e+002  0.000000e+000  1.277279e+001
      vertex  8.735263e+002  1.500000e+000  1.277279e+001
      vertex  8.747991e+002  1.500000e+000  1.330000e+001
    endloop
  endfacet
  facet normal  3.826748e-001  0.000000e+000 -9.238831e-001
    outer loop
      vertex  8.735263e+002  0.000000e+000  1.277279e+001
      vertex  8.747991e+002  1.500000e+000  1.330000e+001
      vertex  8.747991e+002 -1.873501e-015  1.330000e+001
    endloop
  endfacet
  facet normal -9.238759e-001  0.000000e+000 -3.826921e-001
    outer loop
      vertex  7.094562e+002  1.500000e+000  1.150000e+001
      vertex  7.089290e+002  0.000000e+000  1.277279e+001
      vertex  7.089290e+002  1.500000e+000  1.277279e+001
    endloop
  endfacet
  facet normal -3.826905e-001  -0.000000e+000 -9.238766e-001
    outer loop
      vertex  7.089290e+002  1.500000e+000  1.277279e+001
      vertex  7.089290e+002  0.000000e+000  1.277279e+001
      vertex  7.076563e+002 -1.873501e-015  1.330000e+001
    endloop
  endfacet
  facet normal -3.826905e-001  0.000000e+000 -9.238766e-001
    outer loop
      vertex  7.089290e+002  1.500000e+000  1.277279e+001
      vertex  7.076563e+002 -1.873501e-015  1.330000e+001
      vertex  7.076563e+002  1.500000e+000  1.330000e+001
    endloop
  endfacet
  facet normal -9.238759e-001  -0.000000e+000 -3.826921e-001
    outer loop
      vertex  7.089290e+002  0.000000e+000  1.277279e+001
      vertex  7.094562e+002  1.500000e+000  1.150000e+001
      vertex  7.094562e+002  0.000000e+000  1.150000e+001
    endloop
  endfacet
  facet normal -9.238759e-001  0.000000e+000  3.826921e-001
    outer loop
      vertex  7.094562e+002  0.000000e+000  1.150000e+001
      vertex  7.094562e+002  1.500000e+000  1.150000e+001
      vertex  7.089290e+002  1.500000e+000  1.022721e+001
    endloop
  endfacet
  facet normal -9.238759e-001  0.000000e+000  3.826921e-001
    outer loop
      vertex  7.094562e+002  0.000000e+000  1.150000e+001
      vertex  7.089290e+002  1.500000e+000  1.022721e+001
      vertex  7.089290e+002  0.000000e+000  1.022721e+001
    endloop
  endfacet
  facet normal -3.826905e-001  0.000000e+000  9.238766e-001
    outer loop
      vertex  7.089290e+002  0.000000e+000  1.022721e+001
      vertex  7.089290e+002  1.500000e+000  1.022721e+001
      vertex  7.076563e+002  1.500000e+000  9.700000e+000
    endloop
  endfacet
  facet normal -3.826905e-001  0.000000e+000  9.238766e-001
    outer loop
      vertex  7.089290e+002  0.000000e+000  1.022721e+001
      vertex  7.076563e+002  1.500000e+000  9.700000e+000
      vertex  7.076563e+002  1.873501e-015  9.700000e+000
    endloop
  endfacet
  facet normal  9.238759e-001  -0.000000e+000  3.826921e-001
    outer loop
      vertex  7.058563e+002  1.500000e+000  1.150000e+001
      vertex  7.063835e+002  0.000000e+000  1.022721e+001
      vertex  7.063835e+002  1.500000e+000  1.022721e+001
    endloop
  endfacet
  facet normal  3.826905e-001  0.000000e+000  9.238766e-001
    outer loop
      vertex  7.063835e+002  1.500000e+000  1.022721e+001
      vertex  7.063835e+002  0.000000e+000  1.022721e+001
      vertex  7.076563e+002  1.873501e-015  9.700000e+000
    endloop
  endfacet
  facet normal  3.826905e-001  -0.000000e+000  9.238766e-001
    outer loop
      vertex  7.063835e+002  1.500000e+000  1.022721e+001
      vertex  7.076563e+002  1.873501e-015  9.700000e+000
      vertex  7.076563e+002  1.500000e+000  9.700000e+000
    endloop
  endfacet
  facet normal  9.238759e-001  0.000000e+000  3.826921e-001
    outer loop
      vertex  7.063835e+002  0.000000e+000  1.022721e+001
      vertex  7.058563e+002  1.500000e+000  1.150000e+001
      vertex  7.058563e+002  0.000000e+000  1.150000e+001
    endloop
  endfacet
  facet normal  9.238759e-001  0.000000e+000 -3.826921e-001
    outer loop
      vertex  7.058563e+002  0.000000e+000  1.150000e+001
      vertex  7.058563e+002  1.500000e+000  1.150000e+001
      vertex  7.063835e+002  1.500000e+000  1.277279e+001
    endloop
  endfacet
  facet normal  9.238759e-001  0.000000e+000 -3.826921e-001
    outer loop
      vertex  7.058563e+002  0.000000e+000  1.150000e+001
      vertex  7.063835e+002  1.500000e+000  1.277279e+001
      vertex  7.063835e+002  0.000000e+000  1.277279e+001
    endloop
  endfacet
  facet normal  3.826905e-001  0.000000e+000 -9.238766e-001
    outer loop
      vertex  7.063835e+002  0.000000e+000  1.277279e+001
      vertex  7.063835e+002  1.500000e+000  1.277279e+001
      vertex  7.076563e+002  1.500000e+000  1.330000e+001
    endloop
  endfacet
  facet normal  3.826905e-001  0.000000e+000 -9.238766e-001
    outer loop
      vertex  7.063835e+002  0.000000e+000  1.277279e+001
      vertex  7.076563e+002  1.500000e+000  1.330000e+001
      vertex  7.076563e+002 -1.873501e-015  1.330000e+001
    endloop
  endfacet
  facet normal -9.238759e-001  0.000000e+000 -3.826921e-001
    outer loop
      vertex  5.423134e+002  1.500000e+000  1.150000e+001
      vertex  5.417862e+002  0.000000e+000  1.277279e+001
      vertex  5.417862e+002  1.500000e+000  1.277279e+001
    endloop
  endfacet
  facet normal -3.826748e-001  -0.000000e+000 -9.238831e-001
    outer loop
      vertex  5.417862e+002  1.500000e+000  1.277279e+001
      vertex  5.417862e+002  0.000000e+000  1.277279e+001
      vertex  5.405134e+002 -1.873501e-015  1.330000e+001
    endloop
  endfacet
  facet normal -3.826748e-001  0.000000e+000 -9.238831e-001
    outer loop
      vertex  5.417862e+002  1.500000e+000  1.277279e+001
      vertex  5.405134e+002 -1.873501e-015  1.330000e+001
      vertex  5.405134e+002  1.500000e+000  1.330000e+001
    endloop
  endfacet
  facet normal -9.238759e-001  -0.000000e+000 -3.826921e-001
    outer loop
      vertex  5.417862e+002  0.000000e+000  1.277279e+001
      vertex  5.423134e+002  1.500000e+000  1.150000e+001
      vertex  5.423134e+002  0.000000e+000  1.150000e+001
    endloop
  endfacet
  facet normal -9.238759e-001  0.000000e+000  3.826921e-001
    outer loop
      vertex  5.423134e+002  0.000000e+000  1.150000e+001
      vertex  5.423134e+002  1.500000e+000  1.150000e+001
      vertex  5.417862e+002  1.500000e+000  1.022721e+001
    endloop
  endfacet
  facet normal -9.238759e-001  0.000000e+000  3.826921e-001
    outer loop
      vertex  5.423134e+002  0.000000e+000  1.150000e+001
      vertex  5.417862e+002  1.500000e+000  1.022721e+001
      vertex  5.417862e+002  0.000000e+000  1.022721e+001
    endloop
  endfacet
  facet normal -3.826748e-001  0.000000e+000  9.238831e-001
    outer loop
      vertex  5.417862e+002  0.000000e+000  1.022721e+001
      vertex  5.417862e+002  1.500000e+000  1.022721e+001
      vertex  5.405134e+002  1.500000e+000  9.700000e+000
    endloop
  endfacet
  facet normal -3.826748e-001  0.000000e+000  9.238831e-001
    outer loop
      vertex  5.417862e+002  0.000000e+000  1.022721e+001
      vertex  5.405134e+002  1.500000e+000  9.700000e+000
      vertex  5.405134e+002  1.873501e-015  9.700000e+000
    endloop
  endfacet
  facet normal  9.238759e-001  -0.000000e+000  3.826921e-001
    outer loop
      vertex  5.387134e+002  1.500000e+000  1.150000e+001
      vertex  5.392406e+002  0.000000e+000  1.022721e+001
      vertex  5.392406e+002  1.500000e+000  1.022721e+001
    endloop
  endfacet
  facet normal  3.826905e-001  0.000000e+000  9.238766e-001
    outer loop
      vertex  5.392406e+002  1.500000e+000  1.022721e+001
      vertex  5.392406e+002  0.000000e+000  1.022721e+001
      vertex  5.405134e+002  1.873501e-015  9.700000e+000
    endloop
  endfacet
  facet normal  3.826905e-001  -0.000000e+000  9.238766e-001
    outer loop
      vertex  5.392406e+002  1.500000e+000  1.022721e+001
      vertex  5.405134e+002  1.873501e-015  9.700000e+000
      vertex  5.405134e+002  1.500000e+000  9.700000e+000
    endloop
  endfacet
  facet normal  9.238759e-001  0.000000e+000  3.826921e-001
    outer loop
      vertex  5.392406e+002  0.000000e+000  1.022721e+001
      vertex  5.387134e+002  1.500000e+000  1.150000e+001
      vertex  5.387134e+002  0.000000e+000  1.150000e+001
    endloop
  endfacet
  facet normal  9.238759e-001  0.000000e+000 -3.826921e-001
    outer loop
      vertex  5.387134e+002  0.000000e+000  1.150000e+001
      vertex  5.387134e+002  1.500000e+000  1.150000e+001
      vertex  5.392406e+002  1.500000e+000  1.277279e+001
    endloop
  endfacet
  facet normal  9.238759e-001  0.000000e+000 -3.826921e-001
    outer loop
      vertex  5.387134e+002  0.000000e+000  1.150000e+001
      vertex  5.392406e+002  1.500000e+000  1.277279e+001
      vertex  5.392406e+002  0.000000e+000  1.277279e+001
    endloop
  endfacet
  facet normal  3.826905e-001  0.000000e+000 -9.238766e-001
    outer loop
      vertex  5.392406e+002  0.000000e+000  1.277279e+001
      vertex  5.392406e+002  1.500000e+000  1.277279e+001
      vertex  5.405134e+002  1.500000e+000  1.330000e+001
    endloop
  endfacet
  facet normal  3.826905e-001  0.000000e+000 -9.238766e-001
    outer loop
      vertex  5.392406e+002  0.000000e+000  1.277279e+001
      vertex  5.405134e+002  1.500000e+000  1.330000e+001
      vertex  5.405134e+002 -1.873501e-015  1.330000e+001
    endloop
  endfacet
  facet normal -9.238837e-001  0.000000e+000 -3.826732e-001
    outer loop
      vertex  3.751705e+002  1.500000e+000  1.150000e+001
      vertex  3.746433e+002  0.000000e+000  1.277279e+001
      vertex  3.746433e+002  1.500000e+000  1.277279e+001
    endloop
  endfacet
  facet normal -3.826827e-001  -0.000000e+000 -9.238799e-001
    outer loop
      vertex  3.746433e+002  1.500000e+000  1.277279e+001
      vertex  3.746433e+002  0.000000e+000  1.277279e+001
      vertex  3.733705e+002 -1.873501e-015  1.330000e+001
    endloop
  endfacet
  facet normal -3.826827e-001  0.000000e+000 -9.238799e-001
    outer loop
      vertex  3.746433e+002  1.500000e+000  1.277279e+001
      vertex  3.733705e+002 -1.873501e-015  1.330000e+001
      vertex  3.733705e+002  1.500000e+000  1.330000e+001
    endloop
  endfacet
  facet normal -9.238837e-001  -0.000000e+000 -3.826732e-001
    outer loop
      vertex  3.746433e+002  0.000000e+000  1.277279e+001
      vertex  3.751705e+002  1.500000e+000  1.150000e+001
      vertex  3.751705e+002  0.000000e+000  1.150000e+001
    endloop
  endfacet
  facet normal -9.238837e-001  0.000000e+000  3.826732e-001
    outer loop
      vertex  3.751705e+002  0.000000e+000  1.150000e+001
      vertex  3.751705e+002  1.500000e+000  1.150000e+001
      vertex  3.746433e+002  1.500000e+000  1.022721e+001
    endloop
  endfacet
  facet normal -9.238837e-001  0.000000e+000  3.826732e-001
    outer loop
      vertex  3.751705e+002  0.000000e+000  1.150000e+001
      vertex  3.746433e+002  1.500000e+000  1.022721e+001
      vertex  3.746433e+002  0.000000e+000  1.022721e+001
    endloop
  endfacet
  facet normal -3.826827e-001  0.000000e+000  9.238799e-001
    outer loop
      vertex  3.746433e+002  0.000000e+000  1.022721e+001
      vertex  3.746433e+002  1.500000e+000  1.022721e+001
      vertex  3.733705e+002  1.500000e+000  9.700000e+000
    endloop
  endfacet
  facet normal -3.826827e-001  0.000000e+000  9.238799e-001
    outer loop
      vertex  3.746433e+002  0.000000e+000  1.022721e+001
      vertex  3.733705e+002  1.500000e+000  9.700000e+000
      vertex  3.733705e+002  1.873501e-015  9.700000e+000
    endloop
  endfacet
  facet normal  9.238759e-001  -0.000000e+000  3.826921e-001
    outer loop
      vertex  3.715705e+002  1.500000e+000  1.150000e+001
      vertex  3.720977e+002  0.000000e+000  1.022721e+001
      vertex  3.720977e+002  1.500000e+000  1.022721e+001
    endloop
  endfacet
  facet normal  3.826827e-001  0.000000e+000  9.238799e-001
    outer loop
      vertex  3.720977e+002  1.500000e+000  1.022721e+001
      vertex  3.720977e+002  0.000000e+000  1.022721e+001
      vertex  3.733705e+002  1.873501e-015  9.700000e+000
    endloop
  endfacet
  facet normal  3.826827e-001  -0.000000e+000  9.238799e-001
    outer loop
      vertex  3.720977e+002  1.500000e+000  1.022721e+001
      vertex  3.733705e+002  1.873501e-015  9.700000e+000
      vertex  3.733705e+002  1.500000e+000  9.700000e+000
    endloop
  endfacet
  facet normal  9.238759e-001  0.000000e+000  3.826921e-001
    outer loop
      vertex  3.720977e+002  0.000000e+000  1.022721e+001
      vertex  3.715705e+002  1.500000e+000  1.150000e+001
      vertex  3.715705e+002  0.000000e+000  1.150000e+001
    endloop
  endfacet
  facet normal  9.238759e-001  0.000000e+000 -3.826921e-001
    outer loop
      vertex  3.715705e+002  0.000000e+000  1.150000e+001
      vertex  3.715705e+002  1.500000e+000  1.150000e+001
      vertex  3.720977e+002  1.500000e+000  1.277279e+001
    endloop
  endfacet
  facet normal  9.238759e-001  0.000000e+000 -3.826921e-001
    outer loop
      vertex  3.715705e+002  0.000000e+000  1.150000e+001
      vertex  3.720977e+002  1.500000e+000  1.277279e+001
      vertex  3.720977e+002  0.000000e+000  1.277279e+001
    endloop
  endfacet
  facet normal  3.826827e-001  0.000000e+000 -9.238799e-001
    outer loop
      vertex  3.720977e+002  0.000000e+000  1.277279e+001
      vertex  3.720977e+002  1.500000e+000  1.277279e+001
      vertex  3.733705e+002  1.500000e+000  1.330000e+001
    endloop
  endfacet
  facet normal  3.826827e-001  0.000000e+000 -9.238799e-001
    outer loop
      vertex  3.720977e+002  0.000000e+000  1.277279e+001
      vertex  3.733705e+002  1.500000e+000  1.330000e+001
      vertex  3.733705e+002 -1.873501e-015  1.330000e+001
    endloop
  endfacet
  facet normal -9.238799e-001  0.000000e+000 -3.826827e-001
    outer loop
      vertex  2.080277e+002  1.500000e+000  1.150000e+001
      vertex  2.075005e+002  0.000000e+000  1.277279e+001
      vertex  2.075005e+002  1.500000e+000  1.277279e+001
    endloop
  endfacet
  facet normal -3.826827e-001  -0.000000e+000 -9.238799e-001
    outer loop
      vertex  2.075005e+002  1.500000e+000  1.277279e+001
      vertex  2.075005e+002  0.000000e+000  1.277279e+001
      vertex  2.062277e+002 -1.873501e-015  1.330000e+001
    endloop
  endfacet
  facet normal -3.826827e-001  0.000000e+000 -9.238799e-001
    outer loop
      vertex  2.075005e+002  1.500000e+000  1.277279e+001
      vertex  2.062277e+002 -1.873501e-015  1.330000e+001
      vertex  2.062277e+002  1.500000e+000  1.330000e+001
    endloop
  endfacet
  facet normal -9.238799e-001  -0.000000e+000 -3.826827e-001
    outer loop
      vertex  2.075005e+002  0.000000e+000  1.277279e+001
      vertex  2.080277e+002  1.500000e+000  1.150000e+001
      vertex  2.080277e+002  0.000000e+000  1.150000e+001
    endloop
  endfacet
  facet normal -9.238799e-001  0.000000e+000  3.826827e-001
    outer loop
      vertex  2.080277e+002  0.000000e+000  1.150000e+001
      vertex  2.080277e+002  1.500000e+000  1.150000e+001
      vertex  2.075005e+002  1.500000e+000  1.022721e+001
    endloop
  endfacet
  facet normal -9.238799e-001  0.000000e+000  3.826827e-001
    outer loop
      vertex  2.080277e+002  0.000000e+000  1.150000e+001
      vertex  2.075005e+002  1.500000e+000  1.022721e+001
      vertex  2.075005e+002  0.000000e+000  1.022721e+001
    endloop
  endfacet
  facet normal -3.826827e-001  0.000000e+000  9.238799e-001
    outer loop
      vertex  2.075005e+002  0.000000e+000  1.022721e+001
      vertex  2.075005e+002  1.500000e+000  1.022721e+001
      vertex  2.062277e+002  1.500000e+000  9.700000e+000
    endloop
  endfacet
  facet normal -3.826827e-001  0.000000e+000  9.238799e-001
    outer loop
      vertex  2.075005e+002  0.000000e+000  1.022721e+001
      vertex  2.062277e+002  1.500000e+000  9.700000e+000
      vertex  2.062277e+002  1.873501e-015  9.700000e+000
    endloop
  endfacet
  facet normal  9.238759e-001  -0.000000e+000  3.826921e-001
    outer loop
      vertex  2.044277e+002  1.500000e+000  1.150000e+001
      vertex  2.049549e+002  0.000000e+000  1.022721e+001
      vertex  2.049549e+002  1.500000e+000  1.022721e+001
    endloop
  endfacet
  facet normal  3.826866e-001  0.000000e+000  9.238783e-001
    outer loop
      vertex  2.049549e+002  1.500000e+000  1.022721e+001
      vertex  2.049549e+002  0.000000e+000  1.022721e+001
      vertex  2.062277e+002  1.873501e-015  9.700000e+000
    endloop
  endfacet
  facet normal  3.826866e-001  -0.000000e+000  9.238783e-001
    outer loop
      vertex  2.049549e+002  1.500000e+000  1.022721e+001
      vertex  2.062277e+002  1.873501e-015  9.700000e+000
      vertex  2.062277e+002  1.500000e+000  9.700000e+000
    endloop
  endfacet
  facet normal  9.238759e-001  0.000000e+000  3.826921e-001
    outer loop
      vertex  2.049549e+002  0.000000e+000  1.022721e+001
      vertex  2.044277e+002  1.500000e+000  1.150000e+001
      vertex  2.044277e+002  0.000000e+000  1.150000e+001
    endloop
  endfacet
  facet normal  9.238759e-001  0.000000e+000 -3.826921e-001
    outer loop
      vertex  2.044277e+002  0.000000e+000  1.150000e+001
      vertex  2.044277e+002  1.500000e+000  1.150000e+001
      vertex  2.049549e+002  1.500000e+000  1.277279e+001
    endloop
  endfacet
  facet normal  9.238759e-001  0.000000e+000 -3.826921e-001
    outer loop
      vertex  2.044277e+002  0.000000e+000  1.150000e+001
      vertex  2.049549e+002  1.500000e+000  1.277279e+001
      vertex  2.049549e+002  0.000000e+000  1.277279e+001
    endloop
  endfacet
  facet normal  3.826866e-001  0.000000e+000 -9.238783e-001
    outer loop
      vertex  2.049549e+002  0.000000e+000  1.277279e+001
      vertex  2.049549e+002  1.500000e+000  1.277279e+001
      vertex  2.062277e+002  1.500000e+000  1.330000e+001
    endloop
  endfacet
  facet normal  3.826866e-001  0.000000e+000 -9.238783e-001
    outer loop
      vertex  2.049549e+002  0.000000e+000  1.277279e+001
      vertex  2.062277e+002  1.500000e+000  1.330000e+001
      vertex  2.062277e+002 -1.873501e-015  1.330000e+001
    endloop
  endfacet
  facet normal -9.238799e-001  0.000000e+000 -3.826827e-001
    outer loop
      vertex  4.088482e+001  1.500000e+000  1.150000e+001
      vertex  4.035762e+001  0.000000e+000  1.277279e+001
      vertex  4.035762e+001  1.500000e+000  1.277279e+001
    endloop
  endfacet
  facet normal -3.826836e-001  -0.000000e+000 -9.238794e-001
    outer loop
      vertex  4.035762e+001  1.500000e+000  1.277279e+001
      vertex  4.035762e+001  0.000000e+000  1.277279e+001
      vertex  3.908482e+001 -1.873501e-015  1.330000e+001
    endloop
  endfacet
  facet normal -3.826836e-001  0.000000e+000 -9.238794e-001
    outer loop
      vertex  4.035762e+001  1.500000e+000  1.277279e+001
      vertex  3.908482e+001 -1.873501e-015  1.330000e+001
      vertex  3.908482e+001  1.500000e+000  1.330000e+001
    endloop
  endfacet
  facet normal -9.238799e-001  -0.000000e+000 -3.826827e-001
    outer loop
      vertex  4.035762e+001  0.000000e+000  1.277279e+001
      vertex  4.088482e+001  1.500000e+000  1.150000e+001
      vertex  4.088482e+001  0.000000e+000  1.150000e+001
    endloop
  endfacet
  facet normal -9.238799e-001  0.000000e+000  3.826827e-001
    outer loop
      vertex  4.088482e+001  0.000000e+000  1.150000e+001
      vertex  4.088482e+001  1.500000e+000  1.150000e+001
      vertex  4.035762e+001  1.500000e+000  1.022721e+001
    endloop
  endfacet
  facet normal -9.238799e-001  0.000000e+000  3.826827e-001
    outer loop
      vertex  4.088482e+001  0.000000e+000  1.150000e+001
      vertex  4.035762e+001  1.500000e+000  1.022721e+001
      vertex  4.035762e+001  0.000000e+000  1.022721e+001
    endloop
  endfacet
  facet normal -3.826836e-001  0.000000e+000  9.238794e-001
    outer loop
      vertex  4.035762e+001  0.000000e+000  1.022721e+001
      vertex  4.035762e+001  1.500000e+000  1.022721e+001
      vertex  3.908482e+001  1.500000e+000  9.700000e+000
    endloop
  endfacet
  facet normal -3.826836e-001  0.000000e+000  9.238794e-001
    outer loop
      vertex  4.035762e+001  0.000000e+000  1.022721e+001
      vertex  3.908482e+001  1.500000e+000  9.700000e+000
      vertex  3.908482e+001  1.873501e-015  9.700000e+000
    endloop
  endfacet
  facet normal  9.238799e-001  -0.000000e+000  3.826827e-001
    outer loop
      vertex  3.728482e+001  1.500000e+000  1.150000e+001
      vertex  3.781203e+001  0.000000e+000  1.022721e+001
      vertex  3.781203e+001  1.500000e+000  1.022721e+001
    endloop
  endfacet
  facet normal  3.826836e-001  0.000000e+000  9.238794e-001
    outer loop
      vertex  3.781203e+001  1.500000e+000  1.022721e+001
      vertex  3.781203e+001  0.000000e+000  1.022721e+001
      vertex  3.908482e+001  1.873501e-015  9.700000e+000
    endloop
  endfacet
  facet normal  3.826836e-001  -0.000000e+000  9.238794e-001
    outer loop
      vertex  3.781203e+001  1.500000e+000  1.022721e+001
      vertex  3.908482e+001  1.873501e-015  9.700000e+000
      vertex  3.908482e+001  1.500000e+000  9.700000e+000
    endloop
  endfacet
  facet normal  9.238799e-001  0.000000e+000  3.826827e-001
    outer loop
      vertex  3.781203e+001  0.000000e+000  1.022721e+001
      vertex  3.728482e+001  1.500000e+000  1.150000e+001
      vertex  3.728482e+001  0.000000e+000  1.150000e+001
    endloop
  endfacet
  facet normal  9.238799e-001  0.000000e+000 -3.826827e-001
    outer loop
      vertex  3.728482e+001  0.000000e+000  1.150000e+001
      vertex  3.728482e+001  1.500000e+000  1.150000e+001
      vertex  3.781203e+001  1.500000e+000  1.277279e+001
    endloop
  endfacet
  facet normal  9.238799e-001  0.000000e+000 -3.826827e-001
    outer loop
      vertex  3.728482e+001  0.000000e+000  1.150000e+001
      vertex  3.781203e+001  1.500000e+000  1.277279e+001
      vertex  3.781203e+001  0.000000e+000  1.277279e+001
    endloop
  endfacet
  facet normal  3.826836e-001  0.000000e+000 -9.238794e-001
    outer loop
      vertex  3.781203e+001  0.000000e+000  1.277279e+001
      vertex  3.781203e+001  1.500000e+000  1.277279e+001
      vertex  3.908482e+001  1.500000e+000  1.330000e+001
    endloop
  endfacet
  facet normal  3.826836e-001  0.000000e+000 -9.238794e-001
    outer loop
      vertex  3.781203e+001  0.000000e+000  1.277279e+001
      vertex  3.908482e+001  1.500000e+000  1.330000e+001
      vertex  3.908482e+001 -1.873501e-015  1.330000e+001
    endloop
  endfacet
  facet normal  -0.000000e+000  1.000000e+000  -0.000000e+000
    outer loop
      vertex  7.058563e+002  1.500000e+000  1.150000e+001
      vertex  5.417862e+002  1.500000e+000  1.277279e+001
      vertex  5.405134e+002  1.500000e+000  1.330000e+001
    endloop
  endfacet
  facet normal  0.000000e+000  1.000000e+000  -0.000000e+000
    outer loop
      vertex  7.058563e+002  1.500000e+000  1.150000e+001
      vertex  5.423134e+002  1.500000e+000  1.150000e+001
      vertex  5.417862e+002  1.500000e+000  1.277279e+001
    endloop
  endfacet
  facet normal  -0.000000e+000  9.999999e-001  -0.000000e+000
    outer loop
      vertex  5.387134e+002  1.500000e+000  1.150000e+001
      vertex  3.746433e+002  1.500000e+000  1.277279e+001
      vertex  3.733705e+002  1.500000e+000  1.330000e+001
    endloop
  endfacet
  facet normal  0.000000e+000  1.000000e+000  -0.000000e+000
    outer loop
      vertex  5.387134e+002  1.500000e+000  1.150000e+001
      vertex  3.751705e+002  1.500000e+000  1.150000e+001
      vertex  3.746433e+002  1.500000e+000  1.277279e+001
    endloop
  endfacet
  facet normal  -0.000000e+000  1.000000e+000  -0.000000e+000
    outer loop
      vertex  3.715705e+002  1.500000e+000  1.150000e+001
      vertex  2.075005e+002  1.500000e+000  1.277279e+001
      vertex  2.062277e+002  1.500000e+000  1.330000e+001
    endloop
  endfacet
  facet normal  0.000000e+000  1.000000e+000  -0.000000e+000
    outer loop
      vertex  3.715705e+002  1.500000e+000  1.150000e+001
      vertex  2.080277e+002  1.500000e+000  1.150000e+001
      vertex  2.075005e+002  1.500000e+000  1.277279e+001
    endloop
  endfacet
  facet normal  -0.000000e+000  1.000000e+000  -0.000000e+000
    outer loop
      vertex  2.044277e+002  1.500000e+000  1.150000e+001
      vertex  4.035762e+001  1.500000e+000  1.277279e+001
      vertex  3.908482e+001  1.500000e+000  1.330000e+001
    endloop
  endfacet
  facet normal  0.000000e+000  1.000000e+000  -0.000000e+000
    outer loop
      vertex  2.044277e+002  1.500000e+000  1.150000e+001
      vertex  4.088482e+001  1.500000e+000  1.150000e+001
      vertex  4.035762e+001  1.500000e+000  1.277279e+001
    endloop
  endfacet
  facet normal  0.000000e+000  1.000000e+000  0.000000e+000
    outer loop
      vertex  7.089290e+002  1.500000e+000  1.022721e+001
      vertex  8.729991e+002  1.500000e+000  1.150000e+001
      vertex  7.076563e+002  1.500000e+000  9.700000e+000
    endloop
  endfacet
  facet normal  0.000000e+000  1.000000e+000  0.000000e+000
    outer loop
      vertex  7.094562e+002  1.500000e+000  1.150000e+001
      vertex  8.729991e+002  1.500000e+000  1.150000e+001
      vertex  7.089290e+002  1.500000e+000  1.022721e+001
    endloop
  endfacet
  facet normal  0.000000e+000  1.000000e+000  0.000000e+000
    outer loop
      vertex  5.417862e+002  1.500000e+000  1.022721e+001
      vertex  7.058563e+002  1.500000e+000  1.150000e+001
      vertex  5.405134e+002  1.500000e+000  9.700000e+000
    endloop
  endfacet
  facet normal  0.000000e+000  1.000000e+000  0.000000e+000
    outer loop
      vertex  5.423134e+002  1.500000e+000  1.150000e+001
      vertex  7.058563e+002  1.500000e+000  1.150000e+001
      vertex  5.417862e+002  1.500000e+000  1.022721e+001
    endloop
  endfacet
  facet normal  0.000000e+000  9.999999e-001  0.000000e+000
    outer loop
      vertex  3.746433e+002  1.500000e+000  1.022721e+001
      vertex  5.387134e+002  1.500000e+000  1.150000e+001
      vertex  3.733705e+002  1.500000e+000  9.700000e+000
    endloop
  endfacet
  facet normal  0.000000e+000  1.000000e+000  0.000000e+000
    outer loop
      vertex  3.751705e+002  1.500000e+000  1.150000e+001
      vertex  5.387134e+002  1.500000e+000  1.150000e+001
      vertex  3.746433e+002  1.500000e+000  1.022721e+001
    endloop
  endfacet
  facet normal  0.000000e+000  1.000000e+000  0.000000e+000
    outer loop
      vertex  2.075005e+002  1.500000e+000  1.022721e+001
      vertex  3.715705e+002  1.500000e+000  1.150000e+001
      vertex  2.062277e+002  1.500000e+000  9.700000e+000
    endloop
  endfacet
  facet normal  0.000000e+000  1.000000e+000  0.000000e+000
    outer loop
      vertex  2.080277e+002  1.500000e+000  1.150000e+001
      vertex  3.715705e+002  1.500000e+000  1.150000e+001
      vertex  2.075005e+002  1.500000e+000  1.022721e+001
    endloop
  endfacet
  facet normal  0.000000e+000  1.000000e+000  0.000000e+000
    outer loop
      vertex  4.035762e+001  1.500000e+000  1.022721e+001
      vertex  2.044277e+002  1.500000e+000  1.150000e+001
      vertex  3.908482e+001  1.500000e+000  9.700000e+000
    endloop
  endfacet
  facet normal  0.000000e+000  1.000000e+000  0.000000e+000
    outer loop
      vertex  4.088482e+001  1.500000e+000  1.150000e+001
      vertex  2.044277e+002  1.500000e+000  1.150000e+001
      vertex  4.035762e+001  1.500000e+000  1.022721e+001
    endloop
  endfacet
  facet normal  0.000000e+000  1.000000e+000  0.000000e+000
    outer loop
      vertex  0.000000e+000  1.500000e+000  1.500000e+000
      vertex  3.728482e+001  1.500000e+000  1.150000e+001
      vertex  3.781203e+001  1.500000e+000  1.022721e+001
    endloop
  endfacet
  facet normal  0.000000e+000  1.000000e+000  0.000000e+000
    outer loop
      vertex  0.000000e+000  1.500000e+000  1.500000e+000
      vertex  3.781203e+001  1.500000e+000  1.022721e+001
      vertex  3.908482e+001  1.500000e+000  9.700000e+000
    endloop
  endfacet
  facet normal  -0.000000e+000  1.000000e+000  0.000000e+000
    outer loop
      vertex  0.000000e+000  1.500000e+000  1.500000e+000
      vertex  3.908482e+001  1.500000e+000  9.700000e+000
      vertex  2.044277e+002  1.500000e+000  1.150000e+001
    endloop
  endfacet
  facet normal  0.000000e+000  1.000000e+000  0.000000e+000
    outer loop
      vertex  0.000000e+000  1.500000e+000  1.500000e+000
      vertex  2.044277e+002  1.500000e+000  1.150000e+001
      vertex  2.049549e+002  1.500000e+000  1.022721e+001
    endloop
  endfacet
  facet normal  0.000000e+000  1.000000e+000  0.000000e+000
    outer loop
      vertex  0.000000e+000  1.500000e+000  1.500000e+000
      vertex  2.049549e+002  1.500000e+000  1.022721e+001
      vertex  2.062277e+002  1.500000e+000  9.700000e+000
    endloop
  endfacet
  facet normal  -0.000000e+000  1.000000e+000  0.000000e+000
    outer loop
      vertex  0.000000e+000  1.500000e+000  1.500000e+000
      vertex  2.062277e+002  1.500000e+000  9.700000e+000
      vertex  3.715705e+002  1.500000e+000  1.150000e+001
    endloop
  endfacet
  facet normal  0.000000e+000  1.000000e+000  0.000000e+000
    outer loop
      vertex  0.000000e+000  1.500000e+000  1.500000e+000
      vertex  3.715705e+002  1.500000e+000  1.150000e+001
      vertex  3.720977e+002  1.500000e+000  1.022721e+001
    endloop
  endfacet
  facet normal  0.000000e+000  1.000000e+000  0.000000e+000
    outer loop
      vertex  0.000000e+000  1.500000e+000  1.500000e+000
      vertex  3.720977e+002  1.500000e+000  1.022721e+001
      vertex  3.733705e+002  1.500000e+000  9.700000e+000
    endloop
  endfacet
  facet normal  -0.000000e+000  9.999999e-001  0.000000e+000
    outer loop
      vertex  0.000000e+000  1.500000e+000  1.500000e+000
      vertex  3.733705e+002  1.500000e+000  9.700000e+000
      vertex  5.387134e+002  1.500000e+000  1.150000e+001
    endloop
  endfacet
  facet normal  0.000000e+000  1.000000e+000  0.000000e+000
    outer loop
      vertex  0.000000e+000  1.500000e+000  1.500000e+000
      vertex  5.387134e+002  1.500000e+000  1.150000e+001
      vertex  5.392406e+002  1.500000e+000  1.022721e+001
    endloop
  endfacet
  facet normal  0.000000e+000  1.000000e+000  0.000000e+000
    outer loop
      vertex  0.000000e+000  1.500000e+000  1.500000e+000
      vertex  5.392406e+002  1.500000e+000  1.022721e+001
      vertex  5.405134e+002  1.500000e+000  9.700000e+000
    endloop
  endfacet
  facet normal  -0.000000e+000  1.000000e+000  0.000000e+000
    outer loop
      vertex  0.000000e+000  1.500000e+000  1.500000e+000
      vertex  5.405134e+002  1.500000e+000  9.700000e+000
      vertex  7.058563e+002  1.500000e+000  1.150000e+001
    endloop
  endfacet
  facet normal  0.000000e+000  1.000000e+000  0.000000e+000
    outer loop
      vertex  0.000000e+000  1.500000e+000  1.500000e+000
      vertex  7.058563e+002  1.500000e+000  1.150000e+001
      vertex  7.063835e+002  1.500000e+000  1.022721e+001
    endloop
  endfacet
  facet normal  0.000000e+000  1.000000e+000  0.000000e+000
    outer loop
      vertex  0.000000e+000  1.500000e+000  1.500000e+000
      vertex  7.063835e+002  1.500000e+000  1.022721e+001
      vertex  7.076563e+002  1.500000e+000  9.700000e+000
    endloop
  endfacet
  facet normal  -0.000000e+000  1.000000e+000  0.000000e+000
    outer loop
      vertex  0.000000e+000  1.500000e+000  1.500000e+000
      vertex  7.076563e+002  1.500000e+000  9.700000e+000
      vertex  8.729991e+002  1.500000e+000  1.150000e+001
    endloop
  endfacet
  facet normal  0.000000e+000  1.000000e+000  0.000000e+000
    outer loop
      vertex  0.000000e+000  1.500000e+000  1.500000e+000
      vertex  8.729991e+002  1.500000e+000  1.150000e+001
      vertex  8.735263e+002  1.500000e+000  1.022721e+001
    endloop
  endfacet
  facet normal  0.000000e+000  1.000000e+000  0.000000e+000
    outer loop
      vertex  0.000000e+000  1.500000e+000  1.500000e+000
      vertex  8.735263e+002  1.500000e+000  1.022721e+001
      vertex  8.747991e+002  1.500000e+000  9.700000e+000
    endloop
  endfacet
  facet normal  0.000000e+000  1.000000e+000  0.000000e+000
    outer loop
      vertex  0.000000e+000  1.500000e+000  2.000000e+001
      vertex  7.076563e+002  1.500000e+000  1.330000e+001
      vertex  7.063835e+002  1.500000e+000  1.277279e+001
    endloop
  endfacet
  facet normal  0.000000e+000  1.000000e+000  0.000000e+000
    outer loop
      vertex  0.000000e+000  1.500000e+000  2.000000e+001
      vertex  7.063835e+002  1.500000e+000  1.277279e+001
      vertex  7.058563e+002  1.500000e+000  1.150000e+001
    endloop
  endfacet
  facet normal  0.000000e+000  1.000000e+000  0.000000e+000
    outer loop
      vertex  0.000000e+000  1.500000e+000  2.000000e+001
      vertex  7.058563e+002  1.500000e+000  1.150000e+001
      vertex  5.405134e+002  1.500000e+000  1.330000e+001
    endloop
  endfacet
  facet normal  0.000000e+000  1.000000e+000  0.000000e+000
    outer loop
      vertex  0.000000e+000  1.500000e+000  2.000000e+001
      vertex  5.405134e+002  1.500000e+000  1.330000e+001
      vertex  5.392406e+002  1.500000e+000  1.277279e+001
    endloop
  endfacet
  facet normal  0.000000e+000  1.000000e+000  0.000000e+000
    outer loop
      vertex  0.000000e+000  1.500000e+000  2.000000e+001
      vertex  5.392406e+002  1.500000e+000  1.277279e+001
      vertex  5.387134e+002  1.500000e+000  1.150000e+001
    endloop
  endfacet
  facet normal  0.000000e+000  1.000000e+000  0.000000e+000
    outer loop
      vertex  0.000000e+000  1.500000e+000  2.000000e+001
      vertex  5.387134e+002  1.500000e+000  1.150000e+001
      vertex  3.733705e+002  1.500000e+000  1.330000e+001
    endloop
  endfacet
  facet normal  0.000000e+000  1.000000e+000  0.000000e+000
    outer loop
      vertex  0.000000e+000  1.500000e+000  2.000000e+001
      vertex  3.733705e+002  1.500000e+000  1.330000e+001
      vertex  3.720977e+002  1.500000e+000  1.277279e+001
    endloop
  endfacet
  facet normal  0.000000e+000  1.000000e+000  0.000000e+000
    outer loop
      vertex  0.000000e+000  1.500000e+000  2.000000e+001
      vertex  3.720977e+002  1.500000e+000  1.277279e+001
      vertex  3.715705e+002  1.500000e+000  1.150000e+001
    endloop
  endfacet
  facet normal  0.000000e+000  9.999999e-001  0.000000e+000
    outer loop
      vertex  0.000000e+000  1.500000e+000  2.000000e+001
      vertex  3.715705e+002  1.500000e+000  1.150000e+001
      vertex  2.062277e+002  1.500000e+000  1.330000e+001
    endloop
  endfacet
  facet normal  0.000000e+000  9.999999e-001  0.000000e+000
    outer loop
      vertex  0.000000e+000  1.500000e+000  2.000000e+001
      vertex  2.062277e+002  1.500000e+000  1.330000e+001
      vertex  2.049549e+002  1.500000e+000  1.277279e+001
    endloop
  endfacet
  facet normal  0.000000e+000  1.000000e+000  0.000000e+000
    outer loop
      vertex  0.000000e+000  1.500000e+000  2.000000e+001
      vertex  2.049549e+002  1.500000e+000  1.277279e+001
      vertex  2.044277e+002  1.500000e+000  1.150000e+001
    endloop
  endfacet
  facet normal  0.000000e+000  1.000000e+000  0.000000e+000
    outer loop
      vertex  0.000000e+000  1.500000e+000  2.000000e+001
      vertex  2.044277e+002  1.500000e+000  1.150000e+001
      vertex  3.908482e+001  1.500000e+000  1.330000e+001
    endloop
  endfacet
  facet normal  0.000000e+000  1.000000e+000  0.000000e+000
    outer loop
      vertex  0.000000e+000  1.500000e+000  2.000000e+001
      vertex  3.908482e+001  1.500000e+000  1.330000e+001
      vertex  3.781203e+001  1.500000e+000  1.277279e+001
    endloop
  endfacet
  facet normal  0.000000e+000  1.000000e+000  0.000000e+000
    outer loop
      vertex  0.000000e+000  1.500000e+000  2.000000e+001
      vertex  3.781203e+001  1.500000e+000  1.277279e+001
      vertex  3.728482e+001  1.500000e+000  1.150000e+001
    endloop
  endfacet
  facet normal  0.000000e+000  1.000000e+000  0.000000e+000
    outer loop
      vertex  0.000000e+000  1.500000e+000  2.000000e+001
      vertex  3.728482e+001  1.500000e+000  1.150000e+001
      vertex  0.000000e+000  1.500000e+000  1.500000e+000
    endloop
  endfacet
  facet normal  0.000000e+000  9.999999e-001  -0.000000e+000
    outer loop
      vertex  1.245427e+003  1.500000e+000  2.000000e+001
      vertex  1.234746e+003  1.500000e+000  1.500000e+000
      vertex  1.210885e+003  1.500000e+000  1.150000e+001
    endloop
  endfacet
  facet normal  0.000000e+000  1.000000e+000  -0.000000e+000
    outer loop
      vertex  1.245427e+003  1.500000e+000  2.000000e+001
      vertex  1.210885e+003  1.500000e+000  1.150000e+001
      vertex  1.210358e+003  1.500000e+000  1.277279e+001
    endloop
  endfacet
  facet normal  0.000000e+000  1.000000e+000  -0.000000e+000
    outer loop
      vertex  1.245427e+003  1.500000e+000  2.000000e+001
      vertex  1.210358e+003  1.500000e+000  1.277279e+001
      vertex  1.209085e+003  1.500000e+000  1.330000e+001
    endloop
  endfacet
  facet normal  0.000000e+000  1.000000e+000  -0.000000e+000
    outer loop
      vertex  1.245427e+003  1.500000e+000  2.000000e+001
      vertex  1.209085e+003  1.500000e+000  1.330000e+001
      vertex  0.000000e+000  1.500000e+000  2.000000e+001
    endloop
  endfacet
  facet normal  0.000000e+000  1.000000e+000  0.000000e+000
    outer loop
      vertex  1.234746e+003  1.500000e+000  1.500000e+000
      vertex  0.000000e+000  1.500000e+000  1.500000e+000
      vertex  1.209085e+003  1.500000e+000  9.700000e+000
    endloop
  endfacet
  facet normal  -0.000000e+000  1.000000e+000  0.000000e+000
    outer loop
      vertex  1.234746e+003  1.500000e+000  1.500000e+000
      vertex  1.209085e+003  1.500000e+000  9.700000e+000
      vertex  1.210358e+003  1.500000e+000  1.022721e+001
    endloop
  endfacet
  facet normal  -0.000000e+000  1.000000e+000  0.000000e+000
    outer loop
      vertex  1.234746e+003  1.500000e+000  1.500000e+000
      vertex  1.210358e+003  1.500000e+000  1.022721e+001
      vertex  1.210885e+003  1.500000e+000  1.150000e+001
    endloop
  endfacet
  facet normal  0.000000e+000  1.000000e+000  0.000000e+000
    outer loop
      vertex  7.094562e+002  1.500000e+000  1.150000e+001
      vertex  7.089290e+002  1.500000e+000  1.277279e+001
      vertex  8.729991e+002  1.500000e+000  1.150000e+001
    endloop
  endfacet
  facet normal  0.000000e+000  1.000000e+000  0.000000e+000
    outer loop
      vertex  8.729991e+002  1.500000e+000  1.150000e+001
      vertex  7.089290e+002  1.500000e+000  1.277279e+001
      vertex  7.076563e+002  1.500000e+000  1.330000e+001
    endloop
  endfacet
  facet normal  0.000000e+000  1.000000e+000  0.000000e+000
    outer loop
      vertex  8.729991e+002  1.500000e+000  1.150000e+001
      vertex  7.076563e+002  1.500000e+000  1.330000e+001
      vertex  8.735263e+002  1.500000e+000  1.277279e+001
    endloop
  endfacet
  facet normal  0.000000e+000  9.999999e-001  0.000000e+000
    outer loop
      vertex  8.735263e+002  1.500000e+000  1.277279e+001
      vertex  7.076563e+002  1.500000e+000  1.330000e+001
      vertex  0.000000e+000  1.500000e+000  2.000000e+001
    endloop
  endfacet
  facet normal  0.000000e+000  1.000000e+000  0.000000e+000
    outer loop
      vertex  8.735263e+002  1.500000e+000  1.277279e+001
      vertex  0.000000e+000  1.500000e+000  2.000000e+001
      vertex  8.747991e+002  1.500000e+000  1.330000e+001
    endloop
  endfacet
  facet normal  0.000000e+000  1.000000e+000  0.000000e+000
    outer loop
      vertex  8.765991e+002  1.500000e+000  1.150000e+001
      vertex  8.760719e+002  1.500000e+000  1.277279e+001
      vertex  1.040142e+003  1.500000e+000  1.150000e+001
    endloop
  endfacet
  facet normal  0.000000e+000  1.000000e+000  0.000000e+000
    outer loop
      vertex  1.040142e+003  1.500000e+000  1.150000e+001
      vertex  8.760719e+002  1.500000e+000  1.277279e+001
      vertex  8.747991e+002  1.500000e+000  1.330000e+001
    endloop
  endfacet
  facet normal  0.000000e+000  1.000000e+000  0.000000e+000
    outer loop
      vertex  1.040142e+003  1.500000e+000  1.150000e+001
      vertex  8.747991e+002  1.500000e+000  1.330000e+001
      vertex  1.040669e+003  1.500000e+000  1.277279e+001
    endloop
  endfacet
  facet normal  0.000000e+000  1.000000e+000  0.000000e+000
    outer loop
      vertex  1.040669e+003  1.500000e+000  1.277279e+001
      vertex  8.747991e+002  1.500000e+000  1.330000e+001
      vertex  0.000000e+000  1.500000e+000  2.000000e+001
    endloop
  endfacet
  facet normal  0.000000e+000  1.000000e+000  0.000000e+000
    outer loop
      vertex  1.040669e+003  1.500000e+000  1.277279e+001
      vertex  0.000000e+000  1.500000e+000  2.000000e+001
      vertex  1.041942e+003  1.500000e+000  1.330000e+001
    endloop
  endfacet
  facet normal  0.000000e+000  1.000000e+000  0.000000e+000
    outer loop
      vertex  1.043742e+003  1.500000e+000  1.150000e+001
      vertex  1.043215e+003  1.500000e+000  1.277279e+001
      vertex  1.207285e+003  1.500000e+000  1.150000e+001
    endloop
  endfacet
  facet normal  0.000000e+000  1.000000e+000  0.000000e+000
    outer loop
      vertex  1.207285e+003  1.500000e+000  1.150000e+001
      vertex  1.043215e+003  1.500000e+000  1.277279e+001
      vertex  1.041942e+003  1.500000e+000  1.330000e+001
    endloop
  endfacet
  facet normal  0.000000e+000  1.000000e+000  0.000000e+000
    outer loop
      vertex  1.207285e+003  1.500000e+000  1.150000e+001
      vertex  1.041942e+003  1.500000e+000  1.330000e+001
      vertex  1.207812e+003  1.500000e+000  1.277279e+001
    endloop
  endfacet
  facet normal  0.000000e+000  1.000000e+000  0.000000e+000
    outer loop
      vertex  1.207812e+003  1.500000e+000  1.277279e+001
      vertex  1.041942e+003  1.500000e+000  1.330000e+001
      vertex  0.000000e+000  1.500000e+000  2.000000e+001
    endloop
  endfacet
  facet normal  0.000000e+000  1.000000e+000  0.000000e+000
    outer loop
      vertex  1.207812e+003  1.500000e+000  1.277279e+001
      vertex  0.000000e+000  1.500000e+000  2.000000e+001
      vertex  1.209085e+003  1.500000e+000  1.330000e+001
    endloop
  endfacet
  facet normal  0.000000e+000  1.000000e+000  0.000000e+000
    outer loop
      vertex  8.765991e+002  1.500000e+000  1.150000e+001
      vertex  1.040142e+003  1.500000e+000  1.150000e+001
      vertex  8.760719e+002  1.500000e+000  1.022721e+001
    endloop
  endfacet
  facet normal  0.000000e+000  1.000000e+000  0.000000e+000
    outer loop
      vertex  8.760719e+002  1.500000e+000  1.022721e+001
      vertex  1.040142e+003  1.500000e+000  1.150000e+001
      vertex  1.040669e+003  1.500000e+000  1.022721e+001
    endloop
  endfacet
  facet normal  0.000000e+000  9.999999e-001  0.000000e+000
    outer loop
      vertex  8.760719e+002  1.500000e+000  1.022721e+001
      vertex  1.040669e+003  1.500000e+000  1.022721e+001
      vertex  8.747991e+002  1.500000e+000  9.700000e+000
    endloop
  endfacet
  facet normal  0.000000e+000  1.000000e+000  0.000000e+000
    outer loop
      vertex  8.747991e+002  1.500000e+000  9.700000e+000
      vertex  1.040669e+003  1.500000e+000  1.022721e+001
      vertex  1.041942e+003  1.500000e+000  9.700000e+000
    endloop
  endfacet
  facet normal  0.000000e+000  1.000000e+000  0.000000e+000
    outer loop
      vertex  8.747991e+002  1.500000e+000  9.700000e+000
      vertex  1.041942e+003  1.500000e+000  9.700000e+000
      vertex  0.000000e+000  1.500000e+000  1.500000e+000
    endloop
  endfacet
  facet normal  0.000000e+000  1.000000e+000  0.000000e+000
    outer loop
      vertex  1.043742e+003  1.500000e+000  1.150000e+001
      vertex  1.207285e+003  1.500000e+000  1.150000e+001
      vertex  1.043215e+003  1.500000e+000  1.022721e+001
    endloop
  endfacet
  facet normal  0.000000e+000  1.000000e+000  0.000000e+000
    outer loop
      vertex  1.043215e+003  1.500000e+000  1.022721e+001
      vertex  1.207285e+003  1.500000e+000  1.150000e+001
      vertex  1.207812e+003  1.500000e+000  1.022721e+001
    endloop
  endfacet
  facet normal  0.000000e+000  9.999999e-001  0.000000e+000
    outer loop
      vertex  1.043215e+003  1.500000e+000  1.022721e+001
      vertex  1.207812e+003  1.500000e+000  1.022721e+001
      vertex  1.041942e+003  1.500000e+000  9.700000e+000
    endloop
  endfacet
  facet normal  0.000000e+000  1.000000e+000  0.000000e+000
    outer loop
      vertex  1.041942e+003  1.500000e+000  9.700000e+000
      vertex  1.207812e+003  1.500000e+000  1.022721e+001
      vertex  1.209085e+003  1.500000e+000  9.700000e+000
    endloop
  endfacet
  facet normal  0.000000e+000  1.000000e+000  0.000000e+000
    outer loop
      vertex  1.041942e+003  1.500000e+000  9.700000e+000
      vertex  1.209085e+003  1.500000e+000  9.700000e+000
      vertex  0.000000e+000  1.500000e+000  1.500000e+000
    endloop
  endfacet
  facet normal  2.809379e-017 -9.999999e-001 -3.621449e-015
    outer loop
      vertex  8.729991e+002  0.000000e+000  1.150000e+001
      vertex  7.089290e+002  0.000000e+000  1.022721e+001
      vertex  7.076563e+002  1.873501e-015  9.700000e+000
    endloop
  endfacet
  facet normal  0.000000e+000 -1.000000e+000  -0.000000e+000
    outer loop
      vertex  8.729991e+002  0.000000e+000  1.150000e+001
      vertex  7.094562e+002  0.000000e+000  1.150000e+001
      vertex  7.089290e+002  0.000000e+000  1.022721e+001
    endloop
  endfacet
  facet normal  2.809382e-017 -1.000000e+000 -3.621453e-015
    outer loop
      vertex  7.058563e+002  0.000000e+000  1.150000e+001
      vertex  5.417862e+002  0.000000e+000  1.022721e+001
      vertex  5.405134e+002  1.873501e-015  9.700000e+000
    endloop
  endfacet
  facet normal  0.000000e+000 -1.000000e+000  -0.000000e+000
    outer loop
      vertex  7.058563e+002  0.000000e+000  1.150000e+001
      vertex  5.423134e+002  0.000000e+000  1.150000e+001
      vertex  5.417862e+002  0.000000e+000  1.022721e+001
    endloop
  endfacet
  facet normal  2.809381e-017 -9.999999e-001 -3.621450e-015
    outer loop
      vertex  5.387134e+002  0.000000e+000  1.150000e+001
      vertex  3.746433e+002  0.000000e+000  1.022721e+001
      vertex  3.733705e+002  1.873501e-015  9.700000e+000
    endloop
  endfacet
  facet normal  0.000000e+000 -1.000000e+000  -0.000000e+000
    outer loop
      vertex  5.387134e+002  0.000000e+000  1.150000e+001
      vertex  3.751705e+002  0.000000e+000  1.150000e+001
      vertex  3.746433e+002  0.000000e+000  1.022721e+001
    endloop
  endfacet
  facet normal  2.809381e-017 -1.000000e+000 -3.621450e-015
    outer loop
      vertex  3.715705e+002  0.000000e+000  1.150000e+001
      vertex  2.075005e+002  0.000000e+000  1.022721e+001
      vertex  2.062277e+002  1.873501e-015  9.700000e+000
    endloop
  endfacet
  facet normal  0.000000e+000 -1.000000e+000  -0.000000e+000
    outer loop
      vertex  3.715705e+002  0.000000e+000  1.150000e+001
      vertex  2.080277e+002  0.000000e+000  1.150000e+001
      vertex  2.075005e+002  0.000000e+000  1.022721e+001
    endloop
  endfacet
  facet normal  2.809381e-017 -1.000000e+000 -3.621450e-015
    outer loop
      vertex  2.044277e+002  0.000000e+000  1.150000e+001
      vertex  4.035762e+001  0.000000e+000  1.022721e+001
      vertex  3.908482e+001  1.873501e-015  9.700000e+000
    endloop
  endfacet
  facet normal  0.000000e+000 -1.000000e+000  -0.000000e+000
    outer loop
      vertex  2.044277e+002  0.000000e+000  1.150000e+001
      vertex  4.088482e+001  0.000000e+000  1.150000e+001
      vertex  4.035762e+001  0.000000e+000  1.022721e+001
    endloop
  endfacet
  facet normal -2.809383e-017 -1.000000e+000 -3.621453e-015
    outer loop
      vertex  5.417862e+002  0.000000e+000  1.277279e+001
      vertex  7.058563e+002  0.000000e+000  1.150000e+001
      vertex  5.405134e+002 -1.873501e-015  1.330000e+001
    endloop
  endfacet
  facet normal  0.000000e+000 -1.000000e+000  0.000000e+000
    outer loop
      vertex  5.423134e+002  0.000000e+000  1.150000e+001
      vertex  7.058563e+002  0.000000e+000  1.150000e+001
      vertex  5.417862e+002  0.000000e+000  1.277279e+001
    endloop
  endfacet
  facet normal -2.809381e-017 -9.999999e-001 -3.621450e-015
    outer loop
      vertex  3.746433e+002  0.000000e+000  1.277279e+001
      vertex  5.387134e+002  0.000000e+000  1.150000e+001
      vertex  3.733705e+002 -1.873501e-015  1.330000e+001
    endloop
  endfacet
  facet normal  0.000000e+000 -1.000000e+000  0.000000e+000
    outer loop
      vertex  3.751705e+002  0.000000e+000  1.150000e+001
      vertex  5.387134e+002  0.000000e+000  1.150000e+001
      vertex  3.746433e+002  0.000000e+000  1.277279e+001
    endloop
  endfacet
  facet normal -2.809381e-017 -1.000000e+000 -3.621450e-015
    outer loop
      vertex  2.075005e+002  0.000000e+000  1.277279e+001
      vertex  3.715705e+002  0.000000e+000  1.150000e+001
      vertex  2.062277e+002 -1.873501e-015  1.330000e+001
    endloop
  endfacet
  facet normal  0.000000e+000 -1.000000e+000  0.000000e+000
    outer loop
      vertex  2.080277e+002  0.000000e+000  1.150000e+001
      vertex  3.715705e+002  0.000000e+000  1.150000e+001
      vertex  2.075005e+002  0.000000e+000  1.277279e+001
    endloop
  endfacet
  facet normal -2.809381e-017 -1.000000e+000 -3.621450e-015
    outer loop
      vertex  4.035762e+001  0.000000e+000  1.277279e+001
      vertex  2.044277e+002  0.000000e+000  1.150000e+001
      vertex  3.908482e+001 -1.873501e-015  1.330000e+001
    endloop
  endfacet
  facet normal  0.000000e+000 -1.000000e+000  0.000000e+000
    outer loop
      vertex  4.088482e+001  0.000000e+000  1.150000e+001
      vertex  2.044277e+002  0.000000e+000  1.150000e+001
      vertex  4.035762e+001  0.000000e+000  1.277279e+001
    endloop
  endfacet
  facet normal  0.000000e+000 -1.000000e+000  2.796270e-016
    outer loop
      vertex  1.245427e+003  0.000000e+000  2.000000e+001
      vertex  0.000000e+000  0.000000e+000  2.000000e+001
      vertex  1.209085e+003 -1.873501e-015  1.330000e+001
    endloop
  endfacet
  facet normal  4.890324e-016 -1.000000e+000 -2.372967e-015
    outer loop
      vertex  1.245427e+003  0.000000e+000  2.000000e+001
      vertex  1.209085e+003 -1.873501e-015  1.330000e+001
      vertex  1.210358e+003  0.000000e+000  1.277279e+001
    endloop
  endfacet
  facet normal  0.000000e+000 -1.000000e+000  0.000000e+000
    outer loop
      vertex  1.245427e+003  0.000000e+000  2.000000e+001
      vertex  1.210358e+003  0.000000e+000  1.277279e+001
      vertex  1.210885e+003  0.000000e+000  1.150000e+001
    endloop
  endfacet
  facet normal  0.000000e+000 -1.000000e+000  0.000000e+000
    outer loop
      vertex  1.245427e+003  0.000000e+000  2.000000e+001
      vertex  1.210885e+003  0.000000e+000  1.150000e+001
      vertex  1.233880e+003  0.000000e+000  0.000000e+000
    endloop
  endfacet
  facet normal  0.000000e+000 -1.000000e+000  0.000000e+000
    outer loop
      vertex  0.000000e+000  0.000000e+000  2.000000e+001
      vertex  3.728482e+001  0.000000e+000  1.150000e+001
      vertex  3.781203e+001  0.000000e+000  1.277279e+001
    endloop
  endfacet
  facet normal -4.647625e-016 -1.000000e+000 -2.431591e-015
    outer loop
      vertex  0.000000e+000  0.000000e+000  2.000000e+001
      vertex  3.781203e+001  0.000000e+000  1.277279e+001
      vertex  3.908482e+001 -1.873501e-015  1.330000e+001
    endloop
  endfacet
  facet normal  1.534999e-017 -1.000000e+000  3.691721e-016
    outer loop
      vertex  0.000000e+000  0.000000e+000  2.000000e+001
      vertex  3.908482e+001 -1.873501e-015  1.330000e+001
      vertex  2.044277e+002  0.000000e+000  1.150000e+001
    endloop
  endfacet
  facet normal  0.000000e+000 -1.000000e+000  0.000000e+000
    outer loop
      vertex  0.000000e+000  0.000000e+000  2.000000e+001
      vertex  2.044277e+002  0.000000e+000  1.150000e+001
      vertex  2.049549e+002  0.000000e+000  1.277279e+001
    endloop
  endfacet
  facet normal -1.154788e-016 -9.999999e-001 -3.274838e-015
    outer loop
      vertex  0.000000e+000  0.000000e+000  2.000000e+001
      vertex  2.049549e+002  0.000000e+000  1.277279e+001
      vertex  2.062277e+002 -1.873501e-015  1.330000e+001
    endloop
  endfacet
  facet normal  2.161965e-017 -9.999999e-001  9.450854e-016
    outer loop
      vertex  0.000000e+000  0.000000e+000  2.000000e+001
      vertex  2.062277e+002 -1.873501e-015  1.330000e+001
      vertex  3.715705e+002  0.000000e+000  1.150000e+001
    endloop
  endfacet
  facet normal  0.000000e+000 -1.000000e+000  0.000000e+000
    outer loop
      vertex  0.000000e+000  0.000000e+000  2.000000e+001
      vertex  3.715705e+002  0.000000e+000  1.150000e+001
      vertex  3.720977e+002  0.000000e+000  1.277279e+001
    endloop
  endfacet
  facet normal -6.593011e-017 -1.000000e+000 -3.394457e-015
    outer loop
      vertex  0.000000e+000  0.000000e+000  2.000000e+001
      vertex  3.720977e+002  0.000000e+000  1.277279e+001
      vertex  3.733705e+002 -1.873501e-015  1.330000e+001
    endloop
  endfacet
  facet normal  3.654732e-017 -9.999999e-001  2.316298e-015
    outer loop
      vertex  0.000000e+000  0.000000e+000  2.000000e+001
      vertex  3.733705e+002 -1.873501e-015  1.330000e+001
      vertex  5.387134e+002  0.000000e+000  1.150000e+001
    endloop
  endfacet
  facet normal  0.000000e+000 -1.000000e+000  0.000000e+000
    outer loop
      vertex  0.000000e+000  0.000000e+000  2.000000e+001
      vertex  5.387134e+002  0.000000e+000  1.150000e+001
      vertex  5.392406e+002  0.000000e+000  1.277279e+001
    endloop
  endfacet
  facet normal -4.613497e-017 -1.000000e+000 -3.442249e-015
    outer loop
      vertex  0.000000e+000  0.000000e+000  2.000000e+001
      vertex  5.392406e+002  0.000000e+000  1.277279e+001
      vertex  5.405134e+002 -1.873501e-015  1.330000e+001
    endloop
  endfacet
  facet normal  1.180721e-016 -1.000000e+000  9.804931e-015
    outer loop
      vertex  0.000000e+000  0.000000e+000  2.000000e+001
      vertex  5.405134e+002 -1.873501e-015  1.330000e+001
      vertex  7.058563e+002  0.000000e+000  1.150000e+001
    endloop
  endfacet
  facet normal  0.000000e+000 -9.999999e-001  0.000000e+000
    outer loop
      vertex  0.000000e+000  0.000000e+000  2.000000e+001
      vertex  7.058563e+002  0.000000e+000  1.150000e+001
      vertex  7.063835e+002  0.000000e+000  1.277279e+001
    endloop
  endfacet
  facet normal -3.548175e-017 -1.000000e+000 -3.467968e-015
    outer loop
      vertex  0.000000e+000  0.000000e+000  2.000000e+001
      vertex  7.063835e+002  0.000000e+000  1.277279e+001
      vertex  7.076563e+002 -1.873501e-015  1.330000e+001
    endloop
  endfacet
  facet normal  4.046199e-017 -1.000000e+000 -3.455940e-015
    outer loop
      vertex  0.000000e+000  0.000000e+000  0.000000e+000
      vertex  8.747991e+002  1.873501e-015  9.700000e+000
      vertex  8.735263e+002  0.000000e+000  1.022721e+001
    endloop
  endfacet
  facet normal  -0.000000e+000 -1.000000e+000  0.000000e+000
    outer loop
      vertex  0.000000e+000  0.000000e+000  0.000000e+000
      vertex  8.735263e+002  0.000000e+000  1.022721e+001
      vertex  8.729991e+002  0.000000e+000  1.150000e+001
    endloop
  endfacet
  facet normal -6.527997e-017 -1.000000e+000  4.955596e-015
    outer loop
      vertex  0.000000e+000  0.000000e+000  0.000000e+000
      vertex  8.729991e+002  0.000000e+000  1.150000e+001
      vertex  7.076563e+002  1.873501e-015  9.700000e+000
    endloop
  endfacet
  facet normal  4.971274e-017 -9.999999e-001 -3.433612e-015
    outer loop
      vertex  0.000000e+000  0.000000e+000  0.000000e+000
      vertex  7.076563e+002  1.873501e-015  9.700000e+000
      vertex  7.063835e+002  0.000000e+000  1.022721e+001
    endloop
  endfacet
  facet normal  -0.000000e+000 -1.000000e+000  0.000000e+000
    outer loop
      vertex  0.000000e+000  0.000000e+000  0.000000e+000
      vertex  7.063835e+002  0.000000e+000  1.022721e+001
      vertex  7.058563e+002  0.000000e+000  1.150000e+001
    endloop
  endfacet
  facet normal -3.414994e-017 -1.000000e+000  2.096083e-015
    outer loop
      vertex  0.000000e+000  0.000000e+000  0.000000e+000
      vertex  7.058563e+002  0.000000e+000  1.150000e+001
      vertex  5.405134e+002  1.873501e-015  9.700000e+000
    endloop
  endfacet
  facet normal  6.444706e-017 -9.999999e-001 -3.398041e-015
    outer loop
      vertex  0.000000e+000  0.000000e+000  0.000000e+000
      vertex  5.405134e+002  1.873501e-015  9.700000e+000
      vertex  5.392406e+002  0.000000e+000  1.022721e+001
    endloop
  endfacet
  facet normal  -0.000000e+000 -1.000000e+000  0.000000e+000
    outer loop
      vertex  0.000000e+000  0.000000e+000  0.000000e+000
      vertex  5.392406e+002  0.000000e+000  1.022721e+001
      vertex  5.387134e+002  0.000000e+000  1.150000e+001
    endloop
  endfacet
  facet normal -2.312323e-017 -1.000000e+000  1.083199e-015
    outer loop
      vertex  0.000000e+000  0.000000e+000  0.000000e+000
      vertex  5.387134e+002  0.000000e+000  1.150000e+001
      vertex  3.733705e+002  1.873501e-015  9.700000e+000
    endloop
  endfacet
  facet normal  9.159459e-017 -1.000000e+000 -3.332497e-015
    outer loop
      vertex  0.000000e+000  0.000000e+000  0.000000e+000
      vertex  3.733705e+002  1.873501e-015  9.700000e+000
      vertex  3.720977e+002  0.000000e+000  1.022721e+001
    endloop
  endfacet
  facet normal  -0.000000e+000 -9.999999e-001  0.000000e+000
    outer loop
      vertex  0.000000e+000  0.000000e+000  0.000000e+000
      vertex  3.720977e+002  0.000000e+000  1.022721e+001
      vertex  3.715705e+002  0.000000e+000  1.150000e+001
    endloop
  endfacet
  facet normal -1.747930e-017 -1.000000e+000  5.647647e-016
    outer loop
      vertex  0.000000e+000  0.000000e+000  0.000000e+000
      vertex  3.715705e+002  0.000000e+000  1.150000e+001
      vertex  2.062277e+002  1.873501e-015  9.700000e+000
    endloop
  endfacet
  facet normal  1.582600e-016 -1.000000e+000 -3.171556e-015
    outer loop
      vertex  0.000000e+000  0.000000e+000  0.000000e+000
      vertex  2.062277e+002  1.873501e-015  9.700000e+000
      vertex  2.049549e+002  0.000000e+000  1.022721e+001
    endloop
  endfacet
  facet normal  -0.000000e+000 -1.000000e+000  0.000000e+000
    outer loop
      vertex  0.000000e+000  0.000000e+000  0.000000e+000
      vertex  2.049549e+002  0.000000e+000  1.022721e+001
      vertex  2.044277e+002  0.000000e+000  1.150000e+001
    endloop
  endfacet
  facet normal -1.404998e-017 -1.000000e+000  2.497570e-016
    outer loop
      vertex  0.000000e+000  0.000000e+000  0.000000e+000
      vertex  2.044277e+002  0.000000e+000  1.150000e+001
      vertex  3.908482e+001  1.873501e-015  9.700000e+000
    endloop
  endfacet
  facet normal  5.814738e-016 -1.000000e+000 -2.149825e-015
    outer loop
      vertex  0.000000e+000  0.000000e+000  0.000000e+000
      vertex  3.908482e+001  1.873501e-015  9.700000e+000
      vertex  3.781203e+001  0.000000e+000  1.022721e+001
    endloop
  endfacet
  facet normal  -0.000000e+000 -1.000000e+000  0.000000e+000
    outer loop
      vertex  0.000000e+000  0.000000e+000  0.000000e+000
      vertex  3.781203e+001  0.000000e+000  1.022721e+001
      vertex  3.728482e+001  0.000000e+000  1.150000e+001
    endloop
  endfacet
  facet normal  -0.000000e+000 -1.000000e+000  0.000000e+000
    outer loop
      vertex  0.000000e+000  0.000000e+000  0.000000e+000
      vertex  3.728482e+001  0.000000e+000  1.150000e+001
      vertex  0.000000e+000  0.000000e+000  2.000000e+001
    endloop
  endfacet
  facet normal  0.000000e+000 -1.000000e+000  -0.000000e+000
    outer loop
      vertex  1.233880e+003  0.000000e+000  0.000000e+000
      vertex  1.210885e+003  0.000000e+000  1.150000e+001
      vertex  1.210358e+003  0.000000e+000  1.022721e+001
    endloop
  endfacet
  facet normal -7.538084e-016 -1.000000e+000 -1.733724e-015
    outer loop
      vertex  1.233880e+003  0.000000e+000  0.000000e+000
      vertex  1.210358e+003  0.000000e+000  1.022721e+001
      vertex  1.209085e+003  1.873501e-015  9.700000e+000
    endloop
  endfacet
  facet normal  0.000000e+000 -1.000000e+000  1.931445e-016
    outer loop
      vertex  1.233880e+003  0.000000e+000  0.000000e+000
      vertex  1.209085e+003  1.873501e-015  9.700000e+000
      vertex  0.000000e+000  0.000000e+000  0.000000e+000
    endloop
  endfacet
  facet normal  0.000000e+000 -1.000000e+000  0.000000e+000
    outer loop
      vertex  8.765991e+002  0.000000e+000  1.150000e+001
      vertex  8.760719e+002  0.000000e+000  1.022721e+001
      vertex  1.040142e+003  0.000000e+000  1.150000e+001
    endloop
  endfacet
  facet normal  2.809380e-017 -1.000000e+000 -3.621450e-015
    outer loop
      vertex  1.040142e+003  0.000000e+000  1.150000e+001
      vertex  8.760719e+002  0.000000e+000  1.022721e+001
      vertex  8.747991e+002  1.873501e-015  9.700000e+000
    endloop
  endfacet
  facet normal -1.128014e-017 -1.000000e+000 -4.672441e-018
    outer loop
      vertex  1.040142e+003  0.000000e+000  1.150000e+001
      vertex  8.747991e+002  1.873501e-015  9.700000e+000
      vertex  1.040669e+003  0.000000e+000  1.022721e+001
    endloop
  endfacet
  facet normal -1.669430e-017 -1.000000e+000  1.698728e-015
    outer loop
      vertex  1.040669e+003  0.000000e+000  1.022721e+001
      vertex  8.747991e+002  1.873501e-015  9.700000e+000
      vertex  0.000000e+000  0.000000e+000  0.000000e+000
    endloop
  endfacet
  facet normal  3.411396e-017 -1.000000e+000 -3.471265e-015
    outer loop
      vertex  1.040669e+003  0.000000e+000  1.022721e+001
      vertex  0.000000e+000  0.000000e+000  0.000000e+000
      vertex  1.041942e+003  1.873501e-015  9.700000e+000
    endloop
  endfacet
  facet normal  0.000000e+000 -1.000000e+000  0.000000e+000
    outer loop
      vertex  1.043742e+003  0.000000e+000  1.150000e+001
      vertex  1.043215e+003  0.000000e+000  1.022721e+001
      vertex  1.207285e+003  0.000000e+000  1.150000e+001
    endloop
  endfacet
  facet normal  2.809377e-017 -1.000000e+000 -3.621446e-015
    outer loop
      vertex  1.207285e+003  0.000000e+000  1.150000e+001
      vertex  1.043215e+003  0.000000e+000  1.022721e+001
      vertex  1.041942e+003  1.873501e-015  9.700000e+000
    endloop
  endfacet
  facet normal -1.128015e-017 -1.000000e+000 -4.672571e-018
    outer loop
      vertex  1.207285e+003  0.000000e+000  1.150000e+001
      vertex  1.041942e+003  1.873501e-015  9.700000e+000
      vertex  1.207812e+003  0.000000e+000  1.022721e+001
    endloop
  endfacet
  facet normal -1.808263e-017 -1.000000e+000  2.135521e-015
    outer loop
      vertex  1.207812e+003  0.000000e+000  1.022721e+001
      vertex  1.041942e+003  1.873501e-015  9.700000e+000
      vertex  0.000000e+000  0.000000e+000  0.000000e+000
    endloop
  endfacet
  facet normal  2.948769e-017 -1.000000e+000 -3.482434e-015
    outer loop
      vertex  1.207812e+003  0.000000e+000  1.022721e+001
      vertex  0.000000e+000  0.000000e+000  0.000000e+000
      vertex  1.209085e+003  1.873501e-015  9.700000e+000
    endloop
  endfacet
  facet normal  0.000000e+000 -1.000000e+000  0.000000e+000
    outer loop
      vertex  7.094562e+002  0.000000e+000  1.150000e+001
      vertex  8.729991e+002  0.000000e+000  1.150000e+001
      vertex  7.089290e+002  0.000000e+000  1.277279e+001
    endloop
  endfacet
  facet normal  0.000000e+000 -1.000000e+000  0.000000e+000
    outer loop
      vertex  7.089290e+002  0.000000e+000  1.277279e+001
      vertex  8.729991e+002  0.000000e+000  1.150000e+001
      vertex  8.735263e+002  0.000000e+000  1.277279e+001
    endloop
  endfacet
  facet normal  -0.000000e+000 -9.999999e-001 -3.553626e-015
    outer loop
      vertex  7.089290e+002  0.000000e+000  1.277279e+001
      vertex  8.735263e+002  0.000000e+000  1.277279e+001
      vertex  7.076563e+002 -1.873501e-015  1.330000e+001
    endloop
  endfacet
  facet normal  0.000000e+000 -1.000000e+000 -3.553626e-015
    outer loop
      vertex  7.076563e+002 -1.873501e-015  1.330000e+001
      vertex  8.735263e+002  0.000000e+000  1.277279e+001
      vertex  8.747991e+002 -1.873501e-015  1.330000e+001
    endloop
  endfacet
  facet normal  0.000000e+000 -1.000000e+000  2.796271e-016
    outer loop
      vertex  7.076563e+002 -1.873501e-015  1.330000e+001
      vertex  8.747991e+002 -1.873501e-015  1.330000e+001
      vertex  0.000000e+000  0.000000e+000  2.000000e+001
    endloop
  endfacet
  facet normal  0.000000e+000 -1.000000e+000  0.000000e+000
    outer loop
      vertex  8.765991e+002  0.000000e+000  1.150000e+001
      vertex  1.040142e+003  0.000000e+000  1.150000e+001
      vertex  8.760719e+002  0.000000e+000  1.277279e+001
    endloop
  endfacet
  facet normal  0.000000e+000 -1.000000e+000  0.000000e+000
    outer loop
      vertex  8.760719e+002  0.000000e+000  1.277279e+001
      vertex  1.040142e+003  0.000000e+000  1.150000e+001
      vertex  1.040669e+003  0.000000e+000  1.277279e+001
    endloop
  endfacet
  facet normal  -0.000000e+000 -9.999999e-001 -3.553626e-015
    outer loop
      vertex  8.760719e+002  0.000000e+000  1.277279e+001
      vertex  1.040669e+003  0.000000e+000  1.277279e+001
      vertex  8.747991e+002 -1.873501e-015  1.330000e+001
    endloop
  endfacet
  facet normal  0.000000e+000 -1.000000e+000 -3.553626e-015
    outer loop
      vertex  8.747991e+002 -1.873501e-015  1.330000e+001
      vertex  1.040669e+003  0.000000e+000  1.277279e+001
      vertex  1.041942e+003 -1.873501e-015  1.330000e+001
    endloop
  endfacet
  facet normal  0.000000e+000 -1.000000e+000  2.796271e-016
    outer loop
      vertex  8.747991e+002 -1.873501e-015  1.330000e+001
      vertex  1.041942e+003 -1.873501e-015  1.330000e+001
      vertex  0.000000e+000  0.000000e+000  2.000000e+001
    endloop
  endfacet
  facet normal  0.000000e+000 -1.000000e+000  0.000000e+000
    outer loop
      vertex  1.043742e+003  0.000000e+000  1.150000e+001
      vertex  1.207285e+003  0.000000e+000  1.150000e+001
      vertex  1.043215e+003  0.000000e+000  1.277279e+001
    endloop
  endfacet
  facet normal  0.000000e+000 -1.000000e+000  0.000000e+000
    outer loop
      vertex  1.043215e+003  0.000000e+000  1.277279e+001
      vertex  1.207285e+003  0.000000e+000  1.150000e+001
      vertex  1.207812e+003  0.000000e+000  1.277279e+001
    endloop
  endfacet
  facet normal  -0.000000e+000 -9.999999e-001 -3.553626e-015
    outer loop
      vertex  1.043215e+003  0.000000e+000  1.277279e+001
      vertex  1.207812e+003  0.000000e+000  1.277279e+001
      vertex  1.041942e+003 -1.873501e-015  1.330000e+001
    endloop
  endfacet
  facet normal  0.000000e+000 -1.000000e+000 -3.553626e-015
    outer loop
      vertex  1.041942e+003 -1.873501e-015  1.330000e+001
      vertex  1.207812e+003  0.000000e+000  1.277279e+001
      vertex  1.209085e+003 -1.873501e-015  1.330000e+001
    endloop
  endfacet
  facet normal  0.000000e+000 -1.000000e+000  2.796271e-016
    outer loop
      vertex  1.041942e+003 -1.873501e-015  1.330000e+001
      vertex  1.209085e+003 -1.873501e-015  1.330000e+001
      vertex  0.000000e+000  0.000000e+000  2.000000e+001
    endloop
  endfacet
  facet normal  8.660401e-001  0.000000e+000 -4.999746e-001
    outer loop
      vertex  1.233880e+003  2.000000e+001  0.000000e+000
      vertex  1.234746e+003  2.000000e+001  1.500000e+000
      vertex  1.233880e+003  0.000000e+000  0.000000e+000
    endloop
  endfacet
  facet normal  8.660400e-001  0.000000e+000 -4.999746e-001
    outer loop
      vertex  1.233880e+003  0.000000e+000  0.000000e+000
      vertex  1.234746e+003  2.000000e+001  1.500000e+000
      vertex  1.234746e+003  1.500000e+000  1.500000e+000
    endloop
  endfacet
  facet normal  8.660256e-001  3.347674e-005 -4.999997e-001
    outer loop
      vertex  1.233880e+003  0.000000e+000  0.000000e+000
      vertex  1.234746e+003  1.500000e+000  1.500000e+000
      vertex  1.245427e+003  0.000000e+000  2.000000e+001
    endloop
  endfacet
  facet normal  8.660244e-001  0.000000e+000 -5.000018e-001
    outer loop
      vertex  1.245427e+003  0.000000e+000  2.000000e+001
      vertex  1.234746e+003  1.500000e+000  1.500000e+000
      vertex  1.245427e+003  1.500000e+000  2.000000e+001
    endloop
  endfacet
  facet normal  -0.000000e+000  0.000000e+000 -1.000000e+000
    outer loop
      vertex  0.000000e+000  2.000000e+001  0.000000e+000
      vertex  1.233880e+003  2.000000e+001  0.000000e+000
      vertex  0.000000e+000  0.000000e+000  0.000000e+000
    endloop
  endfacet
  facet normal  0.000000e+000  0.000000e+000 -1.000000e+000
    outer loop
      vertex  0.000000e+000  0.000000e+000  0.000000e+000
      vertex  1.233880e+003  2.000000e+001  0.000000e+000
      vertex  1.233880e+003  0.000000e+000  0.000000e+000
    endloop
  endfacet
  facet normal  0.000000e+000  1.000000e+000  0.000000e+000
    outer loop
      vertex  0.000000e+000  2.000000e+001  1.500000e+000
      vertex  1.234746e+003  2.000000e+001  1.500000e+000
      vertex  0.000000e+000  2.000000e+001  0.000000e+000
    endloop
  endfacet
  facet normal  0.000000e+000  1.000000e+000  0.000000e+000
    outer loop
      vertex  0.000000e+000  2.000000e+001  0.000000e+000
      vertex  1.234746e+003  2.000000e+001  1.500000e+000
      vertex  1.233880e+003  2.000000e+001  0.000000e+000
    endloop
  endfacet
  facet normal  0.000000e+000  0.000000e+000  1.000000e+000
    outer loop
      vertex  0.000000e+000  1.500000e+000  1.500000e+000
      vertex  1.234746e+003  1.500000e+000  1.500000e+000
      vertex  0.000000e+000  2.000000e+001  1.500000e+000
    endloop
  endfacet
  facet normal  -0.000000e+000  0.000000e+000  1.000000e+000
    outer loop
      vertex  0.000000e+000  2.000000e+001  1.500000e+000
      vertex  1.234746e+003  1.500000e+000  1.500000e+000
      vertex  1.234746e+003  2.000000e+001  1.500000e+000
    endloop
  endfacet
  facet normal  0.000000e+000  0.000000e+000  1.000000e+000
    outer loop
      vertex  0.000000e+000  0.000000e+000  2.000000e+001
      vertex  1.245427e+003  0.000000e+000  2.000000e+001
      vertex  0.000000e+000  1.500000e+000  2.000000e+001
    endloop
  endfacet
  facet normal  -0.000000e+000  0.000000e+000  1.000000e+000
    outer loop
      vertex  0.000000e+000  1.500000e+000  2.000000e+001
      vertex  1.245427e+003  0.000000e+000  2.000000e+001
      vertex  1.245427e+003  1.500000e+000  2.000000e+001
    endloop
  endfacet
  facet normal -1.000000e+000  0.000000e+000  0.000000e+000
    outer loop
      vertex  0.000000e+000  1.500000e+000  2.000000e+001
      vertex  0.000000e+000  1.500000e+000  1.500000e+000
      vertex  0.000000e+000  0.000000e+000  2.000000e+001
    endloop
  endfacet
  facet normal -1.000000e+000  0.000000e+000  0.000000e+000
    outer loop
      vertex  0.000000e+000  0.000000e+000  2.000000e+001
      vertex  0.000000e+000  1.500000e+000  1.500000e+000
      vertex  0.000000e+000  0.000000e+000  0.000000e+000
    endloop
  endfacet
  facet normal -1.000000e+000  -0.000000e+000  0.000000e+000
    outer loop
      vertex  0.000000e+000  1.500000e+000  1.500000e+000
      vertex  0.000000e+000  2.000000e+001  1.500000e+000
      vertex  0.000000e+000  0.000000e+000  0.000000e+000
    endloop
  endfacet
  facet normal -1.000000e+000  0.000000e+000  0.000000e+000
    outer loop
      vertex  0.000000e+000  0.000000e+000  0.000000e+000
      vertex  0.000000e+000  2.000000e+001  1.500000e+000
      vertex  0.000000e+000  2.000000e+001  0.000000e+000
    endloop
  endfacet
endsolid CATIA STL
