solid CATIA STL
  facet normal -9.238759e-001  0.000000e+000 -3.826921e-001
    outer loop
      vertex  1.195891e+003  1.500000e+000  1.000000e+001
      vertex  1.195364e+003  0.000000e+000  1.127279e+001
      vertex  1.195364e+003  1.500000e+000  1.127279e+001
    endloop
  endfacet
  facet normal -3.827061e-001  -0.000000e+000 -9.238701e-001
    outer loop
      vertex  1.195364e+003  1.500000e+000  1.127279e+001
      vertex  1.195364e+003  0.000000e+000  1.127279e+001
      vertex  1.194091e+003  4.246603e-016  1.180000e+001
    endloop
  endfacet
  facet normal -3.827061e-001  0.000000e+000 -9.238701e-001
    outer loop
      vertex  1.195364e+003  1.500000e+000  1.127279e+001
      vertex  1.194091e+003  4.246603e-016  1.180000e+001
      vertex  1.194091e+003  1.500000e+000  1.180000e+001
    endloop
  endfacet
  facet normal -9.238759e-001  -0.000000e+000 -3.826921e-001
    outer loop
      vertex  1.195364e+003  0.000000e+000  1.127279e+001
      vertex  1.195891e+003  1.500000e+000  1.000000e+001
      vertex  1.195891e+003  0.000000e+000  1.000000e+001
    endloop
  endfacet
  facet normal -9.238759e-001  0.000000e+000  3.826921e-001
    outer loop
      vertex  1.195891e+003  0.000000e+000  1.000000e+001
      vertex  1.195891e+003  1.500000e+000  1.000000e+001
      vertex  1.195364e+003  1.500000e+000  8.727208e+000
    endloop
  endfacet
  facet normal -9.238759e-001  0.000000e+000  3.826921e-001
    outer loop
      vertex  1.195891e+003  0.000000e+000  1.000000e+001
      vertex  1.195364e+003  1.500000e+000  8.727208e+000
      vertex  1.195364e+003  0.000000e+000  8.727208e+000
    endloop
  endfacet
  facet normal -3.827061e-001  0.000000e+000  9.238701e-001
    outer loop
      vertex  1.195364e+003  0.000000e+000  8.727208e+000
      vertex  1.195364e+003  1.500000e+000  8.727208e+000
      vertex  1.194091e+003  1.500000e+000  8.200000e+000
    endloop
  endfacet
  facet normal -3.827061e-001  0.000000e+000  9.238701e-001
    outer loop
      vertex  1.195364e+003  0.000000e+000  8.727208e+000
      vertex  1.194091e+003  1.500000e+000  8.200000e+000
      vertex  1.194091e+003 -4.246603e-016  8.200000e+000
    endloop
  endfacet
  facet normal  9.238759e-001  -0.000000e+000  3.826921e-001
    outer loop
      vertex  1.192291e+003  1.500000e+000  1.000000e+001
      vertex  1.192819e+003  0.000000e+000  8.727208e+000
      vertex  1.192819e+003  1.500000e+000  8.727208e+000
    endloop
  endfacet
  facet normal  3.826748e-001  0.000000e+000  9.238831e-001
    outer loop
      vertex  1.192819e+003  1.500000e+000  8.727208e+000
      vertex  1.192819e+003  0.000000e+000  8.727208e+000
      vertex  1.194091e+003 -4.246603e-016  8.200000e+000
    endloop
  endfacet
  facet normal  3.826748e-001  -0.000000e+000  9.238831e-001
    outer loop
      vertex  1.192819e+003  1.500000e+000  8.727208e+000
      vertex  1.194091e+003 -4.246603e-016  8.200000e+000
      vertex  1.194091e+003  1.500000e+000  8.200000e+000
    endloop
  endfacet
  facet normal  9.238759e-001  0.000000e+000  3.826921e-001
    outer loop
      vertex  1.192819e+003  0.000000e+000  8.727208e+000
      vertex  1.192291e+003  1.500000e+000  1.000000e+001
      vertex  1.192291e+003  0.000000e+000  1.000000e+001
    endloop
  endfacet
  facet normal  9.238759e-001  0.000000e+000 -3.826921e-001
    outer loop
      vertex  1.192291e+003  0.000000e+000  1.000000e+001
      vertex  1.192291e+003  1.500000e+000  1.000000e+001
      vertex  1.192819e+003  1.500000e+000  1.127279e+001
    endloop
  endfacet
  facet normal  9.238759e-001  0.000000e+000 -3.826921e-001
    outer loop
      vertex  1.192291e+003  0.000000e+000  1.000000e+001
      vertex  1.192819e+003  1.500000e+000  1.127279e+001
      vertex  1.192819e+003  0.000000e+000  1.127279e+001
    endloop
  endfacet
  facet normal  3.826748e-001  0.000000e+000 -9.238831e-001
    outer loop
      vertex  1.192819e+003  0.000000e+000  1.127279e+001
      vertex  1.192819e+003  1.500000e+000  1.127279e+001
      vertex  1.194091e+003  1.500000e+000  1.180000e+001
    endloop
  endfacet
  facet normal  3.826748e-001  0.000000e+000 -9.238831e-001
    outer loop
      vertex  1.192819e+003  0.000000e+000  1.127279e+001
      vertex  1.194091e+003  1.500000e+000  1.180000e+001
      vertex  1.194091e+003  4.246603e-016  1.180000e+001
    endloop
  endfacet
  facet normal -9.238759e-001  0.000000e+000 -3.826921e-001
    outer loop
      vertex  1.055871e+003  1.500000e+000  1.000000e+001
      vertex  1.055344e+003  0.000000e+000  1.127279e+001
      vertex  1.055344e+003  1.500000e+000  1.127279e+001
    endloop
  endfacet
  facet normal -3.827061e-001  -0.000000e+000 -9.238701e-001
    outer loop
      vertex  1.055344e+003  1.500000e+000  1.127279e+001
      vertex  1.055344e+003  0.000000e+000  1.127279e+001
      vertex  1.054071e+003  4.246603e-016  1.180000e+001
    endloop
  endfacet
  facet normal -3.827061e-001  0.000000e+000 -9.238701e-001
    outer loop
      vertex  1.055344e+003  1.500000e+000  1.127279e+001
      vertex  1.054071e+003  4.246603e-016  1.180000e+001
      vertex  1.054071e+003  1.500000e+000  1.180000e+001
    endloop
  endfacet
  facet normal -9.238759e-001  -0.000000e+000 -3.826921e-001
    outer loop
      vertex  1.055344e+003  0.000000e+000  1.127279e+001
      vertex  1.055871e+003  1.500000e+000  1.000000e+001
      vertex  1.055871e+003  0.000000e+000  1.000000e+001
    endloop
  endfacet
  facet normal -9.238759e-001  0.000000e+000  3.826921e-001
    outer loop
      vertex  1.055871e+003  0.000000e+000  1.000000e+001
      vertex  1.055871e+003  1.500000e+000  1.000000e+001
      vertex  1.055344e+003  1.500000e+000  8.727208e+000
    endloop
  endfacet
  facet normal -9.238759e-001  0.000000e+000  3.826921e-001
    outer loop
      vertex  1.055871e+003  0.000000e+000  1.000000e+001
      vertex  1.055344e+003  1.500000e+000  8.727208e+000
      vertex  1.055344e+003  0.000000e+000  8.727208e+000
    endloop
  endfacet
  facet normal -3.827061e-001  0.000000e+000  9.238701e-001
    outer loop
      vertex  1.055344e+003  0.000000e+000  8.727208e+000
      vertex  1.055344e+003  1.500000e+000  8.727208e+000
      vertex  1.054071e+003  1.500000e+000  8.200000e+000
    endloop
  endfacet
  facet normal -3.827061e-001  0.000000e+000  9.238701e-001
    outer loop
      vertex  1.055344e+003  0.000000e+000  8.727208e+000
      vertex  1.054071e+003  1.500000e+000  8.200000e+000
      vertex  1.054071e+003 -4.246603e-016  8.200000e+000
    endloop
  endfacet
  facet normal  9.238759e-001  -0.000000e+000  3.826921e-001
    outer loop
      vertex  1.052271e+003  1.500000e+000  1.000000e+001
      vertex  1.052798e+003  0.000000e+000  8.727208e+000
      vertex  1.052798e+003  1.500000e+000  8.727208e+000
    endloop
  endfacet
  facet normal  3.826748e-001  0.000000e+000  9.238831e-001
    outer loop
      vertex  1.052798e+003  1.500000e+000  8.727208e+000
      vertex  1.052798e+003  0.000000e+000  8.727208e+000
      vertex  1.054071e+003 -4.246603e-016  8.200000e+000
    endloop
  endfacet
  facet normal  3.826748e-001  -0.000000e+000  9.238831e-001
    outer loop
      vertex  1.052798e+003  1.500000e+000  8.727208e+000
      vertex  1.054071e+003 -4.246603e-016  8.200000e+000
      vertex  1.054071e+003  1.500000e+000  8.200000e+000
    endloop
  endfacet
  facet normal  9.238759e-001  0.000000e+000  3.826921e-001
    outer loop
      vertex  1.052798e+003  0.000000e+000  8.727208e+000
      vertex  1.052271e+003  1.500000e+000  1.000000e+001
      vertex  1.052271e+003  0.000000e+000  1.000000e+001
    endloop
  endfacet
  facet normal  9.238759e-001  0.000000e+000 -3.826921e-001
    outer loop
      vertex  1.052271e+003  0.000000e+000  1.000000e+001
      vertex  1.052271e+003  1.500000e+000  1.000000e+001
      vertex  1.052798e+003  1.500000e+000  1.127279e+001
    endloop
  endfacet
  facet normal  9.238759e-001  0.000000e+000 -3.826921e-001
    outer loop
      vertex  1.052271e+003  0.000000e+000  1.000000e+001
      vertex  1.052798e+003  1.500000e+000  1.127279e+001
      vertex  1.052798e+003  0.000000e+000  1.127279e+001
    endloop
  endfacet
  facet normal  3.826748e-001  0.000000e+000 -9.238831e-001
    outer loop
      vertex  1.052798e+003  0.000000e+000  1.127279e+001
      vertex  1.052798e+003  1.500000e+000  1.127279e+001
      vertex  1.054071e+003  1.500000e+000  1.180000e+001
    endloop
  endfacet
  facet normal  3.826748e-001  0.000000e+000 -9.238831e-001
    outer loop
      vertex  1.052798e+003  0.000000e+000  1.127279e+001
      vertex  1.054071e+003  1.500000e+000  1.180000e+001
      vertex  1.054071e+003  4.246603e-016  1.180000e+001
    endloop
  endfacet
  facet normal -9.238759e-001  0.000000e+000 -3.826921e-001
    outer loop
      vertex  9.158509e+002  1.500000e+000  1.000000e+001
      vertex  9.153237e+002  0.000000e+000  1.127279e+001
      vertex  9.153237e+002  1.500000e+000  1.127279e+001
    endloop
  endfacet
  facet normal -3.826905e-001  -0.000000e+000 -9.238766e-001
    outer loop
      vertex  9.153237e+002  1.500000e+000  1.127279e+001
      vertex  9.153237e+002  0.000000e+000  1.127279e+001
      vertex  9.140509e+002  4.246603e-016  1.180000e+001
    endloop
  endfacet
  facet normal -3.826905e-001  0.000000e+000 -9.238766e-001
    outer loop
      vertex  9.153237e+002  1.500000e+000  1.127279e+001
      vertex  9.140509e+002  4.246603e-016  1.180000e+001
      vertex  9.140509e+002  1.500000e+000  1.180000e+001
    endloop
  endfacet
  facet normal -9.238759e-001  -0.000000e+000 -3.826921e-001
    outer loop
      vertex  9.153237e+002  0.000000e+000  1.127279e+001
      vertex  9.158509e+002  1.500000e+000  1.000000e+001
      vertex  9.158509e+002  0.000000e+000  1.000000e+001
    endloop
  endfacet
  facet normal -9.238759e-001  0.000000e+000  3.826921e-001
    outer loop
      vertex  9.158509e+002  0.000000e+000  1.000000e+001
      vertex  9.158509e+002  1.500000e+000  1.000000e+001
      vertex  9.153237e+002  1.500000e+000  8.727208e+000
    endloop
  endfacet
  facet normal -9.238759e-001  0.000000e+000  3.826921e-001
    outer loop
      vertex  9.158509e+002  0.000000e+000  1.000000e+001
      vertex  9.153237e+002  1.500000e+000  8.727208e+000
      vertex  9.153237e+002  0.000000e+000  8.727208e+000
    endloop
  endfacet
  facet normal -3.826905e-001  0.000000e+000  9.238766e-001
    outer loop
      vertex  9.153237e+002  0.000000e+000  8.727208e+000
      vertex  9.153237e+002  1.500000e+000  8.727208e+000
      vertex  9.140509e+002  1.500000e+000  8.200000e+000
    endloop
  endfacet
  facet normal -3.826905e-001  0.000000e+000  9.238766e-001
    outer loop
      vertex  9.153237e+002  0.000000e+000  8.727208e+000
      vertex  9.140509e+002  1.500000e+000  8.200000e+000
      vertex  9.140509e+002 -4.246603e-016  8.200000e+000
    endloop
  endfacet
  facet normal  9.238759e-001  -0.000000e+000  3.826921e-001
    outer loop
      vertex  9.122509e+002  1.500000e+000  1.000000e+001
      vertex  9.127781e+002  0.000000e+000  8.727208e+000
      vertex  9.127781e+002  1.500000e+000  8.727208e+000
    endloop
  endfacet
  facet normal  3.826748e-001  0.000000e+000  9.238831e-001
    outer loop
      vertex  9.127781e+002  1.500000e+000  8.727208e+000
      vertex  9.127781e+002  0.000000e+000  8.727208e+000
      vertex  9.140509e+002 -4.246603e-016  8.200000e+000
    endloop
  endfacet
  facet normal  3.826748e-001  -0.000000e+000  9.238831e-001
    outer loop
      vertex  9.127781e+002  1.500000e+000  8.727208e+000
      vertex  9.140509e+002 -4.246603e-016  8.200000e+000
      vertex  9.140509e+002  1.500000e+000  8.200000e+000
    endloop
  endfacet
  facet normal  9.238759e-001  0.000000e+000  3.826921e-001
    outer loop
      vertex  9.127781e+002  0.000000e+000  8.727208e+000
      vertex  9.122509e+002  1.500000e+000  1.000000e+001
      vertex  9.122509e+002  0.000000e+000  1.000000e+001
    endloop
  endfacet
  facet normal  9.238759e-001  0.000000e+000 -3.826921e-001
    outer loop
      vertex  9.122509e+002  0.000000e+000  1.000000e+001
      vertex  9.122509e+002  1.500000e+000  1.000000e+001
      vertex  9.127781e+002  1.500000e+000  1.127279e+001
    endloop
  endfacet
  facet normal  9.238759e-001  0.000000e+000 -3.826921e-001
    outer loop
      vertex  9.122509e+002  0.000000e+000  1.000000e+001
      vertex  9.127781e+002  1.500000e+000  1.127279e+001
      vertex  9.127781e+002  0.000000e+000  1.127279e+001
    endloop
  endfacet
  facet normal  3.826748e-001  0.000000e+000 -9.238831e-001
    outer loop
      vertex  9.127781e+002  0.000000e+000  1.127279e+001
      vertex  9.127781e+002  1.500000e+000  1.127279e+001
      vertex  9.140509e+002  1.500000e+000  1.180000e+001
    endloop
  endfacet
  facet normal  3.826748e-001  0.000000e+000 -9.238831e-001
    outer loop
      vertex  9.127781e+002  0.000000e+000  1.127279e+001
      vertex  9.140509e+002  1.500000e+000  1.180000e+001
      vertex  9.140509e+002  4.246603e-016  1.180000e+001
    endloop
  endfacet
  facet normal -9.238759e-001  0.000000e+000 -3.826921e-001
    outer loop
      vertex  7.758306e+002  1.500000e+000  1.000000e+001
      vertex  7.753034e+002  0.000000e+000  1.127279e+001
      vertex  7.753034e+002  1.500000e+000  1.127279e+001
    endloop
  endfacet
  facet normal -3.826905e-001  -0.000000e+000 -9.238766e-001
    outer loop
      vertex  7.753034e+002  1.500000e+000  1.127279e+001
      vertex  7.753034e+002  0.000000e+000  1.127279e+001
      vertex  7.740306e+002  4.246603e-016  1.180000e+001
    endloop
  endfacet
  facet normal -3.826905e-001  0.000000e+000 -9.238766e-001
    outer loop
      vertex  7.753034e+002  1.500000e+000  1.127279e+001
      vertex  7.740306e+002  4.246603e-016  1.180000e+001
      vertex  7.740306e+002  1.500000e+000  1.180000e+001
    endloop
  endfacet
  facet normal -9.238759e-001  -0.000000e+000 -3.826921e-001
    outer loop
      vertex  7.753034e+002  0.000000e+000  1.127279e+001
      vertex  7.758306e+002  1.500000e+000  1.000000e+001
      vertex  7.758306e+002  0.000000e+000  1.000000e+001
    endloop
  endfacet
  facet normal -9.238759e-001  0.000000e+000  3.826921e-001
    outer loop
      vertex  7.758306e+002  0.000000e+000  1.000000e+001
      vertex  7.758306e+002  1.500000e+000  1.000000e+001
      vertex  7.753034e+002  1.500000e+000  8.727208e+000
    endloop
  endfacet
  facet normal -9.238759e-001  0.000000e+000  3.826921e-001
    outer loop
      vertex  7.758306e+002  0.000000e+000  1.000000e+001
      vertex  7.753034e+002  1.500000e+000  8.727208e+000
      vertex  7.753034e+002  0.000000e+000  8.727208e+000
    endloop
  endfacet
  facet normal -3.826905e-001  0.000000e+000  9.238766e-001
    outer loop
      vertex  7.753034e+002  0.000000e+000  8.727208e+000
      vertex  7.753034e+002  1.500000e+000  8.727208e+000
      vertex  7.740306e+002  1.500000e+000  8.200000e+000
    endloop
  endfacet
  facet normal -3.826905e-001  0.000000e+000  9.238766e-001
    outer loop
      vertex  7.753034e+002  0.000000e+000  8.727208e+000
      vertex  7.740306e+002  1.500000e+000  8.200000e+000
      vertex  7.740306e+002 -4.246603e-016  8.200000e+000
    endloop
  endfacet
  facet normal  9.238916e-001  -0.000000e+000  3.826543e-001
    outer loop
      vertex  7.722307e+002  1.500000e+000  1.000000e+001
      vertex  7.727578e+002  0.000000e+000  8.727208e+000
      vertex  7.727578e+002  1.500000e+000  8.727208e+000
    endloop
  endfacet
  facet normal  3.826748e-001  0.000000e+000  9.238831e-001
    outer loop
      vertex  7.727578e+002  1.500000e+000  8.727208e+000
      vertex  7.727578e+002  0.000000e+000  8.727208e+000
      vertex  7.740306e+002 -4.246603e-016  8.200000e+000
    endloop
  endfacet
  facet normal  3.826748e-001  -0.000000e+000  9.238831e-001
    outer loop
      vertex  7.727578e+002  1.500000e+000  8.727208e+000
      vertex  7.740306e+002 -4.246603e-016  8.200000e+000
      vertex  7.740306e+002  1.500000e+000  8.200000e+000
    endloop
  endfacet
  facet normal  9.238916e-001  0.000000e+000  3.826543e-001
    outer loop
      vertex  7.727578e+002  0.000000e+000  8.727208e+000
      vertex  7.722307e+002  1.500000e+000  1.000000e+001
      vertex  7.722307e+002  0.000000e+000  1.000000e+001
    endloop
  endfacet
  facet normal  9.238916e-001  0.000000e+000 -3.826543e-001
    outer loop
      vertex  7.722307e+002  0.000000e+000  1.000000e+001
      vertex  7.722307e+002  1.500000e+000  1.000000e+001
      vertex  7.727578e+002  1.500000e+000  1.127279e+001
    endloop
  endfacet
  facet normal  9.238916e-001  0.000000e+000 -3.826543e-001
    outer loop
      vertex  7.722307e+002  0.000000e+000  1.000000e+001
      vertex  7.727578e+002  1.500000e+000  1.127279e+001
      vertex  7.727578e+002  0.000000e+000  1.127279e+001
    endloop
  endfacet
  facet normal  3.826748e-001  0.000000e+000 -9.238831e-001
    outer loop
      vertex  7.727578e+002  0.000000e+000  1.127279e+001
      vertex  7.727578e+002  1.500000e+000  1.127279e+001
      vertex  7.740306e+002  1.500000e+000  1.180000e+001
    endloop
  endfacet
  facet normal  3.826748e-001  0.000000e+000 -9.238831e-001
    outer loop
      vertex  7.727578e+002  0.000000e+000  1.127279e+001
      vertex  7.740306e+002  1.500000e+000  1.180000e+001
      vertex  7.740306e+002  4.246603e-016  1.180000e+001
    endloop
  endfacet
  facet normal -9.238916e-001  0.000000e+000 -3.826543e-001
    outer loop
      vertex  6.358104e+002  1.500000e+000  1.000000e+001
      vertex  6.352832e+002  0.000000e+000  1.127279e+001
      vertex  6.352832e+002  1.500000e+000  1.127279e+001
    endloop
  endfacet
  facet normal -3.826748e-001  -0.000000e+000 -9.238831e-001
    outer loop
      vertex  6.352832e+002  1.500000e+000  1.127279e+001
      vertex  6.352832e+002  0.000000e+000  1.127279e+001
      vertex  6.340104e+002  4.246603e-016  1.180000e+001
    endloop
  endfacet
  facet normal -3.826748e-001  0.000000e+000 -9.238831e-001
    outer loop
      vertex  6.352832e+002  1.500000e+000  1.127279e+001
      vertex  6.340104e+002  4.246603e-016  1.180000e+001
      vertex  6.340104e+002  1.500000e+000  1.180000e+001
    endloop
  endfacet
  facet normal -9.238916e-001  -0.000000e+000 -3.826543e-001
    outer loop
      vertex  6.352832e+002  0.000000e+000  1.127279e+001
      vertex  6.358104e+002  1.500000e+000  1.000000e+001
      vertex  6.358104e+002  0.000000e+000  1.000000e+001
    endloop
  endfacet
  facet normal -9.238916e-001  0.000000e+000  3.826543e-001
    outer loop
      vertex  6.358104e+002  0.000000e+000  1.000000e+001
      vertex  6.358104e+002  1.500000e+000  1.000000e+001
      vertex  6.352832e+002  1.500000e+000  8.727208e+000
    endloop
  endfacet
  facet normal -9.238916e-001  0.000000e+000  3.826543e-001
    outer loop
      vertex  6.358104e+002  0.000000e+000  1.000000e+001
      vertex  6.352832e+002  1.500000e+000  8.727208e+000
      vertex  6.352832e+002  0.000000e+000  8.727208e+000
    endloop
  endfacet
  facet normal -3.826748e-001  0.000000e+000  9.238831e-001
    outer loop
      vertex  6.352832e+002  0.000000e+000  8.727208e+000
      vertex  6.352832e+002  1.500000e+000  8.727208e+000
      vertex  6.340104e+002  1.500000e+000  8.200000e+000
    endloop
  endfacet
  facet normal -3.826748e-001  0.000000e+000  9.238831e-001
    outer loop
      vertex  6.352832e+002  0.000000e+000  8.727208e+000
      vertex  6.340104e+002  1.500000e+000  8.200000e+000
      vertex  6.340104e+002 -4.246603e-016  8.200000e+000
    endloop
  endfacet
  facet normal  9.238759e-001  -0.000000e+000  3.826921e-001
    outer loop
      vertex  6.322104e+002  1.500000e+000  1.000000e+001
      vertex  6.327376e+002  0.000000e+000  8.727208e+000
      vertex  6.327376e+002  1.500000e+000  8.727208e+000
    endloop
  endfacet
  facet normal  3.826905e-001  0.000000e+000  9.238766e-001
    outer loop
      vertex  6.327376e+002  1.500000e+000  8.727208e+000
      vertex  6.327376e+002  0.000000e+000  8.727208e+000
      vertex  6.340104e+002 -4.246603e-016  8.200000e+000
    endloop
  endfacet
  facet normal  3.826905e-001  -0.000000e+000  9.238766e-001
    outer loop
      vertex  6.327376e+002  1.500000e+000  8.727208e+000
      vertex  6.340104e+002 -4.246603e-016  8.200000e+000
      vertex  6.340104e+002  1.500000e+000  8.200000e+000
    endloop
  endfacet
  facet normal  9.238759e-001  0.000000e+000  3.826921e-001
    outer loop
      vertex  6.327376e+002  0.000000e+000  8.727208e+000
      vertex  6.322104e+002  1.500000e+000  1.000000e+001
      vertex  6.322104e+002  0.000000e+000  1.000000e+001
    endloop
  endfacet
  facet normal  9.238759e-001  0.000000e+000 -3.826921e-001
    outer loop
      vertex  6.322104e+002  0.000000e+000  1.000000e+001
      vertex  6.322104e+002  1.500000e+000  1.000000e+001
      vertex  6.327376e+002  1.500000e+000  1.127279e+001
    endloop
  endfacet
  facet normal  9.238759e-001  0.000000e+000 -3.826921e-001
    outer loop
      vertex  6.322104e+002  0.000000e+000  1.000000e+001
      vertex  6.327376e+002  1.500000e+000  1.127279e+001
      vertex  6.327376e+002  0.000000e+000  1.127279e+001
    endloop
  endfacet
  facet normal  3.826905e-001  0.000000e+000 -9.238766e-001
    outer loop
      vertex  6.327376e+002  0.000000e+000  1.127279e+001
      vertex  6.327376e+002  1.500000e+000  1.127279e+001
      vertex  6.340104e+002  1.500000e+000  1.180000e+001
    endloop
  endfacet
  facet normal  3.826905e-001  0.000000e+000 -9.238766e-001
    outer loop
      vertex  6.327376e+002  0.000000e+000  1.127279e+001
      vertex  6.340104e+002  1.500000e+000  1.180000e+001
      vertex  6.340104e+002  4.246603e-016  1.180000e+001
    endloop
  endfacet
  facet normal -9.238759e-001  0.000000e+000 -3.826921e-001
    outer loop
      vertex  4.957901e+002  1.500000e+000  1.000000e+001
      vertex  4.952629e+002  0.000000e+000  1.127279e+001
      vertex  4.952629e+002  1.500000e+000  1.127279e+001
    endloop
  endfacet
  facet normal -3.826905e-001  -0.000000e+000 -9.238766e-001
    outer loop
      vertex  4.952629e+002  1.500000e+000  1.127279e+001
      vertex  4.952629e+002  0.000000e+000  1.127279e+001
      vertex  4.939901e+002  4.246603e-016  1.180000e+001
    endloop
  endfacet
  facet normal -3.826905e-001  0.000000e+000 -9.238766e-001
    outer loop
      vertex  4.952629e+002  1.500000e+000  1.127279e+001
      vertex  4.939901e+002  4.246603e-016  1.180000e+001
      vertex  4.939901e+002  1.500000e+000  1.180000e+001
    endloop
  endfacet
  facet normal -9.238759e-001  -0.000000e+000 -3.826921e-001
    outer loop
      vertex  4.952629e+002  0.000000e+000  1.127279e+001
      vertex  4.957901e+002  1.500000e+000  1.000000e+001
      vertex  4.957901e+002  0.000000e+000  1.000000e+001
    endloop
  endfacet
  facet normal -9.238759e-001  0.000000e+000  3.826921e-001
    outer loop
      vertex  4.957901e+002  0.000000e+000  1.000000e+001
      vertex  4.957901e+002  1.500000e+000  1.000000e+001
      vertex  4.952629e+002  1.500000e+000  8.727208e+000
    endloop
  endfacet
  facet normal -9.238759e-001  0.000000e+000  3.826921e-001
    outer loop
      vertex  4.957901e+002  0.000000e+000  1.000000e+001
      vertex  4.952629e+002  1.500000e+000  8.727208e+000
      vertex  4.952629e+002  0.000000e+000  8.727208e+000
    endloop
  endfacet
  facet normal -3.826905e-001  0.000000e+000  9.238766e-001
    outer loop
      vertex  4.952629e+002  0.000000e+000  8.727208e+000
      vertex  4.952629e+002  1.500000e+000  8.727208e+000
      vertex  4.939901e+002  1.500000e+000  8.200000e+000
    endloop
  endfacet
  facet normal -3.826905e-001  0.000000e+000  9.238766e-001
    outer loop
      vertex  4.952629e+002  0.000000e+000  8.727208e+000
      vertex  4.939901e+002  1.500000e+000  8.200000e+000
      vertex  4.939901e+002 -4.246603e-016  8.200000e+000
    endloop
  endfacet
  facet normal  9.238759e-001  -0.000000e+000  3.826921e-001
    outer loop
      vertex  4.921901e+002  1.500000e+000  1.000000e+001
      vertex  4.927173e+002  0.000000e+000  8.727208e+000
      vertex  4.927173e+002  1.500000e+000  8.727208e+000
    endloop
  endfacet
  facet normal  3.826827e-001  0.000000e+000  9.238799e-001
    outer loop
      vertex  4.927173e+002  1.500000e+000  8.727208e+000
      vertex  4.927173e+002  0.000000e+000  8.727208e+000
      vertex  4.939901e+002 -4.246603e-016  8.200000e+000
    endloop
  endfacet
  facet normal  3.826827e-001  -0.000000e+000  9.238799e-001
    outer loop
      vertex  4.927173e+002  1.500000e+000  8.727208e+000
      vertex  4.939901e+002 -4.246603e-016  8.200000e+000
      vertex  4.939901e+002  1.500000e+000  8.200000e+000
    endloop
  endfacet
  facet normal  9.238759e-001  0.000000e+000  3.826921e-001
    outer loop
      vertex  4.927173e+002  0.000000e+000  8.727208e+000
      vertex  4.921901e+002  1.500000e+000  1.000000e+001
      vertex  4.921901e+002  0.000000e+000  1.000000e+001
    endloop
  endfacet
  facet normal  9.238759e-001  0.000000e+000 -3.826921e-001
    outer loop
      vertex  4.921901e+002  0.000000e+000  1.000000e+001
      vertex  4.921901e+002  1.500000e+000  1.000000e+001
      vertex  4.927173e+002  1.500000e+000  1.127279e+001
    endloop
  endfacet
  facet normal  9.238759e-001  0.000000e+000 -3.826921e-001
    outer loop
      vertex  4.921901e+002  0.000000e+000  1.000000e+001
      vertex  4.927173e+002  1.500000e+000  1.127279e+001
      vertex  4.927173e+002  0.000000e+000  1.127279e+001
    endloop
  endfacet
  facet normal  3.826827e-001  0.000000e+000 -9.238799e-001
    outer loop
      vertex  4.927173e+002  0.000000e+000  1.127279e+001
      vertex  4.927173e+002  1.500000e+000  1.127279e+001
      vertex  4.939901e+002  1.500000e+000  1.180000e+001
    endloop
  endfacet
  facet normal  3.826827e-001  0.000000e+000 -9.238799e-001
    outer loop
      vertex  4.927173e+002  0.000000e+000  1.127279e+001
      vertex  4.939901e+002  1.500000e+000  1.180000e+001
      vertex  4.939901e+002  4.246603e-016  1.180000e+001
    endloop
  endfacet
  facet normal -9.238837e-001  0.000000e+000 -3.826732e-001
    outer loop
      vertex  3.557699e+002  1.500000e+000  1.000000e+001
      vertex  3.552427e+002  0.000000e+000  1.127279e+001
      vertex  3.552427e+002  1.500000e+000  1.127279e+001
    endloop
  endfacet
  facet normal -3.826827e-001  -0.000000e+000 -9.238799e-001
    outer loop
      vertex  3.552427e+002  1.500000e+000  1.127279e+001
      vertex  3.552427e+002  0.000000e+000  1.127279e+001
      vertex  3.539699e+002  4.246603e-016  1.180000e+001
    endloop
  endfacet
  facet normal -3.826827e-001  0.000000e+000 -9.238799e-001
    outer loop
      vertex  3.552427e+002  1.500000e+000  1.127279e+001
      vertex  3.539699e+002  4.246603e-016  1.180000e+001
      vertex  3.539699e+002  1.500000e+000  1.180000e+001
    endloop
  endfacet
  facet normal -9.238837e-001  -0.000000e+000 -3.826732e-001
    outer loop
      vertex  3.552427e+002  0.000000e+000  1.127279e+001
      vertex  3.557699e+002  1.500000e+000  1.000000e+001
      vertex  3.557699e+002  0.000000e+000  1.000000e+001
    endloop
  endfacet
  facet normal -9.238837e-001  0.000000e+000  3.826732e-001
    outer loop
      vertex  3.557699e+002  0.000000e+000  1.000000e+001
      vertex  3.557699e+002  1.500000e+000  1.000000e+001
      vertex  3.552427e+002  1.500000e+000  8.727208e+000
    endloop
  endfacet
  facet normal -9.238837e-001  0.000000e+000  3.826732e-001
    outer loop
      vertex  3.557699e+002  0.000000e+000  1.000000e+001
      vertex  3.552427e+002  1.500000e+000  8.727208e+000
      vertex  3.552427e+002  0.000000e+000  8.727208e+000
    endloop
  endfacet
  facet normal -3.826827e-001  0.000000e+000  9.238799e-001
    outer loop
      vertex  3.552427e+002  0.000000e+000  8.727208e+000
      vertex  3.552427e+002  1.500000e+000  8.727208e+000
      vertex  3.539699e+002  1.500000e+000  8.200000e+000
    endloop
  endfacet
  facet normal -3.826827e-001  0.000000e+000  9.238799e-001
    outer loop
      vertex  3.552427e+002  0.000000e+000  8.727208e+000
      vertex  3.539699e+002  1.500000e+000  8.200000e+000
      vertex  3.539699e+002 -4.246603e-016  8.200000e+000
    endloop
  endfacet
  facet normal  9.238837e-001  -0.000000e+000  3.826732e-001
    outer loop
      vertex  3.521699e+002  1.500000e+000  1.000000e+001
      vertex  3.526971e+002  0.000000e+000  8.727208e+000
      vertex  3.526971e+002  1.500000e+000  8.727208e+000
    endloop
  endfacet
  facet normal  3.826827e-001  0.000000e+000  9.238799e-001
    outer loop
      vertex  3.526971e+002  1.500000e+000  8.727208e+000
      vertex  3.526971e+002  0.000000e+000  8.727208e+000
      vertex  3.539699e+002 -4.246603e-016  8.200000e+000
    endloop
  endfacet
  facet normal  3.826827e-001  -0.000000e+000  9.238799e-001
    outer loop
      vertex  3.526971e+002  1.500000e+000  8.727208e+000
      vertex  3.539699e+002 -4.246603e-016  8.200000e+000
      vertex  3.539699e+002  1.500000e+000  8.200000e+000
    endloop
  endfacet
  facet normal  9.238837e-001  0.000000e+000  3.826732e-001
    outer loop
      vertex  3.526971e+002  0.000000e+000  8.727208e+000
      vertex  3.521699e+002  1.500000e+000  1.000000e+001
      vertex  3.521699e+002  0.000000e+000  1.000000e+001
    endloop
  endfacet
  facet normal  9.238837e-001  0.000000e+000 -3.826732e-001
    outer loop
      vertex  3.521699e+002  0.000000e+000  1.000000e+001
      vertex  3.521699e+002  1.500000e+000  1.000000e+001
      vertex  3.526971e+002  1.500000e+000  1.127279e+001
    endloop
  endfacet
  facet normal  9.238837e-001  0.000000e+000 -3.826732e-001
    outer loop
      vertex  3.521699e+002  0.000000e+000  1.000000e+001
      vertex  3.526971e+002  1.500000e+000  1.127279e+001
      vertex  3.526971e+002  0.000000e+000  1.127279e+001
    endloop
  endfacet
  facet normal  3.826827e-001  0.000000e+000 -9.238799e-001
    outer loop
      vertex  3.526971e+002  0.000000e+000  1.127279e+001
      vertex  3.526971e+002  1.500000e+000  1.127279e+001
      vertex  3.539699e+002  1.500000e+000  1.180000e+001
    endloop
  endfacet
  facet normal  3.826827e-001  0.000000e+000 -9.238799e-001
    outer loop
      vertex  3.526971e+002  0.000000e+000  1.127279e+001
      vertex  3.539699e+002  1.500000e+000  1.180000e+001
      vertex  3.539699e+002  4.246603e-016  1.180000e+001
    endloop
  endfacet
  facet normal -9.238799e-001  0.000000e+000 -3.826827e-001
    outer loop
      vertex  2.157496e+002  1.500000e+000  1.000000e+001
      vertex  2.152224e+002  0.000000e+000  1.127279e+001
      vertex  2.152224e+002  1.500000e+000  1.127279e+001
    endloop
  endfacet
  facet normal -3.826827e-001  -0.000000e+000 -9.238799e-001
    outer loop
      vertex  2.152224e+002  1.500000e+000  1.127279e+001
      vertex  2.152224e+002  0.000000e+000  1.127279e+001
      vertex  2.139496e+002  4.246603e-016  1.180000e+001
    endloop
  endfacet
  facet normal -3.826827e-001  0.000000e+000 -9.238799e-001
    outer loop
      vertex  2.152224e+002  1.500000e+000  1.127279e+001
      vertex  2.139496e+002  4.246603e-016  1.180000e+001
      vertex  2.139496e+002  1.500000e+000  1.180000e+001
    endloop
  endfacet
  facet normal -9.238799e-001  -0.000000e+000 -3.826827e-001
    outer loop
      vertex  2.152224e+002  0.000000e+000  1.127279e+001
      vertex  2.157496e+002  1.500000e+000  1.000000e+001
      vertex  2.157496e+002  0.000000e+000  1.000000e+001
    endloop
  endfacet
  facet normal -9.238799e-001  0.000000e+000  3.826827e-001
    outer loop
      vertex  2.157496e+002  0.000000e+000  1.000000e+001
      vertex  2.157496e+002  1.500000e+000  1.000000e+001
      vertex  2.152224e+002  1.500000e+000  8.727208e+000
    endloop
  endfacet
  facet normal -9.238799e-001  0.000000e+000  3.826827e-001
    outer loop
      vertex  2.157496e+002  0.000000e+000  1.000000e+001
      vertex  2.152224e+002  1.500000e+000  8.727208e+000
      vertex  2.152224e+002  0.000000e+000  8.727208e+000
    endloop
  endfacet
  facet normal -3.826827e-001  0.000000e+000  9.238799e-001
    outer loop
      vertex  2.152224e+002  0.000000e+000  8.727208e+000
      vertex  2.152224e+002  1.500000e+000  8.727208e+000
      vertex  2.139496e+002  1.500000e+000  8.200000e+000
    endloop
  endfacet
  facet normal -3.826827e-001  0.000000e+000  9.238799e-001
    outer loop
      vertex  2.152224e+002  0.000000e+000  8.727208e+000
      vertex  2.139496e+002  1.500000e+000  8.200000e+000
      vertex  2.139496e+002 -4.246603e-016  8.200000e+000
    endloop
  endfacet
  facet normal  9.238799e-001  -0.000000e+000  3.826827e-001
    outer loop
      vertex  2.121496e+002  1.500000e+000  1.000000e+001
      vertex  2.126768e+002  0.000000e+000  8.727208e+000
      vertex  2.126768e+002  1.500000e+000  8.727208e+000
    endloop
  endfacet
  facet normal  3.826827e-001  0.000000e+000  9.238799e-001
    outer loop
      vertex  2.126768e+002  1.500000e+000  8.727208e+000
      vertex  2.126768e+002  0.000000e+000  8.727208e+000
      vertex  2.139496e+002 -4.246603e-016  8.200000e+000
    endloop
  endfacet
  facet normal  3.826827e-001  -0.000000e+000  9.238799e-001
    outer loop
      vertex  2.126768e+002  1.500000e+000  8.727208e+000
      vertex  2.139496e+002 -4.246603e-016  8.200000e+000
      vertex  2.139496e+002  1.500000e+000  8.200000e+000
    endloop
  endfacet
  facet normal  9.238799e-001  0.000000e+000  3.826827e-001
    outer loop
      vertex  2.126768e+002  0.000000e+000  8.727208e+000
      vertex  2.121496e+002  1.500000e+000  1.000000e+001
      vertex  2.121496e+002  0.000000e+000  1.000000e+001
    endloop
  endfacet
  facet normal  9.238799e-001  0.000000e+000 -3.826827e-001
    outer loop
      vertex  2.121496e+002  0.000000e+000  1.000000e+001
      vertex  2.121496e+002  1.500000e+000  1.000000e+001
      vertex  2.126768e+002  1.500000e+000  1.127279e+001
    endloop
  endfacet
  facet normal  9.238799e-001  0.000000e+000 -3.826827e-001
    outer loop
      vertex  2.121496e+002  0.000000e+000  1.000000e+001
      vertex  2.126768e+002  1.500000e+000  1.127279e+001
      vertex  2.126768e+002  0.000000e+000  1.127279e+001
    endloop
  endfacet
  facet normal  3.826827e-001  0.000000e+000 -9.238799e-001
    outer loop
      vertex  2.126768e+002  0.000000e+000  1.127279e+001
      vertex  2.126768e+002  1.500000e+000  1.127279e+001
      vertex  2.139496e+002  1.500000e+000  1.180000e+001
    endloop
  endfacet
  facet normal  3.826827e-001  0.000000e+000 -9.238799e-001
    outer loop
      vertex  2.126768e+002  0.000000e+000  1.127279e+001
      vertex  2.139496e+002  1.500000e+000  1.180000e+001
      vertex  2.139496e+002  4.246603e-016  1.180000e+001
    endloop
  endfacet
  facet normal -9.238799e-001  0.000000e+000 -3.826827e-001
    outer loop
      vertex  7.572938e+001  1.500000e+000  1.000000e+001
      vertex  7.520217e+001  0.000000e+000  1.127279e+001
      vertex  7.520217e+001  1.500000e+000  1.127279e+001
    endloop
  endfacet
  facet normal -3.826846e-001  -0.000000e+000 -9.238791e-001
    outer loop
      vertex  7.520217e+001  1.500000e+000  1.127279e+001
      vertex  7.520217e+001  0.000000e+000  1.127279e+001
      vertex  7.392938e+001  4.246603e-016  1.180000e+001
    endloop
  endfacet
  facet normal -3.826846e-001  0.000000e+000 -9.238791e-001
    outer loop
      vertex  7.520217e+001  1.500000e+000  1.127279e+001
      vertex  7.392938e+001  4.246603e-016  1.180000e+001
      vertex  7.392938e+001  1.500000e+000  1.180000e+001
    endloop
  endfacet
  facet normal -9.238799e-001  -0.000000e+000 -3.826827e-001
    outer loop
      vertex  7.520217e+001  0.000000e+000  1.127279e+001
      vertex  7.572938e+001  1.500000e+000  1.000000e+001
      vertex  7.572938e+001  0.000000e+000  1.000000e+001
    endloop
  endfacet
  facet normal -9.238799e-001  0.000000e+000  3.826827e-001
    outer loop
      vertex  7.572938e+001  0.000000e+000  1.000000e+001
      vertex  7.572938e+001  1.500000e+000  1.000000e+001
      vertex  7.520217e+001  1.500000e+000  8.727208e+000
    endloop
  endfacet
  facet normal -9.238799e-001  0.000000e+000  3.826827e-001
    outer loop
      vertex  7.572938e+001  0.000000e+000  1.000000e+001
      vertex  7.520217e+001  1.500000e+000  8.727208e+000
      vertex  7.520217e+001  0.000000e+000  8.727208e+000
    endloop
  endfacet
  facet normal -3.826846e-001  0.000000e+000  9.238791e-001
    outer loop
      vertex  7.520217e+001  0.000000e+000  8.727208e+000
      vertex  7.520217e+001  1.500000e+000  8.727208e+000
      vertex  7.392938e+001  1.500000e+000  8.200000e+000
    endloop
  endfacet
  facet normal -3.826846e-001  0.000000e+000  9.238791e-001
    outer loop
      vertex  7.520217e+001  0.000000e+000  8.727208e+000
      vertex  7.392938e+001  1.500000e+000  8.200000e+000
      vertex  7.392938e+001 -4.246603e-016  8.200000e+000
    endloop
  endfacet
  facet normal  9.238799e-001  -0.000000e+000  3.826827e-001
    outer loop
      vertex  7.212938e+001  1.500000e+000  1.000000e+001
      vertex  7.265659e+001  0.000000e+000  8.727208e+000
      vertex  7.265659e+001  1.500000e+000  8.727208e+000
    endloop
  endfacet
  facet normal  3.826827e-001  0.000000e+000  9.238799e-001
    outer loop
      vertex  7.265659e+001  1.500000e+000  8.727208e+000
      vertex  7.265659e+001  0.000000e+000  8.727208e+000
      vertex  7.392938e+001 -4.246603e-016  8.200000e+000
    endloop
  endfacet
  facet normal  3.826827e-001  -0.000000e+000  9.238799e-001
    outer loop
      vertex  7.265659e+001  1.500000e+000  8.727208e+000
      vertex  7.392938e+001 -4.246603e-016  8.200000e+000
      vertex  7.392938e+001  1.500000e+000  8.200000e+000
    endloop
  endfacet
  facet normal  9.238799e-001  0.000000e+000  3.826827e-001
    outer loop
      vertex  7.265659e+001  0.000000e+000  8.727208e+000
      vertex  7.212938e+001  1.500000e+000  1.000000e+001
      vertex  7.212938e+001  0.000000e+000  1.000000e+001
    endloop
  endfacet
  facet normal  9.238799e-001  0.000000e+000 -3.826827e-001
    outer loop
      vertex  7.212938e+001  0.000000e+000  1.000000e+001
      vertex  7.212938e+001  1.500000e+000  1.000000e+001
      vertex  7.265659e+001  1.500000e+000  1.127279e+001
    endloop
  endfacet
  facet normal  9.238799e-001  0.000000e+000 -3.826827e-001
    outer loop
      vertex  7.212938e+001  0.000000e+000  1.000000e+001
      vertex  7.265659e+001  1.500000e+000  1.127279e+001
      vertex  7.265659e+001  0.000000e+000  1.127279e+001
    endloop
  endfacet
  facet normal  3.826827e-001  0.000000e+000 -9.238799e-001
    outer loop
      vertex  7.265659e+001  0.000000e+000  1.127279e+001
      vertex  7.265659e+001  1.500000e+000  1.127279e+001
      vertex  7.392938e+001  1.500000e+000  1.180000e+001
    endloop
  endfacet
  facet normal  3.826827e-001  0.000000e+000 -9.238799e-001
    outer loop
      vertex  7.265659e+001  0.000000e+000  1.127279e+001
      vertex  7.392938e+001  1.500000e+000  1.180000e+001
      vertex  7.392938e+001  4.246603e-016  1.180000e+001
    endloop
  endfacet
  facet normal  -0.000000e+000  1.000000e+000  -0.000000e+000
    outer loop
      vertex  6.322104e+002  1.500000e+000  1.000000e+001
      vertex  4.952629e+002  1.500000e+000  1.127279e+001
      vertex  4.939901e+002  1.500000e+000  1.180000e+001
    endloop
  endfacet
  facet normal  0.000000e+000  1.000000e+000  -0.000000e+000
    outer loop
      vertex  6.322104e+002  1.500000e+000  1.000000e+001
      vertex  4.957901e+002  1.500000e+000  1.000000e+001
      vertex  4.952629e+002  1.500000e+000  1.127279e+001
    endloop
  endfacet
  facet normal  -0.000000e+000  1.000000e+000  -0.000000e+000
    outer loop
      vertex  4.921901e+002  1.500000e+000  1.000000e+001
      vertex  3.552427e+002  1.500000e+000  1.127279e+001
      vertex  3.539699e+002  1.500000e+000  1.180000e+001
    endloop
  endfacet
  facet normal  0.000000e+000  1.000000e+000  -0.000000e+000
    outer loop
      vertex  4.921901e+002  1.500000e+000  1.000000e+001
      vertex  3.557699e+002  1.500000e+000  1.000000e+001
      vertex  3.552427e+002  1.500000e+000  1.127279e+001
    endloop
  endfacet
  facet normal  -0.000000e+000  1.000000e+000  -0.000000e+000
    outer loop
      vertex  3.521699e+002  1.500000e+000  1.000000e+001
      vertex  2.152224e+002  1.500000e+000  1.127279e+001
      vertex  2.139496e+002  1.500000e+000  1.180000e+001
    endloop
  endfacet
  facet normal  0.000000e+000  1.000000e+000  -0.000000e+000
    outer loop
      vertex  3.521699e+002  1.500000e+000  1.000000e+001
      vertex  2.157496e+002  1.500000e+000  1.000000e+001
      vertex  2.152224e+002  1.500000e+000  1.127279e+001
    endloop
  endfacet
  facet normal  -0.000000e+000  1.000000e+000  -0.000000e+000
    outer loop
      vertex  2.121496e+002  1.500000e+000  1.000000e+001
      vertex  7.520217e+001  1.500000e+000  1.127279e+001
      vertex  7.392938e+001  1.500000e+000  1.180000e+001
    endloop
  endfacet
  facet normal  0.000000e+000  1.000000e+000  -0.000000e+000
    outer loop
      vertex  2.121496e+002  1.500000e+000  1.000000e+001
      vertex  7.572938e+001  1.500000e+000  1.000000e+001
      vertex  7.520217e+001  1.500000e+000  1.127279e+001
    endloop
  endfacet
  facet normal  0.000000e+000  1.000000e+000  0.000000e+000
    outer loop
      vertex  4.952629e+002  1.500000e+000  8.727208e+000
      vertex  6.322104e+002  1.500000e+000  1.000000e+001
      vertex  4.939901e+002  1.500000e+000  8.200000e+000
    endloop
  endfacet
  facet normal  0.000000e+000  1.000000e+000  0.000000e+000
    outer loop
      vertex  4.957901e+002  1.500000e+000  1.000000e+001
      vertex  6.322104e+002  1.500000e+000  1.000000e+001
      vertex  4.952629e+002  1.500000e+000  8.727208e+000
    endloop
  endfacet
  facet normal  0.000000e+000  1.000000e+000  0.000000e+000
    outer loop
      vertex  3.552427e+002  1.500000e+000  8.727208e+000
      vertex  4.921901e+002  1.500000e+000  1.000000e+001
      vertex  3.539699e+002  1.500000e+000  8.200000e+000
    endloop
  endfacet
  facet normal  0.000000e+000  1.000000e+000  0.000000e+000
    outer loop
      vertex  3.557699e+002  1.500000e+000  1.000000e+001
      vertex  4.921901e+002  1.500000e+000  1.000000e+001
      vertex  3.552427e+002  1.500000e+000  8.727208e+000
    endloop
  endfacet
  facet normal  0.000000e+000  1.000000e+000  0.000000e+000
    outer loop
      vertex  2.152224e+002  1.500000e+000  8.727208e+000
      vertex  3.521699e+002  1.500000e+000  1.000000e+001
      vertex  2.139496e+002  1.500000e+000  8.200000e+000
    endloop
  endfacet
  facet normal  0.000000e+000  1.000000e+000  0.000000e+000
    outer loop
      vertex  2.157496e+002  1.500000e+000  1.000000e+001
      vertex  3.521699e+002  1.500000e+000  1.000000e+001
      vertex  2.152224e+002  1.500000e+000  8.727208e+000
    endloop
  endfacet
  facet normal  0.000000e+000  1.000000e+000  0.000000e+000
    outer loop
      vertex  7.520217e+001  1.500000e+000  8.727208e+000
      vertex  2.121496e+002  1.500000e+000  1.000000e+001
      vertex  7.392938e+001  1.500000e+000  8.200000e+000
    endloop
  endfacet
  facet normal  0.000000e+000  1.000000e+000  0.000000e+000
    outer loop
      vertex  7.572938e+001  1.500000e+000  1.000000e+001
      vertex  2.121496e+002  1.500000e+000  1.000000e+001
      vertex  7.520217e+001  1.500000e+000  8.727208e+000
    endloop
  endfacet
  facet normal  0.000000e+000  1.000000e+000  0.000000e+000
    outer loop
      vertex  0.000000e+000  1.500000e+000  1.500000e+000
      vertex  7.212938e+001  1.500000e+000  1.000000e+001
      vertex  7.265659e+001  1.500000e+000  8.727208e+000
    endloop
  endfacet
  facet normal  0.000000e+000  9.999999e-001  0.000000e+000
    outer loop
      vertex  0.000000e+000  1.500000e+000  1.500000e+000
      vertex  7.265659e+001  1.500000e+000  8.727208e+000
      vertex  7.392938e+001  1.500000e+000  8.200000e+000
    endloop
  endfacet
  facet normal  -0.000000e+000  1.000000e+000  0.000000e+000
    outer loop
      vertex  0.000000e+000  1.500000e+000  1.500000e+000
      vertex  7.392938e+001  1.500000e+000  8.200000e+000
      vertex  2.121496e+002  1.500000e+000  1.000000e+001
    endloop
  endfacet
  facet normal  0.000000e+000  1.000000e+000  0.000000e+000
    outer loop
      vertex  0.000000e+000  1.500000e+000  1.500000e+000
      vertex  2.121496e+002  1.500000e+000  1.000000e+001
      vertex  2.126768e+002  1.500000e+000  8.727208e+000
    endloop
  endfacet
  facet normal  0.000000e+000  1.000000e+000  0.000000e+000
    outer loop
      vertex  0.000000e+000  1.500000e+000  1.500000e+000
      vertex  2.126768e+002  1.500000e+000  8.727208e+000
      vertex  2.139496e+002  1.500000e+000  8.200000e+000
    endloop
  endfacet
  facet normal  -0.000000e+000  1.000000e+000  0.000000e+000
    outer loop
      vertex  0.000000e+000  1.500000e+000  1.500000e+000
      vertex  2.139496e+002  1.500000e+000  8.200000e+000
      vertex  3.521699e+002  1.500000e+000  1.000000e+001
    endloop
  endfacet
  facet normal  0.000000e+000  1.000000e+000  0.000000e+000
    outer loop
      vertex  0.000000e+000  1.500000e+000  1.500000e+000
      vertex  3.521699e+002  1.500000e+000  1.000000e+001
      vertex  3.526971e+002  1.500000e+000  8.727208e+000
    endloop
  endfacet
  facet normal  0.000000e+000  1.000000e+000  0.000000e+000
    outer loop
      vertex  0.000000e+000  1.500000e+000  1.500000e+000
      vertex  3.526971e+002  1.500000e+000  8.727208e+000
      vertex  3.539699e+002  1.500000e+000  8.200000e+000
    endloop
  endfacet
  facet normal  -0.000000e+000  1.000000e+000  0.000000e+000
    outer loop
      vertex  0.000000e+000  1.500000e+000  1.500000e+000
      vertex  3.539699e+002  1.500000e+000  8.200000e+000
      vertex  4.921901e+002  1.500000e+000  1.000000e+001
    endloop
  endfacet
  facet normal  0.000000e+000  1.000000e+000  0.000000e+000
    outer loop
      vertex  0.000000e+000  1.500000e+000  1.500000e+000
      vertex  4.921901e+002  1.500000e+000  1.000000e+001
      vertex  4.927173e+002  1.500000e+000  8.727208e+000
    endloop
  endfacet
  facet normal  0.000000e+000  9.999999e-001  0.000000e+000
    outer loop
      vertex  0.000000e+000  1.500000e+000  1.500000e+000
      vertex  4.927173e+002  1.500000e+000  8.727208e+000
      vertex  4.939901e+002  1.500000e+000  8.200000e+000
    endloop
  endfacet
  facet normal  -0.000000e+000  1.000000e+000  0.000000e+000
    outer loop
      vertex  0.000000e+000  1.500000e+000  1.500000e+000
      vertex  4.939901e+002  1.500000e+000  8.200000e+000
      vertex  6.322104e+002  1.500000e+000  1.000000e+001
    endloop
  endfacet
  facet normal  0.000000e+000  1.000000e+000  0.000000e+000
    outer loop
      vertex  0.000000e+000  1.500000e+000  1.500000e+000
      vertex  6.322104e+002  1.500000e+000  1.000000e+001
      vertex  6.327376e+002  1.500000e+000  8.727208e+000
    endloop
  endfacet
  facet normal  0.000000e+000  1.000000e+000  0.000000e+000
    outer loop
      vertex  0.000000e+000  1.500000e+000  1.500000e+000
      vertex  6.327376e+002  1.500000e+000  8.727208e+000
      vertex  6.340104e+002  1.500000e+000  8.200000e+000
    endloop
  endfacet
  facet normal  0.000000e+000  1.000000e+000  0.000000e+000
    outer loop
      vertex  0.000000e+000  1.500000e+000  2.000000e+001
      vertex  6.340104e+002  1.500000e+000  1.180000e+001
      vertex  6.327376e+002  1.500000e+000  1.127279e+001
    endloop
  endfacet
  facet normal  0.000000e+000  1.000000e+000  0.000000e+000
    outer loop
      vertex  0.000000e+000  1.500000e+000  2.000000e+001
      vertex  6.327376e+002  1.500000e+000  1.127279e+001
      vertex  6.322104e+002  1.500000e+000  1.000000e+001
    endloop
  endfacet
  facet normal  0.000000e+000  9.999999e-001  0.000000e+000
    outer loop
      vertex  0.000000e+000  1.500000e+000  2.000000e+001
      vertex  6.322104e+002  1.500000e+000  1.000000e+001
      vertex  4.939901e+002  1.500000e+000  1.180000e+001
    endloop
  endfacet
  facet normal  0.000000e+000  1.000000e+000  0.000000e+000
    outer loop
      vertex  0.000000e+000  1.500000e+000  2.000000e+001
      vertex  4.939901e+002  1.500000e+000  1.180000e+001
      vertex  4.927173e+002  1.500000e+000  1.127279e+001
    endloop
  endfacet
  facet normal  0.000000e+000  1.000000e+000  0.000000e+000
    outer loop
      vertex  0.000000e+000  1.500000e+000  2.000000e+001
      vertex  4.927173e+002  1.500000e+000  1.127279e+001
      vertex  4.921901e+002  1.500000e+000  1.000000e+001
    endloop
  endfacet
  facet normal  0.000000e+000  9.999999e-001  0.000000e+000
    outer loop
      vertex  0.000000e+000  1.500000e+000  2.000000e+001
      vertex  4.921901e+002  1.500000e+000  1.000000e+001
      vertex  3.539699e+002  1.500000e+000  1.180000e+001
    endloop
  endfacet
  facet normal  0.000000e+000  1.000000e+000  0.000000e+000
    outer loop
      vertex  0.000000e+000  1.500000e+000  2.000000e+001
      vertex  3.539699e+002  1.500000e+000  1.180000e+001
      vertex  3.526971e+002  1.500000e+000  1.127279e+001
    endloop
  endfacet
  facet normal  0.000000e+000  1.000000e+000  0.000000e+000
    outer loop
      vertex  0.000000e+000  1.500000e+000  2.000000e+001
      vertex  3.526971e+002  1.500000e+000  1.127279e+001
      vertex  3.521699e+002  1.500000e+000  1.000000e+001
    endloop
  endfacet
  facet normal  0.000000e+000  1.000000e+000  0.000000e+000
    outer loop
      vertex  0.000000e+000  1.500000e+000  2.000000e+001
      vertex  3.521699e+002  1.500000e+000  1.000000e+001
      vertex  2.139496e+002  1.500000e+000  1.180000e+001
    endloop
  endfacet
  facet normal  0.000000e+000  1.000000e+000  0.000000e+000
    outer loop
      vertex  0.000000e+000  1.500000e+000  2.000000e+001
      vertex  2.139496e+002  1.500000e+000  1.180000e+001
      vertex  2.126768e+002  1.500000e+000  1.127279e+001
    endloop
  endfacet
  facet normal  0.000000e+000  9.999999e-001  0.000000e+000
    outer loop
      vertex  0.000000e+000  1.500000e+000  2.000000e+001
      vertex  2.126768e+002  1.500000e+000  1.127279e+001
      vertex  2.121496e+002  1.500000e+000  1.000000e+001
    endloop
  endfacet
  facet normal  0.000000e+000  1.000000e+000  0.000000e+000
    outer loop
      vertex  0.000000e+000  1.500000e+000  2.000000e+001
      vertex  2.121496e+002  1.500000e+000  1.000000e+001
      vertex  7.392938e+001  1.500000e+000  1.180000e+001
    endloop
  endfacet
  facet normal  0.000000e+000  9.999999e-001  0.000000e+000
    outer loop
      vertex  0.000000e+000  1.500000e+000  2.000000e+001
      vertex  7.392938e+001  1.500000e+000  1.180000e+001
      vertex  7.265659e+001  1.500000e+000  1.127279e+001
    endloop
  endfacet
  facet normal  0.000000e+000  1.000000e+000  0.000000e+000
    outer loop
      vertex  0.000000e+000  1.500000e+000  2.000000e+001
      vertex  7.265659e+001  1.500000e+000  1.127279e+001
      vertex  7.212938e+001  1.500000e+000  1.000000e+001
    endloop
  endfacet
  facet normal  0.000000e+000  9.999999e-001  0.000000e+000
    outer loop
      vertex  0.000000e+000  1.500000e+000  2.000000e+001
      vertex  7.212938e+001  1.500000e+000  1.000000e+001
      vertex  0.000000e+000  1.500000e+000  1.500000e+000
    endloop
  endfacet
  facet normal  0.000000e+000  1.000000e+000  -0.000000e+000
    outer loop
      vertex  1.223750e+003  1.500000e+000  2.000000e+001
      vertex  1.213069e+003  1.500000e+000  1.500000e+000
      vertex  1.195891e+003  1.500000e+000  1.000000e+001
    endloop
  endfacet
  facet normal  0.000000e+000  1.000000e+000  -0.000000e+000
    outer loop
      vertex  1.223750e+003  1.500000e+000  2.000000e+001
      vertex  1.195891e+003  1.500000e+000  1.000000e+001
      vertex  1.195364e+003  1.500000e+000  1.127279e+001
    endloop
  endfacet
  facet normal  0.000000e+000  1.000000e+000  -0.000000e+000
    outer loop
      vertex  1.223750e+003  1.500000e+000  2.000000e+001
      vertex  1.195364e+003  1.500000e+000  1.127279e+001
      vertex  1.194091e+003  1.500000e+000  1.180000e+001
    endloop
  endfacet
  facet normal  0.000000e+000  1.000000e+000  -0.000000e+000
    outer loop
      vertex  1.223750e+003  1.500000e+000  2.000000e+001
      vertex  1.194091e+003  1.500000e+000  1.180000e+001
      vertex  0.000000e+000  1.500000e+000  2.000000e+001
    endloop
  endfacet
  facet normal  0.000000e+000  1.000000e+000  0.000000e+000
    outer loop
      vertex  1.213069e+003  1.500000e+000  1.500000e+000
      vertex  0.000000e+000  1.500000e+000  1.500000e+000
      vertex  1.194091e+003  1.500000e+000  8.200000e+000
    endloop
  endfacet
  facet normal  -0.000000e+000  1.000000e+000  0.000000e+000
    outer loop
      vertex  1.213069e+003  1.500000e+000  1.500000e+000
      vertex  1.194091e+003  1.500000e+000  8.200000e+000
      vertex  1.195364e+003  1.500000e+000  8.727208e+000
    endloop
  endfacet
  facet normal  -0.000000e+000  1.000000e+000  0.000000e+000
    outer loop
      vertex  1.213069e+003  1.500000e+000  1.500000e+000
      vertex  1.195364e+003  1.500000e+000  8.727208e+000
      vertex  1.195891e+003  1.500000e+000  1.000000e+001
    endloop
  endfacet
  facet normal  0.000000e+000  9.999999e-001  0.000000e+000
    outer loop
      vertex  6.358104e+002  1.500000e+000  1.000000e+001
      vertex  6.352832e+002  1.500000e+000  1.127279e+001
      vertex  7.722307e+002  1.500000e+000  1.000000e+001
    endloop
  endfacet
  facet normal  0.000000e+000  1.000000e+000  0.000000e+000
    outer loop
      vertex  7.722307e+002  1.500000e+000  1.000000e+001
      vertex  6.352832e+002  1.500000e+000  1.127279e+001
      vertex  6.340104e+002  1.500000e+000  1.180000e+001
    endloop
  endfacet
  facet normal  0.000000e+000  1.000000e+000  0.000000e+000
    outer loop
      vertex  7.722307e+002  1.500000e+000  1.000000e+001
      vertex  6.340104e+002  1.500000e+000  1.180000e+001
      vertex  7.727578e+002  1.500000e+000  1.127279e+001
    endloop
  endfacet
  facet normal  0.000000e+000  1.000000e+000  0.000000e+000
    outer loop
      vertex  7.727578e+002  1.500000e+000  1.127279e+001
      vertex  6.340104e+002  1.500000e+000  1.180000e+001
      vertex  0.000000e+000  1.500000e+000  2.000000e+001
    endloop
  endfacet
  facet normal  0.000000e+000  1.000000e+000  0.000000e+000
    outer loop
      vertex  7.727578e+002  1.500000e+000  1.127279e+001
      vertex  0.000000e+000  1.500000e+000  2.000000e+001
      vertex  7.740306e+002  1.500000e+000  1.180000e+001
    endloop
  endfacet
  facet normal  0.000000e+000  1.000000e+000  0.000000e+000
    outer loop
      vertex  7.758306e+002  1.500000e+000  1.000000e+001
      vertex  7.753034e+002  1.500000e+000  1.127279e+001
      vertex  9.122509e+002  1.500000e+000  1.000000e+001
    endloop
  endfacet
  facet normal  0.000000e+000  1.000000e+000  0.000000e+000
    outer loop
      vertex  9.122509e+002  1.500000e+000  1.000000e+001
      vertex  7.753034e+002  1.500000e+000  1.127279e+001
      vertex  7.740306e+002  1.500000e+000  1.180000e+001
    endloop
  endfacet
  facet normal  0.000000e+000  1.000000e+000  0.000000e+000
    outer loop
      vertex  9.122509e+002  1.500000e+000  1.000000e+001
      vertex  7.740306e+002  1.500000e+000  1.180000e+001
      vertex  9.127781e+002  1.500000e+000  1.127279e+001
    endloop
  endfacet
  facet normal  0.000000e+000  1.000000e+000  0.000000e+000
    outer loop
      vertex  9.127781e+002  1.500000e+000  1.127279e+001
      vertex  7.740306e+002  1.500000e+000  1.180000e+001
      vertex  0.000000e+000  1.500000e+000  2.000000e+001
    endloop
  endfacet
  facet normal  0.000000e+000  1.000000e+000  0.000000e+000
    outer loop
      vertex  9.127781e+002  1.500000e+000  1.127279e+001
      vertex  0.000000e+000  1.500000e+000  2.000000e+001
      vertex  9.140509e+002  1.500000e+000  1.180000e+001
    endloop
  endfacet
  facet normal  0.000000e+000  1.000000e+000  0.000000e+000
    outer loop
      vertex  9.158509e+002  1.500000e+000  1.000000e+001
      vertex  9.153237e+002  1.500000e+000  1.127279e+001
      vertex  1.052271e+003  1.500000e+000  1.000000e+001
    endloop
  endfacet
  facet normal  0.000000e+000  1.000000e+000  0.000000e+000
    outer loop
      vertex  1.052271e+003  1.500000e+000  1.000000e+001
      vertex  9.153237e+002  1.500000e+000  1.127279e+001
      vertex  9.140509e+002  1.500000e+000  1.180000e+001
    endloop
  endfacet
  facet normal  0.000000e+000  1.000000e+000  0.000000e+000
    outer loop
      vertex  1.052271e+003  1.500000e+000  1.000000e+001
      vertex  9.140509e+002  1.500000e+000  1.180000e+001
      vertex  1.052798e+003  1.500000e+000  1.127279e+001
    endloop
  endfacet
  facet normal  0.000000e+000  1.000000e+000  0.000000e+000
    outer loop
      vertex  1.052798e+003  1.500000e+000  1.127279e+001
      vertex  9.140509e+002  1.500000e+000  1.180000e+001
      vertex  0.000000e+000  1.500000e+000  2.000000e+001
    endloop
  endfacet
  facet normal  0.000000e+000  1.000000e+000  0.000000e+000
    outer loop
      vertex  1.052798e+003  1.500000e+000  1.127279e+001
      vertex  0.000000e+000  1.500000e+000  2.000000e+001
      vertex  1.054071e+003  1.500000e+000  1.180000e+001
    endloop
  endfacet
  facet normal  0.000000e+000  9.999999e-001  0.000000e+000
    outer loop
      vertex  1.055871e+003  1.500000e+000  1.000000e+001
      vertex  1.055344e+003  1.500000e+000  1.127279e+001
      vertex  1.192291e+003  1.500000e+000  1.000000e+001
    endloop
  endfacet
  facet normal  0.000000e+000  1.000000e+000  0.000000e+000
    outer loop
      vertex  1.192291e+003  1.500000e+000  1.000000e+001
      vertex  1.055344e+003  1.500000e+000  1.127279e+001
      vertex  1.054071e+003  1.500000e+000  1.180000e+001
    endloop
  endfacet
  facet normal  0.000000e+000  1.000000e+000  0.000000e+000
    outer loop
      vertex  1.192291e+003  1.500000e+000  1.000000e+001
      vertex  1.054071e+003  1.500000e+000  1.180000e+001
      vertex  1.192819e+003  1.500000e+000  1.127279e+001
    endloop
  endfacet
  facet normal  0.000000e+000  1.000000e+000  0.000000e+000
    outer loop
      vertex  1.192819e+003  1.500000e+000  1.127279e+001
      vertex  1.054071e+003  1.500000e+000  1.180000e+001
      vertex  0.000000e+000  1.500000e+000  2.000000e+001
    endloop
  endfacet
  facet normal  0.000000e+000  1.000000e+000  0.000000e+000
    outer loop
      vertex  1.192819e+003  1.500000e+000  1.127279e+001
      vertex  0.000000e+000  1.500000e+000  2.000000e+001
      vertex  1.194091e+003  1.500000e+000  1.180000e+001
    endloop
  endfacet
  facet normal  0.000000e+000  9.999999e-001  0.000000e+000
    outer loop
      vertex  6.358104e+002  1.500000e+000  1.000000e+001
      vertex  7.722307e+002  1.500000e+000  1.000000e+001
      vertex  6.352832e+002  1.500000e+000  8.727208e+000
    endloop
  endfacet
  facet normal  0.000000e+000  1.000000e+000  0.000000e+000
    outer loop
      vertex  6.352832e+002  1.500000e+000  8.727208e+000
      vertex  7.722307e+002  1.500000e+000  1.000000e+001
      vertex  7.727578e+002  1.500000e+000  8.727208e+000
    endloop
  endfacet
  facet normal  0.000000e+000  1.000000e+000  0.000000e+000
    outer loop
      vertex  6.352832e+002  1.500000e+000  8.727208e+000
      vertex  7.727578e+002  1.500000e+000  8.727208e+000
      vertex  6.340104e+002  1.500000e+000  8.200000e+000
    endloop
  endfacet
  facet normal  0.000000e+000  9.999999e-001  0.000000e+000
    outer loop
      vertex  6.340104e+002  1.500000e+000  8.200000e+000
      vertex  7.727578e+002  1.500000e+000  8.727208e+000
      vertex  7.740306e+002  1.500000e+000  8.200000e+000
    endloop
  endfacet
  facet normal  0.000000e+000  1.000000e+000  0.000000e+000
    outer loop
      vertex  6.340104e+002  1.500000e+000  8.200000e+000
      vertex  7.740306e+002  1.500000e+000  8.200000e+000
      vertex  0.000000e+000  1.500000e+000  1.500000e+000
    endloop
  endfacet
  facet normal  0.000000e+000  1.000000e+000  0.000000e+000
    outer loop
      vertex  7.758306e+002  1.500000e+000  1.000000e+001
      vertex  9.122509e+002  1.500000e+000  1.000000e+001
      vertex  7.753034e+002  1.500000e+000  8.727208e+000
    endloop
  endfacet
  facet normal  0.000000e+000  9.999999e-001  0.000000e+000
    outer loop
      vertex  7.753034e+002  1.500000e+000  8.727208e+000
      vertex  9.122509e+002  1.500000e+000  1.000000e+001
      vertex  9.127781e+002  1.500000e+000  8.727208e+000
    endloop
  endfacet
  facet normal  0.000000e+000  1.000000e+000  0.000000e+000
    outer loop
      vertex  7.753034e+002  1.500000e+000  8.727208e+000
      vertex  9.127781e+002  1.500000e+000  8.727208e+000
      vertex  7.740306e+002  1.500000e+000  8.200000e+000
    endloop
  endfacet
  facet normal  0.000000e+000  9.999999e-001  0.000000e+000
    outer loop
      vertex  7.740306e+002  1.500000e+000  8.200000e+000
      vertex  9.127781e+002  1.500000e+000  8.727208e+000
      vertex  9.140509e+002  1.500000e+000  8.200000e+000
    endloop
  endfacet
  facet normal  0.000000e+000  1.000000e+000  0.000000e+000
    outer loop
      vertex  7.740306e+002  1.500000e+000  8.200000e+000
      vertex  9.140509e+002  1.500000e+000  8.200000e+000
      vertex  0.000000e+000  1.500000e+000  1.500000e+000
    endloop
  endfacet
  facet normal  0.000000e+000  1.000000e+000  0.000000e+000
    outer loop
      vertex  9.158509e+002  1.500000e+000  1.000000e+001
      vertex  1.052271e+003  1.500000e+000  1.000000e+001
      vertex  9.153237e+002  1.500000e+000  8.727208e+000
    endloop
  endfacet
  facet normal  0.000000e+000  9.999999e-001  0.000000e+000
    outer loop
      vertex  9.153237e+002  1.500000e+000  8.727208e+000
      vertex  1.052271e+003  1.500000e+000  1.000000e+001
      vertex  1.052798e+003  1.500000e+000  8.727208e+000
    endloop
  endfacet
  facet normal  0.000000e+000  1.000000e+000  0.000000e+000
    outer loop
      vertex  9.153237e+002  1.500000e+000  8.727208e+000
      vertex  1.052798e+003  1.500000e+000  8.727208e+000
      vertex  9.140509e+002  1.500000e+000  8.200000e+000
    endloop
  endfacet
  facet normal  0.000000e+000  9.999999e-001  0.000000e+000
    outer loop
      vertex  9.140509e+002  1.500000e+000  8.200000e+000
      vertex  1.052798e+003  1.500000e+000  8.727208e+000
      vertex  1.054071e+003  1.500000e+000  8.200000e+000
    endloop
  endfacet
  facet normal  0.000000e+000  1.000000e+000  0.000000e+000
    outer loop
      vertex  9.140509e+002  1.500000e+000  8.200000e+000
      vertex  1.054071e+003  1.500000e+000  8.200000e+000
      vertex  0.000000e+000  1.500000e+000  1.500000e+000
    endloop
  endfacet
  facet normal  0.000000e+000  9.999999e-001  0.000000e+000
    outer loop
      vertex  1.055871e+003  1.500000e+000  1.000000e+001
      vertex  1.192291e+003  1.500000e+000  1.000000e+001
      vertex  1.055344e+003  1.500000e+000  8.727208e+000
    endloop
  endfacet
  facet normal  0.000000e+000  1.000000e+000  0.000000e+000
    outer loop
      vertex  1.055344e+003  1.500000e+000  8.727208e+000
      vertex  1.192291e+003  1.500000e+000  1.000000e+001
      vertex  1.192819e+003  1.500000e+000  8.727208e+000
    endloop
  endfacet
  facet normal  0.000000e+000  1.000000e+000  0.000000e+000
    outer loop
      vertex  1.055344e+003  1.500000e+000  8.727208e+000
      vertex  1.192819e+003  1.500000e+000  8.727208e+000
      vertex  1.054071e+003  1.500000e+000  8.200000e+000
    endloop
  endfacet
  facet normal  0.000000e+000  9.999999e-001  0.000000e+000
    outer loop
      vertex  1.054071e+003  1.500000e+000  8.200000e+000
      vertex  1.192819e+003  1.500000e+000  8.727208e+000
      vertex  1.194091e+003  1.500000e+000  8.200000e+000
    endloop
  endfacet
  facet normal  0.000000e+000  1.000000e+000  0.000000e+000
    outer loop
      vertex  1.054071e+003  1.500000e+000  8.200000e+000
      vertex  1.194091e+003  1.500000e+000  8.200000e+000
      vertex  0.000000e+000  1.500000e+000  1.500000e+000
    endloop
  endfacet
  facet normal -7.658048e-018 -1.000000e+000  8.239763e-016
    outer loop
      vertex  6.322104e+002  0.000000e+000  1.000000e+001
      vertex  4.952629e+002  0.000000e+000  8.727208e+000
      vertex  4.939901e+002 -4.246603e-016  8.200000e+000
    endloop
  endfacet
  facet normal  0.000000e+000 -1.000000e+000  -0.000000e+000
    outer loop
      vertex  6.322104e+002  0.000000e+000  1.000000e+001
      vertex  4.957901e+002  0.000000e+000  1.000000e+001
      vertex  4.952629e+002  0.000000e+000  8.727208e+000
    endloop
  endfacet
  facet normal -7.658054e-018 -1.000000e+000  8.239768e-016
    outer loop
      vertex  4.921901e+002  0.000000e+000  1.000000e+001
      vertex  3.552427e+002  0.000000e+000  8.727208e+000
      vertex  3.539699e+002 -4.246603e-016  8.200000e+000
    endloop
  endfacet
  facet normal  0.000000e+000 -1.000000e+000  -0.000000e+000
    outer loop
      vertex  4.921901e+002  0.000000e+000  1.000000e+001
      vertex  3.557699e+002  0.000000e+000  1.000000e+001
      vertex  3.552427e+002  0.000000e+000  8.727208e+000
    endloop
  endfacet
  facet normal -7.658053e-018 -1.000000e+000  8.239768e-016
    outer loop
      vertex  3.521699e+002  0.000000e+000  1.000000e+001
      vertex  2.152224e+002  0.000000e+000  8.727208e+000
      vertex  2.139496e+002 -4.246603e-016  8.200000e+000
    endloop
  endfacet
  facet normal  0.000000e+000 -1.000000e+000  -0.000000e+000
    outer loop
      vertex  3.521699e+002  0.000000e+000  1.000000e+001
      vertex  2.157496e+002  0.000000e+000  1.000000e+001
      vertex  2.152224e+002  0.000000e+000  8.727208e+000
    endloop
  endfacet
  facet normal -7.658053e-018 -1.000000e+000  8.239767e-016
    outer loop
      vertex  2.121496e+002  0.000000e+000  1.000000e+001
      vertex  7.520217e+001  0.000000e+000  8.727208e+000
      vertex  7.392938e+001 -4.246603e-016  8.200000e+000
    endloop
  endfacet
  facet normal  0.000000e+000 -1.000000e+000  -0.000000e+000
    outer loop
      vertex  2.121496e+002  0.000000e+000  1.000000e+001
      vertex  7.572938e+001  0.000000e+000  1.000000e+001
      vertex  7.520217e+001  0.000000e+000  8.727208e+000
    endloop
  endfacet
  facet normal  7.658047e-018 -1.000000e+000  8.239762e-016
    outer loop
      vertex  4.952629e+002  0.000000e+000  1.127279e+001
      vertex  6.322104e+002  0.000000e+000  1.000000e+001
      vertex  4.939901e+002  4.246603e-016  1.180000e+001
    endloop
  endfacet
  facet normal  0.000000e+000 -1.000000e+000  0.000000e+000
    outer loop
      vertex  4.957901e+002  0.000000e+000  1.000000e+001
      vertex  6.322104e+002  0.000000e+000  1.000000e+001
      vertex  4.952629e+002  0.000000e+000  1.127279e+001
    endloop
  endfacet
  facet normal  7.658054e-018 -1.000000e+000  8.239768e-016
    outer loop
      vertex  3.552427e+002  0.000000e+000  1.127279e+001
      vertex  4.921901e+002  0.000000e+000  1.000000e+001
      vertex  3.539699e+002  4.246603e-016  1.180000e+001
    endloop
  endfacet
  facet normal  0.000000e+000 -1.000000e+000  0.000000e+000
    outer loop
      vertex  3.557699e+002  0.000000e+000  1.000000e+001
      vertex  4.921901e+002  0.000000e+000  1.000000e+001
      vertex  3.552427e+002  0.000000e+000  1.127279e+001
    endloop
  endfacet
  facet normal  7.658054e-018 -1.000000e+000  8.239769e-016
    outer loop
      vertex  2.152224e+002  0.000000e+000  1.127279e+001
      vertex  3.521699e+002  0.000000e+000  1.000000e+001
      vertex  2.139496e+002  4.246603e-016  1.180000e+001
    endloop
  endfacet
  facet normal  0.000000e+000 -1.000000e+000  0.000000e+000
    outer loop
      vertex  2.157496e+002  0.000000e+000  1.000000e+001
      vertex  3.521699e+002  0.000000e+000  1.000000e+001
      vertex  2.152224e+002  0.000000e+000  1.127279e+001
    endloop
  endfacet
  facet normal  7.658054e-018 -1.000000e+000  8.239768e-016
    outer loop
      vertex  7.520217e+001  0.000000e+000  1.127279e+001
      vertex  2.121496e+002  0.000000e+000  1.000000e+001
      vertex  7.392938e+001  4.246603e-016  1.180000e+001
    endloop
  endfacet
  facet normal  0.000000e+000 -1.000000e+000  0.000000e+000
    outer loop
      vertex  7.572938e+001  0.000000e+000  1.000000e+001
      vertex  2.121496e+002  0.000000e+000  1.000000e+001
      vertex  7.520217e+001  0.000000e+000  1.127279e+001
    endloop
  endfacet
  facet normal  0.000000e+000 -1.000000e+000 -5.178784e-017
    outer loop
      vertex  1.223750e+003  0.000000e+000  2.000000e+001
      vertex  0.000000e+000  0.000000e+000  2.000000e+001
      vertex  1.194091e+003  4.246603e-016  1.180000e+001
    endloop
  endfacet
  facet normal -1.421460e-016 -1.000000e+000  4.623418e-016
    outer loop
      vertex  1.223750e+003  0.000000e+000  2.000000e+001
      vertex  1.194091e+003  4.246603e-016  1.180000e+001
      vertex  1.195364e+003  0.000000e+000  1.127279e+001
    endloop
  endfacet
  facet normal  0.000000e+000 -1.000000e+000  0.000000e+000
    outer loop
      vertex  1.223750e+003  0.000000e+000  2.000000e+001
      vertex  1.195364e+003  0.000000e+000  1.127279e+001
      vertex  1.195891e+003  0.000000e+000  1.000000e+001
    endloop
  endfacet
  facet normal  0.000000e+000 -1.000000e+000  0.000000e+000
    outer loop
      vertex  1.223750e+003  0.000000e+000  2.000000e+001
      vertex  1.195891e+003  0.000000e+000  1.000000e+001
      vertex  1.212203e+003  0.000000e+000  0.000000e+000
    endloop
  endfacet
  facet normal  0.000000e+000 -1.000000e+000  0.000000e+000
    outer loop
      vertex  0.000000e+000  0.000000e+000  2.000000e+001
      vertex  7.212938e+001  0.000000e+000  1.000000e+001
      vertex  7.265659e+001  0.000000e+000  1.127279e+001
    endloop
  endfacet
  facet normal  7.500233e-017 -9.999999e-001  6.244165e-016
    outer loop
      vertex  0.000000e+000  0.000000e+000  2.000000e+001
      vertex  7.265659e+001  0.000000e+000  1.127279e+001
      vertex  7.392938e+001  4.246603e-016  1.180000e+001
    endloop
  endfacet
  facet normal -4.245189e-018 -1.000000e+000 -9.006152e-017
    outer loop
      vertex  0.000000e+000  0.000000e+000  2.000000e+001
      vertex  7.392938e+001  4.246603e-016  1.180000e+001
      vertex  2.121496e+002  0.000000e+000  1.000000e+001
    endloop
  endfacet
  facet normal  0.000000e+000 -9.999999e-001  0.000000e+000
    outer loop
      vertex  0.000000e+000  0.000000e+000  2.000000e+001
      vertex  2.121496e+002  0.000000e+000  1.000000e+001
      vertex  2.126768e+002  0.000000e+000  1.127279e+001
    endloop
  endfacet
  facet normal  3.007393e-017 -1.000000e+000  7.328836e-016
    outer loop
      vertex  0.000000e+000  0.000000e+000  2.000000e+001
      vertex  2.126768e+002  0.000000e+000  1.127279e+001
      vertex  2.139496e+002  4.246603e-016  1.180000e+001
    endloop
  endfacet
  facet normal -5.675026e-018 -1.000000e+000 -1.998573e-016
    outer loop
      vertex  0.000000e+000  0.000000e+000  2.000000e+001
      vertex  2.139496e+002  4.246603e-016  1.180000e+001
      vertex  3.521699e+002  0.000000e+000  1.000000e+001
    endloop
  endfacet
  facet normal  0.000000e+000 -1.000000e+000  0.000000e+000
    outer loop
      vertex  0.000000e+000  0.000000e+000  2.000000e+001
      vertex  3.521699e+002  0.000000e+000  1.000000e+001
      vertex  3.526971e+002  0.000000e+000  1.127279e+001
    endloop
  endfacet
  facet normal  1.880765e-017 -1.000000e+000  7.600829e-016
    outer loop
      vertex  0.000000e+000  0.000000e+000  2.000000e+001
      vertex  3.526971e+002  0.000000e+000  1.127279e+001
      vertex  3.539699e+002  4.246603e-016  1.180000e+001
    endloop
  endfacet
  facet normal -8.557212e-018 -1.000000e+000 -4.211775e-016
    outer loop
      vertex  0.000000e+000  0.000000e+000  2.000000e+001
      vertex  3.539699e+002  4.246603e-016  1.180000e+001
      vertex  4.921901e+002  0.000000e+000  1.000000e+001
    endloop
  endfacet
  facet normal  0.000000e+000 -9.999999e-001  0.000000e+000
    outer loop
      vertex  0.000000e+000  0.000000e+000  2.000000e+001
      vertex  4.921901e+002  0.000000e+000  1.000000e+001
      vertex  4.927173e+002  0.000000e+000  1.127279e+001
    endloop
  endfacet
  facet normal  1.368207e-017 -1.000000e+000  7.724571e-016
    outer loop
      vertex  0.000000e+000  0.000000e+000  2.000000e+001
      vertex  4.927173e+002  0.000000e+000  1.127279e+001
      vertex  4.939901e+002  4.246603e-016  1.180000e+001
    endloop
  endfacet
  facet normal -1.738817e-017 -9.999999e-001 -1.099298e-015
    outer loop
      vertex  0.000000e+000  0.000000e+000  2.000000e+001
      vertex  4.939901e+002  4.246603e-016  1.180000e+001
      vertex  6.322104e+002  0.000000e+000  1.000000e+001
    endloop
  endfacet
  facet normal  0.000000e+000 -1.000000e+000  0.000000e+000
    outer loop
      vertex  0.000000e+000  0.000000e+000  2.000000e+001
      vertex  6.322104e+002  0.000000e+000  1.000000e+001
      vertex  6.327376e+002  0.000000e+000  1.127279e+001
    endloop
  endfacet
  facet normal  1.075191e-017 -1.000000e+000  7.795318e-016
    outer loop
      vertex  0.000000e+000  0.000000e+000  2.000000e+001
      vertex  6.327376e+002  0.000000e+000  1.127279e+001
      vertex  6.340104e+002  4.246603e-016  1.180000e+001
    endloop
  endfacet
  facet normal -1.075191e-017 -1.000000e+000  7.795317e-016
    outer loop
      vertex  0.000000e+000  0.000000e+000  0.000000e+000
      vertex  6.340104e+002 -4.246603e-016  8.200000e+000
      vertex  6.327376e+002  0.000000e+000  8.727208e+000
    endloop
  endfacet
  facet normal  -0.000000e+000 -1.000000e+000  0.000000e+000
    outer loop
      vertex  0.000000e+000  0.000000e+000  0.000000e+000
      vertex  6.327376e+002  0.000000e+000  8.727208e+000
      vertex  6.322104e+002  0.000000e+000  1.000000e+001
    endloop
  endfacet
  facet normal  1.738817e-017 -9.999999e-001 -1.099298e-015
    outer loop
      vertex  0.000000e+000  0.000000e+000  0.000000e+000
      vertex  6.322104e+002  0.000000e+000  1.000000e+001
      vertex  4.939901e+002 -4.246603e-016  8.200000e+000
    endloop
  endfacet
  facet normal -1.368207e-017 -1.000000e+000  7.724571e-016
    outer loop
      vertex  0.000000e+000  0.000000e+000  0.000000e+000
      vertex  4.939901e+002 -4.246603e-016  8.200000e+000
      vertex  4.927173e+002  0.000000e+000  8.727208e+000
    endloop
  endfacet
  facet normal  -0.000000e+000 -1.000000e+000  0.000000e+000
    outer loop
      vertex  0.000000e+000  0.000000e+000  0.000000e+000
      vertex  4.927173e+002  0.000000e+000  8.727208e+000
      vertex  4.921901e+002  0.000000e+000  1.000000e+001
    endloop
  endfacet
  facet normal  8.557212e-018 -9.999999e-001 -4.211776e-016
    outer loop
      vertex  0.000000e+000  0.000000e+000  0.000000e+000
      vertex  4.921901e+002  0.000000e+000  1.000000e+001
      vertex  3.539699e+002 -4.246603e-016  8.200000e+000
    endloop
  endfacet
  facet normal -1.880764e-017 -1.000000e+000  7.600828e-016
    outer loop
      vertex  0.000000e+000  0.000000e+000  0.000000e+000
      vertex  3.539699e+002 -4.246603e-016  8.200000e+000
      vertex  3.526971e+002  0.000000e+000  8.727208e+000
    endloop
  endfacet
  facet normal  -0.000000e+000 -1.000000e+000  0.000000e+000
    outer loop
      vertex  0.000000e+000  0.000000e+000  0.000000e+000
      vertex  3.526971e+002  0.000000e+000  8.727208e+000
      vertex  3.521699e+002  0.000000e+000  1.000000e+001
    endloop
  endfacet
  facet normal  5.675026e-018 -1.000000e+000 -1.998573e-016
    outer loop
      vertex  0.000000e+000  0.000000e+000  0.000000e+000
      vertex  3.521699e+002  0.000000e+000  1.000000e+001
      vertex  2.139496e+002 -4.246603e-016  8.200000e+000
    endloop
  endfacet
  facet normal -3.007393e-017 -1.000000e+000  7.328836e-016
    outer loop
      vertex  0.000000e+000  0.000000e+000  0.000000e+000
      vertex  2.139496e+002 -4.246603e-016  8.200000e+000
      vertex  2.126768e+002  0.000000e+000  8.727208e+000
    endloop
  endfacet
  facet normal  -0.000000e+000 -9.999999e-001  0.000000e+000
    outer loop
      vertex  0.000000e+000  0.000000e+000  0.000000e+000
      vertex  2.126768e+002  0.000000e+000  8.727208e+000
      vertex  2.121496e+002  0.000000e+000  1.000000e+001
    endloop
  endfacet
  facet normal  4.245189e-018 -1.000000e+000 -9.006154e-017
    outer loop
      vertex  0.000000e+000  0.000000e+000  0.000000e+000
      vertex  2.121496e+002  0.000000e+000  1.000000e+001
      vertex  7.392938e+001 -4.246603e-016  8.200000e+000
    endloop
  endfacet
  facet normal -7.500233e-017 -9.999999e-001  6.244165e-016
    outer loop
      vertex  0.000000e+000  0.000000e+000  0.000000e+000
      vertex  7.392938e+001 -4.246603e-016  8.200000e+000
      vertex  7.265659e+001  0.000000e+000  8.727208e+000
    endloop
  endfacet
  facet normal  -0.000000e+000 -1.000000e+000  0.000000e+000
    outer loop
      vertex  0.000000e+000  0.000000e+000  0.000000e+000
      vertex  7.265659e+001  0.000000e+000  8.727208e+000
      vertex  7.212938e+001  0.000000e+000  1.000000e+001
    endloop
  endfacet
  facet normal  -0.000000e+000 -9.999999e-001  0.000000e+000
    outer loop
      vertex  0.000000e+000  0.000000e+000  0.000000e+000
      vertex  7.212938e+001  0.000000e+000  1.000000e+001
      vertex  0.000000e+000  0.000000e+000  2.000000e+001
    endloop
  endfacet
  facet normal  0.000000e+000 -1.000000e+000  -0.000000e+000
    outer loop
      vertex  1.212203e+003  0.000000e+000  0.000000e+000
      vertex  1.195891e+003  0.000000e+000  1.000000e+001
      vertex  1.195364e+003  0.000000e+000  8.727208e+000
    endloop
  endfacet
  facet normal  1.854457e-016 -1.000000e+000  3.578141e-016
    outer loop
      vertex  1.212203e+003  0.000000e+000  0.000000e+000
      vertex  1.195364e+003  0.000000e+000  8.727208e+000
      vertex  1.194091e+003 -4.246603e-016  8.200000e+000
    endloop
  endfacet
  facet normal  0.000000e+000 -9.999999e-001 -5.178785e-017
    outer loop
      vertex  1.212203e+003  0.000000e+000  0.000000e+000
      vertex  1.194091e+003 -4.246603e-016  8.200000e+000
      vertex  0.000000e+000  0.000000e+000  0.000000e+000
    endloop
  endfacet
  facet normal  0.000000e+000 -9.999999e-001  0.000000e+000
    outer loop
      vertex  6.358104e+002  0.000000e+000  1.000000e+001
      vertex  6.352832e+002  0.000000e+000  8.727208e+000
      vertex  7.722307e+002  0.000000e+000  1.000000e+001
    endloop
  endfacet
  facet normal -7.658059e-018 -1.000000e+000  8.239773e-016
    outer loop
      vertex  7.722307e+002  0.000000e+000  1.000000e+001
      vertex  6.352832e+002  0.000000e+000  8.727208e+000
      vertex  6.340104e+002 -4.246603e-016  8.200000e+000
    endloop
  endfacet
  facet normal  3.055862e-018 -1.000000e+000  1.265647e-018
    outer loop
      vertex  7.722307e+002  0.000000e+000  1.000000e+001
      vertex  6.340104e+002 -4.246603e-016  8.200000e+000
      vertex  7.727578e+002  0.000000e+000  8.727208e+000
    endloop
  endfacet
  facet normal  4.612597e-018 -1.000000e+000 -4.084262e-016
    outer loop
      vertex  7.727578e+002  0.000000e+000  8.727208e+000
      vertex  6.340104e+002 -4.246603e-016  8.200000e+000
      vertex  0.000000e+000  0.000000e+000  0.000000e+000
    endloop
  endfacet
  facet normal -8.855404e-018 -1.000000e+000  7.841090e-016
    outer loop
      vertex  7.727578e+002  0.000000e+000  8.727208e+000
      vertex  0.000000e+000  0.000000e+000  0.000000e+000
      vertex  7.740306e+002 -4.246603e-016  8.200000e+000
    endloop
  endfacet
  facet normal  0.000000e+000 -1.000000e+000  0.000000e+000
    outer loop
      vertex  7.758306e+002  0.000000e+000  1.000000e+001
      vertex  7.753034e+002  0.000000e+000  8.727208e+000
      vertex  9.122509e+002  0.000000e+000  1.000000e+001
    endloop
  endfacet
  facet normal -7.658051e-018 -1.000000e+000  8.239764e-016
    outer loop
      vertex  9.122509e+002  0.000000e+000  1.000000e+001
      vertex  7.753034e+002  0.000000e+000  8.727208e+000
      vertex  7.740306e+002 -4.246603e-016  8.200000e+000
    endloop
  endfacet
  facet normal  3.055862e-018 -1.000000e+000  1.265800e-018
    outer loop
      vertex  9.122509e+002  0.000000e+000  1.000000e+001
      vertex  7.740306e+002 -4.246603e-016  8.200000e+000
      vertex  9.127781e+002  0.000000e+000  8.727208e+000
    endloop
  endfacet
  facet normal  5.079259e-018 -1.000000e+000 -5.312393e-016
    outer loop
      vertex  9.127781e+002  0.000000e+000  8.727208e+000
      vertex  7.740306e+002 -4.246603e-016  8.200000e+000
      vertex  0.000000e+000  0.000000e+000  0.000000e+000
    endloop
  endfacet
  facet normal -7.527641e-018 -1.000000e+000  7.873155e-016
    outer loop
      vertex  9.127781e+002  0.000000e+000  8.727208e+000
      vertex  0.000000e+000  0.000000e+000  0.000000e+000
      vertex  9.140509e+002 -4.246603e-016  8.200000e+000
    endloop
  endfacet
  facet normal  0.000000e+000 -1.000000e+000  0.000000e+000
    outer loop
      vertex  9.158509e+002  0.000000e+000  1.000000e+001
      vertex  9.153237e+002  0.000000e+000  8.727208e+000
      vertex  1.052271e+003  0.000000e+000  1.000000e+001
    endloop
  endfacet
  facet normal -7.658051e-018 -1.000000e+000  8.239764e-016
    outer loop
      vertex  1.052271e+003  0.000000e+000  1.000000e+001
      vertex  9.153237e+002  0.000000e+000  8.727208e+000
      vertex  9.140509e+002 -4.246603e-016  8.200000e+000
    endloop
  endfacet
  facet normal  3.055862e-018 -1.000000e+000  1.265800e-018
    outer loop
      vertex  1.052271e+003  0.000000e+000  1.000000e+001
      vertex  9.140509e+002 -4.246603e-016  8.200000e+000
      vertex  1.052798e+003  0.000000e+000  8.727208e+000
    endloop
  endfacet
  facet normal  5.650973e-018 -1.000000e+000 -6.816997e-016
    outer loop
      vertex  1.052798e+003  0.000000e+000  8.727208e+000
      vertex  9.140509e+002 -4.246603e-016  8.200000e+000
      vertex  0.000000e+000  0.000000e+000  0.000000e+000
    endloop
  endfacet
  facet normal -6.546116e-018 -1.000000e+000  7.896844e-016
    outer loop
      vertex  1.052798e+003  0.000000e+000  8.727208e+000
      vertex  0.000000e+000  0.000000e+000  0.000000e+000
      vertex  1.054071e+003 -4.246603e-016  8.200000e+000
    endloop
  endfacet
  facet normal  0.000000e+000 -9.999999e-001  0.000000e+000
    outer loop
      vertex  1.055871e+003  0.000000e+000  1.000000e+001
      vertex  1.055344e+003  0.000000e+000  8.727208e+000
      vertex  1.192291e+003  0.000000e+000  1.000000e+001
    endloop
  endfacet
  facet normal -7.658039e-018 -1.000000e+000  8.239756e-016
    outer loop
      vertex  1.192291e+003  0.000000e+000  1.000000e+001
      vertex  1.055344e+003  0.000000e+000  8.727208e+000
      vertex  1.054071e+003 -4.246603e-016  8.200000e+000
    endloop
  endfacet
  facet normal  3.055862e-018 -1.000000e+000  1.265800e-018
    outer loop
      vertex  1.192291e+003  0.000000e+000  1.000000e+001
      vertex  1.054071e+003 -4.246603e-016  8.200000e+000
      vertex  1.192819e+003  0.000000e+000  8.727208e+000
    endloop
  endfacet
  facet normal  6.367716e-018 -1.000000e+000 -8.703275e-016
    outer loop
      vertex  1.192819e+003  0.000000e+000  8.727208e+000
      vertex  1.054071e+003 -4.246603e-016  8.200000e+000
      vertex  0.000000e+000  0.000000e+000  0.000000e+000
    endloop
  endfacet
  facet normal -5.791036e-018 -1.000000e+000  7.915080e-016
    outer loop
      vertex  1.192819e+003  0.000000e+000  8.727208e+000
      vertex  0.000000e+000  0.000000e+000  0.000000e+000
      vertex  1.194091e+003 -4.246603e-016  8.200000e+000
    endloop
  endfacet
  facet normal  0.000000e+000 -9.999999e-001  0.000000e+000
    outer loop
      vertex  6.358104e+002  0.000000e+000  1.000000e+001
      vertex  7.722307e+002  0.000000e+000  1.000000e+001
      vertex  6.352832e+002  0.000000e+000  1.127279e+001
    endloop
  endfacet
  facet normal  0.000000e+000 -1.000000e+000  0.000000e+000
    outer loop
      vertex  6.352832e+002  0.000000e+000  1.127279e+001
      vertex  7.722307e+002  0.000000e+000  1.000000e+001
      vertex  7.727578e+002  0.000000e+000  1.127279e+001
    endloop
  endfacet
  facet normal  0.000000e+000 -1.000000e+000  8.054886e-016
    outer loop
      vertex  6.352832e+002  0.000000e+000  1.127279e+001
      vertex  7.727578e+002  0.000000e+000  1.127279e+001
      vertex  6.340104e+002  4.246603e-016  1.180000e+001
    endloop
  endfacet
  facet normal  0.000000e+000 -9.999999e-001  8.054886e-016
    outer loop
      vertex  6.340104e+002  4.246603e-016  1.180000e+001
      vertex  7.727578e+002  0.000000e+000  1.127279e+001
      vertex  7.740306e+002  4.246603e-016  1.180000e+001
    endloop
  endfacet
  facet normal  -0.000000e+000 -1.000000e+000 -5.178784e-017
    outer loop
      vertex  6.340104e+002  4.246603e-016  1.180000e+001
      vertex  7.740306e+002  4.246603e-016  1.180000e+001
      vertex  0.000000e+000  0.000000e+000  2.000000e+001
    endloop
  endfacet
  facet normal  0.000000e+000 -1.000000e+000  0.000000e+000
    outer loop
      vertex  7.758306e+002  0.000000e+000  1.000000e+001
      vertex  9.122509e+002  0.000000e+000  1.000000e+001
      vertex  7.753034e+002  0.000000e+000  1.127279e+001
    endloop
  endfacet
  facet normal  0.000000e+000 -9.999999e-001  0.000000e+000
    outer loop
      vertex  7.753034e+002  0.000000e+000  1.127279e+001
      vertex  9.122509e+002  0.000000e+000  1.000000e+001
      vertex  9.127781e+002  0.000000e+000  1.127279e+001
    endloop
  endfacet
  facet normal  0.000000e+000 -1.000000e+000  8.054886e-016
    outer loop
      vertex  7.753034e+002  0.000000e+000  1.127279e+001
      vertex  9.127781e+002  0.000000e+000  1.127279e+001
      vertex  7.740306e+002  4.246603e-016  1.180000e+001
    endloop
  endfacet
  facet normal  0.000000e+000 -9.999999e-001  8.054886e-016
    outer loop
      vertex  7.740306e+002  4.246603e-016  1.180000e+001
      vertex  9.127781e+002  0.000000e+000  1.127279e+001
      vertex  9.140509e+002  4.246603e-016  1.180000e+001
    endloop
  endfacet
  facet normal  -0.000000e+000 -1.000000e+000 -5.178784e-017
    outer loop
      vertex  7.740306e+002  4.246603e-016  1.180000e+001
      vertex  9.140509e+002  4.246603e-016  1.180000e+001
      vertex  0.000000e+000  0.000000e+000  2.000000e+001
    endloop
  endfacet
  facet normal  0.000000e+000 -1.000000e+000  0.000000e+000
    outer loop
      vertex  9.158509e+002  0.000000e+000  1.000000e+001
      vertex  1.052271e+003  0.000000e+000  1.000000e+001
      vertex  9.153237e+002  0.000000e+000  1.127279e+001
    endloop
  endfacet
  facet normal  0.000000e+000 -9.999999e-001  0.000000e+000
    outer loop
      vertex  9.153237e+002  0.000000e+000  1.127279e+001
      vertex  1.052271e+003  0.000000e+000  1.000000e+001
      vertex  1.052798e+003  0.000000e+000  1.127279e+001
    endloop
  endfacet
  facet normal  0.000000e+000 -1.000000e+000  8.054886e-016
    outer loop
      vertex  9.153237e+002  0.000000e+000  1.127279e+001
      vertex  1.052798e+003  0.000000e+000  1.127279e+001
      vertex  9.140509e+002  4.246603e-016  1.180000e+001
    endloop
  endfacet
  facet normal  0.000000e+000 -9.999999e-001  8.054886e-016
    outer loop
      vertex  9.140509e+002  4.246603e-016  1.180000e+001
      vertex  1.052798e+003  0.000000e+000  1.127279e+001
      vertex  1.054071e+003  4.246603e-016  1.180000e+001
    endloop
  endfacet
  facet normal  -0.000000e+000 -1.000000e+000 -5.178784e-017
    outer loop
      vertex  9.140509e+002  4.246603e-016  1.180000e+001
      vertex  1.054071e+003  4.246603e-016  1.180000e+001
      vertex  0.000000e+000  0.000000e+000  2.000000e+001
    endloop
  endfacet
  facet normal  0.000000e+000 -9.999999e-001  0.000000e+000
    outer loop
      vertex  1.055871e+003  0.000000e+000  1.000000e+001
      vertex  1.192291e+003  0.000000e+000  1.000000e+001
      vertex  1.055344e+003  0.000000e+000  1.127279e+001
    endloop
  endfacet
  facet normal  0.000000e+000 -1.000000e+000  0.000000e+000
    outer loop
      vertex  1.055344e+003  0.000000e+000  1.127279e+001
      vertex  1.192291e+003  0.000000e+000  1.000000e+001
      vertex  1.192819e+003  0.000000e+000  1.127279e+001
    endloop
  endfacet
  facet normal  0.000000e+000 -1.000000e+000  8.054887e-016
    outer loop
      vertex  1.055344e+003  0.000000e+000  1.127279e+001
      vertex  1.192819e+003  0.000000e+000  1.127279e+001
      vertex  1.054071e+003  4.246603e-016  1.180000e+001
    endloop
  endfacet
  facet normal  0.000000e+000 -9.999999e-001  8.054886e-016
    outer loop
      vertex  1.054071e+003  4.246603e-016  1.180000e+001
      vertex  1.192819e+003  0.000000e+000  1.127279e+001
      vertex  1.194091e+003  4.246603e-016  1.180000e+001
    endloop
  endfacet
  facet normal  -0.000000e+000 -1.000000e+000 -5.178784e-017
    outer loop
      vertex  1.054071e+003  4.246603e-016  1.180000e+001
      vertex  1.194091e+003  4.246603e-016  1.180000e+001
      vertex  0.000000e+000  0.000000e+000  2.000000e+001
    endloop
  endfacet
  facet normal  8.660095e-001  0.000000e+000 -5.000275e-001
    outer loop
      vertex  1.212203e+003  2.000000e+001  0.000000e+000
      vertex  1.213069e+003  2.000000e+001  1.500000e+000
      vertex  1.212203e+003  0.000000e+000  0.000000e+000
    endloop
  endfacet
  facet normal  8.660096e-001  0.000000e+000 -5.000275e-001
    outer loop
      vertex  1.212203e+003  0.000000e+000  0.000000e+000
      vertex  1.213069e+003  2.000000e+001  1.500000e+000
      vertex  1.213069e+003  1.500000e+000  1.500000e+000
    endloop
  endfacet
  facet normal  8.660256e-001 -3.700060e-005 -4.999997e-001
    outer loop
      vertex  1.212203e+003  0.000000e+000  0.000000e+000
      vertex  1.213069e+003  1.500000e+000  1.500000e+000
      vertex  1.223750e+003  0.000000e+000  2.000000e+001
    endloop
  endfacet
  facet normal  8.660269e-001  0.000000e+000 -4.999975e-001
    outer loop
      vertex  1.223750e+003  0.000000e+000  2.000000e+001
      vertex  1.213069e+003  1.500000e+000  1.500000e+000
      vertex  1.223750e+003  1.500000e+000  2.000000e+001
    endloop
  endfacet
  facet normal  -0.000000e+000  0.000000e+000 -9.999999e-001
    outer loop
      vertex  0.000000e+000  2.000000e+001  0.000000e+000
      vertex  1.212203e+003  2.000000e+001  0.000000e+000
      vertex  0.000000e+000  0.000000e+000  0.000000e+000
    endloop
  endfacet
  facet normal  0.000000e+000  0.000000e+000 -9.999999e-001
    outer loop
      vertex  0.000000e+000  0.000000e+000  0.000000e+000
      vertex  1.212203e+003  2.000000e+001  0.000000e+000
      vertex  1.212203e+003  0.000000e+000  0.000000e+000
    endloop
  endfacet
  facet normal  0.000000e+000  1.000000e+000  0.000000e+000
    outer loop
      vertex  0.000000e+000  2.000000e+001  1.500000e+000
      vertex  1.213069e+003  2.000000e+001  1.500000e+000
      vertex  0.000000e+000  2.000000e+001  0.000000e+000
    endloop
  endfacet
  facet normal  0.000000e+000  1.000000e+000  0.000000e+000
    outer loop
      vertex  0.000000e+000  2.000000e+001  0.000000e+000
      vertex  1.213069e+003  2.000000e+001  1.500000e+000
      vertex  1.212203e+003  2.000000e+001  0.000000e+000
    endloop
  endfacet
  facet normal  0.000000e+000  0.000000e+000  1.000000e+000
    outer loop
      vertex  0.000000e+000  1.500000e+000  1.500000e+000
      vertex  1.213069e+003  1.500000e+000  1.500000e+000
      vertex  0.000000e+000  2.000000e+001  1.500000e+000
    endloop
  endfacet
  facet normal  -0.000000e+000  0.000000e+000  1.000000e+000
    outer loop
      vertex  0.000000e+000  2.000000e+001  1.500000e+000
      vertex  1.213069e+003  1.500000e+000  1.500000e+000
      vertex  1.213069e+003  2.000000e+001  1.500000e+000
    endloop
  endfacet
  facet normal  0.000000e+000  0.000000e+000  1.000000e+000
    outer loop
      vertex  0.000000e+000  0.000000e+000  2.000000e+001
      vertex  1.223750e+003  0.000000e+000  2.000000e+001
      vertex  0.000000e+000  1.500000e+000  2.000000e+001
    endloop
  endfacet
  facet normal  -0.000000e+000  0.000000e+000  1.000000e+000
    outer loop
      vertex  0.000000e+000  1.500000e+000  2.000000e+001
      vertex  1.223750e+003  0.000000e+000  2.000000e+001
      vertex  1.223750e+003  1.500000e+000  2.000000e+001
    endloop
  endfacet
  facet normal -1.000000e+000  0.000000e+000  0.000000e+000
    outer loop
      vertex  0.000000e+000  1.500000e+000  2.000000e+001
      vertex  0.000000e+000  1.500000e+000  1.500000e+000
      vertex  0.000000e+000  0.000000e+000  2.000000e+001
    endloop
  endfacet
  facet normal -1.000000e+000  0.000000e+000  0.000000e+000
    outer loop
      vertex  0.000000e+000  0.000000e+000  2.000000e+001
      vertex  0.000000e+000  1.500000e+000  1.500000e+000
      vertex  0.000000e+000  0.000000e+000  0.000000e+000
    endloop
  endfacet
  facet normal -1.000000e+000  -0.000000e+000  0.000000e+000
    outer loop
      vertex  0.000000e+000  1.500000e+000  1.500000e+000
      vertex  0.000000e+000  2.000000e+001  1.500000e+000
      vertex  0.000000e+000  0.000000e+000  0.000000e+000
    endloop
  endfacet
  facet normal -1.000000e+000  0.000000e+000  0.000000e+000
    outer loop
      vertex  0.000000e+000  0.000000e+000  0.000000e+000
      vertex  0.000000e+000  2.000000e+001  1.500000e+000
      vertex  0.000000e+000  2.000000e+001  0.000000e+000
    endloop
  endfacet
endsolid CATIA STL
