solid CATIA STL
  facet normal  9.238799e-001  3.826827e-001  0.000000e+000
    outer loop
      vertex  2.594470e+001  1.000665e+001  0.000000e+000
      vertex  2.647191e+001  8.733857e+000  1.500000e+000
      vertex  2.647191e+001  8.733857e+000  0.000000e+000
    endloop
  endfacet
  facet normal  3.826836e-001  9.238794e-001  -0.000000e+000
    outer loop
      vertex  2.647191e+001  8.733857e+000  0.000000e+000
      vertex  2.647191e+001  8.733857e+000  1.500000e+000
      vertex  2.774470e+001  8.206649e+000  1.500000e+000
    endloop
  endfacet
  facet normal  3.826836e-001  9.238794e-001  0.000000e+000
    outer loop
      vertex  2.647191e+001  8.733857e+000  0.000000e+000
      vertex  2.774470e+001  8.206649e+000  1.500000e+000
      vertex  2.774470e+001  8.206649e+000 -4.596323e-015
    endloop
  endfacet
  facet normal  9.238799e-001  3.826827e-001  -0.000000e+000
    outer loop
      vertex  2.647191e+001  8.733857e+000  1.500000e+000
      vertex  2.594470e+001  1.000665e+001  0.000000e+000
      vertex  2.594470e+001  1.000665e+001  1.500000e+000
    endloop
  endfacet
  facet normal  9.238799e-001 -3.826827e-001  0.000000e+000
    outer loop
      vertex  2.594470e+001  1.000665e+001  1.500000e+000
      vertex  2.594470e+001  1.000665e+001  0.000000e+000
      vertex  2.647191e+001  1.127944e+001  0.000000e+000
    endloop
  endfacet
  facet normal  9.238799e-001 -3.826827e-001  0.000000e+000
    outer loop
      vertex  2.594470e+001  1.000665e+001  1.500000e+000
      vertex  2.647191e+001  1.127944e+001  0.000000e+000
      vertex  2.647191e+001  1.127944e+001  1.500000e+000
    endloop
  endfacet
  facet normal  3.826836e-001 -9.238794e-001  0.000000e+000
    outer loop
      vertex  2.647191e+001  1.127944e+001  1.500000e+000
      vertex  2.647191e+001  1.127944e+001  0.000000e+000
      vertex  2.774470e+001  1.180665e+001  4.596323e-015
    endloop
  endfacet
  facet normal  3.826836e-001 -9.238794e-001  0.000000e+000
    outer loop
      vertex  2.647191e+001  1.127944e+001  1.500000e+000
      vertex  2.774470e+001  1.180665e+001  4.596323e-015
      vertex  2.774470e+001  1.180665e+001  1.500000e+000
    endloop
  endfacet
  facet normal -9.238799e-001 -3.826827e-001  -0.000000e+000
    outer loop
      vertex  2.954470e+001  1.000665e+001  0.000000e+000
      vertex  2.901750e+001  1.127944e+001  1.500000e+000
      vertex  2.901750e+001  1.127944e+001  0.000000e+000
    endloop
  endfacet
  facet normal -3.826836e-001 -9.238794e-001  0.000000e+000
    outer loop
      vertex  2.901750e+001  1.127944e+001  0.000000e+000
      vertex  2.901750e+001  1.127944e+001  1.500000e+000
      vertex  2.774470e+001  1.180665e+001  1.500000e+000
    endloop
  endfacet
  facet normal -3.826836e-001 -9.238794e-001  -0.000000e+000
    outer loop
      vertex  2.901750e+001  1.127944e+001  0.000000e+000
      vertex  2.774470e+001  1.180665e+001  1.500000e+000
      vertex  2.774470e+001  1.180665e+001  4.596323e-015
    endloop
  endfacet
  facet normal -9.238799e-001 -3.826827e-001  0.000000e+000
    outer loop
      vertex  2.901750e+001  1.127944e+001  1.500000e+000
      vertex  2.954470e+001  1.000665e+001  0.000000e+000
      vertex  2.954470e+001  1.000665e+001  1.500000e+000
    endloop
  endfacet
  facet normal -9.238799e-001  3.826827e-001  0.000000e+000
    outer loop
      vertex  2.954470e+001  1.000665e+001  1.500000e+000
      vertex  2.954470e+001  1.000665e+001  0.000000e+000
      vertex  2.901750e+001  8.733857e+000  0.000000e+000
    endloop
  endfacet
  facet normal -9.238799e-001  3.826827e-001  0.000000e+000
    outer loop
      vertex  2.954470e+001  1.000665e+001  1.500000e+000
      vertex  2.901750e+001  8.733857e+000  0.000000e+000
      vertex  2.901750e+001  8.733857e+000  1.500000e+000
    endloop
  endfacet
  facet normal -3.826836e-001  9.238794e-001  0.000000e+000
    outer loop
      vertex  2.901750e+001  8.733857e+000  1.500000e+000
      vertex  2.901750e+001  8.733857e+000  0.000000e+000
      vertex  2.774470e+001  8.206649e+000 -4.596323e-015
    endloop
  endfacet
  facet normal -3.826836e-001  9.238794e-001  0.000000e+000
    outer loop
      vertex  2.901750e+001  8.733857e+000  1.500000e+000
      vertex  2.774470e+001  8.206649e+000 -4.596323e-015
      vertex  2.774470e+001  8.206649e+000  1.500000e+000
    endloop
  endfacet
  facet normal  9.238799e-001  3.826827e-001  0.000000e+000
    outer loop
      vertex  1.973733e+002  1.000665e+001  0.000000e+000
      vertex  1.979005e+002  8.733857e+000  1.500000e+000
      vertex  1.979005e+002  8.733857e+000  0.000000e+000
    endloop
  endfacet
  facet normal  3.826827e-001  9.238799e-001  -0.000000e+000
    outer loop
      vertex  1.979005e+002  8.733857e+000  0.000000e+000
      vertex  1.979005e+002  8.733857e+000  1.500000e+000
      vertex  1.991733e+002  8.206649e+000  1.500000e+000
    endloop
  endfacet
  facet normal  3.826827e-001  9.238799e-001  0.000000e+000
    outer loop
      vertex  1.979005e+002  8.733857e+000  0.000000e+000
      vertex  1.991733e+002  8.206649e+000  1.500000e+000
      vertex  1.991733e+002  8.206649e+000 -4.596323e-015
    endloop
  endfacet
  facet normal  9.238799e-001  3.826827e-001  -0.000000e+000
    outer loop
      vertex  1.979005e+002  8.733857e+000  1.500000e+000
      vertex  1.973733e+002  1.000665e+001  0.000000e+000
      vertex  1.973733e+002  1.000665e+001  1.500000e+000
    endloop
  endfacet
  facet normal  9.238799e-001 -3.826827e-001  0.000000e+000
    outer loop
      vertex  1.973733e+002  1.000665e+001  1.500000e+000
      vertex  1.973733e+002  1.000665e+001  0.000000e+000
      vertex  1.979005e+002  1.127944e+001  0.000000e+000
    endloop
  endfacet
  facet normal  9.238799e-001 -3.826827e-001  0.000000e+000
    outer loop
      vertex  1.973733e+002  1.000665e+001  1.500000e+000
      vertex  1.979005e+002  1.127944e+001  0.000000e+000
      vertex  1.979005e+002  1.127944e+001  1.500000e+000
    endloop
  endfacet
  facet normal  3.826827e-001 -9.238799e-001  0.000000e+000
    outer loop
      vertex  1.979005e+002  1.127944e+001  1.500000e+000
      vertex  1.979005e+002  1.127944e+001  0.000000e+000
      vertex  1.991733e+002  1.180665e+001  4.596323e-015
    endloop
  endfacet
  facet normal  3.826827e-001 -9.238799e-001  0.000000e+000
    outer loop
      vertex  1.979005e+002  1.127944e+001  1.500000e+000
      vertex  1.991733e+002  1.180665e+001  4.596323e-015
      vertex  1.991733e+002  1.180665e+001  1.500000e+000
    endloop
  endfacet
  facet normal -9.238759e-001 -3.826921e-001  -0.000000e+000
    outer loop
      vertex  2.009733e+002  1.000665e+001  0.000000e+000
      vertex  2.004461e+002  1.127944e+001  1.500000e+000
      vertex  2.004461e+002  1.127944e+001  0.000000e+000
    endloop
  endfacet
  facet normal -3.826866e-001 -9.238783e-001  0.000000e+000
    outer loop
      vertex  2.004461e+002  1.127944e+001  0.000000e+000
      vertex  2.004461e+002  1.127944e+001  1.500000e+000
      vertex  1.991733e+002  1.180665e+001  1.500000e+000
    endloop
  endfacet
  facet normal -3.826866e-001 -9.238783e-001  -0.000000e+000
    outer loop
      vertex  2.004461e+002  1.127944e+001  0.000000e+000
      vertex  1.991733e+002  1.180665e+001  1.500000e+000
      vertex  1.991733e+002  1.180665e+001  4.596323e-015
    endloop
  endfacet
  facet normal -9.238759e-001 -3.826921e-001  0.000000e+000
    outer loop
      vertex  2.004461e+002  1.127944e+001  1.500000e+000
      vertex  2.009733e+002  1.000665e+001  0.000000e+000
      vertex  2.009733e+002  1.000665e+001  1.500000e+000
    endloop
  endfacet
  facet normal -9.238759e-001  3.826921e-001  0.000000e+000
    outer loop
      vertex  2.009733e+002  1.000665e+001  1.500000e+000
      vertex  2.009733e+002  1.000665e+001  0.000000e+000
      vertex  2.004461e+002  8.733857e+000  0.000000e+000
    endloop
  endfacet
  facet normal -9.238759e-001  3.826921e-001  0.000000e+000
    outer loop
      vertex  2.009733e+002  1.000665e+001  1.500000e+000
      vertex  2.004461e+002  8.733857e+000  0.000000e+000
      vertex  2.004461e+002  8.733857e+000  1.500000e+000
    endloop
  endfacet
  facet normal -3.826866e-001  9.238783e-001  0.000000e+000
    outer loop
      vertex  2.004461e+002  8.733857e+000  1.500000e+000
      vertex  2.004461e+002  8.733857e+000  0.000000e+000
      vertex  1.991733e+002  8.206649e+000 -4.596323e-015
    endloop
  endfacet
  facet normal -3.826866e-001  9.238783e-001  0.000000e+000
    outer loop
      vertex  2.004461e+002  8.733857e+000  1.500000e+000
      vertex  1.991733e+002  8.206649e+000 -4.596323e-015
      vertex  1.991733e+002  8.206649e+000  1.500000e+000
    endloop
  endfacet
  facet normal  9.238837e-001  3.826732e-001  0.000000e+000
    outer loop
      vertex  3.688018e+002  1.000665e+001  0.000000e+000
      vertex  3.693290e+002  8.733857e+000  1.500000e+000
      vertex  3.693290e+002  8.733857e+000  0.000000e+000
    endloop
  endfacet
  facet normal  3.826827e-001  9.238799e-001  -0.000000e+000
    outer loop
      vertex  3.693290e+002  8.733857e+000  0.000000e+000
      vertex  3.693290e+002  8.733857e+000  1.500000e+000
      vertex  3.706018e+002  8.206649e+000  1.500000e+000
    endloop
  endfacet
  facet normal  3.826827e-001  9.238799e-001  0.000000e+000
    outer loop
      vertex  3.693290e+002  8.733857e+000  0.000000e+000
      vertex  3.706018e+002  8.206649e+000  1.500000e+000
      vertex  3.706018e+002  8.206649e+000 -4.596323e-015
    endloop
  endfacet
  facet normal  9.238837e-001  3.826732e-001  -0.000000e+000
    outer loop
      vertex  3.693290e+002  8.733857e+000  1.500000e+000
      vertex  3.688018e+002  1.000665e+001  0.000000e+000
      vertex  3.688018e+002  1.000665e+001  1.500000e+000
    endloop
  endfacet
  facet normal  9.238837e-001 -3.826732e-001  0.000000e+000
    outer loop
      vertex  3.688018e+002  1.000665e+001  1.500000e+000
      vertex  3.688018e+002  1.000665e+001  0.000000e+000
      vertex  3.693290e+002  1.127944e+001  0.000000e+000
    endloop
  endfacet
  facet normal  9.238837e-001 -3.826732e-001  0.000000e+000
    outer loop
      vertex  3.688018e+002  1.000665e+001  1.500000e+000
      vertex  3.693290e+002  1.127944e+001  0.000000e+000
      vertex  3.693290e+002  1.127944e+001  1.500000e+000
    endloop
  endfacet
  facet normal  3.826827e-001 -9.238799e-001  0.000000e+000
    outer loop
      vertex  3.693290e+002  1.127944e+001  1.500000e+000
      vertex  3.693290e+002  1.127944e+001  0.000000e+000
      vertex  3.706018e+002  1.180665e+001  4.596323e-015
    endloop
  endfacet
  facet normal  3.826827e-001 -9.238799e-001  0.000000e+000
    outer loop
      vertex  3.693290e+002  1.127944e+001  1.500000e+000
      vertex  3.706018e+002  1.180665e+001  4.596323e-015
      vertex  3.706018e+002  1.180665e+001  1.500000e+000
    endloop
  endfacet
  facet normal -9.238759e-001 -3.826921e-001  -0.000000e+000
    outer loop
      vertex  3.724019e+002  1.000665e+001  0.000000e+000
      vertex  3.718746e+002  1.127944e+001  1.500000e+000
      vertex  3.718746e+002  1.127944e+001  0.000000e+000
    endloop
  endfacet
  facet normal -3.826827e-001 -9.238799e-001  0.000000e+000
    outer loop
      vertex  3.718746e+002  1.127944e+001  0.000000e+000
      vertex  3.718746e+002  1.127944e+001  1.500000e+000
      vertex  3.706018e+002  1.180665e+001  1.500000e+000
    endloop
  endfacet
  facet normal -3.826827e-001 -9.238799e-001  -0.000000e+000
    outer loop
      vertex  3.718746e+002  1.127944e+001  0.000000e+000
      vertex  3.706018e+002  1.180665e+001  1.500000e+000
      vertex  3.706018e+002  1.180665e+001  4.596323e-015
    endloop
  endfacet
  facet normal -9.238759e-001 -3.826921e-001  0.000000e+000
    outer loop
      vertex  3.718746e+002  1.127944e+001  1.500000e+000
      vertex  3.724019e+002  1.000665e+001  0.000000e+000
      vertex  3.724019e+002  1.000665e+001  1.500000e+000
    endloop
  endfacet
  facet normal -9.238759e-001  3.826921e-001  0.000000e+000
    outer loop
      vertex  3.724019e+002  1.000665e+001  1.500000e+000
      vertex  3.724019e+002  1.000665e+001  0.000000e+000
      vertex  3.718746e+002  8.733857e+000  0.000000e+000
    endloop
  endfacet
  facet normal -9.238759e-001  3.826921e-001  0.000000e+000
    outer loop
      vertex  3.724019e+002  1.000665e+001  1.500000e+000
      vertex  3.718746e+002  8.733857e+000  0.000000e+000
      vertex  3.718746e+002  8.733857e+000  1.500000e+000
    endloop
  endfacet
  facet normal -3.826827e-001  9.238799e-001  0.000000e+000
    outer loop
      vertex  3.718746e+002  8.733857e+000  1.500000e+000
      vertex  3.718746e+002  8.733857e+000  0.000000e+000
      vertex  3.706018e+002  8.206649e+000 -4.596323e-015
    endloop
  endfacet
  facet normal -3.826827e-001  9.238799e-001  0.000000e+000
    outer loop
      vertex  3.718746e+002  8.733857e+000  1.500000e+000
      vertex  3.706018e+002  8.206649e+000 -4.596323e-015
      vertex  3.706018e+002  8.206649e+000  1.500000e+000
    endloop
  endfacet
  facet normal  9.238759e-001  3.826921e-001  0.000000e+000
    outer loop
      vertex  5.402304e+002  1.000665e+001  0.000000e+000
      vertex  5.407576e+002  8.733857e+000  1.500000e+000
      vertex  5.407576e+002  8.733857e+000  0.000000e+000
    endloop
  endfacet
  facet normal  3.826905e-001  9.238766e-001  -0.000000e+000
    outer loop
      vertex  5.407576e+002  8.733857e+000  0.000000e+000
      vertex  5.407576e+002  8.733857e+000  1.500000e+000
      vertex  5.420304e+002  8.206649e+000  1.500000e+000
    endloop
  endfacet
  facet normal  3.826905e-001  9.238766e-001  0.000000e+000
    outer loop
      vertex  5.407576e+002  8.733857e+000  0.000000e+000
      vertex  5.420304e+002  8.206649e+000  1.500000e+000
      vertex  5.420304e+002  8.206649e+000 -4.596323e-015
    endloop
  endfacet
  facet normal  9.238759e-001  3.826921e-001  -0.000000e+000
    outer loop
      vertex  5.407576e+002  8.733857e+000  1.500000e+000
      vertex  5.402304e+002  1.000665e+001  0.000000e+000
      vertex  5.402304e+002  1.000665e+001  1.500000e+000
    endloop
  endfacet
  facet normal  9.238759e-001 -3.826921e-001  0.000000e+000
    outer loop
      vertex  5.402304e+002  1.000665e+001  1.500000e+000
      vertex  5.402304e+002  1.000665e+001  0.000000e+000
      vertex  5.407576e+002  1.127944e+001  0.000000e+000
    endloop
  endfacet
  facet normal  9.238759e-001 -3.826921e-001  0.000000e+000
    outer loop
      vertex  5.402304e+002  1.000665e+001  1.500000e+000
      vertex  5.407576e+002  1.127944e+001  0.000000e+000
      vertex  5.407576e+002  1.127944e+001  1.500000e+000
    endloop
  endfacet
  facet normal  3.826905e-001 -9.238766e-001  0.000000e+000
    outer loop
      vertex  5.407576e+002  1.127944e+001  1.500000e+000
      vertex  5.407576e+002  1.127944e+001  0.000000e+000
      vertex  5.420304e+002  1.180665e+001  4.596323e-015
    endloop
  endfacet
  facet normal  3.826905e-001 -9.238766e-001  0.000000e+000
    outer loop
      vertex  5.407576e+002  1.127944e+001  1.500000e+000
      vertex  5.420304e+002  1.180665e+001  4.596323e-015
      vertex  5.420304e+002  1.180665e+001  1.500000e+000
    endloop
  endfacet
  facet normal -9.238759e-001 -3.826921e-001  -0.000000e+000
    outer loop
      vertex  5.438304e+002  1.000665e+001  0.000000e+000
      vertex  5.433032e+002  1.127944e+001  1.500000e+000
      vertex  5.433032e+002  1.127944e+001  0.000000e+000
    endloop
  endfacet
  facet normal -3.826748e-001 -9.238831e-001  0.000000e+000
    outer loop
      vertex  5.433032e+002  1.127944e+001  0.000000e+000
      vertex  5.433032e+002  1.127944e+001  1.500000e+000
      vertex  5.420304e+002  1.180665e+001  1.500000e+000
    endloop
  endfacet
  facet normal -3.826748e-001 -9.238831e-001  -0.000000e+000
    outer loop
      vertex  5.433032e+002  1.127944e+001  0.000000e+000
      vertex  5.420304e+002  1.180665e+001  1.500000e+000
      vertex  5.420304e+002  1.180665e+001  4.596323e-015
    endloop
  endfacet
  facet normal -9.238759e-001 -3.826921e-001  0.000000e+000
    outer loop
      vertex  5.433032e+002  1.127944e+001  1.500000e+000
      vertex  5.438304e+002  1.000665e+001  0.000000e+000
      vertex  5.438304e+002  1.000665e+001  1.500000e+000
    endloop
  endfacet
  facet normal -9.238759e-001  3.826921e-001  0.000000e+000
    outer loop
      vertex  5.438304e+002  1.000665e+001  1.500000e+000
      vertex  5.438304e+002  1.000665e+001  0.000000e+000
      vertex  5.433032e+002  8.733857e+000  0.000000e+000
    endloop
  endfacet
  facet normal -9.238759e-001  3.826921e-001  0.000000e+000
    outer loop
      vertex  5.438304e+002  1.000665e+001  1.500000e+000
      vertex  5.433032e+002  8.733857e+000  0.000000e+000
      vertex  5.433032e+002  8.733857e+000  1.500000e+000
    endloop
  endfacet
  facet normal -3.826748e-001  9.238831e-001  0.000000e+000
    outer loop
      vertex  5.433032e+002  8.733857e+000  1.500000e+000
      vertex  5.433032e+002  8.733857e+000  0.000000e+000
      vertex  5.420304e+002  8.206649e+000 -4.596323e-015
    endloop
  endfacet
  facet normal -3.826748e-001  9.238831e-001  0.000000e+000
    outer loop
      vertex  5.433032e+002  8.733857e+000  1.500000e+000
      vertex  5.420304e+002  8.206649e+000 -4.596323e-015
      vertex  5.420304e+002  8.206649e+000  1.500000e+000
    endloop
  endfacet
  facet normal  9.238759e-001  3.826921e-001  0.000000e+000
    outer loop
      vertex  7.116590e+002  1.000665e+001  0.000000e+000
      vertex  7.121862e+002  8.733857e+000  1.500000e+000
      vertex  7.121862e+002  8.733857e+000  0.000000e+000
    endloop
  endfacet
  facet normal  3.826905e-001  9.238766e-001  -0.000000e+000
    outer loop
      vertex  7.121862e+002  8.733857e+000  0.000000e+000
      vertex  7.121862e+002  8.733857e+000  1.500000e+000
      vertex  7.134590e+002  8.206649e+000  1.500000e+000
    endloop
  endfacet
  facet normal  3.826905e-001  9.238766e-001  0.000000e+000
    outer loop
      vertex  7.121862e+002  8.733857e+000  0.000000e+000
      vertex  7.134590e+002  8.206649e+000  1.500000e+000
      vertex  7.134590e+002  8.206649e+000 -4.596323e-015
    endloop
  endfacet
  facet normal  9.238759e-001  3.826921e-001  -0.000000e+000
    outer loop
      vertex  7.121862e+002  8.733857e+000  1.500000e+000
      vertex  7.116590e+002  1.000665e+001  0.000000e+000
      vertex  7.116590e+002  1.000665e+001  1.500000e+000
    endloop
  endfacet
  facet normal  9.238759e-001 -3.826921e-001  0.000000e+000
    outer loop
      vertex  7.116590e+002  1.000665e+001  1.500000e+000
      vertex  7.116590e+002  1.000665e+001  0.000000e+000
      vertex  7.121862e+002  1.127944e+001  0.000000e+000
    endloop
  endfacet
  facet normal  9.238759e-001 -3.826921e-001  0.000000e+000
    outer loop
      vertex  7.116590e+002  1.000665e+001  1.500000e+000
      vertex  7.121862e+002  1.127944e+001  0.000000e+000
      vertex  7.121862e+002  1.127944e+001  1.500000e+000
    endloop
  endfacet
  facet normal  3.826905e-001 -9.238766e-001  0.000000e+000
    outer loop
      vertex  7.121862e+002  1.127944e+001  1.500000e+000
      vertex  7.121862e+002  1.127944e+001  0.000000e+000
      vertex  7.134590e+002  1.180665e+001  4.596323e-015
    endloop
  endfacet
  facet normal  3.826905e-001 -9.238766e-001  0.000000e+000
    outer loop
      vertex  7.121862e+002  1.127944e+001  1.500000e+000
      vertex  7.134590e+002  1.180665e+001  4.596323e-015
      vertex  7.134590e+002  1.180665e+001  1.500000e+000
    endloop
  endfacet
  facet normal -9.238916e-001 -3.826543e-001  -0.000000e+000
    outer loop
      vertex  7.152590e+002  1.000665e+001  0.000000e+000
      vertex  7.147318e+002  1.127944e+001  1.500000e+000
      vertex  7.147318e+002  1.127944e+001  0.000000e+000
    endloop
  endfacet
  facet normal -3.826748e-001 -9.238831e-001  0.000000e+000
    outer loop
      vertex  7.147318e+002  1.127944e+001  0.000000e+000
      vertex  7.147318e+002  1.127944e+001  1.500000e+000
      vertex  7.134590e+002  1.180665e+001  1.500000e+000
    endloop
  endfacet
  facet normal -3.826748e-001 -9.238831e-001  -0.000000e+000
    outer loop
      vertex  7.147318e+002  1.127944e+001  0.000000e+000
      vertex  7.134590e+002  1.180665e+001  1.500000e+000
      vertex  7.134590e+002  1.180665e+001  4.596323e-015
    endloop
  endfacet
  facet normal -9.238916e-001 -3.826543e-001  0.000000e+000
    outer loop
      vertex  7.147318e+002  1.127944e+001  1.500000e+000
      vertex  7.152590e+002  1.000665e+001  0.000000e+000
      vertex  7.152590e+002  1.000665e+001  1.500000e+000
    endloop
  endfacet
  facet normal -9.238916e-001  3.826543e-001  0.000000e+000
    outer loop
      vertex  7.152590e+002  1.000665e+001  1.500000e+000
      vertex  7.152590e+002  1.000665e+001  0.000000e+000
      vertex  7.147318e+002  8.733857e+000  0.000000e+000
    endloop
  endfacet
  facet normal -9.238916e-001  3.826543e-001  0.000000e+000
    outer loop
      vertex  7.152590e+002  1.000665e+001  1.500000e+000
      vertex  7.147318e+002  8.733857e+000  0.000000e+000
      vertex  7.147318e+002  8.733857e+000  1.500000e+000
    endloop
  endfacet
  facet normal -3.826748e-001  9.238831e-001  0.000000e+000
    outer loop
      vertex  7.147318e+002  8.733857e+000  1.500000e+000
      vertex  7.147318e+002  8.733857e+000  0.000000e+000
      vertex  7.134590e+002  8.206649e+000 -4.596323e-015
    endloop
  endfacet
  facet normal -3.826748e-001  9.238831e-001  0.000000e+000
    outer loop
      vertex  7.147318e+002  8.733857e+000  1.500000e+000
      vertex  7.134590e+002  8.206649e+000 -4.596323e-015
      vertex  7.134590e+002  8.206649e+000  1.500000e+000
    endloop
  endfacet
  facet normal  9.238916e-001  3.826543e-001  0.000000e+000
    outer loop
      vertex  8.830876e+002  1.000665e+001  0.000000e+000
      vertex  8.836147e+002  8.733857e+000  1.500000e+000
      vertex  8.836147e+002  8.733857e+000  0.000000e+000
    endloop
  endfacet
  facet normal  3.826748e-001  9.238831e-001  -0.000000e+000
    outer loop
      vertex  8.836147e+002  8.733857e+000  0.000000e+000
      vertex  8.836147e+002  8.733857e+000  1.500000e+000
      vertex  8.848876e+002  8.206649e+000  1.500000e+000
    endloop
  endfacet
  facet normal  3.826748e-001  9.238831e-001  0.000000e+000
    outer loop
      vertex  8.836147e+002  8.733857e+000  0.000000e+000
      vertex  8.848876e+002  8.206649e+000  1.500000e+000
      vertex  8.848876e+002  8.206649e+000 -4.596323e-015
    endloop
  endfacet
  facet normal  9.238916e-001  3.826543e-001  -0.000000e+000
    outer loop
      vertex  8.836147e+002  8.733857e+000  1.500000e+000
      vertex  8.830876e+002  1.000665e+001  0.000000e+000
      vertex  8.830876e+002  1.000665e+001  1.500000e+000
    endloop
  endfacet
  facet normal  9.238916e-001 -3.826543e-001  0.000000e+000
    outer loop
      vertex  8.830876e+002  1.000665e+001  1.500000e+000
      vertex  8.830876e+002  1.000665e+001  0.000000e+000
      vertex  8.836147e+002  1.127944e+001  0.000000e+000
    endloop
  endfacet
  facet normal  9.238916e-001 -3.826543e-001  0.000000e+000
    outer loop
      vertex  8.830876e+002  1.000665e+001  1.500000e+000
      vertex  8.836147e+002  1.127944e+001  0.000000e+000
      vertex  8.836147e+002  1.127944e+001  1.500000e+000
    endloop
  endfacet
  facet normal  3.826748e-001 -9.238831e-001  0.000000e+000
    outer loop
      vertex  8.836147e+002  1.127944e+001  1.500000e+000
      vertex  8.836147e+002  1.127944e+001  0.000000e+000
      vertex  8.848876e+002  1.180665e+001  4.596323e-015
    endloop
  endfacet
  facet normal  3.826748e-001 -9.238831e-001  0.000000e+000
    outer loop
      vertex  8.836147e+002  1.127944e+001  1.500000e+000
      vertex  8.848876e+002  1.180665e+001  4.596323e-015
      vertex  8.848876e+002  1.180665e+001  1.500000e+000
    endloop
  endfacet
  facet normal -9.238759e-001 -3.826921e-001  -0.000000e+000
    outer loop
      vertex  8.866876e+002  1.000665e+001  0.000000e+000
      vertex  8.861603e+002  1.127944e+001  1.500000e+000
      vertex  8.861603e+002  1.127944e+001  0.000000e+000
    endloop
  endfacet
  facet normal -3.826905e-001 -9.238766e-001  0.000000e+000
    outer loop
      vertex  8.861603e+002  1.127944e+001  0.000000e+000
      vertex  8.861603e+002  1.127944e+001  1.500000e+000
      vertex  8.848876e+002  1.180665e+001  1.500000e+000
    endloop
  endfacet
  facet normal -3.826905e-001 -9.238766e-001  -0.000000e+000
    outer loop
      vertex  8.861603e+002  1.127944e+001  0.000000e+000
      vertex  8.848876e+002  1.180665e+001  1.500000e+000
      vertex  8.848876e+002  1.180665e+001  4.596323e-015
    endloop
  endfacet
  facet normal -9.238759e-001 -3.826921e-001  0.000000e+000
    outer loop
      vertex  8.861603e+002  1.127944e+001  1.500000e+000
      vertex  8.866876e+002  1.000665e+001  0.000000e+000
      vertex  8.866876e+002  1.000665e+001  1.500000e+000
    endloop
  endfacet
  facet normal -9.238759e-001  3.826921e-001  0.000000e+000
    outer loop
      vertex  8.866876e+002  1.000665e+001  1.500000e+000
      vertex  8.866876e+002  1.000665e+001  0.000000e+000
      vertex  8.861603e+002  8.733857e+000  0.000000e+000
    endloop
  endfacet
  facet normal -9.238759e-001  3.826921e-001  0.000000e+000
    outer loop
      vertex  8.866876e+002  1.000665e+001  1.500000e+000
      vertex  8.861603e+002  8.733857e+000  0.000000e+000
      vertex  8.861603e+002  8.733857e+000  1.500000e+000
    endloop
  endfacet
  facet normal -3.826905e-001  9.238766e-001  0.000000e+000
    outer loop
      vertex  8.861603e+002  8.733857e+000  1.500000e+000
      vertex  8.861603e+002  8.733857e+000  0.000000e+000
      vertex  8.848876e+002  8.206649e+000 -4.596323e-015
    endloop
  endfacet
  facet normal -3.826905e-001  9.238766e-001  0.000000e+000
    outer loop
      vertex  8.861603e+002  8.733857e+000  1.500000e+000
      vertex  8.848876e+002  8.206649e+000 -4.596323e-015
      vertex  8.848876e+002  8.206649e+000  1.500000e+000
    endloop
  endfacet
  facet normal  9.238759e-001  3.826921e-001  0.000000e+000
    outer loop
      vertex  1.054516e+003  1.000665e+001  0.000000e+000
      vertex  1.055043e+003  8.733857e+000  1.500000e+000
      vertex  1.055043e+003  8.733857e+000  0.000000e+000
    endloop
  endfacet
  facet normal  3.826748e-001  9.238831e-001  -0.000000e+000
    outer loop
      vertex  1.055043e+003  8.733857e+000  0.000000e+000
      vertex  1.055043e+003  8.733857e+000  1.500000e+000
      vertex  1.056316e+003  8.206649e+000  1.500000e+000
    endloop
  endfacet
  facet normal  3.826748e-001  9.238831e-001  0.000000e+000
    outer loop
      vertex  1.055043e+003  8.733857e+000  0.000000e+000
      vertex  1.056316e+003  8.206649e+000  1.500000e+000
      vertex  1.056316e+003  8.206649e+000 -4.596323e-015
    endloop
  endfacet
  facet normal  9.238759e-001  3.826921e-001  -0.000000e+000
    outer loop
      vertex  1.055043e+003  8.733857e+000  1.500000e+000
      vertex  1.054516e+003  1.000665e+001  0.000000e+000
      vertex  1.054516e+003  1.000665e+001  1.500000e+000
    endloop
  endfacet
  facet normal  9.238759e-001 -3.826921e-001  0.000000e+000
    outer loop
      vertex  1.054516e+003  1.000665e+001  1.500000e+000
      vertex  1.054516e+003  1.000665e+001  0.000000e+000
      vertex  1.055043e+003  1.127944e+001  0.000000e+000
    endloop
  endfacet
  facet normal  9.238759e-001 -3.826921e-001  0.000000e+000
    outer loop
      vertex  1.054516e+003  1.000665e+001  1.500000e+000
      vertex  1.055043e+003  1.127944e+001  0.000000e+000
      vertex  1.055043e+003  1.127944e+001  1.500000e+000
    endloop
  endfacet
  facet normal  3.826748e-001 -9.238831e-001  0.000000e+000
    outer loop
      vertex  1.055043e+003  1.127944e+001  1.500000e+000
      vertex  1.055043e+003  1.127944e+001  0.000000e+000
      vertex  1.056316e+003  1.180665e+001  4.596323e-015
    endloop
  endfacet
  facet normal  3.826748e-001 -9.238831e-001  0.000000e+000
    outer loop
      vertex  1.055043e+003  1.127944e+001  1.500000e+000
      vertex  1.056316e+003  1.180665e+001  4.596323e-015
      vertex  1.056316e+003  1.180665e+001  1.500000e+000
    endloop
  endfacet
  facet normal -9.238759e-001 -3.826921e-001  -0.000000e+000
    outer loop
      vertex  1.058116e+003  1.000665e+001  0.000000e+000
      vertex  1.057589e+003  1.127944e+001  1.500000e+000
      vertex  1.057589e+003  1.127944e+001  0.000000e+000
    endloop
  endfacet
  facet normal -3.827061e-001 -9.238701e-001  0.000000e+000
    outer loop
      vertex  1.057589e+003  1.127944e+001  0.000000e+000
      vertex  1.057589e+003  1.127944e+001  1.500000e+000
      vertex  1.056316e+003  1.180665e+001  1.500000e+000
    endloop
  endfacet
  facet normal -3.827061e-001 -9.238701e-001  -0.000000e+000
    outer loop
      vertex  1.057589e+003  1.127944e+001  0.000000e+000
      vertex  1.056316e+003  1.180665e+001  1.500000e+000
      vertex  1.056316e+003  1.180665e+001  4.596323e-015
    endloop
  endfacet
  facet normal -9.238759e-001 -3.826921e-001  0.000000e+000
    outer loop
      vertex  1.057589e+003  1.127944e+001  1.500000e+000
      vertex  1.058116e+003  1.000665e+001  0.000000e+000
      vertex  1.058116e+003  1.000665e+001  1.500000e+000
    endloop
  endfacet
  facet normal -9.238759e-001  3.826921e-001  0.000000e+000
    outer loop
      vertex  1.058116e+003  1.000665e+001  1.500000e+000
      vertex  1.058116e+003  1.000665e+001  0.000000e+000
      vertex  1.057589e+003  8.733857e+000  0.000000e+000
    endloop
  endfacet
  facet normal -9.238759e-001  3.826921e-001  0.000000e+000
    outer loop
      vertex  1.058116e+003  1.000665e+001  1.500000e+000
      vertex  1.057589e+003  8.733857e+000  0.000000e+000
      vertex  1.057589e+003  8.733857e+000  1.500000e+000
    endloop
  endfacet
  facet normal -3.827061e-001  9.238701e-001  0.000000e+000
    outer loop
      vertex  1.057589e+003  8.733857e+000  1.500000e+000
      vertex  1.057589e+003  8.733857e+000  0.000000e+000
      vertex  1.056316e+003  8.206649e+000 -4.596323e-015
    endloop
  endfacet
  facet normal -3.827061e-001  9.238701e-001  0.000000e+000
    outer loop
      vertex  1.057589e+003  8.733857e+000  1.500000e+000
      vertex  1.056316e+003  8.206649e+000 -4.596323e-015
      vertex  1.056316e+003  8.206649e+000  1.500000e+000
    endloop
  endfacet
  facet normal  9.238759e-001  3.826921e-001  0.000000e+000
    outer loop
      vertex  1.225945e+003  1.000665e+001  0.000000e+000
      vertex  1.226472e+003  8.733857e+000  1.500000e+000
      vertex  1.226472e+003  8.733857e+000  0.000000e+000
    endloop
  endfacet
  facet normal  3.826748e-001  9.238831e-001  -0.000000e+000
    outer loop
      vertex  1.226472e+003  8.733857e+000  0.000000e+000
      vertex  1.226472e+003  8.733857e+000  1.500000e+000
      vertex  1.227745e+003  8.206649e+000  1.500000e+000
    endloop
  endfacet
  facet normal  3.826748e-001  9.238831e-001  0.000000e+000
    outer loop
      vertex  1.226472e+003  8.733857e+000  0.000000e+000
      vertex  1.227745e+003  8.206649e+000  1.500000e+000
      vertex  1.227745e+003  8.206649e+000 -4.596323e-015
    endloop
  endfacet
  facet normal  9.238759e-001  3.826921e-001  -0.000000e+000
    outer loop
      vertex  1.226472e+003  8.733857e+000  1.500000e+000
      vertex  1.225945e+003  1.000665e+001  0.000000e+000
      vertex  1.225945e+003  1.000665e+001  1.500000e+000
    endloop
  endfacet
  facet normal  9.238759e-001 -3.826921e-001  0.000000e+000
    outer loop
      vertex  1.225945e+003  1.000665e+001  1.500000e+000
      vertex  1.225945e+003  1.000665e+001  0.000000e+000
      vertex  1.226472e+003  1.127944e+001  0.000000e+000
    endloop
  endfacet
  facet normal  9.238759e-001 -3.826921e-001  0.000000e+000
    outer loop
      vertex  1.225945e+003  1.000665e+001  1.500000e+000
      vertex  1.226472e+003  1.127944e+001  0.000000e+000
      vertex  1.226472e+003  1.127944e+001  1.500000e+000
    endloop
  endfacet
  facet normal  3.826748e-001 -9.238831e-001  0.000000e+000
    outer loop
      vertex  1.226472e+003  1.127944e+001  1.500000e+000
      vertex  1.226472e+003  1.127944e+001  0.000000e+000
      vertex  1.227745e+003  1.180665e+001  4.596323e-015
    endloop
  endfacet
  facet normal  3.826748e-001 -9.238831e-001  0.000000e+000
    outer loop
      vertex  1.226472e+003  1.127944e+001  1.500000e+000
      vertex  1.227745e+003  1.180665e+001  4.596323e-015
      vertex  1.227745e+003  1.180665e+001  1.500000e+000
    endloop
  endfacet
  facet normal -9.238759e-001 -3.826921e-001  -0.000000e+000
    outer loop
      vertex  1.229545e+003  1.000665e+001  0.000000e+000
      vertex  1.229017e+003  1.127944e+001  1.500000e+000
      vertex  1.229017e+003  1.127944e+001  0.000000e+000
    endloop
  endfacet
  facet normal -3.827061e-001 -9.238701e-001  0.000000e+000
    outer loop
      vertex  1.229017e+003  1.127944e+001  0.000000e+000
      vertex  1.229017e+003  1.127944e+001  1.500000e+000
      vertex  1.227745e+003  1.180665e+001  1.500000e+000
    endloop
  endfacet
  facet normal -3.827061e-001 -9.238701e-001  -0.000000e+000
    outer loop
      vertex  1.229017e+003  1.127944e+001  0.000000e+000
      vertex  1.227745e+003  1.180665e+001  1.500000e+000
      vertex  1.227745e+003  1.180665e+001  4.596323e-015
    endloop
  endfacet
  facet normal -9.238759e-001 -3.826921e-001  0.000000e+000
    outer loop
      vertex  1.229017e+003  1.127944e+001  1.500000e+000
      vertex  1.229545e+003  1.000665e+001  0.000000e+000
      vertex  1.229545e+003  1.000665e+001  1.500000e+000
    endloop
  endfacet
  facet normal -9.238759e-001  3.826921e-001  0.000000e+000
    outer loop
      vertex  1.229545e+003  1.000665e+001  1.500000e+000
      vertex  1.229545e+003  1.000665e+001  0.000000e+000
      vertex  1.229017e+003  8.733857e+000  0.000000e+000
    endloop
  endfacet
  facet normal -9.238759e-001  3.826921e-001  0.000000e+000
    outer loop
      vertex  1.229545e+003  1.000665e+001  1.500000e+000
      vertex  1.229017e+003  8.733857e+000  0.000000e+000
      vertex  1.229017e+003  8.733857e+000  1.500000e+000
    endloop
  endfacet
  facet normal -3.827061e-001  9.238701e-001  0.000000e+000
    outer loop
      vertex  1.229017e+003  8.733857e+000  1.500000e+000
      vertex  1.229017e+003  8.733857e+000  0.000000e+000
      vertex  1.227745e+003  8.206649e+000 -4.596323e-015
    endloop
  endfacet
  facet normal -3.827061e-001  9.238701e-001  0.000000e+000
    outer loop
      vertex  1.229017e+003  8.733857e+000  1.500000e+000
      vertex  1.227745e+003  8.206649e+000 -4.596323e-015
      vertex  1.227745e+003  8.206649e+000  1.500000e+000
    endloop
  endfacet
  facet normal  6.713635e-017  8.880315e-015 -1.000000e+000
    outer loop
      vertex  8.830876e+002  1.000665e+001  0.000000e+000
      vertex  7.147318e+002  1.127944e+001  0.000000e+000
      vertex  7.134590e+002  1.180665e+001  4.596323e-015
    endloop
  endfacet
  facet normal  0.000000e+000  0.000000e+000 -9.999999e-001
    outer loop
      vertex  8.830876e+002  1.000665e+001  0.000000e+000
      vertex  7.152590e+002  1.000665e+001  0.000000e+000
      vertex  7.147318e+002  1.127944e+001  0.000000e+000
    endloop
  endfacet
  facet normal  6.713635e-017  8.880315e-015 -1.000000e+000
    outer loop
      vertex  7.116590e+002  1.000665e+001  0.000000e+000
      vertex  5.433032e+002  1.127944e+001  0.000000e+000
      vertex  5.420304e+002  1.180665e+001  4.596323e-015
    endloop
  endfacet
  facet normal  0.000000e+000  0.000000e+000 -1.000000e+000
    outer loop
      vertex  7.116590e+002  1.000665e+001  0.000000e+000
      vertex  5.438304e+002  1.000665e+001  0.000000e+000
      vertex  5.433032e+002  1.127944e+001  0.000000e+000
    endloop
  endfacet
  facet normal  6.713632e-017  8.880311e-015 -9.999999e-001
    outer loop
      vertex  5.402304e+002  1.000665e+001  0.000000e+000
      vertex  3.718746e+002  1.127944e+001  0.000000e+000
      vertex  3.706018e+002  1.180665e+001  4.596323e-015
    endloop
  endfacet
  facet normal  0.000000e+000  0.000000e+000 -1.000000e+000
    outer loop
      vertex  5.402304e+002  1.000665e+001  0.000000e+000
      vertex  3.724019e+002  1.000665e+001  0.000000e+000
      vertex  3.718746e+002  1.127944e+001  0.000000e+000
    endloop
  endfacet
  facet normal  6.713631e-017  8.880310e-015 -1.000000e+000
    outer loop
      vertex  3.688018e+002  1.000665e+001  0.000000e+000
      vertex  2.004461e+002  1.127944e+001  0.000000e+000
      vertex  1.991733e+002  1.180665e+001  4.596323e-015
    endloop
  endfacet
  facet normal  0.000000e+000  0.000000e+000 -1.000000e+000
    outer loop
      vertex  3.688018e+002  1.000665e+001  0.000000e+000
      vertex  2.009733e+002  1.000665e+001  0.000000e+000
      vertex  2.004461e+002  1.127944e+001  0.000000e+000
    endloop
  endfacet
  facet normal  0.000000e+000  0.000000e+000 -1.000000e+000
    outer loop
      vertex  1.973733e+002  1.000665e+001  0.000000e+000
      vertex  2.954470e+001  1.000665e+001  0.000000e+000
      vertex  2.901750e+001  1.127944e+001  0.000000e+000
    endloop
  endfacet
  facet normal -6.713635e-017  8.880315e-015 -1.000000e+000
    outer loop
      vertex  7.147318e+002  8.733857e+000  0.000000e+000
      vertex  8.830876e+002  1.000665e+001  0.000000e+000
      vertex  7.134590e+002  8.206649e+000 -4.596323e-015
    endloop
  endfacet
  facet normal  -0.000000e+000  0.000000e+000 -9.999999e-001
    outer loop
      vertex  7.152590e+002  1.000665e+001  0.000000e+000
      vertex  8.830876e+002  1.000665e+001  0.000000e+000
      vertex  7.147318e+002  8.733857e+000  0.000000e+000
    endloop
  endfacet
  facet normal -6.713635e-017  8.880315e-015 -1.000000e+000
    outer loop
      vertex  5.433032e+002  8.733857e+000  0.000000e+000
      vertex  7.116590e+002  1.000665e+001  0.000000e+000
      vertex  5.420304e+002  8.206649e+000 -4.596323e-015
    endloop
  endfacet
  facet normal  -0.000000e+000  0.000000e+000 -1.000000e+000
    outer loop
      vertex  5.438304e+002  1.000665e+001  0.000000e+000
      vertex  7.116590e+002  1.000665e+001  0.000000e+000
      vertex  5.433032e+002  8.733857e+000  0.000000e+000
    endloop
  endfacet
  facet normal -6.713632e-017  8.880311e-015 -9.999999e-001
    outer loop
      vertex  3.718746e+002  8.733857e+000  0.000000e+000
      vertex  5.402304e+002  1.000665e+001  0.000000e+000
      vertex  3.706018e+002  8.206649e+000 -4.596323e-015
    endloop
  endfacet
  facet normal  -0.000000e+000  0.000000e+000 -1.000000e+000
    outer loop
      vertex  3.724019e+002  1.000665e+001  0.000000e+000
      vertex  5.402304e+002  1.000665e+001  0.000000e+000
      vertex  3.718746e+002  8.733857e+000  0.000000e+000
    endloop
  endfacet
  facet normal -6.713630e-017  8.880309e-015 -1.000000e+000
    outer loop
      vertex  2.004461e+002  8.733857e+000  0.000000e+000
      vertex  3.688018e+002  1.000665e+001  0.000000e+000
      vertex  1.991733e+002  8.206649e+000 -4.596323e-015
    endloop
  endfacet
  facet normal  -0.000000e+000  0.000000e+000 -1.000000e+000
    outer loop
      vertex  2.009733e+002  1.000665e+001  0.000000e+000
      vertex  3.688018e+002  1.000665e+001  0.000000e+000
      vertex  2.004461e+002  8.733857e+000  0.000000e+000
    endloop
  endfacet
  facet normal -6.713632e-017  8.880311e-015 -9.999999e-001
    outer loop
      vertex  2.901750e+001  8.733857e+000  0.000000e+000
      vertex  1.973733e+002  1.000665e+001  0.000000e+000
      vertex  2.774470e+001  8.206649e+000 -4.596323e-015
    endloop
  endfacet
  facet normal  -0.000000e+000  0.000000e+000 -1.000000e+000
    outer loop
      vertex  2.954470e+001  1.000665e+001  0.000000e+000
      vertex  1.973733e+002  1.000665e+001  0.000000e+000
      vertex  2.901750e+001  8.733857e+000  0.000000e+000
    endloop
  endfacet
  facet normal  0.000000e+000  -0.000000e+000 -1.000000e+000
    outer loop
      vertex  0.000000e+000  0.000000e+000  0.000000e+000
      vertex  1.154701e+001  2.000000e+001  0.000000e+000
      vertex  2.594470e+001  1.000665e+001  0.000000e+000
    endloop
  endfacet
  facet normal  0.000000e+000  -0.000000e+000 -1.000000e+000
    outer loop
      vertex  0.000000e+000  0.000000e+000  0.000000e+000
      vertex  2.594470e+001  1.000665e+001  0.000000e+000
      vertex  2.647191e+001  8.733857e+000  0.000000e+000
    endloop
  endfacet
  facet normal -1.601096e-015  4.852846e-015 -1.000000e+000
    outer loop
      vertex  0.000000e+000  0.000000e+000  0.000000e+000
      vertex  2.647191e+001  8.733857e+000  0.000000e+000
      vertex  2.774470e+001  8.206649e+000 -4.596323e-015
    endloop
  endfacet
  facet normal  3.426896e-017 -6.759282e-016 -1.000000e+000
    outer loop
      vertex  0.000000e+000  0.000000e+000  0.000000e+000
      vertex  2.774470e+001  8.206649e+000 -4.596323e-015
      vertex  1.973733e+002  1.000665e+001  0.000000e+000
    endloop
  endfacet
  facet normal  0.000000e+000  -0.000000e+000 -1.000000e+000
    outer loop
      vertex  0.000000e+000  0.000000e+000  0.000000e+000
      vertex  1.973733e+002  1.000665e+001  0.000000e+000
      vertex  1.979005e+002  8.733857e+000  0.000000e+000
    endloop
  endfacet
  facet normal -3.477108e-016  7.878779e-015 -1.000000e+000
    outer loop
      vertex  0.000000e+000  0.000000e+000  0.000000e+000
      vertex  1.979005e+002  8.733857e+000  0.000000e+000
      vertex  1.991733e+002  8.206649e+000 -4.596323e-015
    endloop
  endfacet
  facet normal  4.449993e-017 -1.640075e-015 -1.000000e+000
    outer loop
      vertex  0.000000e+000  0.000000e+000  0.000000e+000
      vertex  1.991733e+002  8.206649e+000 -4.596323e-015
      vertex  3.688018e+002  1.000665e+001  0.000000e+000
    endloop
  endfacet
  facet normal  0.000000e+000  -0.000000e+000 -1.000000e+000
    outer loop
      vertex  0.000000e+000  0.000000e+000  0.000000e+000
      vertex  3.688018e+002  1.000665e+001  0.000000e+000
      vertex  3.693290e+002  8.733857e+000  0.000000e+000
    endloop
  endfacet
  facet normal -1.950332e-016  8.247377e-015 -9.999999e-001
    outer loop
      vertex  0.000000e+000  0.000000e+000  0.000000e+000
      vertex  3.693290e+002  8.733857e+000  0.000000e+000
      vertex  3.706018e+002  8.206649e+000 -4.596323e-015
    endloop
  endfacet
  facet normal  6.343983e-017 -3.424935e-015 -1.000000e+000
    outer loop
      vertex  0.000000e+000  0.000000e+000  0.000000e+000
      vertex  3.706018e+002  8.206649e+000 -4.596323e-015
      vertex  5.402304e+002  1.000665e+001  0.000000e+000
    endloop
  endfacet
  facet normal  0.000000e+000  -0.000000e+000 -1.000000e+000
    outer loop
      vertex  0.000000e+000  0.000000e+000  0.000000e+000
      vertex  5.402304e+002  1.000665e+001  0.000000e+000
      vertex  5.407576e+002  8.733857e+000  0.000000e+000
    endloop
  endfacet
  facet normal -1.355251e-016  8.391051e-015 -1.000000e+000
    outer loop
      vertex  0.000000e+000  0.000000e+000  0.000000e+000
      vertex  5.407576e+002  8.733857e+000  0.000000e+000
      vertex  5.420304e+002  8.206649e+000 -4.596323e-015
    endloop
  endfacet
  facet normal  1.104485e-016 -7.854942e-015 -1.000000e+000
    outer loop
      vertex  0.000000e+000  0.000000e+000  0.000000e+000
      vertex  5.420304e+002  8.206649e+000 -4.596323e-015
      vertex  7.116590e+002  1.000665e+001  0.000000e+000
    endloop
  endfacet
  facet normal  0.000000e+000  -0.000000e+000 -1.000000e+000
    outer loop
      vertex  0.000000e+000  0.000000e+000  0.000000e+000
      vertex  7.116590e+002  1.000665e+001  0.000000e+000
      vertex  7.121862e+002  8.733857e+000  0.000000e+000
    endloop
  endfacet
  facet normal -1.038412e-016  8.467540e-015 -1.000000e+000
    outer loop
      vertex  0.000000e+000  0.000000e+000  0.000000e+000
      vertex  7.121862e+002  8.733857e+000  0.000000e+000
      vertex  7.134590e+002  8.206649e+000 -4.596323e-015
    endloop
  endfacet
  facet normal  4.264368e-016 -3.763308e-014 -9.999999e-001
    outer loop
      vertex  0.000000e+000  0.000000e+000  0.000000e+000
      vertex  7.134590e+002  8.206649e+000 -4.596323e-015
      vertex  8.830876e+002  1.000665e+001  0.000000e+000
    endloop
  endfacet
  facet normal  0.000000e+000  -0.000000e+000 -1.000000e+000
    outer loop
      vertex  0.000000e+000  0.000000e+000  0.000000e+000
      vertex  8.830876e+002  1.000665e+001  0.000000e+000
      vertex  8.836147e+002  8.733857e+000  0.000000e+000
    endloop
  endfacet
  facet normal -8.416460e-017  8.515033e-015 -1.000000e+000
    outer loop
      vertex  0.000000e+000  0.000000e+000  0.000000e+000
      vertex  8.836147e+002  8.733857e+000  0.000000e+000
      vertex  8.848876e+002  8.206649e+000 -4.596323e-015
    endloop
  endfacet
  facet normal  0.000000e+000  0.000000e+000 -1.000000e+000
    outer loop
      vertex  1.250000e+003  2.000000e+001  0.000000e+000
      vertex  1.250000e+003  0.000000e+000  0.000000e+000
      vertex  1.229545e+003  1.000665e+001  0.000000e+000
    endloop
  endfacet
  facet normal  0.000000e+000  0.000000e+000 -1.000000e+000
    outer loop
      vertex  1.250000e+003  2.000000e+001  0.000000e+000
      vertex  1.229545e+003  1.000665e+001  0.000000e+000
      vertex  1.229017e+003  1.127944e+001  0.000000e+000
    endloop
  endfacet
  facet normal -1.808707e-015  4.351930e-015 -1.000000e+000
    outer loop
      vertex  1.250000e+003  2.000000e+001  0.000000e+000
      vertex  1.229017e+003  1.127944e+001  0.000000e+000
      vertex  1.227745e+003  1.180665e+001  4.596323e-015
    endloop
  endfacet
  facet normal  0.000000e+000 -5.609822e-016 -1.000000e+000
    outer loop
      vertex  1.250000e+003  2.000000e+001  0.000000e+000
      vertex  1.227745e+003  1.180665e+001  4.596323e-015
      vertex  1.154701e+001  2.000000e+001  0.000000e+000
    endloop
  endfacet
  facet normal  8.512597e-017  8.512712e-015 -1.000000e+000
    outer loop
      vertex  1.154701e+001  2.000000e+001  0.000000e+000
      vertex  8.848876e+002  1.180665e+001  4.596323e-015
      vertex  8.836147e+002  1.127944e+001  0.000000e+000
    endloop
  endfacet
  facet normal  -0.000000e+000  0.000000e+000 -1.000000e+000
    outer loop
      vertex  1.154701e+001  2.000000e+001  0.000000e+000
      vertex  8.836147e+002  1.127944e+001  0.000000e+000
      vertex  8.830876e+002  1.000665e+001  0.000000e+000
    endloop
  endfacet
  facet normal -3.634345e-016 -3.169586e-014 -9.999999e-001
    outer loop
      vertex  1.154701e+001  2.000000e+001  0.000000e+000
      vertex  8.830876e+002  1.000665e+001  0.000000e+000
      vertex  7.134590e+002  1.180665e+001  4.596323e-015
    endloop
  endfacet
  facet normal  1.053467e-016  8.463906e-015 -1.000000e+000
    outer loop
      vertex  1.154701e+001  2.000000e+001  0.000000e+000
      vertex  7.134590e+002  1.180665e+001  4.596323e-015
      vertex  7.121862e+002  1.127944e+001  0.000000e+000
    endloop
  endfacet
  facet normal  -0.000000e+000  0.000000e+000 -1.000000e+000
    outer loop
      vertex  1.154701e+001  2.000000e+001  0.000000e+000
      vertex  7.121862e+002  1.127944e+001  0.000000e+000
      vertex  7.116590e+002  1.000665e+001  0.000000e+000
    endloop
  endfacet
  facet normal -1.056029e-016 -7.398308e-015 -1.000000e+000
    outer loop
      vertex  1.154701e+001  2.000000e+001  0.000000e+000
      vertex  7.116590e+002  1.000665e+001  0.000000e+000
      vertex  5.420304e+002  1.180665e+001  4.596323e-015
    endloop
  endfacet
  facet normal  1.381663e-016  8.384674e-015 -1.000000e+000
    outer loop
      vertex  1.154701e+001  2.000000e+001  0.000000e+000
      vertex  5.420304e+002  1.180665e+001  4.596323e-015
      vertex  5.407576e+002  1.127944e+001  0.000000e+000
    endloop
  endfacet
  facet normal  -0.000000e+000  0.000000e+000 -1.000000e+000
    outer loop
      vertex  1.154701e+001  2.000000e+001  0.000000e+000
      vertex  5.407576e+002  1.127944e+001  0.000000e+000
      vertex  5.402304e+002  1.000665e+001  0.000000e+000
    endloop
  endfacet
  facet normal -6.177669e-017 -3.268204e-015 -1.000000e+000
    outer loop
      vertex  1.154701e+001  2.000000e+001  0.000000e+000
      vertex  5.402304e+002  1.000665e+001  0.000000e+000
      vertex  3.706018e+002  1.180665e+001  4.596323e-015
    endloop
  endfacet
  facet normal  2.006883e-016  8.233724e-015 -1.000000e+000
    outer loop
      vertex  1.154701e+001  2.000000e+001  0.000000e+000
      vertex  3.706018e+002  1.180665e+001  4.596323e-015
      vertex  3.693290e+002  1.127944e+001  0.000000e+000
    endloop
  endfacet
  facet normal  -0.000000e+000  0.000000e+000 -1.000000e+000
    outer loop
      vertex  1.154701e+001  2.000000e+001  0.000000e+000
      vertex  3.693290e+002  1.127944e+001  0.000000e+000
      vertex  3.688018e+002  1.000665e+001  0.000000e+000
    endloop
  endfacet
  facet normal -4.365812e-017 -1.560745e-015 -1.000000e+000
    outer loop
      vertex  1.154701e+001  2.000000e+001  0.000000e+000
      vertex  3.688018e+002  1.000665e+001  0.000000e+000
      vertex  1.991733e+002  1.180665e+001  4.596323e-015
    endloop
  endfacet
  facet normal  3.665639e-016  7.833264e-015 -1.000000e+000
    outer loop
      vertex  1.154701e+001  2.000000e+001  0.000000e+000
      vertex  1.991733e+002  1.180665e+001  4.596323e-015
      vertex  1.979005e+002  1.127944e+001  0.000000e+000
    endloop
  endfacet
  facet normal  -0.000000e+000  0.000000e+000 -9.999999e-001
    outer loop
      vertex  1.154701e+001  2.000000e+001  0.000000e+000
      vertex  1.979005e+002  1.127944e+001  0.000000e+000
      vertex  1.973733e+002  1.000665e+001  0.000000e+000
    endloop
  endfacet
  facet normal  0.000000e+000  0.000000e+000 -1.000000e+000
    outer loop
      vertex  1.154701e+001  2.000000e+001  0.000000e+000
      vertex  1.973733e+002  1.000665e+001  0.000000e+000
      vertex  2.901750e+001  1.127944e+001  0.000000e+000
    endloop
  endfacet
  facet normal -2.122028e-014 -4.251202e-014 -9.999999e-001
    outer loop
      vertex  1.154701e+001  2.000000e+001  0.000000e+000
      vertex  2.901750e+001  1.127944e+001  0.000000e+000
      vertex  2.774470e+001  1.180665e+001  4.596323e-015
    endloop
  endfacet
  facet normal  2.113165e-015  3.616601e-015 -1.000000e+000
    outer loop
      vertex  1.154701e+001  2.000000e+001  0.000000e+000
      vertex  2.774470e+001  1.180665e+001  4.596323e-015
      vertex  2.647191e+001  1.127944e+001  0.000000e+000
    endloop
  endfacet
  facet normal  -0.000000e+000  0.000000e+000 -1.000000e+000
    outer loop
      vertex  1.154701e+001  2.000000e+001  0.000000e+000
      vertex  2.647191e+001  1.127944e+001  0.000000e+000
      vertex  2.594470e+001  1.000665e+001  0.000000e+000
    endloop
  endfacet
  facet normal  0.000000e+000 -5.600732e-016 -1.000000e+000
    outer loop
      vertex  1.250000e+003  0.000000e+000  0.000000e+000
      vertex  0.000000e+000  0.000000e+000  0.000000e+000
      vertex  1.227745e+003  8.206649e+000 -4.596323e-015
    endloop
  endfacet
  facet normal  1.810082e-015  4.348609e-015 -1.000000e+000
    outer loop
      vertex  1.250000e+003  0.000000e+000  0.000000e+000
      vertex  1.227745e+003  8.206649e+000 -4.596323e-015
      vertex  1.229017e+003  8.733857e+000  0.000000e+000
    endloop
  endfacet
  facet normal  0.000000e+000  0.000000e+000 -1.000000e+000
    outer loop
      vertex  1.250000e+003  0.000000e+000  0.000000e+000
      vertex  1.229017e+003  8.733857e+000  0.000000e+000
      vertex  1.229545e+003  1.000665e+001  0.000000e+000
    endloop
  endfacet
  facet normal  0.000000e+000  0.000000e+000 -1.000000e+000
    outer loop
      vertex  8.866876e+002  1.000665e+001  0.000000e+000
      vertex  8.861603e+002  1.127944e+001  0.000000e+000
      vertex  1.054516e+003  1.000665e+001  0.000000e+000
    endloop
  endfacet
  facet normal  6.713629e-017  8.880307e-015 -1.000000e+000
    outer loop
      vertex  1.054516e+003  1.000665e+001  0.000000e+000
      vertex  8.861603e+002  1.127944e+001  0.000000e+000
      vertex  8.848876e+002  1.180665e+001  4.596323e-015
    endloop
  endfacet
  facet normal -2.697783e-017  1.117496e-017 -1.000000e+000
    outer loop
      vertex  1.054516e+003  1.000665e+001  0.000000e+000
      vertex  8.848876e+002  1.180665e+001  4.596323e-015
      vertex  1.055043e+003  1.127944e+001  0.000000e+000
    endloop
  endfacet
  facet normal -4.292807e-017 -5.136744e-015 -1.000000e+000
    outer loop
      vertex  1.055043e+003  1.127944e+001  0.000000e+000
      vertex  8.848876e+002  1.180665e+001  4.596323e-015
      vertex  1.154701e+001  2.000000e+001  0.000000e+000
    endloop
  endfacet
  facet normal  7.141774e-017  8.545800e-015 -1.000000e+000
    outer loop
      vertex  1.055043e+003  1.127944e+001  0.000000e+000
      vertex  1.154701e+001  2.000000e+001  0.000000e+000
      vertex  1.056316e+003  1.180665e+001  4.596323e-015
    endloop
  endfacet
  facet normal  0.000000e+000  0.000000e+000 -1.000000e+000
    outer loop
      vertex  1.058116e+003  1.000665e+001  0.000000e+000
      vertex  1.057589e+003  1.127944e+001  0.000000e+000
      vertex  1.225945e+003  1.000665e+001  0.000000e+000
    endloop
  endfacet
  facet normal  6.713622e-017  8.880300e-015 -1.000000e+000
    outer loop
      vertex  1.225945e+003  1.000665e+001  0.000000e+000
      vertex  1.057589e+003  1.127944e+001  0.000000e+000
      vertex  1.056316e+003  1.180665e+001  4.596323e-015
    endloop
  endfacet
  facet normal -2.697783e-017  1.117496e-017 -1.000000e+000
    outer loop
      vertex  1.225945e+003  1.000665e+001  0.000000e+000
      vertex  1.056316e+003  1.180665e+001  4.596323e-015
      vertex  1.226472e+003  1.127944e+001  0.000000e+000
    endloop
  endfacet
  facet normal -4.752858e-017 -6.621555e-015 -1.000000e+000
    outer loop
      vertex  1.226472e+003  1.127944e+001  0.000000e+000
      vertex  1.056316e+003  1.180665e+001  4.596323e-015
      vertex  1.154701e+001  2.000000e+001  0.000000e+000
    endloop
  endfacet
  facet normal  6.151217e-017  8.569712e-015 -1.000000e+000
    outer loop
      vertex  1.226472e+003  1.127944e+001  0.000000e+000
      vertex  1.154701e+001  2.000000e+001  0.000000e+000
      vertex  1.227745e+003  1.180665e+001  4.596323e-015
    endloop
  endfacet
  facet normal  -0.000000e+000  0.000000e+000 -1.000000e+000
    outer loop
      vertex  8.866876e+002  1.000665e+001  0.000000e+000
      vertex  1.054516e+003  1.000665e+001  0.000000e+000
      vertex  8.861603e+002  8.733857e+000  0.000000e+000
    endloop
  endfacet
  facet normal  0.000000e+000  0.000000e+000 -1.000000e+000
    outer loop
      vertex  8.861603e+002  8.733857e+000  0.000000e+000
      vertex  1.054516e+003  1.000665e+001  0.000000e+000
      vertex  1.055043e+003  8.733857e+000  0.000000e+000
    endloop
  endfacet
  facet normal  0.000000e+000  8.718230e-015 -1.000000e+000
    outer loop
      vertex  8.861603e+002  8.733857e+000  0.000000e+000
      vertex  1.055043e+003  8.733857e+000  0.000000e+000
      vertex  8.848876e+002  8.206649e+000 -4.596323e-015
    endloop
  endfacet
  facet normal  0.000000e+000  8.718231e-015 -1.000000e+000
    outer loop
      vertex  8.848876e+002  8.206649e+000 -4.596323e-015
      vertex  1.055043e+003  8.733857e+000  0.000000e+000
      vertex  1.056316e+003  8.206649e+000 -4.596323e-015
    endloop
  endfacet
  facet normal  -0.000000e+000 -5.600732e-016 -1.000000e+000
    outer loop
      vertex  8.848876e+002  8.206649e+000 -4.596323e-015
      vertex  1.056316e+003  8.206649e+000 -4.596323e-015
      vertex  0.000000e+000  0.000000e+000  0.000000e+000
    endloop
  endfacet
  facet normal  -0.000000e+000  0.000000e+000 -9.999999e-001
    outer loop
      vertex  1.058116e+003  1.000665e+001  0.000000e+000
      vertex  1.225945e+003  1.000665e+001  0.000000e+000
      vertex  1.057589e+003  8.733857e+000  0.000000e+000
    endloop
  endfacet
  facet normal  0.000000e+000  0.000000e+000 -1.000000e+000
    outer loop
      vertex  1.057589e+003  8.733857e+000  0.000000e+000
      vertex  1.225945e+003  1.000665e+001  0.000000e+000
      vertex  1.226472e+003  8.733857e+000  0.000000e+000
    endloop
  endfacet
  facet normal  0.000000e+000  8.718231e-015 -1.000000e+000
    outer loop
      vertex  1.057589e+003  8.733857e+000  0.000000e+000
      vertex  1.226472e+003  8.733857e+000  0.000000e+000
      vertex  1.056316e+003  8.206649e+000 -4.596323e-015
    endloop
  endfacet
  facet normal  0.000000e+000  8.718231e-015 -1.000000e+000
    outer loop
      vertex  1.056316e+003  8.206649e+000 -4.596323e-015
      vertex  1.226472e+003  8.733857e+000  0.000000e+000
      vertex  1.227745e+003  8.206649e+000 -4.596323e-015
    endloop
  endfacet
  facet normal  -0.000000e+000 -5.600732e-016 -1.000000e+000
    outer loop
      vertex  1.056316e+003  8.206649e+000 -4.596323e-015
      vertex  1.227745e+003  8.206649e+000 -4.596323e-015
      vertex  0.000000e+000  0.000000e+000  0.000000e+000
    endloop
  endfacet
  facet normal  -0.000000e+000  0.000000e+000  1.000000e+000
    outer loop
      vertex  7.116590e+002  1.000665e+001  1.500000e+000
      vertex  5.433032e+002  8.733857e+000  1.500000e+000
      vertex  5.420304e+002  8.206649e+000  1.500000e+000
    endloop
  endfacet
  facet normal  -0.000000e+000  0.000000e+000  1.000000e+000
    outer loop
      vertex  7.116590e+002  1.000665e+001  1.500000e+000
      vertex  5.438304e+002  1.000665e+001  1.500000e+000
      vertex  5.433032e+002  8.733857e+000  1.500000e+000
    endloop
  endfacet
  facet normal  -0.000000e+000  0.000000e+000  9.999999e-001
    outer loop
      vertex  5.402304e+002  1.000665e+001  1.500000e+000
      vertex  3.718746e+002  8.733857e+000  1.500000e+000
      vertex  3.706018e+002  8.206649e+000  1.500000e+000
    endloop
  endfacet
  facet normal  -0.000000e+000  0.000000e+000  1.000000e+000
    outer loop
      vertex  5.402304e+002  1.000665e+001  1.500000e+000
      vertex  3.724019e+002  1.000665e+001  1.500000e+000
      vertex  3.718746e+002  8.733857e+000  1.500000e+000
    endloop
  endfacet
  facet normal  -0.000000e+000  0.000000e+000  1.000000e+000
    outer loop
      vertex  3.688018e+002  1.000665e+001  1.500000e+000
      vertex  2.004461e+002  8.733857e+000  1.500000e+000
      vertex  1.991733e+002  8.206649e+000  1.500000e+000
    endloop
  endfacet
  facet normal  -0.000000e+000  0.000000e+000  1.000000e+000
    outer loop
      vertex  3.688018e+002  1.000665e+001  1.500000e+000
      vertex  2.009733e+002  1.000665e+001  1.500000e+000
      vertex  2.004461e+002  8.733857e+000  1.500000e+000
    endloop
  endfacet
  facet normal  -0.000000e+000  0.000000e+000  9.999999e-001
    outer loop
      vertex  1.973733e+002  1.000665e+001  1.500000e+000
      vertex  2.901750e+001  8.733857e+000  1.500000e+000
      vertex  2.774470e+001  8.206649e+000  1.500000e+000
    endloop
  endfacet
  facet normal  -0.000000e+000  0.000000e+000  1.000000e+000
    outer loop
      vertex  1.973733e+002  1.000665e+001  1.500000e+000
      vertex  2.954470e+001  1.000665e+001  1.500000e+000
      vertex  2.901750e+001  8.733857e+000  1.500000e+000
    endloop
  endfacet
  facet normal  0.000000e+000  0.000000e+000  1.000000e+000
    outer loop
      vertex  7.147318e+002  1.127944e+001  1.500000e+000
      vertex  8.830876e+002  1.000665e+001  1.500000e+000
      vertex  7.134590e+002  1.180665e+001  1.500000e+000
    endloop
  endfacet
  facet normal  0.000000e+000  0.000000e+000  9.999999e-001
    outer loop
      vertex  7.152590e+002  1.000665e+001  1.500000e+000
      vertex  8.830876e+002  1.000665e+001  1.500000e+000
      vertex  7.147318e+002  1.127944e+001  1.500000e+000
    endloop
  endfacet
  facet normal  0.000000e+000  0.000000e+000  1.000000e+000
    outer loop
      vertex  5.433032e+002  1.127944e+001  1.500000e+000
      vertex  7.116590e+002  1.000665e+001  1.500000e+000
      vertex  5.420304e+002  1.180665e+001  1.500000e+000
    endloop
  endfacet
  facet normal  0.000000e+000  0.000000e+000  1.000000e+000
    outer loop
      vertex  5.438304e+002  1.000665e+001  1.500000e+000
      vertex  7.116590e+002  1.000665e+001  1.500000e+000
      vertex  5.433032e+002  1.127944e+001  1.500000e+000
    endloop
  endfacet
  facet normal  0.000000e+000  0.000000e+000  9.999999e-001
    outer loop
      vertex  3.718746e+002  1.127944e+001  1.500000e+000
      vertex  5.402304e+002  1.000665e+001  1.500000e+000
      vertex  3.706018e+002  1.180665e+001  1.500000e+000
    endloop
  endfacet
  facet normal  0.000000e+000  0.000000e+000  1.000000e+000
    outer loop
      vertex  3.724019e+002  1.000665e+001  1.500000e+000
      vertex  5.402304e+002  1.000665e+001  1.500000e+000
      vertex  3.718746e+002  1.127944e+001  1.500000e+000
    endloop
  endfacet
  facet normal  0.000000e+000  0.000000e+000  1.000000e+000
    outer loop
      vertex  2.004461e+002  1.127944e+001  1.500000e+000
      vertex  3.688018e+002  1.000665e+001  1.500000e+000
      vertex  1.991733e+002  1.180665e+001  1.500000e+000
    endloop
  endfacet
  facet normal  0.000000e+000  0.000000e+000  1.000000e+000
    outer loop
      vertex  2.009733e+002  1.000665e+001  1.500000e+000
      vertex  3.688018e+002  1.000665e+001  1.500000e+000
      vertex  2.004461e+002  1.127944e+001  1.500000e+000
    endloop
  endfacet
  facet normal  0.000000e+000  0.000000e+000  1.000000e+000
    outer loop
      vertex  2.954470e+001  1.000665e+001  1.500000e+000
      vertex  1.973733e+002  1.000665e+001  1.500000e+000
      vertex  2.901750e+001  1.127944e+001  1.500000e+000
    endloop
  endfacet
  facet normal  0.000000e+000  0.000000e+000  1.000000e+000
    outer loop
      vertex  8.660254e-001  1.500000e+000  1.500000e+000
      vertex  7.134590e+002  8.206649e+000  1.500000e+000
      vertex  7.121862e+002  8.733857e+000  1.500000e+000
    endloop
  endfacet
  facet normal  0.000000e+000  0.000000e+000  1.000000e+000
    outer loop
      vertex  8.660254e-001  1.500000e+000  1.500000e+000
      vertex  7.121862e+002  8.733857e+000  1.500000e+000
      vertex  7.116590e+002  1.000665e+001  1.500000e+000
    endloop
  endfacet
  facet normal  0.000000e+000  0.000000e+000  9.999999e-001
    outer loop
      vertex  8.660254e-001  1.500000e+000  1.500000e+000
      vertex  7.116590e+002  1.000665e+001  1.500000e+000
      vertex  5.420304e+002  8.206649e+000  1.500000e+000
    endloop
  endfacet
  facet normal  0.000000e+000  0.000000e+000  1.000000e+000
    outer loop
      vertex  8.660254e-001  1.500000e+000  1.500000e+000
      vertex  5.420304e+002  8.206649e+000  1.500000e+000
      vertex  5.407576e+002  8.733857e+000  1.500000e+000
    endloop
  endfacet
  facet normal  0.000000e+000  0.000000e+000  1.000000e+000
    outer loop
      vertex  8.660254e-001  1.500000e+000  1.500000e+000
      vertex  5.407576e+002  8.733857e+000  1.500000e+000
      vertex  5.402304e+002  1.000665e+001  1.500000e+000
    endloop
  endfacet
  facet normal  0.000000e+000  0.000000e+000  9.999999e-001
    outer loop
      vertex  8.660254e-001  1.500000e+000  1.500000e+000
      vertex  5.402304e+002  1.000665e+001  1.500000e+000
      vertex  3.706018e+002  8.206649e+000  1.500000e+000
    endloop
  endfacet
  facet normal  0.000000e+000  0.000000e+000  1.000000e+000
    outer loop
      vertex  8.660254e-001  1.500000e+000  1.500000e+000
      vertex  3.706018e+002  8.206649e+000  1.500000e+000
      vertex  3.693290e+002  8.733857e+000  1.500000e+000
    endloop
  endfacet
  facet normal  0.000000e+000  0.000000e+000  1.000000e+000
    outer loop
      vertex  8.660254e-001  1.500000e+000  1.500000e+000
      vertex  3.693290e+002  8.733857e+000  1.500000e+000
      vertex  3.688018e+002  1.000665e+001  1.500000e+000
    endloop
  endfacet
  facet normal  0.000000e+000  0.000000e+000  9.999999e-001
    outer loop
      vertex  8.660254e-001  1.500000e+000  1.500000e+000
      vertex  3.688018e+002  1.000665e+001  1.500000e+000
      vertex  1.991733e+002  8.206649e+000  1.500000e+000
    endloop
  endfacet
  facet normal  0.000000e+000  0.000000e+000  9.999999e-001
    outer loop
      vertex  8.660254e-001  1.500000e+000  1.500000e+000
      vertex  1.991733e+002  8.206649e+000  1.500000e+000
      vertex  1.979005e+002  8.733857e+000  1.500000e+000
    endloop
  endfacet
  facet normal  0.000000e+000  0.000000e+000  1.000000e+000
    outer loop
      vertex  8.660254e-001  1.500000e+000  1.500000e+000
      vertex  1.979005e+002  8.733857e+000  1.500000e+000
      vertex  1.973733e+002  1.000665e+001  1.500000e+000
    endloop
  endfacet
  facet normal  0.000000e+000  0.000000e+000  1.000000e+000
    outer loop
      vertex  8.660254e-001  1.500000e+000  1.500000e+000
      vertex  1.973733e+002  1.000665e+001  1.500000e+000
      vertex  2.774470e+001  8.206649e+000  1.500000e+000
    endloop
  endfacet
  facet normal  0.000000e+000  0.000000e+000  1.000000e+000
    outer loop
      vertex  8.660254e-001  1.500000e+000  1.500000e+000
      vertex  2.774470e+001  8.206649e+000  1.500000e+000
      vertex  2.647191e+001  8.733857e+000  1.500000e+000
    endloop
  endfacet
  facet normal  0.000000e+000  0.000000e+000  1.000000e+000
    outer loop
      vertex  8.660254e-001  1.500000e+000  1.500000e+000
      vertex  2.647191e+001  8.733857e+000  1.500000e+000
      vertex  2.594470e+001  1.000665e+001  1.500000e+000
    endloop
  endfacet
  facet normal  0.000000e+000  0.000000e+000  1.000000e+000
    outer loop
      vertex  8.660254e-001  1.500000e+000  1.500000e+000
      vertex  2.594470e+001  1.000665e+001  1.500000e+000
      vertex  1.154701e+001  2.000000e+001  1.500000e+000
    endloop
  endfacet
  facet normal  0.000000e+000  0.000000e+000  1.000000e+000
    outer loop
      vertex  1.250000e+003  1.500000e+000  1.500000e+000
      vertex  1.250000e+003  2.000000e+001  1.500000e+000
      vertex  1.229545e+003  1.000665e+001  1.500000e+000
    endloop
  endfacet
  facet normal  0.000000e+000  0.000000e+000  1.000000e+000
    outer loop
      vertex  1.250000e+003  1.500000e+000  1.500000e+000
      vertex  1.229545e+003  1.000665e+001  1.500000e+000
      vertex  1.229017e+003  8.733857e+000  1.500000e+000
    endloop
  endfacet
  facet normal  0.000000e+000  0.000000e+000  1.000000e+000
    outer loop
      vertex  1.250000e+003  1.500000e+000  1.500000e+000
      vertex  1.229017e+003  8.733857e+000  1.500000e+000
      vertex  1.227745e+003  8.206649e+000  1.500000e+000
    endloop
  endfacet
  facet normal  0.000000e+000  0.000000e+000  1.000000e+000
    outer loop
      vertex  1.250000e+003  1.500000e+000  1.500000e+000
      vertex  1.227745e+003  8.206649e+000  1.500000e+000
      vertex  8.660254e-001  1.500000e+000  1.500000e+000
    endloop
  endfacet
  facet normal  0.000000e+000  -0.000000e+000  1.000000e+000
    outer loop
      vertex  1.154701e+001  2.000000e+001  1.500000e+000
      vertex  2.594470e+001  1.000665e+001  1.500000e+000
      vertex  2.647191e+001  1.127944e+001  1.500000e+000
    endloop
  endfacet
  facet normal  0.000000e+000  -0.000000e+000  1.000000e+000
    outer loop
      vertex  1.154701e+001  2.000000e+001  1.500000e+000
      vertex  2.647191e+001  1.127944e+001  1.500000e+000
      vertex  2.774470e+001  1.180665e+001  1.500000e+000
    endloop
  endfacet
  facet normal  -0.000000e+000  -0.000000e+000  9.999999e-001
    outer loop
      vertex  1.154701e+001  2.000000e+001  1.500000e+000
      vertex  2.774470e+001  1.180665e+001  1.500000e+000
      vertex  2.901750e+001  1.127944e+001  1.500000e+000
    endloop
  endfacet
  facet normal  -0.000000e+000  -0.000000e+000  1.000000e+000
    outer loop
      vertex  1.154701e+001  2.000000e+001  1.500000e+000
      vertex  2.901750e+001  1.127944e+001  1.500000e+000
      vertex  1.973733e+002  1.000665e+001  1.500000e+000
    endloop
  endfacet
  facet normal  0.000000e+000  -0.000000e+000  9.999999e-001
    outer loop
      vertex  1.154701e+001  2.000000e+001  1.500000e+000
      vertex  1.973733e+002  1.000665e+001  1.500000e+000
      vertex  1.979005e+002  1.127944e+001  1.500000e+000
    endloop
  endfacet
  facet normal  0.000000e+000  -0.000000e+000  1.000000e+000
    outer loop
      vertex  1.154701e+001  2.000000e+001  1.500000e+000
      vertex  1.979005e+002  1.127944e+001  1.500000e+000
      vertex  1.991733e+002  1.180665e+001  1.500000e+000
    endloop
  endfacet
  facet normal  -0.000000e+000  -0.000000e+000  1.000000e+000
    outer loop
      vertex  1.154701e+001  2.000000e+001  1.500000e+000
      vertex  1.991733e+002  1.180665e+001  1.500000e+000
      vertex  3.688018e+002  1.000665e+001  1.500000e+000
    endloop
  endfacet
  facet normal  0.000000e+000  -0.000000e+000  9.999999e-001
    outer loop
      vertex  1.154701e+001  2.000000e+001  1.500000e+000
      vertex  3.688018e+002  1.000665e+001  1.500000e+000
      vertex  3.693290e+002  1.127944e+001  1.500000e+000
    endloop
  endfacet
  facet normal  0.000000e+000  -0.000000e+000  1.000000e+000
    outer loop
      vertex  1.154701e+001  2.000000e+001  1.500000e+000
      vertex  3.693290e+002  1.127944e+001  1.500000e+000
      vertex  3.706018e+002  1.180665e+001  1.500000e+000
    endloop
  endfacet
  facet normal  -0.000000e+000  -0.000000e+000  1.000000e+000
    outer loop
      vertex  1.154701e+001  2.000000e+001  1.500000e+000
      vertex  3.706018e+002  1.180665e+001  1.500000e+000
      vertex  5.402304e+002  1.000665e+001  1.500000e+000
    endloop
  endfacet
  facet normal  0.000000e+000  -0.000000e+000  1.000000e+000
    outer loop
      vertex  1.154701e+001  2.000000e+001  1.500000e+000
      vertex  5.402304e+002  1.000665e+001  1.500000e+000
      vertex  5.407576e+002  1.127944e+001  1.500000e+000
    endloop
  endfacet
  facet normal  0.000000e+000  -0.000000e+000  1.000000e+000
    outer loop
      vertex  1.154701e+001  2.000000e+001  1.500000e+000
      vertex  5.407576e+002  1.127944e+001  1.500000e+000
      vertex  5.420304e+002  1.180665e+001  1.500000e+000
    endloop
  endfacet
  facet normal  -0.000000e+000  -0.000000e+000  1.000000e+000
    outer loop
      vertex  1.154701e+001  2.000000e+001  1.500000e+000
      vertex  5.420304e+002  1.180665e+001  1.500000e+000
      vertex  7.116590e+002  1.000665e+001  1.500000e+000
    endloop
  endfacet
  facet normal  0.000000e+000  -0.000000e+000  9.999999e-001
    outer loop
      vertex  1.154701e+001  2.000000e+001  1.500000e+000
      vertex  7.116590e+002  1.000665e+001  1.500000e+000
      vertex  7.121862e+002  1.127944e+001  1.500000e+000
    endloop
  endfacet
  facet normal  0.000000e+000  -0.000000e+000  1.000000e+000
    outer loop
      vertex  1.154701e+001  2.000000e+001  1.500000e+000
      vertex  7.121862e+002  1.127944e+001  1.500000e+000
      vertex  7.134590e+002  1.180665e+001  1.500000e+000
    endloop
  endfacet
  facet normal  -0.000000e+000  -0.000000e+000  9.999999e-001
    outer loop
      vertex  1.154701e+001  2.000000e+001  1.500000e+000
      vertex  7.134590e+002  1.180665e+001  1.500000e+000
      vertex  8.830876e+002  1.000665e+001  1.500000e+000
    endloop
  endfacet
  facet normal  0.000000e+000  -0.000000e+000  1.000000e+000
    outer loop
      vertex  1.154701e+001  2.000000e+001  1.500000e+000
      vertex  8.830876e+002  1.000665e+001  1.500000e+000
      vertex  8.836147e+002  1.127944e+001  1.500000e+000
    endloop
  endfacet
  facet normal  0.000000e+000  -0.000000e+000  1.000000e+000
    outer loop
      vertex  1.154701e+001  2.000000e+001  1.500000e+000
      vertex  8.836147e+002  1.127944e+001  1.500000e+000
      vertex  8.848876e+002  1.180665e+001  1.500000e+000
    endloop
  endfacet
  facet normal  -0.000000e+000  0.000000e+000  1.000000e+000
    outer loop
      vertex  1.250000e+003  2.000000e+001  1.500000e+000
      vertex  1.154701e+001  2.000000e+001  1.500000e+000
      vertex  1.227745e+003  1.180665e+001  1.500000e+000
    endloop
  endfacet
  facet normal  -0.000000e+000  0.000000e+000  1.000000e+000
    outer loop
      vertex  1.250000e+003  2.000000e+001  1.500000e+000
      vertex  1.227745e+003  1.180665e+001  1.500000e+000
      vertex  1.229017e+003  1.127944e+001  1.500000e+000
    endloop
  endfacet
  facet normal  -0.000000e+000  0.000000e+000  1.000000e+000
    outer loop
      vertex  1.250000e+003  2.000000e+001  1.500000e+000
      vertex  1.229017e+003  1.127944e+001  1.500000e+000
      vertex  1.229545e+003  1.000665e+001  1.500000e+000
    endloop
  endfacet
  facet normal  0.000000e+000  0.000000e+000  9.999999e-001
    outer loop
      vertex  7.152590e+002  1.000665e+001  1.500000e+000
      vertex  7.147318e+002  8.733857e+000  1.500000e+000
      vertex  8.830876e+002  1.000665e+001  1.500000e+000
    endloop
  endfacet
  facet normal  0.000000e+000  0.000000e+000  1.000000e+000
    outer loop
      vertex  8.830876e+002  1.000665e+001  1.500000e+000
      vertex  7.147318e+002  8.733857e+000  1.500000e+000
      vertex  7.134590e+002  8.206649e+000  1.500000e+000
    endloop
  endfacet
  facet normal  0.000000e+000  0.000000e+000  1.000000e+000
    outer loop
      vertex  8.830876e+002  1.000665e+001  1.500000e+000
      vertex  7.134590e+002  8.206649e+000  1.500000e+000
      vertex  8.836147e+002  8.733857e+000  1.500000e+000
    endloop
  endfacet
  facet normal  0.000000e+000  0.000000e+000  1.000000e+000
    outer loop
      vertex  8.836147e+002  8.733857e+000  1.500000e+000
      vertex  7.134590e+002  8.206649e+000  1.500000e+000
      vertex  8.660254e-001  1.500000e+000  1.500000e+000
    endloop
  endfacet
  facet normal  0.000000e+000  0.000000e+000  9.999999e-001
    outer loop
      vertex  8.836147e+002  8.733857e+000  1.500000e+000
      vertex  8.660254e-001  1.500000e+000  1.500000e+000
      vertex  8.848876e+002  8.206649e+000  1.500000e+000
    endloop
  endfacet
  facet normal  0.000000e+000  0.000000e+000  1.000000e+000
    outer loop
      vertex  8.866876e+002  1.000665e+001  1.500000e+000
      vertex  8.861603e+002  8.733857e+000  1.500000e+000
      vertex  1.054516e+003  1.000665e+001  1.500000e+000
    endloop
  endfacet
  facet normal  0.000000e+000  0.000000e+000  1.000000e+000
    outer loop
      vertex  1.054516e+003  1.000665e+001  1.500000e+000
      vertex  8.861603e+002  8.733857e+000  1.500000e+000
      vertex  8.848876e+002  8.206649e+000  1.500000e+000
    endloop
  endfacet
  facet normal  0.000000e+000  0.000000e+000  1.000000e+000
    outer loop
      vertex  1.054516e+003  1.000665e+001  1.500000e+000
      vertex  8.848876e+002  8.206649e+000  1.500000e+000
      vertex  1.055043e+003  8.733857e+000  1.500000e+000
    endloop
  endfacet
  facet normal  0.000000e+000  0.000000e+000  9.999999e-001
    outer loop
      vertex  1.055043e+003  8.733857e+000  1.500000e+000
      vertex  8.848876e+002  8.206649e+000  1.500000e+000
      vertex  8.660254e-001  1.500000e+000  1.500000e+000
    endloop
  endfacet
  facet normal  0.000000e+000  0.000000e+000  1.000000e+000
    outer loop
      vertex  1.055043e+003  8.733857e+000  1.500000e+000
      vertex  8.660254e-001  1.500000e+000  1.500000e+000
      vertex  1.056316e+003  8.206649e+000  1.500000e+000
    endloop
  endfacet
  facet normal  0.000000e+000  0.000000e+000  1.000000e+000
    outer loop
      vertex  1.058116e+003  1.000665e+001  1.500000e+000
      vertex  1.057589e+003  8.733857e+000  1.500000e+000
      vertex  1.225945e+003  1.000665e+001  1.500000e+000
    endloop
  endfacet
  facet normal  0.000000e+000  0.000000e+000  1.000000e+000
    outer loop
      vertex  1.225945e+003  1.000665e+001  1.500000e+000
      vertex  1.057589e+003  8.733857e+000  1.500000e+000
      vertex  1.056316e+003  8.206649e+000  1.500000e+000
    endloop
  endfacet
  facet normal  0.000000e+000  0.000000e+000  1.000000e+000
    outer loop
      vertex  1.225945e+003  1.000665e+001  1.500000e+000
      vertex  1.056316e+003  8.206649e+000  1.500000e+000
      vertex  1.226472e+003  8.733857e+000  1.500000e+000
    endloop
  endfacet
  facet normal  0.000000e+000  0.000000e+000  1.000000e+000
    outer loop
      vertex  1.226472e+003  8.733857e+000  1.500000e+000
      vertex  1.056316e+003  8.206649e+000  1.500000e+000
      vertex  8.660254e-001  1.500000e+000  1.500000e+000
    endloop
  endfacet
  facet normal  0.000000e+000  0.000000e+000  1.000000e+000
    outer loop
      vertex  1.226472e+003  8.733857e+000  1.500000e+000
      vertex  8.660254e-001  1.500000e+000  1.500000e+000
      vertex  1.227745e+003  8.206649e+000  1.500000e+000
    endloop
  endfacet
  facet normal  0.000000e+000  0.000000e+000  1.000000e+000
    outer loop
      vertex  8.866876e+002  1.000665e+001  1.500000e+000
      vertex  1.054516e+003  1.000665e+001  1.500000e+000
      vertex  8.861603e+002  1.127944e+001  1.500000e+000
    endloop
  endfacet
  facet normal  -0.000000e+000  0.000000e+000  1.000000e+000
    outer loop
      vertex  8.861603e+002  1.127944e+001  1.500000e+000
      vertex  1.054516e+003  1.000665e+001  1.500000e+000
      vertex  1.055043e+003  1.127944e+001  1.500000e+000
    endloop
  endfacet
  facet normal  0.000000e+000  0.000000e+000  1.000000e+000
    outer loop
      vertex  8.861603e+002  1.127944e+001  1.500000e+000
      vertex  1.055043e+003  1.127944e+001  1.500000e+000
      vertex  8.848876e+002  1.180665e+001  1.500000e+000
    endloop
  endfacet
  facet normal  -0.000000e+000  0.000000e+000  1.000000e+000
    outer loop
      vertex  8.848876e+002  1.180665e+001  1.500000e+000
      vertex  1.055043e+003  1.127944e+001  1.500000e+000
      vertex  1.056316e+003  1.180665e+001  1.500000e+000
    endloop
  endfacet
  facet normal  0.000000e+000  0.000000e+000  9.999999e-001
    outer loop
      vertex  8.848876e+002  1.180665e+001  1.500000e+000
      vertex  1.056316e+003  1.180665e+001  1.500000e+000
      vertex  1.154701e+001  2.000000e+001  1.500000e+000
    endloop
  endfacet
  facet normal  0.000000e+000  0.000000e+000  9.999999e-001
    outer loop
      vertex  1.058116e+003  1.000665e+001  1.500000e+000
      vertex  1.225945e+003  1.000665e+001  1.500000e+000
      vertex  1.057589e+003  1.127944e+001  1.500000e+000
    endloop
  endfacet
  facet normal  -0.000000e+000  0.000000e+000  1.000000e+000
    outer loop
      vertex  1.057589e+003  1.127944e+001  1.500000e+000
      vertex  1.225945e+003  1.000665e+001  1.500000e+000
      vertex  1.226472e+003  1.127944e+001  1.500000e+000
    endloop
  endfacet
  facet normal  0.000000e+000  0.000000e+000  1.000000e+000
    outer loop
      vertex  1.057589e+003  1.127944e+001  1.500000e+000
      vertex  1.226472e+003  1.127944e+001  1.500000e+000
      vertex  1.056316e+003  1.180665e+001  1.500000e+000
    endloop
  endfacet
  facet normal  -0.000000e+000  0.000000e+000  1.000000e+000
    outer loop
      vertex  1.056316e+003  1.180665e+001  1.500000e+000
      vertex  1.226472e+003  1.127944e+001  1.500000e+000
      vertex  1.227745e+003  1.180665e+001  1.500000e+000
    endloop
  endfacet
  facet normal  0.000000e+000  0.000000e+000  9.999999e-001
    outer loop
      vertex  1.056316e+003  1.180665e+001  1.500000e+000
      vertex  1.227745e+003  1.180665e+001  1.500000e+000
      vertex  1.154701e+001  2.000000e+001  1.500000e+000
    endloop
  endfacet
  facet normal -8.660253e-001  4.999999e-001  0.000000e+000
    outer loop
      vertex  0.000000e+000  0.000000e+000  2.000000e+001
      vertex  8.660254e-001  1.500000e+000  2.000000e+001
      vertex  0.000000e+000  0.000000e+000  0.000000e+000
    endloop
  endfacet
  facet normal -8.660254e-001  5.000000e-001  0.000000e+000
    outer loop
      vertex  0.000000e+000  0.000000e+000  0.000000e+000
      vertex  8.660254e-001  1.500000e+000  2.000000e+001
      vertex  8.660254e-001  1.500000e+000  1.500000e+000
    endloop
  endfacet
  facet normal -8.660253e-001  5.000000e-001 -5.506041e-008
    outer loop
      vertex  0.000000e+000  0.000000e+000  0.000000e+000
      vertex  8.660254e-001  1.500000e+000  1.500000e+000
      vertex  1.154701e+001  2.000000e+001  0.000000e+000
    endloop
  endfacet
  facet normal -8.660254e-001  5.000001e-001  0.000000e+000
    outer loop
      vertex  1.154701e+001  2.000000e+001  0.000000e+000
      vertex  8.660254e-001  1.500000e+000  1.500000e+000
      vertex  1.154701e+001  2.000000e+001  1.500000e+000
    endloop
  endfacet
  facet normal  0.000000e+000  1.000000e+000  0.000000e+000
    outer loop
      vertex  1.154701e+001  2.000000e+001  1.500000e+000
      vertex  1.250000e+003  2.000000e+001  1.500000e+000
      vertex  1.154701e+001  2.000000e+001  0.000000e+000
    endloop
  endfacet
  facet normal  0.000000e+000  1.000000e+000  0.000000e+000
    outer loop
      vertex  1.154701e+001  2.000000e+001  0.000000e+000
      vertex  1.250000e+003  2.000000e+001  1.500000e+000
      vertex  1.250000e+003  2.000000e+001  0.000000e+000
    endloop
  endfacet
  facet normal  0.000000e+000  1.000000e+000  0.000000e+000
    outer loop
      vertex  8.660254e-001  1.500000e+000  2.000000e+001
      vertex  1.250000e+003  1.500000e+000  2.000000e+001
      vertex  8.660254e-001  1.500000e+000  1.500000e+000
    endloop
  endfacet
  facet normal  0.000000e+000  1.000000e+000  0.000000e+000
    outer loop
      vertex  8.660254e-001  1.500000e+000  1.500000e+000
      vertex  1.250000e+003  1.500000e+000  2.000000e+001
      vertex  1.250000e+003  1.500000e+000  1.500000e+000
    endloop
  endfacet
  facet normal  0.000000e+000  0.000000e+000  1.000000e+000
    outer loop
      vertex  0.000000e+000  0.000000e+000  2.000000e+001
      vertex  1.250000e+003  0.000000e+000  2.000000e+001
      vertex  8.660254e-001  1.500000e+000  2.000000e+001
    endloop
  endfacet
  facet normal  -0.000000e+000  0.000000e+000  1.000000e+000
    outer loop
      vertex  8.660254e-001  1.500000e+000  2.000000e+001
      vertex  1.250000e+003  0.000000e+000  2.000000e+001
      vertex  1.250000e+003  1.500000e+000  2.000000e+001
    endloop
  endfacet
  facet normal  0.000000e+000 -1.000000e+000  0.000000e+000
    outer loop
      vertex  0.000000e+000  0.000000e+000  0.000000e+000
      vertex  1.250000e+003  0.000000e+000  0.000000e+000
      vertex  0.000000e+000  0.000000e+000  2.000000e+001
    endloop
  endfacet
  facet normal  0.000000e+000 -1.000000e+000  0.000000e+000
    outer loop
      vertex  0.000000e+000  0.000000e+000  2.000000e+001
      vertex  1.250000e+003  0.000000e+000  0.000000e+000
      vertex  1.250000e+003  0.000000e+000  2.000000e+001
    endloop
  endfacet
  facet normal  1.000000e+000  -0.000000e+000  0.000000e+000
    outer loop
      vertex  1.250000e+003  1.500000e+000  2.000000e+001
      vertex  1.250000e+003  0.000000e+000  2.000000e+001
      vertex  1.250000e+003  1.500000e+000  1.500000e+000
    endloop
  endfacet
  facet normal  1.000000e+000  0.000000e+000  0.000000e+000
    outer loop
      vertex  1.250000e+003  1.500000e+000  1.500000e+000
      vertex  1.250000e+003  0.000000e+000  2.000000e+001
      vertex  1.250000e+003  0.000000e+000  0.000000e+000
    endloop
  endfacet
  facet normal  1.000000e+000  0.000000e+000  0.000000e+000
    outer loop
      vertex  1.250000e+003  1.500000e+000  1.500000e+000
      vertex  1.250000e+003  0.000000e+000  0.000000e+000
      vertex  1.250000e+003  2.000000e+001  1.500000e+000
    endloop
  endfacet
  facet normal  1.000000e+000  0.000000e+000  0.000000e+000
    outer loop
      vertex  1.250000e+003  2.000000e+001  1.500000e+000
      vertex  1.250000e+003  0.000000e+000  0.000000e+000
      vertex  1.250000e+003  2.000000e+001  0.000000e+000
    endloop
  endfacet
endsolid CATIA STL
