solid CATIA STL
  facet normal  9.238799e-001  3.826827e-001  0.000000e+000
    outer loop
      vertex -3.880000e+001  1.250000e+001  0.000000e+000
      vertex -3.827279e+001  1.122721e+001  1.500000e+000
      vertex -3.827279e+001  1.122721e+001  0.000000e+000
    endloop
  endfacet
  facet normal  3.826836e-001  9.238794e-001  -0.000000e+000
    outer loop
      vertex -3.827279e+001  1.122721e+001  0.000000e+000
      vertex -3.827279e+001  1.122721e+001  1.500000e+000
      vertex -3.700000e+001  1.070000e+001  1.500000e+000
    endloop
  endfacet
  facet normal  3.826836e-001  9.238794e-001  0.000000e+000
    outer loop
      vertex -3.827279e+001  1.122721e+001  0.000000e+000
      vertex -3.700000e+001  1.070000e+001  1.500000e+000
      vertex -3.700000e+001  1.070000e+001  0.000000e+000
    endloop
  endfacet
  facet normal  9.238799e-001  3.826827e-001  -0.000000e+000
    outer loop
      vertex -3.827279e+001  1.122721e+001  1.500000e+000
      vertex -3.880000e+001  1.250000e+001  0.000000e+000
      vertex -3.880000e+001  1.250000e+001  1.500000e+000
    endloop
  endfacet
  facet normal  9.238799e-001 -3.826827e-001  0.000000e+000
    outer loop
      vertex -3.880000e+001  1.250000e+001  1.500000e+000
      vertex -3.880000e+001  1.250000e+001  0.000000e+000
      vertex -3.827279e+001  1.377279e+001  0.000000e+000
    endloop
  endfacet
  facet normal  9.238799e-001 -3.826827e-001  0.000000e+000
    outer loop
      vertex -3.880000e+001  1.250000e+001  1.500000e+000
      vertex -3.827279e+001  1.377279e+001  0.000000e+000
      vertex -3.827279e+001  1.377279e+001  1.500000e+000
    endloop
  endfacet
  facet normal  3.826836e-001 -9.238794e-001  0.000000e+000
    outer loop
      vertex -3.827279e+001  1.377279e+001  1.500000e+000
      vertex -3.827279e+001  1.377279e+001  0.000000e+000
      vertex -3.700000e+001  1.430000e+001  0.000000e+000
    endloop
  endfacet
  facet normal  3.826836e-001 -9.238794e-001  0.000000e+000
    outer loop
      vertex -3.827279e+001  1.377279e+001  1.500000e+000
      vertex -3.700000e+001  1.430000e+001  0.000000e+000
      vertex -3.700000e+001  1.430000e+001  1.500000e+000
    endloop
  endfacet
  facet normal -9.238799e-001 -3.826827e-001  -0.000000e+000
    outer loop
      vertex -3.520000e+001  1.250000e+001  0.000000e+000
      vertex -3.572721e+001  1.377279e+001  1.500000e+000
      vertex -3.572721e+001  1.377279e+001  0.000000e+000
    endloop
  endfacet
  facet normal -3.826836e-001 -9.238794e-001  0.000000e+000
    outer loop
      vertex -3.572721e+001  1.377279e+001  0.000000e+000
      vertex -3.572721e+001  1.377279e+001  1.500000e+000
      vertex -3.700000e+001  1.430000e+001  1.500000e+000
    endloop
  endfacet
  facet normal -3.826836e-001 -9.238794e-001  -0.000000e+000
    outer loop
      vertex -3.572721e+001  1.377279e+001  0.000000e+000
      vertex -3.700000e+001  1.430000e+001  1.500000e+000
      vertex -3.700000e+001  1.430000e+001  0.000000e+000
    endloop
  endfacet
  facet normal -9.238799e-001 -3.826827e-001  0.000000e+000
    outer loop
      vertex -3.572721e+001  1.377279e+001  1.500000e+000
      vertex -3.520000e+001  1.250000e+001  0.000000e+000
      vertex -3.520000e+001  1.250000e+001  1.500000e+000
    endloop
  endfacet
  facet normal -9.238799e-001  3.826827e-001  0.000000e+000
    outer loop
      vertex -3.520000e+001  1.250000e+001  1.500000e+000
      vertex -3.520000e+001  1.250000e+001  0.000000e+000
      vertex -3.572721e+001  1.122721e+001  0.000000e+000
    endloop
  endfacet
  facet normal -9.238799e-001  3.826827e-001  0.000000e+000
    outer loop
      vertex -3.520000e+001  1.250000e+001  1.500000e+000
      vertex -3.572721e+001  1.122721e+001  0.000000e+000
      vertex -3.572721e+001  1.122721e+001  1.500000e+000
    endloop
  endfacet
  facet normal -3.826836e-001  9.238794e-001  0.000000e+000
    outer loop
      vertex -3.572721e+001  1.122721e+001  1.500000e+000
      vertex -3.572721e+001  1.122721e+001  0.000000e+000
      vertex -3.700000e+001  1.070000e+001  0.000000e+000
    endloop
  endfacet
  facet normal -3.826836e-001  9.238794e-001  0.000000e+000
    outer loop
      vertex -3.572721e+001  1.122721e+001  1.500000e+000
      vertex -3.700000e+001  1.070000e+001  0.000000e+000
      vertex -3.700000e+001  1.070000e+001  1.500000e+000
    endloop
  endfacet
  facet normal  9.238793e-001  3.826838e-001  0.000000e+000
    outer loop
      vertex -1.380000e+001  1.250000e+001  0.000000e+000
      vertex -1.327279e+001  1.122721e+001  1.500000e+000
      vertex -1.327279e+001  1.122721e+001  0.000000e+000
    endloop
  endfacet
  facet normal  3.826838e-001  9.238793e-001  -0.000000e+000
    outer loop
      vertex -1.327279e+001  1.122721e+001  0.000000e+000
      vertex -1.327279e+001  1.122721e+001  1.500000e+000
      vertex -1.200000e+001  1.070000e+001  1.500000e+000
    endloop
  endfacet
  facet normal  3.826838e-001  9.238793e-001  0.000000e+000
    outer loop
      vertex -1.327279e+001  1.122721e+001  0.000000e+000
      vertex -1.200000e+001  1.070000e+001  1.500000e+000
      vertex -1.200000e+001  1.070000e+001  0.000000e+000
    endloop
  endfacet
  facet normal  9.238793e-001  3.826838e-001  -0.000000e+000
    outer loop
      vertex -1.327279e+001  1.122721e+001  1.500000e+000
      vertex -1.380000e+001  1.250000e+001  0.000000e+000
      vertex -1.380000e+001  1.250000e+001  1.500000e+000
    endloop
  endfacet
  facet normal  9.238793e-001 -3.826838e-001  0.000000e+000
    outer loop
      vertex -1.380000e+001  1.250000e+001  1.500000e+000
      vertex -1.380000e+001  1.250000e+001  0.000000e+000
      vertex -1.327279e+001  1.377279e+001  0.000000e+000
    endloop
  endfacet
  facet normal  9.238793e-001 -3.826838e-001  0.000000e+000
    outer loop
      vertex -1.380000e+001  1.250000e+001  1.500000e+000
      vertex -1.327279e+001  1.377279e+001  0.000000e+000
      vertex -1.327279e+001  1.377279e+001  1.500000e+000
    endloop
  endfacet
  facet normal  3.826838e-001 -9.238793e-001  0.000000e+000
    outer loop
      vertex -1.327279e+001  1.377279e+001  1.500000e+000
      vertex -1.327279e+001  1.377279e+001  0.000000e+000
      vertex -1.200000e+001  1.430000e+001  0.000000e+000
    endloop
  endfacet
  facet normal  3.826838e-001 -9.238793e-001  0.000000e+000
    outer loop
      vertex -1.327279e+001  1.377279e+001  1.500000e+000
      vertex -1.200000e+001  1.430000e+001  0.000000e+000
      vertex -1.200000e+001  1.430000e+001  1.500000e+000
    endloop
  endfacet
  facet normal -9.238793e-001 -3.826838e-001  -0.000000e+000
    outer loop
      vertex -1.020000e+001  1.250000e+001  0.000000e+000
      vertex -1.072721e+001  1.377279e+001  1.500000e+000
      vertex -1.072721e+001  1.377279e+001  0.000000e+000
    endloop
  endfacet
  facet normal -3.826838e-001 -9.238793e-001  0.000000e+000
    outer loop
      vertex -1.072721e+001  1.377279e+001  0.000000e+000
      vertex -1.072721e+001  1.377279e+001  1.500000e+000
      vertex -1.200000e+001  1.430000e+001  1.500000e+000
    endloop
  endfacet
  facet normal -3.826838e-001 -9.238793e-001  -0.000000e+000
    outer loop
      vertex -1.072721e+001  1.377279e+001  0.000000e+000
      vertex -1.200000e+001  1.430000e+001  1.500000e+000
      vertex -1.200000e+001  1.430000e+001  0.000000e+000
    endloop
  endfacet
  facet normal -9.238793e-001 -3.826838e-001  0.000000e+000
    outer loop
      vertex -1.072721e+001  1.377279e+001  1.500000e+000
      vertex -1.020000e+001  1.250000e+001  0.000000e+000
      vertex -1.020000e+001  1.250000e+001  1.500000e+000
    endloop
  endfacet
  facet normal -9.238793e-001  3.826838e-001  0.000000e+000
    outer loop
      vertex -1.020000e+001  1.250000e+001  1.500000e+000
      vertex -1.020000e+001  1.250000e+001  0.000000e+000
      vertex -1.072721e+001  1.122721e+001  0.000000e+000
    endloop
  endfacet
  facet normal -9.238793e-001  3.826838e-001  0.000000e+000
    outer loop
      vertex -1.020000e+001  1.250000e+001  1.500000e+000
      vertex -1.072721e+001  1.122721e+001  0.000000e+000
      vertex -1.072721e+001  1.122721e+001  1.500000e+000
    endloop
  endfacet
  facet normal -3.826838e-001  9.238793e-001  0.000000e+000
    outer loop
      vertex -1.072721e+001  1.122721e+001  1.500000e+000
      vertex -1.072721e+001  1.122721e+001  0.000000e+000
      vertex -1.200000e+001  1.070000e+001  0.000000e+000
    endloop
  endfacet
  facet normal -3.826838e-001  9.238793e-001  0.000000e+000
    outer loop
      vertex -1.072721e+001  1.122721e+001  1.500000e+000
      vertex -1.200000e+001  1.070000e+001  0.000000e+000
      vertex -1.200000e+001  1.070000e+001  1.500000e+000
    endloop
  endfacet
  facet normal  9.238793e-001  3.826838e-001  0.000000e+000
    outer loop
      vertex  1.120000e+001  1.250000e+001  0.000000e+000
      vertex  1.172721e+001  1.122721e+001  1.500000e+000
      vertex  1.172721e+001  1.122721e+001  0.000000e+000
    endloop
  endfacet
  facet normal  3.826838e-001  9.238793e-001  -0.000000e+000
    outer loop
      vertex  1.172721e+001  1.122721e+001  0.000000e+000
      vertex  1.172721e+001  1.122721e+001  1.500000e+000
      vertex  1.300000e+001  1.070000e+001  1.500000e+000
    endloop
  endfacet
  facet normal  3.826838e-001  9.238793e-001  0.000000e+000
    outer loop
      vertex  1.172721e+001  1.122721e+001  0.000000e+000
      vertex  1.300000e+001  1.070000e+001  1.500000e+000
      vertex  1.300000e+001  1.070000e+001  0.000000e+000
    endloop
  endfacet
  facet normal  9.238793e-001  3.826838e-001  -0.000000e+000
    outer loop
      vertex  1.172721e+001  1.122721e+001  1.500000e+000
      vertex  1.120000e+001  1.250000e+001  0.000000e+000
      vertex  1.120000e+001  1.250000e+001  1.500000e+000
    endloop
  endfacet
  facet normal  9.238793e-001 -3.826838e-001  0.000000e+000
    outer loop
      vertex  1.120000e+001  1.250000e+001  1.500000e+000
      vertex  1.120000e+001  1.250000e+001  0.000000e+000
      vertex  1.172721e+001  1.377279e+001  0.000000e+000
    endloop
  endfacet
  facet normal  9.238793e-001 -3.826838e-001  0.000000e+000
    outer loop
      vertex  1.120000e+001  1.250000e+001  1.500000e+000
      vertex  1.172721e+001  1.377279e+001  0.000000e+000
      vertex  1.172721e+001  1.377279e+001  1.500000e+000
    endloop
  endfacet
  facet normal  3.826838e-001 -9.238793e-001  0.000000e+000
    outer loop
      vertex  1.172721e+001  1.377279e+001  1.500000e+000
      vertex  1.172721e+001  1.377279e+001  0.000000e+000
      vertex  1.300000e+001  1.430000e+001  0.000000e+000
    endloop
  endfacet
  facet normal  3.826838e-001 -9.238793e-001  0.000000e+000
    outer loop
      vertex  1.172721e+001  1.377279e+001  1.500000e+000
      vertex  1.300000e+001  1.430000e+001  0.000000e+000
      vertex  1.300000e+001  1.430000e+001  1.500000e+000
    endloop
  endfacet
  facet normal -9.238793e-001 -3.826838e-001  -0.000000e+000
    outer loop
      vertex  1.480000e+001  1.250000e+001  0.000000e+000
      vertex  1.427279e+001  1.377279e+001  1.500000e+000
      vertex  1.427279e+001  1.377279e+001  0.000000e+000
    endloop
  endfacet
  facet normal -3.826838e-001 -9.238793e-001  0.000000e+000
    outer loop
      vertex  1.427279e+001  1.377279e+001  0.000000e+000
      vertex  1.427279e+001  1.377279e+001  1.500000e+000
      vertex  1.300000e+001  1.430000e+001  1.500000e+000
    endloop
  endfacet
  facet normal -3.826838e-001 -9.238793e-001  -0.000000e+000
    outer loop
      vertex  1.427279e+001  1.377279e+001  0.000000e+000
      vertex  1.300000e+001  1.430000e+001  1.500000e+000
      vertex  1.300000e+001  1.430000e+001  0.000000e+000
    endloop
  endfacet
  facet normal -9.238793e-001 -3.826838e-001  0.000000e+000
    outer loop
      vertex  1.427279e+001  1.377279e+001  1.500000e+000
      vertex  1.480000e+001  1.250000e+001  0.000000e+000
      vertex  1.480000e+001  1.250000e+001  1.500000e+000
    endloop
  endfacet
  facet normal -9.238793e-001  3.826838e-001  0.000000e+000
    outer loop
      vertex  1.480000e+001  1.250000e+001  1.500000e+000
      vertex  1.480000e+001  1.250000e+001  0.000000e+000
      vertex  1.427279e+001  1.122721e+001  0.000000e+000
    endloop
  endfacet
  facet normal -9.238793e-001  3.826838e-001  0.000000e+000
    outer loop
      vertex  1.480000e+001  1.250000e+001  1.500000e+000
      vertex  1.427279e+001  1.122721e+001  0.000000e+000
      vertex  1.427279e+001  1.122721e+001  1.500000e+000
    endloop
  endfacet
  facet normal -3.826838e-001  9.238793e-001  0.000000e+000
    outer loop
      vertex  1.427279e+001  1.122721e+001  1.500000e+000
      vertex  1.427279e+001  1.122721e+001  0.000000e+000
      vertex  1.300000e+001  1.070000e+001  0.000000e+000
    endloop
  endfacet
  facet normal -3.826838e-001  9.238793e-001  0.000000e+000
    outer loop
      vertex  1.427279e+001  1.122721e+001  1.500000e+000
      vertex  1.300000e+001  1.070000e+001  0.000000e+000
      vertex  1.300000e+001  1.070000e+001  1.500000e+000
    endloop
  endfacet
  facet normal  9.238799e-001  3.826827e-001  0.000000e+000
    outer loop
      vertex  3.620000e+001  1.250000e+001  0.000000e+000
      vertex  3.672721e+001  1.122721e+001  1.500000e+000
      vertex  3.672721e+001  1.122721e+001  0.000000e+000
    endloop
  endfacet
  facet normal  3.826836e-001  9.238794e-001  -0.000000e+000
    outer loop
      vertex  3.672721e+001  1.122721e+001  0.000000e+000
      vertex  3.672721e+001  1.122721e+001  1.500000e+000
      vertex  3.800000e+001  1.070000e+001  1.500000e+000
    endloop
  endfacet
  facet normal  3.826836e-001  9.238794e-001  0.000000e+000
    outer loop
      vertex  3.672721e+001  1.122721e+001  0.000000e+000
      vertex  3.800000e+001  1.070000e+001  1.500000e+000
      vertex  3.800000e+001  1.070000e+001  0.000000e+000
    endloop
  endfacet
  facet normal  9.238799e-001  3.826827e-001  -0.000000e+000
    outer loop
      vertex  3.672721e+001  1.122721e+001  1.500000e+000
      vertex  3.620000e+001  1.250000e+001  0.000000e+000
      vertex  3.620000e+001  1.250000e+001  1.500000e+000
    endloop
  endfacet
  facet normal  9.238799e-001 -3.826827e-001  0.000000e+000
    outer loop
      vertex  3.620000e+001  1.250000e+001  1.500000e+000
      vertex  3.620000e+001  1.250000e+001  0.000000e+000
      vertex  3.672721e+001  1.377279e+001  0.000000e+000
    endloop
  endfacet
  facet normal  9.238799e-001 -3.826827e-001  0.000000e+000
    outer loop
      vertex  3.620000e+001  1.250000e+001  1.500000e+000
      vertex  3.672721e+001  1.377279e+001  0.000000e+000
      vertex  3.672721e+001  1.377279e+001  1.500000e+000
    endloop
  endfacet
  facet normal  3.826836e-001 -9.238794e-001  0.000000e+000
    outer loop
      vertex  3.672721e+001  1.377279e+001  1.500000e+000
      vertex  3.672721e+001  1.377279e+001  0.000000e+000
      vertex  3.800000e+001  1.430000e+001  0.000000e+000
    endloop
  endfacet
  facet normal  3.826836e-001 -9.238794e-001  0.000000e+000
    outer loop
      vertex  3.672721e+001  1.377279e+001  1.500000e+000
      vertex  3.800000e+001  1.430000e+001  0.000000e+000
      vertex  3.800000e+001  1.430000e+001  1.500000e+000
    endloop
  endfacet
  facet normal -9.238799e-001 -3.826827e-001  -0.000000e+000
    outer loop
      vertex  3.980000e+001  1.250000e+001  0.000000e+000
      vertex  3.927279e+001  1.377279e+001  1.500000e+000
      vertex  3.927279e+001  1.377279e+001  0.000000e+000
    endloop
  endfacet
  facet normal -3.826836e-001 -9.238794e-001  0.000000e+000
    outer loop
      vertex  3.927279e+001  1.377279e+001  0.000000e+000
      vertex  3.927279e+001  1.377279e+001  1.500000e+000
      vertex  3.800000e+001  1.430000e+001  1.500000e+000
    endloop
  endfacet
  facet normal -3.826836e-001 -9.238794e-001  -0.000000e+000
    outer loop
      vertex  3.927279e+001  1.377279e+001  0.000000e+000
      vertex  3.800000e+001  1.430000e+001  1.500000e+000
      vertex  3.800000e+001  1.430000e+001  0.000000e+000
    endloop
  endfacet
  facet normal -9.238799e-001 -3.826827e-001  0.000000e+000
    outer loop
      vertex  3.927279e+001  1.377279e+001  1.500000e+000
      vertex  3.980000e+001  1.250000e+001  0.000000e+000
      vertex  3.980000e+001  1.250000e+001  1.500000e+000
    endloop
  endfacet
  facet normal -9.238799e-001  3.826827e-001  0.000000e+000
    outer loop
      vertex  3.980000e+001  1.250000e+001  1.500000e+000
      vertex  3.980000e+001  1.250000e+001  0.000000e+000
      vertex  3.927279e+001  1.122721e+001  0.000000e+000
    endloop
  endfacet
  facet normal -9.238799e-001  3.826827e-001  0.000000e+000
    outer loop
      vertex  3.980000e+001  1.250000e+001  1.500000e+000
      vertex  3.927279e+001  1.122721e+001  0.000000e+000
      vertex  3.927279e+001  1.122721e+001  1.500000e+000
    endloop
  endfacet
  facet normal -3.826836e-001  9.238794e-001  0.000000e+000
    outer loop
      vertex  3.927279e+001  1.122721e+001  1.500000e+000
      vertex  3.927279e+001  1.122721e+001  0.000000e+000
      vertex  3.800000e+001  1.070000e+001  0.000000e+000
    endloop
  endfacet
  facet normal -3.826836e-001  9.238794e-001  0.000000e+000
    outer loop
      vertex  3.927279e+001  1.122721e+001  1.500000e+000
      vertex  3.800000e+001  1.070000e+001  0.000000e+000
      vertex  3.800000e+001  1.070000e+001  1.500000e+000
    endloop
  endfacet
  facet normal  -0.000000e+000  -0.000000e+000  1.000000e+000
    outer loop
      vertex -1.200000e+001  1.430000e+001  1.500000e+000
      vertex -1.072721e+001  1.377279e+001  1.500000e+000
      vertex  1.120000e+001  1.250000e+001  1.500000e+000
    endloop
  endfacet
  facet normal  0.000000e+000  -0.000000e+000  9.999999e-001
    outer loop
      vertex -1.072721e+001  1.377279e+001  1.500000e+000
      vertex -1.020000e+001  1.250000e+001  1.500000e+000
      vertex  1.120000e+001  1.250000e+001  1.500000e+000
    endloop
  endfacet
  facet normal  -0.000000e+000  -0.000000e+000  1.000000e+000
    outer loop
      vertex -3.700000e+001  1.430000e+001  1.500000e+000
      vertex -3.572721e+001  1.377279e+001  1.500000e+000
      vertex -1.380000e+001  1.250000e+001  1.500000e+000
    endloop
  endfacet
  facet normal  0.000000e+000  -0.000000e+000  1.000000e+000
    outer loop
      vertex -3.572721e+001  1.377279e+001  1.500000e+000
      vertex -3.520000e+001  1.250000e+001  1.500000e+000
      vertex -1.380000e+001  1.250000e+001  1.500000e+000
    endloop
  endfacet
  facet normal  0.000000e+000  0.000000e+000  1.000000e+000
    outer loop
      vertex  1.300000e+001  1.070000e+001  1.500000e+000
      vertex  3.620000e+001  1.250000e+001  1.500000e+000
      vertex  1.427279e+001  1.122721e+001  1.500000e+000
    endloop
  endfacet
  facet normal  0.000000e+000  0.000000e+000  1.000000e+000
    outer loop
      vertex  1.427279e+001  1.122721e+001  1.500000e+000
      vertex  3.620000e+001  1.250000e+001  1.500000e+000
      vertex  1.480000e+001  1.250000e+001  1.500000e+000
    endloop
  endfacet
  facet normal  0.000000e+000  0.000000e+000  1.000000e+000
    outer loop
      vertex -1.200000e+001  1.070000e+001  1.500000e+000
      vertex  1.120000e+001  1.250000e+001  1.500000e+000
      vertex -1.072721e+001  1.122721e+001  1.500000e+000
    endloop
  endfacet
  facet normal  0.000000e+000  0.000000e+000  9.999999e-001
    outer loop
      vertex -1.072721e+001  1.122721e+001  1.500000e+000
      vertex  1.120000e+001  1.250000e+001  1.500000e+000
      vertex -1.020000e+001  1.250000e+001  1.500000e+000
    endloop
  endfacet
  facet normal  0.000000e+000  0.000000e+000  1.000000e+000
    outer loop
      vertex -3.700000e+001  1.070000e+001  1.500000e+000
      vertex -1.380000e+001  1.250000e+001  1.500000e+000
      vertex -3.572721e+001  1.122721e+001  1.500000e+000
    endloop
  endfacet
  facet normal  0.000000e+000  0.000000e+000  1.000000e+000
    outer loop
      vertex -3.572721e+001  1.122721e+001  1.500000e+000
      vertex -1.380000e+001  1.250000e+001  1.500000e+000
      vertex -3.520000e+001  1.250000e+001  1.500000e+000
    endloop
  endfacet
  facet normal  0.000000e+000  0.000000e+000  1.000000e+000
    outer loop
      vertex -7.600000e+001  1.500000e+000  1.500000e+000
      vertex  3.800000e+001  1.070000e+001  1.500000e+000
      vertex  3.672721e+001  1.122721e+001  1.500000e+000
    endloop
  endfacet
  facet normal  0.000000e+000  0.000000e+000  1.000000e+000
    outer loop
      vertex -7.600000e+001  1.500000e+000  1.500000e+000
      vertex  3.672721e+001  1.122721e+001  1.500000e+000
      vertex  3.620000e+001  1.250000e+001  1.500000e+000
    endloop
  endfacet
  facet normal  0.000000e+000  0.000000e+000  9.999999e-001
    outer loop
      vertex -7.600000e+001  1.500000e+000  1.500000e+000
      vertex  3.620000e+001  1.250000e+001  1.500000e+000
      vertex  1.300000e+001  1.070000e+001  1.500000e+000
    endloop
  endfacet
  facet normal  0.000000e+000  0.000000e+000  9.999999e-001
    outer loop
      vertex -7.600000e+001  1.500000e+000  1.500000e+000
      vertex  1.300000e+001  1.070000e+001  1.500000e+000
      vertex  1.172721e+001  1.122721e+001  1.500000e+000
    endloop
  endfacet
  facet normal  0.000000e+000  0.000000e+000  1.000000e+000
    outer loop
      vertex -7.600000e+001  1.500000e+000  1.500000e+000
      vertex  1.172721e+001  1.122721e+001  1.500000e+000
      vertex  1.120000e+001  1.250000e+001  1.500000e+000
    endloop
  endfacet
  facet normal  0.000000e+000  0.000000e+000  1.000000e+000
    outer loop
      vertex -7.600000e+001  1.500000e+000  1.500000e+000
      vertex  1.120000e+001  1.250000e+001  1.500000e+000
      vertex -1.200000e+001  1.070000e+001  1.500000e+000
    endloop
  endfacet
  facet normal  0.000000e+000  0.000000e+000  9.999999e-001
    outer loop
      vertex -7.600000e+001  1.500000e+000  1.500000e+000
      vertex -1.200000e+001  1.070000e+001  1.500000e+000
      vertex -1.327279e+001  1.122721e+001  1.500000e+000
    endloop
  endfacet
  facet normal  0.000000e+000  0.000000e+000  1.000000e+000
    outer loop
      vertex -7.600000e+001  1.500000e+000  1.500000e+000
      vertex -1.327279e+001  1.122721e+001  1.500000e+000
      vertex -1.380000e+001  1.250000e+001  1.500000e+000
    endloop
  endfacet
  facet normal  0.000000e+000  0.000000e+000  1.000000e+000
    outer loop
      vertex -7.600000e+001  1.500000e+000  1.500000e+000
      vertex -1.380000e+001  1.250000e+001  1.500000e+000
      vertex -3.700000e+001  1.070000e+001  1.500000e+000
    endloop
  endfacet
  facet normal  0.000000e+000  0.000000e+000  1.000000e+000
    outer loop
      vertex -7.600000e+001  1.500000e+000  1.500000e+000
      vertex -3.700000e+001  1.070000e+001  1.500000e+000
      vertex -3.827279e+001  1.122721e+001  1.500000e+000
    endloop
  endfacet
  facet normal  0.000000e+000  0.000000e+000  1.000000e+000
    outer loop
      vertex -7.600000e+001  1.500000e+000  1.500000e+000
      vertex -3.827279e+001  1.122721e+001  1.500000e+000
      vertex -3.880000e+001  1.250000e+001  1.500000e+000
    endloop
  endfacet
  facet normal  0.000000e+000  0.000000e+000  9.999999e-001
    outer loop
      vertex -7.600000e+001  2.000000e+001  1.500000e+000
      vertex -7.600000e+001  1.500000e+000  1.500000e+000
      vertex -3.880000e+001  1.250000e+001  1.500000e+000
    endloop
  endfacet
  facet normal  0.000000e+000  -0.000000e+000  1.000000e+000
    outer loop
      vertex -7.600000e+001  2.000000e+001  1.500000e+000
      vertex -3.880000e+001  1.250000e+001  1.500000e+000
      vertex -3.827279e+001  1.377279e+001  1.500000e+000
    endloop
  endfacet
  facet normal  0.000000e+000  -0.000000e+000  1.000000e+000
    outer loop
      vertex -7.600000e+001  2.000000e+001  1.500000e+000
      vertex -3.827279e+001  1.377279e+001  1.500000e+000
      vertex -3.700000e+001  1.430000e+001  1.500000e+000
    endloop
  endfacet
  facet normal  -0.000000e+000  -0.000000e+000  1.000000e+000
    outer loop
      vertex -7.600000e+001  2.000000e+001  1.500000e+000
      vertex -3.700000e+001  1.430000e+001  1.500000e+000
      vertex -1.380000e+001  1.250000e+001  1.500000e+000
    endloop
  endfacet
  facet normal  0.000000e+000  -0.000000e+000  1.000000e+000
    outer loop
      vertex -7.600000e+001  2.000000e+001  1.500000e+000
      vertex -1.380000e+001  1.250000e+001  1.500000e+000
      vertex -1.327279e+001  1.377279e+001  1.500000e+000
    endloop
  endfacet
  facet normal  0.000000e+000  -0.000000e+000  9.999999e-001
    outer loop
      vertex -7.600000e+001  2.000000e+001  1.500000e+000
      vertex -1.327279e+001  1.377279e+001  1.500000e+000
      vertex -1.200000e+001  1.430000e+001  1.500000e+000
    endloop
  endfacet
  facet normal  -0.000000e+000  -0.000000e+000  1.000000e+000
    outer loop
      vertex -7.600000e+001  2.000000e+001  1.500000e+000
      vertex -1.200000e+001  1.430000e+001  1.500000e+000
      vertex  1.120000e+001  1.250000e+001  1.500000e+000
    endloop
  endfacet
  facet normal  0.000000e+000  -0.000000e+000  9.999999e-001
    outer loop
      vertex -7.600000e+001  2.000000e+001  1.500000e+000
      vertex  1.120000e+001  1.250000e+001  1.500000e+000
      vertex  1.172721e+001  1.377279e+001  1.500000e+000
    endloop
  endfacet
  facet normal  0.000000e+000  -0.000000e+000  1.000000e+000
    outer loop
      vertex -7.600000e+001  2.000000e+001  1.500000e+000
      vertex  1.172721e+001  1.377279e+001  1.500000e+000
      vertex  1.300000e+001  1.430000e+001  1.500000e+000
    endloop
  endfacet
  facet normal  -0.000000e+000  0.000000e+000  1.000000e+000
    outer loop
      vertex  7.600000e+001  2.000000e+001  1.500000e+000
      vertex -7.600000e+001  2.000000e+001  1.500000e+000
      vertex  3.800000e+001  1.430000e+001  1.500000e+000
    endloop
  endfacet
  facet normal  -0.000000e+000  0.000000e+000  9.999999e-001
    outer loop
      vertex  7.600000e+001  2.000000e+001  1.500000e+000
      vertex  3.800000e+001  1.430000e+001  1.500000e+000
      vertex  3.927279e+001  1.377279e+001  1.500000e+000
    endloop
  endfacet
  facet normal  -0.000000e+000  0.000000e+000  1.000000e+000
    outer loop
      vertex  7.600000e+001  2.000000e+001  1.500000e+000
      vertex  3.927279e+001  1.377279e+001  1.500000e+000
      vertex  3.980000e+001  1.250000e+001  1.500000e+000
    endloop
  endfacet
  facet normal  -0.000000e+000  0.000000e+000  1.000000e+000
    outer loop
      vertex  7.600000e+001  2.000000e+001  1.500000e+000
      vertex  3.980000e+001  1.250000e+001  1.500000e+000
      vertex  7.600000e+001  1.500000e+000  1.500000e+000
    endloop
  endfacet
  facet normal  0.000000e+000  0.000000e+000  1.000000e+000
    outer loop
      vertex  7.600000e+001  1.500000e+000  1.500000e+000
      vertex  3.980000e+001  1.250000e+001  1.500000e+000
      vertex  3.927279e+001  1.122721e+001  1.500000e+000
    endloop
  endfacet
  facet normal  0.000000e+000  0.000000e+000  1.000000e+000
    outer loop
      vertex  7.600000e+001  1.500000e+000  1.500000e+000
      vertex  3.927279e+001  1.122721e+001  1.500000e+000
      vertex  3.800000e+001  1.070000e+001  1.500000e+000
    endloop
  endfacet
  facet normal  0.000000e+000  0.000000e+000  9.999999e-001
    outer loop
      vertex  7.600000e+001  1.500000e+000  1.500000e+000
      vertex  3.800000e+001  1.070000e+001  1.500000e+000
      vertex -7.600000e+001  1.500000e+000  1.500000e+000
    endloop
  endfacet
  facet normal  0.000000e+000  0.000000e+000  1.000000e+000
    outer loop
      vertex  3.800000e+001  1.430000e+001  1.500000e+000
      vertex -7.600000e+001  2.000000e+001  1.500000e+000
      vertex  3.672721e+001  1.377279e+001  1.500000e+000
    endloop
  endfacet
  facet normal  0.000000e+000  0.000000e+000  1.000000e+000
    outer loop
      vertex  3.672721e+001  1.377279e+001  1.500000e+000
      vertex -7.600000e+001  2.000000e+001  1.500000e+000
      vertex  1.300000e+001  1.430000e+001  1.500000e+000
    endloop
  endfacet
  facet normal  0.000000e+000  0.000000e+000  1.000000e+000
    outer loop
      vertex  3.672721e+001  1.377279e+001  1.500000e+000
      vertex  1.300000e+001  1.430000e+001  1.500000e+000
      vertex  3.620000e+001  1.250000e+001  1.500000e+000
    endloop
  endfacet
  facet normal  0.000000e+000  0.000000e+000  1.000000e+000
    outer loop
      vertex  3.620000e+001  1.250000e+001  1.500000e+000
      vertex  1.300000e+001  1.430000e+001  1.500000e+000
      vertex  1.427279e+001  1.377279e+001  1.500000e+000
    endloop
  endfacet
  facet normal  0.000000e+000  0.000000e+000  9.999999e-001
    outer loop
      vertex  3.620000e+001  1.250000e+001  1.500000e+000
      vertex  1.427279e+001  1.377279e+001  1.500000e+000
      vertex  1.480000e+001  1.250000e+001  1.500000e+000
    endloop
  endfacet
  facet normal  0.000000e+000  -0.000000e+000 -1.000000e+000
    outer loop
      vertex  1.300000e+001  1.070000e+001  0.000000e+000
      vertex  1.427279e+001  1.122721e+001  0.000000e+000
      vertex  3.620000e+001  1.250000e+001  0.000000e+000
    endloop
  endfacet
  facet normal  0.000000e+000  -0.000000e+000 -1.000000e+000
    outer loop
      vertex  1.427279e+001  1.122721e+001  0.000000e+000
      vertex  1.480000e+001  1.250000e+001  0.000000e+000
      vertex  3.620000e+001  1.250000e+001  0.000000e+000
    endloop
  endfacet
  facet normal  0.000000e+000  -0.000000e+000 -1.000000e+000
    outer loop
      vertex -1.200000e+001  1.070000e+001  0.000000e+000
      vertex -1.072721e+001  1.122721e+001  0.000000e+000
      vertex  1.120000e+001  1.250000e+001  0.000000e+000
    endloop
  endfacet
  facet normal  0.000000e+000  -0.000000e+000 -9.999999e-001
    outer loop
      vertex -1.072721e+001  1.122721e+001  0.000000e+000
      vertex -1.020000e+001  1.250000e+001  0.000000e+000
      vertex  1.120000e+001  1.250000e+001  0.000000e+000
    endloop
  endfacet
  facet normal  0.000000e+000  -0.000000e+000 -1.000000e+000
    outer loop
      vertex -3.700000e+001  1.070000e+001  0.000000e+000
      vertex -3.572721e+001  1.122721e+001  0.000000e+000
      vertex -1.380000e+001  1.250000e+001  0.000000e+000
    endloop
  endfacet
  facet normal  0.000000e+000  -0.000000e+000 -1.000000e+000
    outer loop
      vertex -3.572721e+001  1.122721e+001  0.000000e+000
      vertex -3.520000e+001  1.250000e+001  0.000000e+000
      vertex -1.380000e+001  1.250000e+001  0.000000e+000
    endloop
  endfacet
  facet normal  0.000000e+000  0.000000e+000 -1.000000e+000
    outer loop
      vertex -1.200000e+001  1.430000e+001  0.000000e+000
      vertex  1.120000e+001  1.250000e+001  0.000000e+000
      vertex -1.072721e+001  1.377279e+001  0.000000e+000
    endloop
  endfacet
  facet normal  0.000000e+000  0.000000e+000 -9.999999e-001
    outer loop
      vertex -1.072721e+001  1.377279e+001  0.000000e+000
      vertex  1.120000e+001  1.250000e+001  0.000000e+000
      vertex -1.020000e+001  1.250000e+001  0.000000e+000
    endloop
  endfacet
  facet normal  0.000000e+000  0.000000e+000 -1.000000e+000
    outer loop
      vertex -3.700000e+001  1.430000e+001  0.000000e+000
      vertex -1.380000e+001  1.250000e+001  0.000000e+000
      vertex -3.572721e+001  1.377279e+001  0.000000e+000
    endloop
  endfacet
  facet normal  0.000000e+000  0.000000e+000 -1.000000e+000
    outer loop
      vertex -3.572721e+001  1.377279e+001  0.000000e+000
      vertex -1.380000e+001  1.250000e+001  0.000000e+000
      vertex -3.520000e+001  1.250000e+001  0.000000e+000
    endloop
  endfacet
  facet normal  -0.000000e+000  0.000000e+000 -1.000000e+000
    outer loop
      vertex -7.600000e+001  2.000000e+001  0.000000e+000
      vertex  1.300000e+001  1.430000e+001  0.000000e+000
      vertex  1.172721e+001  1.377279e+001  0.000000e+000
    endloop
  endfacet
  facet normal  -0.000000e+000  0.000000e+000 -9.999999e-001
    outer loop
      vertex -7.600000e+001  2.000000e+001  0.000000e+000
      vertex  1.172721e+001  1.377279e+001  0.000000e+000
      vertex  1.120000e+001  1.250000e+001  0.000000e+000
    endloop
  endfacet
  facet normal  0.000000e+000  0.000000e+000 -1.000000e+000
    outer loop
      vertex -7.600000e+001  2.000000e+001  0.000000e+000
      vertex  1.120000e+001  1.250000e+001  0.000000e+000
      vertex -1.200000e+001  1.430000e+001  0.000000e+000
    endloop
  endfacet
  facet normal  -0.000000e+000  0.000000e+000 -9.999999e-001
    outer loop
      vertex -7.600000e+001  2.000000e+001  0.000000e+000
      vertex -1.200000e+001  1.430000e+001  0.000000e+000
      vertex -1.327279e+001  1.377279e+001  0.000000e+000
    endloop
  endfacet
  facet normal  -0.000000e+000  0.000000e+000 -1.000000e+000
    outer loop
      vertex -7.600000e+001  2.000000e+001  0.000000e+000
      vertex -1.327279e+001  1.377279e+001  0.000000e+000
      vertex -1.380000e+001  1.250000e+001  0.000000e+000
    endloop
  endfacet
  facet normal  0.000000e+000  0.000000e+000 -9.999999e-001
    outer loop
      vertex -7.600000e+001  2.000000e+001  0.000000e+000
      vertex -1.380000e+001  1.250000e+001  0.000000e+000
      vertex -3.700000e+001  1.430000e+001  0.000000e+000
    endloop
  endfacet
  facet normal  -0.000000e+000  0.000000e+000 -1.000000e+000
    outer loop
      vertex -7.600000e+001  2.000000e+001  0.000000e+000
      vertex -3.700000e+001  1.430000e+001  0.000000e+000
      vertex -3.827279e+001  1.377279e+001  0.000000e+000
    endloop
  endfacet
  facet normal  -0.000000e+000  0.000000e+000 -1.000000e+000
    outer loop
      vertex -7.600000e+001  2.000000e+001  0.000000e+000
      vertex -3.827279e+001  1.377279e+001  0.000000e+000
      vertex -3.880000e+001  1.250000e+001  0.000000e+000
    endloop
  endfacet
  facet normal  0.000000e+000  0.000000e+000 -1.000000e+000
    outer loop
      vertex -7.600000e+001  0.000000e+000  0.000000e+000
      vertex -7.600000e+001  2.000000e+001  0.000000e+000
      vertex -3.880000e+001  1.250000e+001  0.000000e+000
    endloop
  endfacet
  facet normal  0.000000e+000  -0.000000e+000 -9.999999e-001
    outer loop
      vertex -7.600000e+001  0.000000e+000  0.000000e+000
      vertex -3.880000e+001  1.250000e+001  0.000000e+000
      vertex -3.827279e+001  1.122721e+001  0.000000e+000
    endloop
  endfacet
  facet normal  0.000000e+000  -0.000000e+000 -1.000000e+000
    outer loop
      vertex -7.600000e+001  0.000000e+000  0.000000e+000
      vertex -3.827279e+001  1.122721e+001  0.000000e+000
      vertex -3.700000e+001  1.070000e+001  0.000000e+000
    endloop
  endfacet
  facet normal  0.000000e+000  -0.000000e+000 -1.000000e+000
    outer loop
      vertex -7.600000e+001  0.000000e+000  0.000000e+000
      vertex -3.700000e+001  1.070000e+001  0.000000e+000
      vertex -1.380000e+001  1.250000e+001  0.000000e+000
    endloop
  endfacet
  facet normal  0.000000e+000  -0.000000e+000 -1.000000e+000
    outer loop
      vertex -7.600000e+001  0.000000e+000  0.000000e+000
      vertex -1.380000e+001  1.250000e+001  0.000000e+000
      vertex -1.327279e+001  1.122721e+001  0.000000e+000
    endloop
  endfacet
  facet normal  0.000000e+000  -0.000000e+000 -1.000000e+000
    outer loop
      vertex -7.600000e+001  0.000000e+000  0.000000e+000
      vertex -1.327279e+001  1.122721e+001  0.000000e+000
      vertex -1.200000e+001  1.070000e+001  0.000000e+000
    endloop
  endfacet
  facet normal  0.000000e+000  -0.000000e+000 -1.000000e+000
    outer loop
      vertex -7.600000e+001  0.000000e+000  0.000000e+000
      vertex -1.200000e+001  1.070000e+001  0.000000e+000
      vertex  1.120000e+001  1.250000e+001  0.000000e+000
    endloop
  endfacet
  facet normal  0.000000e+000  -0.000000e+000 -1.000000e+000
    outer loop
      vertex -7.600000e+001  0.000000e+000  0.000000e+000
      vertex  1.120000e+001  1.250000e+001  0.000000e+000
      vertex  1.172721e+001  1.122721e+001  0.000000e+000
    endloop
  endfacet
  facet normal  0.000000e+000  -0.000000e+000 -1.000000e+000
    outer loop
      vertex -7.600000e+001  0.000000e+000  0.000000e+000
      vertex  1.172721e+001  1.122721e+001  0.000000e+000
      vertex  1.300000e+001  1.070000e+001  0.000000e+000
    endloop
  endfacet
  facet normal  0.000000e+000  -0.000000e+000 -1.000000e+000
    outer loop
      vertex -7.600000e+001  0.000000e+000  0.000000e+000
      vertex  1.300000e+001  1.070000e+001  0.000000e+000
      vertex  3.620000e+001  1.250000e+001  0.000000e+000
    endloop
  endfacet
  facet normal  0.000000e+000  -0.000000e+000 -1.000000e+000
    outer loop
      vertex -7.600000e+001  0.000000e+000  0.000000e+000
      vertex  3.620000e+001  1.250000e+001  0.000000e+000
      vertex  3.672721e+001  1.122721e+001  0.000000e+000
    endloop
  endfacet
  facet normal  0.000000e+000  -0.000000e+000 -1.000000e+000
    outer loop
      vertex -7.600000e+001  0.000000e+000  0.000000e+000
      vertex  3.672721e+001  1.122721e+001  0.000000e+000
      vertex  3.800000e+001  1.070000e+001  0.000000e+000
    endloop
  endfacet
  facet normal  0.000000e+000  -0.000000e+000 -1.000000e+000
    outer loop
      vertex -7.600000e+001  0.000000e+000  0.000000e+000
      vertex  3.800000e+001  1.070000e+001  0.000000e+000
      vertex  7.600000e+001  0.000000e+000  0.000000e+000
    endloop
  endfacet
  facet normal  0.000000e+000  0.000000e+000 -1.000000e+000
    outer loop
      vertex  7.600000e+001  0.000000e+000  0.000000e+000
      vertex  3.800000e+001  1.070000e+001  0.000000e+000
      vertex  3.927279e+001  1.122721e+001  0.000000e+000
    endloop
  endfacet
  facet normal  0.000000e+000  0.000000e+000 -1.000000e+000
    outer loop
      vertex  7.600000e+001  0.000000e+000  0.000000e+000
      vertex  3.927279e+001  1.122721e+001  0.000000e+000
      vertex  3.980000e+001  1.250000e+001  0.000000e+000
    endloop
  endfacet
  facet normal  0.000000e+000  0.000000e+000 -1.000000e+000
    outer loop
      vertex  7.600000e+001  0.000000e+000  0.000000e+000
      vertex  3.980000e+001  1.250000e+001  0.000000e+000
      vertex  7.600000e+001  2.000000e+001  0.000000e+000
    endloop
  endfacet
  facet normal  0.000000e+000  0.000000e+000 -1.000000e+000
    outer loop
      vertex  7.600000e+001  2.000000e+001  0.000000e+000
      vertex  3.980000e+001  1.250000e+001  0.000000e+000
      vertex  3.927279e+001  1.377279e+001  0.000000e+000
    endloop
  endfacet
  facet normal  0.000000e+000  0.000000e+000 -9.999999e-001
    outer loop
      vertex  7.600000e+001  2.000000e+001  0.000000e+000
      vertex  3.927279e+001  1.377279e+001  0.000000e+000
      vertex  3.800000e+001  1.430000e+001  0.000000e+000
    endloop
  endfacet
  facet normal  0.000000e+000  0.000000e+000 -1.000000e+000
    outer loop
      vertex  7.600000e+001  2.000000e+001  0.000000e+000
      vertex  3.800000e+001  1.430000e+001  0.000000e+000
      vertex -7.600000e+001  2.000000e+001  0.000000e+000
    endloop
  endfacet
  facet normal  0.000000e+000  0.000000e+000 -1.000000e+000
    outer loop
      vertex -7.600000e+001  2.000000e+001  0.000000e+000
      vertex  3.800000e+001  1.430000e+001  0.000000e+000
      vertex  1.300000e+001  1.430000e+001  0.000000e+000
    endloop
  endfacet
  facet normal  0.000000e+000  0.000000e+000 -1.000000e+000
    outer loop
      vertex  1.300000e+001  1.430000e+001  0.000000e+000
      vertex  3.800000e+001  1.430000e+001  0.000000e+000
      vertex  3.672721e+001  1.377279e+001  0.000000e+000
    endloop
  endfacet
  facet normal  0.000000e+000  0.000000e+000 -1.000000e+000
    outer loop
      vertex  1.300000e+001  1.430000e+001  0.000000e+000
      vertex  3.672721e+001  1.377279e+001  0.000000e+000
      vertex  1.427279e+001  1.377279e+001  0.000000e+000
    endloop
  endfacet
  facet normal  0.000000e+000  0.000000e+000 -9.999999e-001
    outer loop
      vertex  1.427279e+001  1.377279e+001  0.000000e+000
      vertex  3.672721e+001  1.377279e+001  0.000000e+000
      vertex  3.620000e+001  1.250000e+001  0.000000e+000
    endloop
  endfacet
  facet normal  0.000000e+000  0.000000e+000 -1.000000e+000
    outer loop
      vertex  1.427279e+001  1.377279e+001  0.000000e+000
      vertex  3.620000e+001  1.250000e+001  0.000000e+000
      vertex  1.480000e+001  1.250000e+001  0.000000e+000
    endloop
  endfacet
  facet normal  1.000000e+000  -0.000000e+000  0.000000e+000
    outer loop
      vertex  7.600000e+001  1.500000e+000  2.000000e+001
      vertex  7.600000e+001  6.217249e-015  2.000000e+001
      vertex  7.600000e+001  1.500000e+000  1.500000e+000
    endloop
  endfacet
  facet normal  1.000000e+000  0.000000e+000  0.000000e+000
    outer loop
      vertex  7.600000e+001  1.500000e+000  1.500000e+000
      vertex  7.600000e+001  6.217249e-015  2.000000e+001
      vertex  7.600000e+001  0.000000e+000  0.000000e+000
    endloop
  endfacet
  facet normal  1.000000e+000  0.000000e+000  0.000000e+000
    outer loop
      vertex  7.600000e+001  1.500000e+000  1.500000e+000
      vertex  7.600000e+001  0.000000e+000  0.000000e+000
      vertex  7.600000e+001  2.000000e+001  1.500000e+000
    endloop
  endfacet
  facet normal  1.000000e+000  0.000000e+000  0.000000e+000
    outer loop
      vertex  7.600000e+001  2.000000e+001  1.500000e+000
      vertex  7.600000e+001  0.000000e+000  0.000000e+000
      vertex  7.600000e+001  2.000000e+001  0.000000e+000
    endloop
  endfacet
  facet normal -1.000000e+000  0.000000e+000  0.000000e+000
    outer loop
      vertex -7.600000e+001  1.500000e+000  2.000000e+001
      vertex -7.600000e+001  1.500000e+000  1.500000e+000
      vertex -7.600000e+001  6.217249e-015  2.000000e+001
    endloop
  endfacet
  facet normal -1.000000e+000  0.000000e+000  -0.000000e+000
    outer loop
      vertex -7.600000e+001  6.217249e-015  2.000000e+001
      vertex -7.600000e+001  1.500000e+000  1.500000e+000
      vertex -7.600000e+001  0.000000e+000  0.000000e+000
    endloop
  endfacet
  facet normal -1.000000e+000  -0.000000e+000  0.000000e+000
    outer loop
      vertex -7.600000e+001  1.500000e+000  1.500000e+000
      vertex -7.600000e+001  2.000000e+001  1.500000e+000
      vertex -7.600000e+001  0.000000e+000  0.000000e+000
    endloop
  endfacet
  facet normal -1.000000e+000  0.000000e+000  0.000000e+000
    outer loop
      vertex -7.600000e+001  0.000000e+000  0.000000e+000
      vertex -7.600000e+001  2.000000e+001  1.500000e+000
      vertex -7.600000e+001  2.000000e+001  0.000000e+000
    endloop
  endfacet
  facet normal  0.000000e+000 -1.000000e+000  3.108625e-016
    outer loop
      vertex -7.600000e+001  6.217249e-015  2.000000e+001
      vertex -7.600000e+001  0.000000e+000  0.000000e+000
      vertex  7.600000e+001  6.217249e-015  2.000000e+001
    endloop
  endfacet
  facet normal  0.000000e+000 -1.000000e+000  3.108625e-016
    outer loop
      vertex  7.600000e+001  6.217249e-015  2.000000e+001
      vertex -7.600000e+001  0.000000e+000  0.000000e+000
      vertex  7.600000e+001  0.000000e+000  0.000000e+000
    endloop
  endfacet
  facet normal  0.000000e+000  0.000000e+000  1.000000e+000
    outer loop
      vertex -7.600000e+001  1.500000e+000  2.000000e+001
      vertex -7.600000e+001  6.217249e-015  2.000000e+001
      vertex  7.600000e+001  1.500000e+000  2.000000e+001
    endloop
  endfacet
  facet normal  0.000000e+000  0.000000e+000  1.000000e+000
    outer loop
      vertex  7.600000e+001  1.500000e+000  2.000000e+001
      vertex -7.600000e+001  6.217249e-015  2.000000e+001
      vertex  7.600000e+001  6.217249e-015  2.000000e+001
    endloop
  endfacet
  facet normal  0.000000e+000  1.000000e+000  0.000000e+000
    outer loop
      vertex -7.600000e+001  1.500000e+000  1.500000e+000
      vertex -7.600000e+001  1.500000e+000  2.000000e+001
      vertex  7.600000e+001  1.500000e+000  1.500000e+000
    endloop
  endfacet
  facet normal  0.000000e+000  1.000000e+000  -0.000000e+000
    outer loop
      vertex  7.600000e+001  1.500000e+000  1.500000e+000
      vertex -7.600000e+001  1.500000e+000  2.000000e+001
      vertex  7.600000e+001  1.500000e+000  2.000000e+001
    endloop
  endfacet
  facet normal  0.000000e+000  1.000000e+000  0.000000e+000
    outer loop
      vertex -7.600000e+001  2.000000e+001  0.000000e+000
      vertex -7.600000e+001  2.000000e+001  1.500000e+000
      vertex  7.600000e+001  2.000000e+001  0.000000e+000
    endloop
  endfacet
  facet normal  0.000000e+000  1.000000e+000  -0.000000e+000
    outer loop
      vertex  7.600000e+001  2.000000e+001  0.000000e+000
      vertex -7.600000e+001  2.000000e+001  1.500000e+000
      vertex  7.600000e+001  2.000000e+001  1.500000e+000
    endloop
  endfacet
endsolid CATIA STL
